<svg width="48" height="48" fill="none" xmlns="http://www.w3.org/2000/svg"><path fill="#B1BEFF" d="M41.22 26.115V27.4h-9.31v-1.284z"/><path fill="#7A8EF6" d="M6.78 18.869v1.284h9.312v-1.284z"/><circle cx="43.95" cy="26.704" r="1.338" transform="rotate(90 43.95 26.704)" fill="#B1BEFF"/><circle r="1.338" transform="matrix(0 1 1 0 4.05 19.457)" fill="#7A8EF6"/><circle cx="43.95" cy="26.703" r="2.778" transform="rotate(90 43.95 26.703)" stroke="#B1BEFF" stroke-width=".545"/><circle r="2.778" transform="matrix(0 1 1 0 4.05 19.458)" stroke="#7A8EF6" stroke-width=".545"/><path d="M23.48 41.837c1.017-.492 4.763-2.612 9.216-7.792-.118 0-.225.01-.343.01a22.4 22.4 0 01-2.494-.149 23.517 23.517 0 01-3.639-.696 29.051 29.051 0 01-3.05-.984v9.665a.642.642 0 00.31-.054z" fill="#7A8EF6"/><path d="M37.898 9.586h0a.47.47 0 00-.548-.43 12.241 12.241 0 01-.604.108h0a22.534 22.534 0 01-3.709.292s0 0 0 0l.001-.16c-.214 0-.423-.006-.634-.016l5.494.206zm0 0v.001c.06.943.14 2.775.104 5.033m-.104-5.034l.104 5.034m0 0a16.024 16.024 0 00-.263-.301m.263.301l-.263-.3v-.001m0 0a37.858 37.858 0 00-4.59-4.353h0v-.001h0l-.527-.416 5.117 4.77z" fill="#7A8EF6" stroke="url(#paint0_linear_277_3000)" stroke-width=".321"/><path d="M24.197 6.72c-.15-.129-.31-.236-.46-.364-.15-.118-.29-.268-.493-.279-.032 0-.053 0-.085.011v23.034a30.602 30.602 0 003.939 1.498c2.087.62 4.078.942 5.897.942.15 0 .3 0 .439-.01.428-.011.845-.054 1.252-.108 2.312-3.714 3.136-9.408 3.382-14.16-9.75-7.396-13.603-10.34-13.871-10.564zm-4.645 23.878l-.385-.203h-.022l-.374-.214-.225-.129c-.171-.096-.353-.203-.535-.3l-.739-.438h-.021l-.717-.46a39.552 39.552 0 01-2.751-2.002 38.766 38.766 0 01-2.494-2.226c-.182-.171-.364-.364-.578-.589l-.546-.588a7.084 7.084 0 01-.385-.44c-.054-.064-.107-.117-.16-.181l-.268-.3-.01-.01v-.011l-.258-.31c-.128-.161-.257-.311-.374-.472.535 4.046 1.616 8.135 3.714 10.768 5.04 6.304 9.397 8.809 10.51 9.365a.85.85 0 00.236.064v-9.665c-.129-.053-.257-.096-.386-.15a43.153 43.153 0 01-3.232-1.509z" fill="#B1BEFF"/><path d="M22.156 7.09l.002-.002c.252-.179.494-.367.733-.564v22.162a33.138 33.138 0 01-1.551-.794h-.001a32.148 32.148 0 01-2.664-1.614 42.491 42.491 0 01-2.488-1.828 38.19 38.19 0 01-2.273-1.997h0a30.714 30.714 0 01-2.026-2.154c-1.313-1.535-2.358-3.12-3.118-4.711l-.143-.319-.122-.27c-.04-2.43.044-4.412.108-5.404h0v-.002a.356.356 0 01.424-.319c1.243.227 2.52.368 3.788.39a18.66 18.66 0 003.203-.218h.002c.88-.141 1.76-.348 2.61-.63a13.893 13.893 0 002.038-.85 11.192 11.192 0 001.478-.877z" fill="#7A8EF6" stroke="url(#paint1_linear_277_3000)" stroke-width=".535"/><defs><linearGradient id="paint0_linear_277_3000" x1="35.092" y1="8.753" x2="35.144" y2="15.057" gradientUnits="userSpaceOnUse"><stop stop-color="#fff"/><stop offset=".231" stop-color="#fff" stop-opacity="0"/></linearGradient><linearGradient id="paint1_linear_277_3000" x1="8.816" y1="6.078" x2="18.663" y2="24.702" gradientUnits="userSpaceOnUse"><stop offset=".12" stop-color="#fff"/><stop offset=".382" stop-color="#fff" stop-opacity="0"/></linearGradient></defs></svg>