<svg width="467" height="581" fill="none" xmlns="http://www.w3.org/2000/svg"><g clip-path="url(#clip0_124_7403)" opacity=".44"><g filter="url(#filter0_f_124_7403)"><ellipse cx="196.5" cy="234" rx="211" ry="99.5" transform="rotate(90 196.5 234)" fill="#7A8EF6"/></g><rect x="138.106" y="-350.55" width="156.202" height="728.944" rx="78.101" transform="rotate(-45 138.106 -350.55)" fill="url(#paint0_linear_124_7403)"/><rect x="367.259" y="-387.702" width="99.418" height="728.944" rx="49.709" transform="rotate(-45 367.259 -387.702)" fill="url(#paint1_linear_124_7403)"/><rect x="-296.237" y="-514.894" width="156.202" height="1003.79" rx="78.101" transform="rotate(-45 -296.237 -514.894)" fill="url(#paint2_linear_124_7403)"/><rect x="-269.698" y="-252.624" width="136.298" height="1396.28" rx="68.149" transform="rotate(-45 -269.698 -252.624)" fill="url(#paint3_linear_124_7403)"/><rect x="-218.095" y="154.602" width="170.432" height="1073.34" rx="78.101" transform="rotate(-45 -218.095 154.602)" fill="url(#paint4_linear_124_7403)"/></g><defs><linearGradient id="paint0_linear_124_7403" x1="216.208" y1="-350.55" x2="216.208" y2="378.394" gradientUnits="userSpaceOnUse"><stop stop-color="#1B135B" stop-opacity="0"/><stop offset=".334" stop-color="#1A1352"/></linearGradient><linearGradient id="paint1_linear_124_7403" x1="416.968" y1="-387.702" x2="416.968" y2="341.242" gradientUnits="userSpaceOnUse"><stop stop-color="#1B135B" stop-opacity="0"/><stop offset=".334" stop-color="#1A1352"/></linearGradient><linearGradient id="paint2_linear_124_7403" x1="-218.136" y1="-514.894" x2="-218.136" y2="488.894" gradientUnits="userSpaceOnUse"><stop stop-color="#150E48"/><stop offset="1" stop-color="#1B135B" stop-opacity="0"/></linearGradient><linearGradient id="paint3_linear_124_7403" x1="-201.549" y1="-252.624" x2="-201.549" y2="1143.66" gradientUnits="userSpaceOnUse"><stop stop-color="#130D42"/><stop offset="1" stop-color="#1B135B" stop-opacity="0"/></linearGradient><linearGradient id="paint4_linear_124_7403" x1="-132.879" y1="154.602" x2="-132.879" y2="1227.94" gradientUnits="userSpaceOnUse"><stop stop-color="#1B135B" stop-opacity="0"/><stop offset=".334" stop-color="#1A1352"/></linearGradient><clipPath id="clip0_124_7403"><rect x="467" width="581" height="467" rx="10" transform="rotate(90 467 0)" fill="#fff"/></clipPath><filter id="filter0_f_124_7403" x="-103" y="-177" width="599" height="822" filterUnits="userSpaceOnUse" color-interpolation-filters="sRGB"><feFlood flood-opacity="0" result="BackgroundImageFix"/><feBlend in="SourceGraphic" in2="BackgroundImageFix" result="shape"/><feGaussianBlur stdDeviation="100" result="effect1_foregroundBlur_124_7403"/></filter></defs></svg>