<svg width="1440" height="765" fill="none" xmlns="http://www.w3.org/2000/svg"><g clip-path="url(#clip0_124_7536)"><path fill="url(#paint0_linear_124_7536)" d="M-91.34 0h1723.91v782.736H-91.34z"/><rect x="383.329" y="485.832" width="184.691" height="861.889" rx="92.345" transform="rotate(-135 383.329 485.832)" fill="url(#paint1_linear_124_7536)"/><rect x="-159.047" y="712.512" width="184.691" height="929.971" rx="92.345" transform="rotate(-135 -159.047 712.512)" fill="url(#paint2_linear_124_7536)"/><rect x="-124.007" y="356.857" width="166.162" height="861.889" rx="83.081" transform="rotate(-135 -124.007 356.857)" fill="url(#paint3_linear_124_7536)"/><rect x="339.401" y="214.887" width="117.551" height="861.889" rx="58.775" transform="rotate(-135 339.401 214.887)" fill="url(#paint4_linear_124_7536)"/><rect x="-252.972" y="210.157" width="117.551" height="861.889" rx="58.775" transform="rotate(-135 -252.972 210.157)" fill="url(#paint5_linear_124_7536)"/><rect x="189.012" y="999.392" width="184.691" height="1186.86" rx="92.345" transform="rotate(-135 189.012 999.392)" fill="url(#paint6_linear_124_7536)"/><rect x="499.114" y="968.013" width="161.156" height="1650.94" rx="80.578" transform="rotate(-135 499.114 968.013)" fill="url(#paint7_linear_124_7536)"/><rect x="980.611" y="906.997" width="201.515" height="1269.09" rx="92.345" transform="rotate(-135 980.611 906.997)" fill="url(#paint8_linear_124_7536)"/></g><defs><linearGradient id="paint0_linear_124_7536" x1="136.268" y1="217.558" x2="1386.64" y2="601.831" gradientUnits="userSpaceOnUse"><stop stop-color="#130D3A"/><stop offset="1" stop-color="#312587"/></linearGradient><linearGradient id="paint1_linear_124_7536" x1="475.674" y1="485.832" x2="475.674" y2="1347.72" gradientUnits="userSpaceOnUse"><stop stop-color="#1B135B" stop-opacity="0"/><stop offset=".334" stop-color="#1A1352"/></linearGradient><linearGradient id="paint2_linear_124_7536" x1="-66.702" y1="712.512" x2="-66.702" y2="1642.48" gradientUnits="userSpaceOnUse"><stop stop-color="#1B135B" stop-opacity="0"/><stop offset=".334" stop-color="#1A1352"/></linearGradient><linearGradient id="paint3_linear_124_7536" x1="-40.926" y1="356.857" x2="-40.926" y2="1218.75" gradientUnits="userSpaceOnUse"><stop stop-color="#1B135B" stop-opacity="0"/><stop offset=".334" stop-color="#1A1352"/></linearGradient><linearGradient id="paint4_linear_124_7536" x1="398.177" y1="214.887" x2="398.177" y2="1076.78" gradientUnits="userSpaceOnUse"><stop stop-color="#1B135B" stop-opacity="0"/><stop offset=".334" stop-color="#1A1352"/></linearGradient><linearGradient id="paint5_linear_124_7536" x1="-194.197" y1="210.157" x2="-194.197" y2="1072.05" gradientUnits="userSpaceOnUse"><stop stop-color="#1B135B" stop-opacity="0"/><stop offset=".334" stop-color="#1A1352"/></linearGradient><linearGradient id="paint6_linear_124_7536" x1="281.357" y1="999.392" x2="281.357" y2="2186.25" gradientUnits="userSpaceOnUse"><stop stop-color="#150E48"/><stop offset="1" stop-color="#1B135B" stop-opacity="0"/></linearGradient><linearGradient id="paint7_linear_124_7536" x1="579.692" y1="968.013" x2="579.692" y2="2618.95" gradientUnits="userSpaceOnUse"><stop stop-color="#130D42"/><stop offset="1" stop-color="#1B135B" stop-opacity="0"/></linearGradient><linearGradient id="paint8_linear_124_7536" x1="1081.37" y1="906.997" x2="1081.37" y2="2176.09" gradientUnits="userSpaceOnUse"><stop stop-color="#1B135B" stop-opacity="0"/><stop offset=".334" stop-color="#1A1352"/></linearGradient><clipPath id="clip0_124_7536"><path fill="#fff" transform="translate(-141)" d="M0 0h1766.48v765H0z"/></clipPath></defs></svg>