<svg width="144" height="47" fill="none" xmlns="http://www.w3.org/2000/svg"><path d="M23.874 0c6.608.024 13.429 1.584 20.44 4.705l.33.142.12.33v.024a60.588 60.588 0 011.468 5.178 56.79 56.79 0 01.97 5.177c.332 2.27.522 4.516.57 6.786v2.647c-.143 5.722-1.138 11.443-3.009 17.164l-.118.331-.332.142C37.682 45.558 31.026 47 24.395 47h-.521v-1.608h.52c6.3 0 12.624-1.347 18.948-4.09 2.748-8.51 3.505-17.022 2.274-25.533a55.405 55.405 0 00-.971-5.036 57.989 57.989 0 00-1.303-4.704C36.64 3.097 30.15 1.63 23.874 1.608V0zM4.429 4.728C10.634 1.56 17.076 0 23.732 0h.142v1.608h-.142c-6.324 0-12.41 1.465-18.308 4.42-2.392 5.675-3.742 11.443-3.813 17.33-.095 5.84 1.113 11.821 3.789 17.92 6.158 2.672 12.316 4.043 18.474 4.114V47c-6.466-.07-12.932-1.513-19.398-4.374l-.426-.402C1.303 36.078.024 30.025 0 24.091v-.757c.071-6.17 1.516-12.246 4.05-18.204l.379-.402z" fill="#3841B2"/><path fill-rule="evenodd" clip-rule="evenodd" d="M24.3 36.621c-.332-4.515-.118-9.22-1.468-13.523-1.256-4.019-6.016-6.312-6.111-10.733-.095-3.452 2.534-7.448 7.46-7.448 4.619-.023 7.485 3.334 7.816 7.07.403 4.326-4.855 7.234-6.229 11.347-1.42 4.209-1.018 8.866-1.468 13.287z" fill="#3841B2"/><path fill-rule="evenodd" clip-rule="evenodd" d="M26.124 35.534c-.19-3.925-.19-7.684.9-11.017 1.207-3.783 3.718-6.975 7.555-8.015 2.629-.71 6.49 2.364 5.874 5.509-.522 2.53-3.056 5.508-7.13 5.839-1.894.165-2.7 1.679-3.884 2.553 5.306-.52 8.74-2.6 11.132-4.775.355 1.844.592 4.94-.853 6.005-2.842 2.01-5.47.378-8.81 1.324-1.871.543-3.032 1.725-4.784 2.577zm-3.624 0c.213-3.925.19-7.684-.876-11.017-1.208-3.783-3.719-6.975-7.556-8.015-2.628-.71-6.513 2.364-5.873 5.509.52 2.53 3.055 5.508 7.129 5.839 1.87.165 2.7 1.679 3.884 2.553-5.33-.52-8.74-2.6-11.132-4.775-.355 1.844-.592 4.94.853 6.005 2.842 2.01 5.471.378 8.81 1.324 1.871.543 3.008 1.725 4.761 2.577zm12.624 5.839v-.638l.473-.118-.473-.71v-1.182l2.131 2.956-.758.189-.52-.733-.853.236zm0-2.648v1.182l-.332-.472-.142 1.418.474-.118v.638l-.545.119-.095.874-.758.19.498-3.854.758-.19.142.213zm-7.058 4.705v-.615h.166c.26-.023.426-.047.497-.07a.475.475 0 00.332-.473c-.024-.119-.048-.213-.119-.284-.047-.071-.142-.118-.237-.142-.095-.023-.308-.023-.64 0v-.615c.19 0 .309-.023.356-.023a.569.569 0 00.284-.166c.071-.07.095-.165.071-.283 0-.119-.047-.213-.118-.26-.048-.071-.142-.119-.284-.119-.048 0-.142 0-.308.024v-.615c.26-.023.45-.023.568 0 .142 0 .284.047.403.118.118.048.213.142.308.26.07.119.118.26.142.426a.854.854 0 01-.45.828c.237.047.426.141.545.283a.819.819 0 01.236.52c0 .166-.023.331-.07.497a1.234 1.234 0 01-.285.402 1.447 1.447 0 01-.474.213c-.118.023-.426.047-.876.094h-.047zm4.476-1.986l.734.095c-.047.402-.166.733-.379.97a1.709 1.709 0 01-.9.448c-.473.071-.9-.023-1.255-.283-.379-.284-.592-.686-.71-1.253-.095-.591-.024-1.088.236-1.466.237-.378.616-.615 1.114-.71.45-.07.805 0 1.136.213.19.119.356.308.474.591l-.687.284a.749.749 0 00-.331-.378c-.166-.095-.332-.118-.521-.095a.877.877 0 00-.593.402c-.142.236-.165.544-.094.97.095.449.237.756.426.922a.8.8 0 00.687.189.822.822 0 00.45-.284c.118-.142.19-.355.213-.615zm-4.476-1.655v.615c-.095 0-.19.024-.308.024l-.426.047.07.827.498-.047c.047 0 .118 0 .166-.024v.615h-.024l-.568.047.07.97.522-.048v.615l-1.184.118-.332-3.617 1.445-.118c.023-.024.047-.024.07-.024zm-4.571 2.388v-.615c.165 0 .26-.023.331-.047.095-.023.166-.094.237-.165a.628.628 0 00.071-.284c.024-.142-.024-.236-.095-.331a.44.44 0 00-.284-.166c-.07 0-.142-.023-.26-.023v-.615c.355 0 .568.024.687.071a.871.871 0 01.52.355.999.999 0 01.19.709c0 .213-.047.402-.118.567-.095.142-.19.26-.308.355-.142.07-.26.118-.403.166-.142.023-.331.023-.568.023zm0-2.246v.615h-.285l-.355-.024v1.04h.64v.615h-.663l-.024 1.371-.734-.023.07-3.617 1.161.023h.19zm-6.845 1.892V40.71c.213.048.355.048.426.048a.452.452 0 00.237-.119.669.669 0 00.119-.26.45.45 0 00-.048-.307c-.047-.095-.142-.142-.26-.19-.048-.023-.213-.047-.474-.094v-.614l.308.047c.379.07.64.142.805.236a.793.793 0 01.355.426.983.983 0 01.048.59.956.956 0 01-.355.616c-.166.141-.427.212-.758.212.142.119.26.237.331.355.095.142.19.355.308.662l.308.78-.853-.165-.379-.875c-.047-.071-.07-.166-.118-.236zm2.084-2.246l.71.07-.165 1.963c-.024.307-.024.52-.024.59a.643.643 0 00.19.379c.118.118.26.166.473.19.214.023.38-.024.474-.095a.552.552 0 00.237-.284 6.45 6.45 0 00.071-.615l.166-2.01.734.072-.166 1.89c-.024.45-.07.757-.142.923a1.053 1.053 0 01-.237.425 1.026 1.026 0 01-.473.26c-.166.072-.403.072-.687.048-.355-.024-.616-.095-.782-.19a1.436 1.436 0 01-.402-.33 1.061 1.061 0 01-.166-.426 5.847 5.847 0 010-.922l.19-1.938zM12.98 40.64l.142-.59 1.54.401-.38 1.395c-.189.118-.426.19-.757.213a2.7 2.7 0 01-.877-.071c-.379-.095-.687-.26-.9-.473a1.681 1.681 0 01-.45-.827 2.35 2.35 0 01.048-.993c.095-.355.26-.662.497-.922.213-.237.497-.379.829-.45.26-.07.569-.047.9.048.426.118.758.283.947.543.19.237.285.544.26.875l-.733-.047a.741.741 0 00-.166-.496.945.945 0 00-.474-.284c-.308-.071-.568-.048-.805.094-.237.142-.403.426-.521.804-.119.426-.095.757.024 1.017.142.26.355.425.64.496.165.048.307.048.473.048.166-.024.308-.071.45-.119l.118-.449-.805-.213zm3.671-1.465l-1.232-.213-.615 3.57.71.118.26-1.49.167.024c.165.024.284.071.355.095.07.047.118.118.19.189.023.07.094.189.165.354v-1.11c-.071 0-.142-.024-.237-.024l-.52-.095.141-.898.569.094h.047v-.614zm112.878-4.421v-6.667h2.937V16.36l-2.937 5.863V7.59h11.534L144 41.302h-11.534v-6.548h-2.937zm0-27.165v14.634l-2.937 5.864h2.937v6.667h-5.542l-2.274 6.194h-7.153V33.24l7.982-17.187h-1.634l4.547-8.464h4.074zm-14.969 11.23l3.577-8.464-3.577-1.986v10.45zm-28.444-3.24a8.015 8.015 0 000-2.812v2.813zm28.444-7.21v10.45l-.473 1.135c-7.058-5.036-17.48-.45-18.071 4.87-.592 5.556 3.647 10.048 14.471 6.69l-3.719 9.93c-14.281 1.584-19.823-4.066-20.652-10.662v-3.736a20.4 20.4 0 011.279-4.965c7.034-17.447 18.45-13.523 22.784-13.854l.639-1.938 3.742 2.08zm0 24.871l-3.576 7.708h3.576V33.24zm-41.281 7.495c7.65-1.513 15.158-10.686 7.626-17.992 2.937-1.56 4.76-4.373 5.21-7.163v-2.813c-.52-2.908-2.77-5.273-7.01-5.343l-5.826-.119v6.478h2.416c2.581 0 2.25 6.667-.971 6.667h-1.445v5.107c3.481.662 2.25 5.485 0 6.974v8.204zm12.837-13.689v3.736a16.42 16.42 0 010-3.736zM63.189 7.093l-4.713 9.125 2.108-.165L54.9 40.948h16.271c.71 0 1.397-.071 2.108-.213V32.53c-.403.284-.853.45-1.303.45h-5.85l1.942-7.495h4.382c.308 0 .592.023.829.07V20.45h-4.074l1.634-6.667h2.44V7.305l-10.09-.212z" fill="#3841B2"/></svg>