<svg width="203" height="40" fill="none" xmlns="http://www.w3.org/2000/svg"><path d="M51.816.384c-.262.353-.477.584-.542.584-.014 0-.226-.06-.473-.13-1.123-.335-1.693-.41-2.794-.376-2.428.074-4.651.521-6.867 1.382a19.871 19.871 0 00-5.354 3.098 22.714 22.714 0 00-3.956 4.183c-1.926 2.685-3.249 5.825-3.74 8.882-.172 1.05-.215 1.632-.215 2.83-.004 1.174.025 1.576.179 2.5.89 5.43 4.375 9.188 9.672 10.428 1.463.343 3.6.536 5.042.462 1.463-.078 1.944-.141 3.392-.465.495-.108.994-.22 1.112-.243.258-.052.488-.182.606-.346.05-.067.197-.361.326-.66.133-.293 1-2.219 1.937-4.278 2.345-5.185 2.313-5.11 2.313-5.207 0-.049-.025-.097-.054-.108-.029-.015-.25.097-.513.26-.907.555-2.374 1.248-3.396 1.606-1.93.678-3.772.786-5.594.32-2.033-.518-3.44-1.601-4.314-3.318-.692-1.364-.882-2.771-.578-4.34.545-2.837 2.073-5.001 4.404-6.234a9.359 9.359 0 013.357-1.054c.61-.074 2.33-.063 2.85.019 1.744.283 3.253.93 4.71 2.026.627.473.67.491.792.354.129-.153 4.683-8.779 4.683-8.88 0-.07-.035-.13-.122-.197-.064-.052-1.079-.618-2.248-1.262C52.554.097 52.368 0 52.228 0c-.118 0-.143.022-.412.384zM8.48.223a.83.83 0 00-.43.324c-.05.079-.401.771-.781 1.539a776.76 776.76 0 01-1.804 3.612C4.052 8.521 3.467 9.732 3.467 9.851c0 .048.029.104.065.127.032.018.495.037 1.022.044.95.015.965.015 1.03.1.082.105.143-.182-.754 3.398-.656 2.625-1.994 7.996-3.977 15.977-.434 1.75-.803 3.263-.814 3.36-.043.324-.89.294 8.201.279 7.506-.008 8.073-.015 8.424-.075 2.299-.402 3.862-1.009 5.487-2.13 1.22-.842 2.442-2.09 3.181-3.24a9.682 9.682 0 001.43-3.762c.076-.506.108-1.832.055-2.428-.083-.95-.244-1.784-.46-2.376-.458-1.274-1.301-2.242-2.517-2.894-.19-.1-.366-.209-.39-.235-.044-.037.039-.104.469-.369 1.775-1.098 3.116-2.387 4.12-3.951 1.198-1.866 1.636-3.814 1.302-5.78-.37-2.183-1.531-3.78-3.442-4.741-.944-.473-1.747-.708-3.067-.902C22.47.201 8.638.171 8.481.223zm9.97 8.79c.753.082 1.166.331 1.402.857.086.186.094.245.094.689 0 .562-.076.89-.305 1.378-.33.692-.907 1.17-1.686 1.396-.577.164-.839.187-2.32.187-.771 0-1.427-.012-1.46-.023-.082-.033-.071-.16.065-.804l.434-2.004c.19-.886.334-1.471.373-1.527.125-.183.143-.186 1.639-.186.774 0 1.567.018 1.764.037zm-1.893 10.518c.839.167 1.452.763 1.667 1.623.111.433.04 1.055-.18 1.583-.268.648-.939 1.278-1.72 1.606-.81.346-1.266.394-3.343.38-1.427-.012-1.592-.02-1.646-.075-.072-.075-.107.097.667-2.994.477-1.904.506-2.012.614-2.112l.11-.108 1.765.018c1.43.015 1.818.026 2.066.079zM63.55.257c-.173.082-.237.171-.445.6-.083.175-.223.443-.305.595-.294.537-3.895 7.423-4.034 7.714-.148.301-.176.454-.097.506.021.015.53.037 1.126.049.94.014 1.09.026 1.144.078.053.06.021.13-.41 1.005-.889 1.81-2.603 5.311-5.816 11.896-4.777 9.791-4.938 10.123-4.963 10.23-.014.068-.004.12.036.157.05.052.591.06 5.433.06 3.643 0 5.404-.011 5.45-.037a.663.663 0 00.155-.216c.09-.187 1.072-2.6 1.671-4.108.373-.943.42-1.04.588-1.166.097-.078.133-.078 3.224-.09 1.721-.003 3.181 0 3.242.012.068.01.136.056.161.104.036.063.05.693.065 2.715.018 2.466.021 2.637.082 2.7.061.064.316.067 4.931.078 2.676.004 4.917 0 4.978-.01a.185.185 0 00.15-.116c.058-.123.054-.633-.01-1.933-.029-.596-.08-1.758-.108-2.589-.029-.83-.097-2.447-.143-3.594-.1-2.338-.384-9.188-.574-13.836-.068-1.69-.14-3.426-.161-3.854a349.466 349.466 0 01-.18-4.607c-.04-1.166-.086-2.153-.104-2.202-.075-.208.463-.193-7.549-.2-7.15-.012-7.394-.008-7.538.059zm6.132 10.85c.035.256.093 4.457.093 6.576v1.948l-.09.09-.086.093h-1.678c-.922 0-1.714-.012-1.757-.023-.112-.03-.119-.09-.047-.298.061-.178 1.434-3.564 2.564-6.327.312-.76.631-1.546.714-1.75.215-.54.254-.582.287-.31zm39.379-3.118l-.089.09v12.528c0 12.283 0 12.533.068 12.618l.068.09h5.275l.083-.086.082-.086V8.075l-.1-.09-.101-.09h-5.2l-.086.094zm9.518-.022l-.086.07v4.25l.082.085.083.086 2.625.011c1.441.008 2.711 0 2.815-.01.33-.042.312.088.312-2.254 0-1.117-.015-2.078-.029-2.134a.203.203 0 00-.118-.138c-.054-.022-1.162-.037-2.848-.037-2.657 0-2.757.003-2.836.07zm9.769.018l-.101.09v25.068l.083.086.082.086 2.535.01c1.395.008 2.59 0 2.654-.01a.284.284 0 00.18-.123c.057-.09.06-.317.064-3.21.004-2.34.014-3.151.05-3.278.065-.242.219-.544.438-.85.201-.279.29-.346.369-.264.05.052 1.607 2.645 3.454 5.75.523.88.989 1.654 1.04 1.721a.73.73 0 00.236.194c.151.078.201.078 3.228.078 2.051 0 3.098-.01 3.145-.037a.164.164 0 00.068-.127c0-.119-.158-.368-4.339-6.93a250.621 250.621 0 01-2.019-3.2c-.076-.145-.076-.145-.004-.28.04-.074 1.381-1.806 2.984-3.854 2.015-2.57 2.912-3.747 2.912-3.806a.164.164 0 00-.068-.127c-.094-.048-5.996-.052-6.172 0-.316.09-.416.201-1.348 1.493-2.167 2.995-3.755 5.163-3.838 5.237-.05.048-.104.086-.125.086-.018 0-.032-2.585-.032-6.868V8.048l-.094-.074c-.093-.078-.118-.078-2.689-.078h-2.593l-.1.09zm-41.851.995a.368.368 0 00-.172.115c-.046.074-.053 1.318-.053 12.03 0 7.259.014 11.977.032 12.033a.277.277 0 00.15.134c.151.052 5.505.06 5.645.004a.265.265 0 00.13-.138c.024-.067.038-1.367.046-3.884.01-3.758.01-3.78.09-4.053.136-.484.394-.93.82-1.422.14-.168.144-.168.22-.097.039.037 1.132 1.713 2.43 3.724 1.295 2.008 2.647 4.105 3.002 4.66.574.886.67 1.016.825 1.117l.176.111 3.4.012c3.062.007 3.403.003 3.453-.052.093-.093.068-.198-.115-.459a96.931 96.931 0 01-1.065-1.586c-.491-.738-2.216-3.326-3.837-5.754-3.554-5.33-3.389-5.073-3.389-5.173 0-.127.04-.19.681-1.047.33-.44 2.08-2.804 3.891-5.251a962.95 962.95 0 013.411-4.596c.143-.175.158-.328.043-.41-.072-.052-.434-.06-3.203-.06-3.414 0-3.35-.003-3.593.216-.06.056-.778 1.066-1.592 2.243-1.42 2.055-5.548 8.01-5.577 8.04-.007.008-.025.004-.04-.01-.017-.016-.035-2.34-.046-5.166l-.018-5.133-.082-.085-.083-.086-2.732-.007c-1.625-.004-2.78.007-2.848.03zm62.252 0c-.24.074-.222-.917-.222 12.167 0 8.358.01 11.91.039 11.993a.235.235 0 00.147.152c.122.045 5.379.06 5.584.019.251-.052.233.197.254-3.974l.018-3.758.086-.07c.079-.068.158-.071 1.291-.071 2.841-.004 4.006-.153 5.415-.693 1.618-.622 3.26-1.982 4.092-3.386.38-.637.757-1.66.947-2.55.28-1.32.28-2.843 0-4.213-.459-2.268-1.861-3.926-4.103-4.85-1.187-.49-2.262-.7-3.966-.77-1.122-.045-9.424-.041-9.582.004zm8.664 4.73c.689.078 1.431.331 1.861.629.542.38.915.957 1.098 1.706.111.465.111 1.542 0 2.044-.291 1.285-1.033 2.082-2.242 2.414-.487.13-1.015.2-1.832.242-.929.048-1.589.015-1.682-.082-.061-.063-.065-.209-.065-3.412 0-3.575-.003-3.497.18-3.549.147-.04 2.306-.037 2.682.008zm16.54.726a29.842 29.842 0 00-4.497.73c-.589.145-.614.167-.65.592-.014.171-.018 1.11-.01 2.082.01 1.605.018 1.78.075 1.888.122.235.247.22 1.101-.12 2.446-.979 3.959-1.217 5.838-.927.986.153 1.614.414 2.001.842.312.343.488.76.538 1.274.022.209.014.246-.05.313-.086.09-.154.1-1.119.175-1.259.1-2.801.28-3.658.432-2.775.484-4.604 1.542-5.505 3.18-.304.555-.509 1.222-.613 2.012-.075.57-.054 1.832.04 2.365.365 2.096 1.882 3.817 3.812 4.324.678.178 1.176.23 2.015.208.854-.018 1.252-.09 1.998-.342.875-.298 1.56-.7 2.395-1.4.556-.466.527-.448.592-.407.043.026.057.179.072.76.018.697.021.734.1.812l.083.086 2.517.01c1.384.008 2.571 0 2.636-.01.244-.045.226.502.226-6.838-.004-5.855-.007-6.686-.058-6.98-.315-1.888-1.24-3.2-2.833-4.022-.76-.391-1.535-.633-2.635-.82-1.112-.186-1.449-.212-2.887-.223a54.493 54.493 0 00-1.524.004zm4.281 10.424a.426.426 0 01.076.179c.01.067.018.842.01 1.724l-.01 1.602-.101.156c-.165.265-.771.686-1.291.902a3.768 3.768 0 01-2.026.245c-.703-.108-1.047-.25-1.352-.547-.355-.35-.498-.793-.502-1.56 0-.418.014-.548.079-.768.305-1.01 1.262-1.538 3.256-1.802 1.503-.198 1.775-.216 1.861-.13zm-59.426-9.888a.269.269 0 00-.114.108c-.029.052-.04 2.775-.04 9.065 0 8.8 0 8.994.068 9.08l.068.09h5.276l.082-.086.083-.086.01-8.92c.004-6-.003-8.972-.028-9.065-.029-.112-.061-.152-.151-.182-.136-.049-5.135-.053-5.254-.004zm65.72.03c-.072.063-.075.085-.043.216.036.145 2.923 8.138 5.125 14.186 1.122 3.088 1.136 3.132 1.136 3.408 0 .272-.014.316-.455 1.49-1.019 2.685-2.001 5.352-2.019 5.463-.04.25-.23.235 2.948.235 2.689 0 2.883-.004 2.955-.067.082-.07.333-.767 5.673-15.791 1.962-5.524 3.152-8.92 3.152-9.002 0-.108-.018-.138-.093-.168-.122-.048-5.322-.048-5.444 0a.346.346 0 00-.15.134c-.036.052-.793 2.51-1.686 5.464-.893 2.95-1.65 5.389-1.678 5.419-.043.044-.054.044-.09-.026a535.42 535.42 0 01-1.757-5.397c-.943-2.924-1.743-5.374-1.775-5.437a.35.35 0 00-.151-.157c-.054-.022-1.173-.037-2.829-.037-2.604 0-2.74.003-2.819.067z" fill="#fff"/></svg>