<svg width="870" height="805" fill="none" xmlns="http://www.w3.org/2000/svg"><g filter="url(#filter0_d_118_16197)"><path d="M491.997 79.695l103.512 59.763 118.483-31.747 129.466 74.747 31.748 118.483 142.904 82.504" stroke="url(#paint0_linear_118_16197)" stroke-width="2" shape-rendering="crispEdges"/></g><circle r="6.346" transform="scale(1 -1) rotate(60 579.355 637.783)" fill="#7A8EF6"/><circle r="6.346" transform="scale(1 -1) rotate(60 450.5 563.387)" fill="#7A8EF6"/><g filter="url(#filter1_f_118_16197)"><circle r="6.346" transform="scale(1 -1) rotate(60 450.5 563.387)" fill="#DEE3FC"/></g><g filter="url(#filter2_f_118_16197)"><circle r="6.346" transform="scale(1 -1) rotate(60 579.355 637.783)" fill="#DEE3FC"/></g><g filter="url(#filter3_f_118_16197)"><circle r="6.346" transform="scale(1 -1) rotate(60 698.355 607.962)" fill="#DEE3FC"/></g><g filter="url(#filter4_f_118_16197)"><circle r="6.346" transform="scale(1 -1) rotate(60 419.88 447.184)" fill="#DEE3FC"/></g><circle r="6.346" transform="scale(1 -1) rotate(60 419.88 447.184)" fill="#7A8EF6"/><circle r="6.346" transform="scale(1 -1) rotate(60 698.355 607.962)" fill="#7A8EF6"/><g filter="url(#filter5_d_118_16197)"><path d="M367.203 413.35l-66.436 38.357-76.046-20.376-83.095 47.975-20.376 76.045-91.718 52.954" stroke="url(#paint1_linear_118_16197)" stroke-width="2" shape-rendering="crispEdges"/></g><circle cx="142.554" cy="479.554" r="4.073" transform="rotate(-120 142.554 479.554)" fill="#7A8EF6"/><circle r="4.073" transform="rotate(-120 237.279 150.877) skewX(-.001)" fill="#7A8EF6"/><g filter="url(#filter6_f_118_16197)"><circle r="4.073" transform="rotate(-120 237.279 150.877) skewX(-.001)" fill="#DEE3FC"/></g><g filter="url(#filter7_f_118_16197)"><circle cx="142.554" cy="479.554" r="4.073" transform="rotate(-120 142.554 479.554)" fill="#DEE3FC"/></g><g filter="url(#filter8_f_118_16197)"><circle cx="120.941" cy="555.268" r="4.073" transform="rotate(-120 120.941 555.268)" fill="#DEE3FC"/></g><g filter="url(#filter9_f_118_16197)"><circle cx="299.674" cy="452.077" r="4.073" transform="rotate(-120 299.674 452.077)" fill="#DEE3FC"/></g><circle cx="299.674" cy="452.077" r="4.073" transform="rotate(-120 299.674 452.077)" fill="#7A8EF6"/><circle cx="120.941" cy="555.268" r="4.073" transform="rotate(-120 120.941 555.268)" fill="#7A8EF6"/><g filter="url(#filter10_d_118_16197)"><path d="M491.5 81.136v212l-123 123v6" stroke="url(#paint2_linear_118_16197)" stroke-width="2" shape-rendering="crispEdges"/></g><circle r="9" transform="matrix(1 0 0 -1 490 291.636)" fill="#7A8EF6"/><circle r="9" transform="matrix(1 0 0 -1 490 80.636)" fill="#7A8EF6"/><g filter="url(#filter11_f_118_16197)"><circle r="9" transform="matrix(1 0 0 -1 490 80.636)" fill="#DEE3FC"/></g><g filter="url(#filter12_f_118_16197)"><circle r="9" transform="matrix(1 0 0 -1 490 291.636)" fill="#DEE3FC"/></g><g filter="url(#filter13_f_118_16197)"><circle r="9" transform="matrix(1 0 0 -1 369 416.636)" fill="#DEE3FC"/></g><circle r="9" transform="matrix(1 0 0 -1 369 416.636)" fill="#7A8EF6"/><g filter="url(#filter14_d_118_16197)"><path d="M597.5 139.136v169.5l123 123v212l-123 123V792.5" stroke="url(#paint3_linear_118_16197)" stroke-width="2" shape-rendering="crispEdges"/></g><circle r="9" transform="matrix(1 0 0 -1 719 642.136)" fill="#7A8EF6"/><circle r="9" transform="matrix(1 0 0 -1 719 431.136)" fill="#7A8EF6"/><g filter="url(#filter15_f_118_16197)"><circle r="9" transform="matrix(1 0 0 -1 719 431.136)" fill="#DEE3FC"/></g><g filter="url(#filter16_f_118_16197)"><circle r="9" transform="matrix(1 0 0 -1 719 642.136)" fill="#DEE3FC"/></g><g filter="url(#filter17_f_118_16197)"><circle r="9" transform="matrix(1 0 0 -1 598 767.136)" fill="#DEE3FC"/></g><g filter="url(#filter18_f_118_16197)"><circle r="9" transform="matrix(1 0 0 -1 598 311.136)" fill="#DEE3FC"/></g><circle r="9" transform="matrix(1 0 0 -1 598 311.136)" fill="#7A8EF6"/><circle r="9" transform="matrix(1 0 0 -1 598 767.136)" fill="#7A8EF6"/><defs><filter id="filter0_d_118_16197" x="479.497" y="66.829" width="551.11" height="329.482" filterUnits="userSpaceOnUse" color-interpolation-filters="sRGB"><feFlood flood-opacity="0" result="BackgroundImageFix"/><feColorMatrix in="SourceAlpha" values="0 0 0 0 0 0 0 0 0 0 0 0 0 0 0 0 0 0 127 0" result="hardAlpha"/><feOffset/><feGaussianBlur stdDeviation="6"/><feComposite in2="hardAlpha" operator="out"/><feColorMatrix values="0 0 0 0 0.737255 0 0 0 0 0.745098 0 0 0 0 1 0 0 0 1 0"/><feBlend in2="BackgroundImageFix" result="effect1_dropShadow_118_16197"/><feBlend in="SourceGraphic" in2="effect1_dropShadow_118_16197" result="shape"/></filter><filter id="filter1_f_118_16197" x="688.81" y="84.103" width="48.695" height="48.695" filterUnits="userSpaceOnUse" color-interpolation-filters="sRGB"><feFlood flood-opacity="0" result="BackgroundImageFix"/><feBlend in="SourceGraphic" in2="BackgroundImageFix" result="shape"/><feGaussianBlur stdDeviation="9" result="effect1_foregroundBlur_118_16197"/></filter><filter id="filter2_f_118_16197" x="817.666" y="158.498" width="48.695" height="48.695" filterUnits="userSpaceOnUse" color-interpolation-filters="sRGB"><feFlood flood-opacity="0" result="BackgroundImageFix"/><feBlend in="SourceGraphic" in2="BackgroundImageFix" result="shape"/><feGaussianBlur stdDeviation="9" result="effect1_foregroundBlur_118_16197"/></filter><filter id="filter3_f_118_16197" x="851.34" y="276.464" width="48.695" height="48.695" filterUnits="userSpaceOnUse" color-interpolation-filters="sRGB"><feFlood flood-opacity="0" result="BackgroundImageFix"/><feBlend in="SourceGraphic" in2="BackgroundImageFix" result="shape"/><feGaussianBlur stdDeviation="9" result="effect1_foregroundBlur_118_16197"/></filter><filter id="filter4_f_118_16197" x="572.865" y="115.687" width="48.695" height="48.695" filterUnits="userSpaceOnUse" color-interpolation-filters="sRGB"><feFlood flood-opacity="0" result="BackgroundImageFix"/><feBlend in="SourceGraphic" in2="BackgroundImageFix" result="shape"/><feGaussianBlur stdDeviation="9" result="effect1_foregroundBlur_118_16197"/></filter><filter id="filter5_d_118_16197" x="17.032" y="400.484" width="362.672" height="220.687" filterUnits="userSpaceOnUse" color-interpolation-filters="sRGB"><feFlood flood-opacity="0" result="BackgroundImageFix"/><feColorMatrix in="SourceAlpha" values="0 0 0 0 0 0 0 0 0 0 0 0 0 0 0 0 0 0 127 0" result="hardAlpha"/><feOffset/><feGaussianBlur stdDeviation="6"/><feComposite in2="hardAlpha" operator="out"/><feColorMatrix values="0 0 0 0 0.737255 0 0 0 0 0.745098 0 0 0 0 1 0 0 0 1 0"/><feBlend in2="BackgroundImageFix" result="effect1_dropShadow_118_16197"/><feBlend in="SourceGraphic" in2="effect1_dropShadow_118_16197" result="shape"/></filter><filter id="filter6_f_118_16197" x="203.183" y="409.731" width="44.148" height="44.148" filterUnits="userSpaceOnUse" color-interpolation-filters="sRGB"><feFlood flood-opacity="0" result="BackgroundImageFix"/><feBlend in="SourceGraphic" in2="BackgroundImageFix" result="shape"/><feGaussianBlur stdDeviation="9" result="effect1_foregroundBlur_118_16197"/></filter><filter id="filter7_f_118_16197" x="120.48" y="457.48" width="44.148" height="44.148" filterUnits="userSpaceOnUse" color-interpolation-filters="sRGB"><feFlood flood-opacity="0" result="BackgroundImageFix"/><feBlend in="SourceGraphic" in2="BackgroundImageFix" result="shape"/><feGaussianBlur stdDeviation="9" result="effect1_foregroundBlur_118_16197"/></filter><filter id="filter8_f_118_16197" x="98.867" y="533.194" width="44.148" height="44.148" filterUnits="userSpaceOnUse" color-interpolation-filters="sRGB"><feFlood flood-opacity="0" result="BackgroundImageFix"/><feBlend in="SourceGraphic" in2="BackgroundImageFix" result="shape"/><feGaussianBlur stdDeviation="9" result="effect1_foregroundBlur_118_16197"/></filter><filter id="filter9_f_118_16197" x="277.6" y="430.003" width="44.148" height="44.148" filterUnits="userSpaceOnUse" color-interpolation-filters="sRGB"><feFlood flood-opacity="0" result="BackgroundImageFix"/><feBlend in="SourceGraphic" in2="BackgroundImageFix" result="shape"/><feGaussianBlur stdDeviation="9" result="effect1_foregroundBlur_118_16197"/></filter><filter id="filter10_d_118_16197" x="355.5" y="69.136" width="149" height="365" filterUnits="userSpaceOnUse" color-interpolation-filters="sRGB"><feFlood flood-opacity="0" result="BackgroundImageFix"/><feColorMatrix in="SourceAlpha" values="0 0 0 0 0 0 0 0 0 0 0 0 0 0 0 0 0 0 127 0" result="hardAlpha"/><feOffset/><feGaussianBlur stdDeviation="6"/><feComposite in2="hardAlpha" operator="out"/><feColorMatrix values="0 0 0 0 0.737255 0 0 0 0 0.745098 0 0 0 0 1 0 0 0 1 0"/><feBlend in2="BackgroundImageFix" result="effect1_dropShadow_118_16197"/><feBlend in="SourceGraphic" in2="effect1_dropShadow_118_16197" result="shape"/></filter><filter id="filter11_f_118_16197" x="463" y="53.636" width="54" height="54" filterUnits="userSpaceOnUse" color-interpolation-filters="sRGB"><feFlood flood-opacity="0" result="BackgroundImageFix"/><feBlend in="SourceGraphic" in2="BackgroundImageFix" result="shape"/><feGaussianBlur stdDeviation="9" result="effect1_foregroundBlur_118_16197"/></filter><filter id="filter12_f_118_16197" x="463" y="264.636" width="54" height="54" filterUnits="userSpaceOnUse" color-interpolation-filters="sRGB"><feFlood flood-opacity="0" result="BackgroundImageFix"/><feBlend in="SourceGraphic" in2="BackgroundImageFix" result="shape"/><feGaussianBlur stdDeviation="9" result="effect1_foregroundBlur_118_16197"/></filter><filter id="filter13_f_118_16197" x="342" y="389.636" width="54" height="54" filterUnits="userSpaceOnUse" color-interpolation-filters="sRGB"><feFlood flood-opacity="0" result="BackgroundImageFix"/><feBlend in="SourceGraphic" in2="BackgroundImageFix" result="shape"/><feGaussianBlur stdDeviation="9" result="effect1_foregroundBlur_118_16197"/></filter><filter id="filter14_d_118_16197" x="584.5" y="127.136" width="149" height="677.364" filterUnits="userSpaceOnUse" color-interpolation-filters="sRGB"><feFlood flood-opacity="0" result="BackgroundImageFix"/><feColorMatrix in="SourceAlpha" values="0 0 0 0 0 0 0 0 0 0 0 0 0 0 0 0 0 0 127 0" result="hardAlpha"/><feOffset/><feGaussianBlur stdDeviation="6"/><feComposite in2="hardAlpha" operator="out"/><feColorMatrix values="0 0 0 0 0.737255 0 0 0 0 0.745098 0 0 0 0 1 0 0 0 1 0"/><feBlend in2="BackgroundImageFix" result="effect1_dropShadow_118_16197"/><feBlend in="SourceGraphic" in2="effect1_dropShadow_118_16197" result="shape"/></filter><filter id="filter15_f_118_16197" x="692" y="404.136" width="54" height="54" filterUnits="userSpaceOnUse" color-interpolation-filters="sRGB"><feFlood flood-opacity="0" result="BackgroundImageFix"/><feBlend in="SourceGraphic" in2="BackgroundImageFix" result="shape"/><feGaussianBlur stdDeviation="9" result="effect1_foregroundBlur_118_16197"/></filter><filter id="filter16_f_118_16197" x="692" y="615.136" width="54" height="54" filterUnits="userSpaceOnUse" color-interpolation-filters="sRGB"><feFlood flood-opacity="0" result="BackgroundImageFix"/><feBlend in="SourceGraphic" in2="BackgroundImageFix" result="shape"/><feGaussianBlur stdDeviation="9" result="effect1_foregroundBlur_118_16197"/></filter><filter id="filter17_f_118_16197" x="571" y="740.136" width="54" height="54" filterUnits="userSpaceOnUse" color-interpolation-filters="sRGB"><feFlood flood-opacity="0" result="BackgroundImageFix"/><feBlend in="SourceGraphic" in2="BackgroundImageFix" result="shape"/><feGaussianBlur stdDeviation="9" result="effect1_foregroundBlur_118_16197"/></filter><filter id="filter18_f_118_16197" x="571" y="284.136" width="54" height="54" filterUnits="userSpaceOnUse" color-interpolation-filters="sRGB"><feFlood flood-opacity="0" result="BackgroundImageFix"/><feBlend in="SourceGraphic" in2="BackgroundImageFix" result="shape"/><feGaussianBlur stdDeviation="9" result="effect1_foregroundBlur_118_16197"/></filter><linearGradient id="paint0_linear_118_16197" x1="1039.79" y1="345.888" x2="513.681" y2="42.138" gradientUnits="userSpaceOnUse"><stop offset=".005" stop-color="#7A8EF6" stop-opacity="0"/><stop offset=".625" stop-color="#7A8EF6"/></linearGradient><linearGradient id="paint1_linear_118_16197" x1="15.614" y1="584.199" x2="353.286" y2="389.244" gradientUnits="userSpaceOnUse"><stop offset=".005" stop-color="#7A8EF6" stop-opacity="0"/><stop offset=".625" stop-color="#7A8EF6"/></linearGradient><linearGradient id="paint2_linear_118_16197" x1="430" y1="650.136" x2="430" y2="-211.363" gradientUnits="userSpaceOnUse"><stop offset=".005" stop-color="#7A8EF6" stop-opacity="0"/><stop offset=".625" stop-color="#7A8EF6"/></linearGradient><linearGradient id="paint3_linear_118_16197" x1="659" y1="1000.64" x2="659" y2="139.136" gradientUnits="userSpaceOnUse"><stop offset=".005" stop-color="#7A8EF6" stop-opacity="0"/><stop offset=".625" stop-color="#7A8EF6"/></linearGradient></defs></svg>