<svg width="308" height="80" fill="none" xmlns="http://www.w3.org/2000/svg"><g filter="url(#filter0_d_124_7929)"><rect x="3" y="2" width="302" height="74" rx="5" fill="#FAFAFA"/><rect x="2.5" y="1.5" width="303" height="75" rx="5.5" stroke="#D6D6D6"/></g><path d="M282.307 27.212a16.6 16.6 0 00-.016-.67v-12.69l-3.508 3.508a15.63 15.63 0 00-12.132-5.76 15.63 15.63 0 00-12.474 6.194l5.75 5.811a7.618 7.618 0 012.33-2.614c1.004-.783 2.426-1.424 4.394-1.424.237 0 .421.028.556.08a7.58 7.58 0 015.795 3.491l-4.07 4.07c5.156-.02 10.98-.031 13.375.003" fill="#1C3AA9"/><path d="M266.559 11.6a16.65 16.65 0 00-.672.017h-12.69l3.509 3.508a15.627 15.627 0 00-5.76 12.132c0 5.091 2.431 9.614 6.194 12.474l5.811-5.75a7.618 7.618 0 01-2.613-2.33c-.784-1.004-1.424-2.426-1.424-4.394 0-.238.027-.421.08-.556a7.58 7.58 0 013.491-5.796l4.07 4.07c-.02-5.155-.032-10.98.003-13.374" fill="#4285F4"/><path d="M250.947 27.256c.001.225.006.449.016.671v12.69l3.509-3.508a15.626 15.626 0 0012.131 5.76c5.092 0 9.615-2.43 12.475-6.194l-5.751-5.811a7.615 7.615 0 01-2.329 2.613c-1.004.784-2.427 1.424-4.394 1.424-.238 0-.422-.028-.556-.08a7.581 7.581 0 01-5.796-3.49l4.07-4.071c-5.155.02-10.98.032-13.374-.003" fill="#ABABAB"/><path d="M253.589 48.932c-.381 0-.723.072-1.026.217a2.126 2.126 0 00-.769.606 2.828 2.828 0 00-.478.957 4.427 4.427 0 00-.163 1.247v1.327c0 .464.054.881.163 1.253.111.371.269.688.473.951.204.263.45.465.74.607.289.141.615.212.976.212.372 0 .697-.054.977-.163.282-.108.519-.264.71-.468a2.13 2.13 0 00.439-.75c.105-.292.167-.624.187-.996h-.912a4.03 4.03 0 01-.119.735c-.056.2-.138.366-.246.498a.944.944 0 01-.414.286c-.168.06-.375.089-.622.089-.263 0-.486-.058-.67-.173a1.346 1.346 0 01-.449-.483 2.446 2.446 0 01-.247-.715 4.997 4.997 0 01-.074-.883V51.95c0-.339.03-.646.089-.922a2.17 2.17 0 01.281-.706 1.31 1.31 0 01.474-.448 1.35 1.35 0 01.68-.163c.22 0 .409.033.567.098a.929.929 0 01.395.296c.105.132.185.3.241.503.056.204.094.447.114.73h.912a3.552 3.552 0 00-.182-1.03 2.169 2.169 0 00-.439-.755 1.814 1.814 0 00-.686-.464 2.494 2.494 0 00-.922-.157zm22.27 0c-.381 0-.723.072-1.026.217a2.135 2.135 0 00-.769.606 2.846 2.846 0 00-.478.957 4.427 4.427 0 00-.163 1.247v1.327c0 .464.054.881.163 1.253.112.371.269.688.473.951.204.263.451.465.74.607.289.141.615.212.976.212.372 0 .697-.054.977-.163.282-.108.519-.264.71-.468a2.13 2.13 0 00.439-.75c.105-.292.167-.624.187-.996h-.912a4.03 4.03 0 01-.119.735c-.055.2-.138.366-.246.498a.938.938 0 01-.414.286c-.168.06-.375.089-.622.089-.263 0-.486-.058-.67-.173a1.355 1.355 0 01-.449-.483 2.446 2.446 0 01-.247-.715 4.997 4.997 0 01-.074-.883V51.95c0-.339.03-.646.089-.922a2.19 2.19 0 01.281-.706 1.31 1.31 0 01.474-.448 1.35 1.35 0 01.68-.163c.22 0 .409.033.567.098.158.063.29.162.395.296.105.132.185.3.241.503.056.204.094.447.114.73h.912a3.552 3.552 0 00-.182-1.03 2.169 2.169 0 00-.439-.755 1.813 1.813 0 00-.686-.464 2.494 2.494 0 00-.922-.157zm-17.072.098l-2.313 7.18h.927l.557-1.874h2.427l.567 1.874h.927l-2.318-7.18h-.774zm4.068 0v7.18h.903V53.4h1.385c.345 0 .651-.048.918-.144a1.741 1.741 0 001.084-1.105c.096-.272.143-.581.143-.926 0-.32-.047-.612-.143-.878a1.906 1.906 0 00-.409-.695 1.828 1.828 0 00-.675-.459 2.42 2.42 0 00-.918-.163h-2.288zm5.124 0v.78h1.884v6.4h.902v-6.4h1.889v-.78h-4.675zm11.327 0v7.18h.903v-3.319h2.889v3.32h.908v-7.18h-.908v3.086h-2.889V49.03h-.903zm8.122 0l-2.313 7.18h.927l.558-1.874h2.426l.567 1.874h.927l-2.318-7.18h-.774zm-23.67.78h1.385c.22 0 .408.039.562.118.158.079.286.184.385.316.102.131.176.284.222.458a2.034 2.034 0 010 1.095c-.046.168-.12.314-.222.439a1.004 1.004 0 01-.385.286 1.37 1.37 0 01-.562.103h-1.385V49.81zm-4.587.483l.982 3.264h-1.958l.976-3.264zm28.642 0l.981 3.264h-1.958l.977-3.264zm-42.478.483a.996.996 0 00-.587.173 1.389 1.389 0 00-.405.468l-.014-.542h-.849v5.335h.873v-3.817a1.27 1.27 0 01.35-.537.876.876 0 01.587-.197c.076 0 .143.003.202.01.06.003.124.011.193.024l-.005-.848a.303.303 0 00-.064-.02.594.594 0 00-.089-.025.986.986 0 00-.104-.014.443.443 0 00-.088-.01zm2.934 0c-.253 0-.498.044-.735.133a1.602 1.602 0 00-.631.44c-.181.2-.327.463-.439.788-.112.322-.168.718-.168 1.189v.601c0 .408.048.761.143 1.06.096.3.232.548.41.745.18.194.399.339.655.434.257.095.545.143.863.143.231 0 .436-.023.617-.069.184-.046.347-.105.488-.178a1.68 1.68 0 00.365-.256 1.94 1.94 0 00.261-.296l-.453-.552c-.073.089-.15.17-.232.246a1.625 1.625 0 01-.271.193 1.416 1.416 0 01-.326.123c-.118.03-.251.044-.399.044-.405 0-.715-.13-.932-.39-.214-.259-.321-.675-.321-1.247v-.123h2.979v-.508c0-.408-.035-.768-.104-1.08a2.16 2.16 0 00-.33-.789 1.43 1.43 0 00-.582-.483 2 2 0 00-.858-.168zm0 .75a.97.97 0 01.473.103.76.76 0 01.296.291c.076.125.13.275.163.449.036.17.059.36.069.567v.118h-2.101a3.06 3.06 0 01.109-.744c.059-.198.136-.354.231-.469a.788.788 0 01.341-.246 1.23 1.23 0 01.419-.07z" fill="#A6A6A6"/><rect x="14" y="26" width="26" height="26" rx="2" fill="#fff" stroke="#C1C1C1" stroke-width="2"/><path d="M55.837 44h-1.723v-9.953h1.723V44zm2.31-7l-.847-.526c.41-.597.622-1.229.636-1.894V33.5h1.456v.943c0 .47-.121.944-.363 1.422-.237.474-.53.852-.882 1.135zm4.116-.397l.047.773c.52-.606 1.231-.91 2.133-.91.99 0 1.666.38 2.03 1.136.538-.757 1.295-1.135 2.27-1.135.816 0 1.422.225 1.819.677.4.45.606 1.116.615 1.996V44h-1.661v-4.813c0-.469-.103-.813-.308-1.032-.205-.218-.545-.328-1.019-.328-.378 0-.688.103-.93.308-.236.2-.403.465-.498.793L66.768 44h-1.662v-4.867c-.022-.87-.467-1.306-1.333-1.306-.665 0-1.137.271-1.415.814V44h-1.66v-7.397h1.565zm15.647 0l.048.855c.547-.66 1.265-.991 2.153-.991 1.54 0 2.325.882 2.352 2.645V44h-1.661v-4.792c0-.47-.103-.816-.308-1.04-.2-.227-.53-.34-.991-.34-.67 0-1.169.302-1.497.908V44h-1.661v-7.397h1.565zm5.94 3.63c0-.724.144-1.376.431-1.955a3.12 3.12 0 011.21-1.34c.52-.314 1.117-.471 1.791-.471.998 0 1.807.321 2.427.964.624.642.962 1.495 1.012 2.556l.007.39c0 .73-.142 1.38-.424 1.955a3.08 3.08 0 01-1.203 1.333c-.52.315-1.121.472-1.805.472-1.044 0-1.88-.347-2.509-1.04-.624-.697-.936-1.624-.936-2.782v-.082zm1.662.144c0 .761.157 1.358.471 1.791.315.428.752.642 1.313.642.56 0 .996-.218 1.306-.656.314-.437.471-1.078.471-1.92 0-.748-.161-1.34-.485-1.778-.32-.437-.754-.656-1.306-.656a1.52 1.52 0 00-1.292.65c-.319.428-.478 1.07-.478 1.927zm8.702-5.571v1.797h1.305v1.231h-1.305v4.129c0 .282.055.487.164.615.114.123.314.185.602.185.19 0 .385-.023.58-.069v1.285a4.091 4.091 0 01-1.093.158c-1.276 0-1.914-.704-1.914-2.113v-4.19h-1.217v-1.23h1.217v-1.798h1.66zM104.7 44c-.073-.141-.137-.371-.191-.69a2.587 2.587 0 01-1.942.827c-.742 0-1.349-.212-1.818-.636a2.035 2.035 0 01-.704-1.572c0-.789.292-1.393.875-1.812.588-.424 1.426-.636 2.516-.636h1.018v-.485c0-.383-.107-.688-.321-.916-.214-.232-.54-.349-.978-.349-.378 0-.688.096-.929.288a.868.868 0 00-.363.717h-1.661c0-.405.135-.783.403-1.134a2.68 2.68 0 011.094-.834c.465-.2.982-.301 1.552-.301.866 0 1.556.218 2.071.656.515.433.78 1.044.793 1.832v3.336c0 .665.094 1.196.281 1.593V44H104.7zm-1.825-1.196c.328 0 .636-.08.923-.24.292-.16.51-.373.656-.642v-1.395h-.895c-.616 0-1.078.107-1.388.322-.31.214-.465.517-.465.909 0 .319.105.574.315.765.214.187.499.28.854.28zm12.339-4.683a4.106 4.106 0 00-.677-.055c-.761 0-1.274.292-1.538.875V44h-1.661v-7.397h1.586l.041.828c.401-.643.957-.964 1.668-.964.237 0 .433.032.588.096l-.007 1.558zm.492 2.112c0-.724.144-1.376.431-1.955.287-.583.69-1.03 1.21-1.34.519-.314 1.116-.471 1.791-.471.998 0 1.807.321 2.426.964.625.642.962 1.495 1.012 2.556l.007.39c0 .73-.141 1.38-.424 1.955a3.08 3.08 0 01-1.203 1.333c-.519.315-1.121.472-1.805.472-1.043 0-1.88-.347-2.508-1.04-.625-.697-.937-1.624-.937-2.782v-.082zm1.661.144c0 .761.157 1.358.472 1.791.314.428.752.642 1.312.642.561 0 .996-.218 1.306-.656.314-.437.472-1.078.472-1.92 0-.748-.162-1.34-.486-1.778-.319-.437-.754-.656-1.305-.656a1.52 1.52 0 00-1.292.65c-.319.428-.479 1.07-.479 1.927zm13.112 0c0 1.148-.258 2.062-.773 2.741-.51.68-1.214 1.019-2.112 1.019-.866 0-1.541-.313-2.024-.937l-.082.8h-1.504V33.5h1.662v3.815c.478-.566 1.123-.848 1.934-.848.902 0 1.611.335 2.126 1.005.515.67.773 1.606.773 2.81v.095zm-1.662-.144c0-.802-.141-1.403-.423-1.804-.283-.401-.693-.602-1.231-.602-.72 0-1.226.315-1.517.944v3.048c.296.643.806.964 1.531.964.519 0 .92-.194 1.203-.58.282-.388.428-.974.437-1.758v-.212zm2.748 0c0-.724.144-1.376.431-1.955a3.122 3.122 0 011.21-1.34c.52-.314 1.117-.471 1.791-.471.998 0 1.807.321 2.427.964.624.642.961 1.495 1.012 2.556l.006.39c0 .73-.141 1.38-.423 1.955a3.076 3.076 0 01-1.204 1.333c-.519.315-1.121.472-1.804.472-1.044 0-1.88-.347-2.509-1.04-.624-.697-.937-1.624-.937-2.782v-.082zm1.662.144c0 .761.157 1.358.471 1.791.315.428.752.642 1.313.642.56 0 .996-.218 1.305-.656.315-.437.472-1.078.472-1.92 0-.748-.162-1.34-.485-1.778-.319-.437-.754-.656-1.306-.656a1.52 1.52 0 00-1.292.65c-.319.428-.478 1.07-.478 1.927zm8.702-5.571v1.797h1.305v1.231h-1.305v4.129c0 .282.054.487.164.615.114.123.314.185.601.185.192 0 .385-.023.581-.069v1.285a4.085 4.085 0 01-1.093.158c-1.276 0-1.914-.704-1.914-2.113v-4.19h-1.217v-1.23h1.217v-1.798h1.661z" fill="#000"/><path d="M240.879 64.887V67h-.988v-5.688h2.175c.636 0 1.14.166 1.512.497.375.33.563.768.563 1.312 0 .557-.184.991-.551 1.3-.365.31-.876.466-1.535.466h-1.176zm0-.793h1.187c.352 0 .62-.082.805-.246.185-.167.277-.407.277-.72 0-.306-.093-.551-.281-.733-.187-.185-.445-.28-.773-.286h-1.215v1.985zm6.25-.453a2.354 2.354 0 00-.387-.032c-.435 0-.728.167-.879.5V67h-.949v-4.227h.906l.024.473c.229-.367.547-.55.953-.55.135 0 .247.018.336.054l-.004.89zM248.738 67h-.949v-4.227h.949V67zm-1.008-5.324c0-.146.046-.267.137-.364.094-.096.227-.144.399-.144.172 0 .304.048.398.145a.5.5 0 01.141.363.494.494 0 01-.141.36c-.094.093-.226.14-.398.14-.172 0-.305-.047-.399-.14a.504.504 0 01-.137-.36zm3.536 4.12l.894-3.023h.981L251.676 67h-.824l-1.477-4.227h.984l.907 3.024zM256.199 67a1.483 1.483 0 01-.109-.394 1.478 1.478 0 01-1.11.472c-.424 0-.77-.121-1.039-.363a1.162 1.162 0 01-.402-.899c0-.45.167-.795.5-1.035.336-.242.815-.363 1.438-.363h.582v-.277c0-.22-.062-.394-.184-.524-.122-.133-.309-.199-.559-.199a.83.83 0 00-.531.164.497.497 0 00-.207.41h-.949c0-.232.077-.448.23-.648.154-.203.362-.362.625-.477a2.22 2.22 0 01.887-.172c.495 0 .889.125 1.184.375.294.248.445.597.453 1.047v1.906c0 .38.053.684.16.91V67h-.969zm-1.043-.684c.188 0 .364-.045.528-.136a.92.92 0 00.375-.368v-.796h-.512c-.352 0-.616.06-.793.183a.595.595 0 00-.266.52c0 .182.06.328.18.437.122.107.285.16.488.16zm4.582.004a.858.858 0 00.59-.207.707.707 0 00.25-.511h.895a1.414 1.414 0 01-.246.738 1.623 1.623 0 01-.625.539c-.263.133-.547.2-.852.2-.591 0-1.06-.192-1.406-.575-.347-.383-.52-.912-.52-1.586v-.098c0-.643.172-1.157.516-1.543.344-.388.812-.582 1.406-.582.503 0 .912.147 1.227.442.317.291.484.675.5 1.152h-.895a.865.865 0 00-.25-.598.792.792 0 00-.59-.234c-.307 0-.544.112-.711.336-.166.221-.251.559-.254 1.012v.152c0 .458.082.8.247 1.027.166.224.406.336.718.336zm3.93-.68l.859-2.867h1.012l-1.68 4.868c-.257.71-.695 1.066-1.312 1.066-.138 0-.29-.023-.457-.07v-.735l.18.012c.239 0 .419-.044.539-.133.122-.086.218-.232.289-.437l.136-.363-1.484-4.208h1.023l.895 2.868zm6.254-.675h-2.051v-.766h2.051v.766zm6.742-2.856h-1.773V67h-.981v-4.89h-1.758v-.797h4.512v.796zm2.168 4.97c-.602 0-1.09-.19-1.465-.567-.372-.38-.558-.886-.558-1.516v-.117c0-.422.08-.798.242-1.129a1.87 1.87 0 01.687-.777c.295-.185.623-.278.985-.278.575 0 1.019.184 1.332.551.315.367.472.887.472 1.559v.382h-2.761c.028.35.144.626.347.829.206.203.464.304.774.304.435 0 .789-.175 1.062-.527l.512.488c-.169.253-.396.45-.68.59a2.123 2.123 0 01-.949.207zm-.113-3.622a.804.804 0 00-.633.273c-.159.183-.26.437-.305.762h1.809v-.07c-.021-.318-.106-.557-.254-.719-.148-.164-.354-.246-.617-.246zm4.761.184a2.342 2.342 0 00-.386-.032c-.435 0-.728.167-.879.5V67h-.949v-4.227h.906l.023.473c.229-.367.547-.55.953-.55.136 0 .248.018.336.054l-.004.89zm1.493-.868l.027.442c.297-.347.703-.52 1.219-.52.565 0 .952.216 1.16.649.307-.433.739-.649 1.297-.649.466 0 .812.13 1.039.387.229.258.346.638.351 1.14V67h-.949v-2.75c0-.268-.058-.465-.176-.59-.117-.125-.311-.187-.582-.187a.792.792 0 00-.531.175.916.916 0 00-.285.454l.004 2.898h-.949v-2.781c-.013-.498-.267-.746-.762-.746-.38 0-.65.155-.809.465V67h-.949v-4.227h.895zm8.437 3.079c0-.17-.07-.299-.211-.387-.138-.089-.368-.167-.691-.234a3.567 3.567 0 01-.809-.258c-.474-.23-.711-.561-.711-.996 0-.365.154-.67.461-.914.308-.245.698-.368 1.172-.368.505 0 .913.125 1.223.375.312.25.468.575.468.973h-.949a.577.577 0 00-.203-.453c-.135-.123-.315-.184-.539-.184a.852.852 0 00-.512.145.457.457 0 00-.195.386c0 .146.061.26.184.34.122.081.369.163.742.246.372.081.664.179.875.293.213.112.371.248.473.407.104.159.156.351.156.578 0 .38-.158.689-.473.926-.315.234-.728.351-1.238.351-.347 0-.655-.062-.926-.187a1.522 1.522 0 01-.633-.516 1.22 1.22 0 01-.226-.707h.922a.675.675 0 00.253.52c.157.12.364.18.622.18.25 0 .44-.048.57-.141a.447.447 0 00.195-.375z" fill="#A6A6A6"/><defs><filter id="filter0_d_124_7929" x="0" y="0" width="308" height="80" filterUnits="userSpaceOnUse" color-interpolation-filters="sRGB"><feFlood flood-opacity="0" result="BackgroundImageFix"/><feColorMatrix in="SourceAlpha" values="0 0 0 0 0 0 0 0 0 0 0 0 0 0 0 0 0 0 127 0" result="hardAlpha"/><feOffset dy="1"/><feGaussianBlur stdDeviation="1"/><feColorMatrix values="0 0 0 0 0 0 0 0 0 0 0 0 0 0 0 0 0 0 0.1 0"/><feBlend in2="BackgroundImageFix" result="effect1_dropShadow_124_7929"/><feBlend in="SourceGraphic" in2="effect1_dropShadow_124_7929" result="shape"/></filter></defs></svg>