<svg width="51" height="59" fill="none" xmlns="http://www.w3.org/2000/svg"><g clip-path="url(#clip0_87_8781)"><path opacity=".7" d="M40.547 43.89c-.153 0-.268-.038-.383-.077l-16.272-9.516a.41.41 0 01-.192-.35c0-.155.077-.31.268-.388l9.726-5.71a.927.927 0 01.842-.039l16.273 9.517a.41.41 0 01.191.35c0 .154-.077.31-.268.388l-9.764 5.71a.765.765 0 01-.42.116zm-6.356-16.002c-.153 0-.268.039-.383.078l-9.801 5.748c-.115.078-.192.156-.192.233 0 .078.039.156.153.194l16.273 9.517c.153.116.498.077.69-.04l9.763-5.709c.114-.078.191-.155.191-.233a.214.214 0 00-.115-.194l-16.31-9.516a.702.702 0 00-.269-.078z" fill="#6B5E9A"/><path d="M39.973 12.351h1.57c-.23-.543-.383-.854-.383-.854L25.5 5.282v26.606c0 .04.038.078.076.117l14.282 8.39c.038 0 .077.039.077.039V12.35h.038z" fill="#24126A"/><path d="M49.2 8.584l-9.036 5.205v26.683c.115 0 .192-.038.307-.077l8.576-5.05c.077-.038.115-.116.154-.194V8.584z" fill="url(#paint0_linear_87_8781)"/><path d="M39.513 5.787v34.375l.383.233c.077.039.154.077.268.039.115 0 .115-.078.192-.117l.076-.039-.076-4.078v-6.37l.191-24.043h-1.034z" fill="#393091"/><path d="M40.547 36.278V13.595l-.383.232v26.684h.077c.038 0 .077-.038.153-.038.038 0 .038-.04.077-.04l.076-.038v-4.117z" fill="#CAD0F9"/><path opacity=".51" d="M26.227 6.758l12.597 7.38v24.859l-12.597-7.38V6.758z" fill="#453C9E"/><path opacity=".51" d="M25.5 28.004l14.013-9.516v-4.894L25.5 5.282v22.722z" fill="#453C9E"/><path d="M39.896 13.827l-14.281-8.39c-.153-.077-.115-.232.038-.31L34.23.077c.153-.116.42-.116.574-.038l14.282 8.39c.153.077.114.233-.039.31l-8.576 5.05a.611.611 0 01-.575.038z" fill="#BCBEFF"/><mask id="a" style="mask-type:alpha" maskUnits="userSpaceOnUse" x="25" y="0" width="16" height="13"><path d="M34.65.427h-1.033l-7.964 4.7c-.153.117-.191.233-.038.31l.383.234 12.405 7.263h1.647L34.65.427z" fill="url(#paint1_linear_87_8781)"/></mask><g mask="url(#a)"><path opacity=".78" d="M34.65.427h-1.033l-7.964 4.7c-.153.117-.191.233-.038.31l.383.234 12.405 7.263h1.647L34.65.427z" fill="url(#paint2_linear_87_8781)"/><path d="M34.65.932l-6.853 4.04-.689-.117v.505l12.942 7.574 6.547-4.505L34.65.932z" fill="url(#paint3_linear_87_8781)"/><path d="M40.05 12.39L27.108 4.855 34.651.427l12.941 7.574-7.542 4.39z" fill="url(#paint4_linear_87_8781)"/><path d="M31.932 4.311l-.191-.155v-.078l1.914-1.126.268.116-.038.078-1.953 1.165z" fill="#3F21D3"/><path d="M33.694 3.03l.191.116.115-.078-.306-.194-2.068 1.204.115.078 1.953-1.126z" fill="url(#paint5_linear_87_8781)"/><path d="M32.583 4.661l-.23-.117.039-.116 1.914-1.126.268.155-.076.078-1.915 1.126z" fill="#3F21D3"/><path d="M34.306 3.418l.192.117.153-.078-.345-.194-2.067 1.204.115.077 1.952-1.126z" fill="url(#paint6_linear_87_8781)"/><path d="M33.196 5.01l-.191-.116v-.078l1.914-1.126.268.116-.038.078-1.953 1.127z" fill="#3F21D3"/><path d="M34.919 3.768l.23.116.114-.077-.344-.195-2.068 1.204.154.078 1.914-1.126z" fill="url(#paint7_linear_87_8781)"/><path d="M33.809 5.399l-.192-.117v-.116l1.915-1.126.268.116-.039.117-1.952 1.126z" fill="#3F21D3"/><path d="M35.57 4.117l.191.156.115-.078-.306-.233-2.106 1.243.153.078 1.953-1.166z" fill="url(#paint8_linear_87_8781)"/><path d="M35.646 6.448l-.191-.117v-.078l1.914-1.126.268.116-.038.078-1.953 1.127z" fill="#3F21D3"/><path d="M37.37 5.205l.23.116.114-.077-.345-.195-2.067 1.204.153.078 1.914-1.126z" fill="url(#paint9_linear_87_8781)"/><path d="M36.259 6.836l-.191-.117v-.116l1.914-1.126.268.116-.038.117-1.953 1.126z" fill="#3F21D3"/><path d="M38.02 5.593l.192.117.114-.078-.306-.194-2.067 1.204.114.078 1.953-1.127z" fill="url(#paint10_linear_87_8781)"/><path d="M36.91 7.186l-.23-.117.038-.078 1.915-1.126.23.117-.039.077-1.914 1.127z" fill="#3F21D3"/><path d="M38.633 5.943l.191.116.154-.077-.345-.195-2.068 1.204.115.078 1.953-1.126z" fill="url(#paint11_linear_87_8781)"/><path d="M37.523 7.574l-.192-.155V7.34l1.914-1.126.269.116-.039.078-1.953 1.165z" fill="#3F21D3"/><path d="M39.245 6.292l.23.117.115-.078-.345-.194-2.067 1.204.153.078 1.914-1.127z" fill="url(#paint12_linear_87_8781)"/><path d="M39.36 8.623l-.23-.117.039-.077 1.914-1.127.268.117-.076.077-1.915 1.127z" fill="#3F21D3"/><path d="M41.083 7.38l.192.117.153-.078-.345-.194-2.067 1.204.115.077 1.952-1.126z" fill="url(#paint13_linear_87_8781)"/><path d="M39.973 9.011l-.191-.116v-.117l1.914-1.126.268.116-.038.078-1.953 1.165z" fill="#3F21D3"/><path d="M41.696 7.73l.23.116.115-.078-.345-.194-2.068 1.243.154.078 1.914-1.165z" fill="url(#paint14_linear_87_8781)"/></g><path d="M39.169 14.216c0-.155-.115-.35-.268-.466-.077-.039-.153-.039-.192 0l-.191.116h.115v.04c0 .155.115.349.268.465 0 0 .038 0 .038.04l-.038.116.191-.117a.299.299 0 00.077-.194z" fill="url(#paint15_linear_87_8781)"/><path d="M38.977 14.332c0 .156-.114.234-.268.156a.54.54 0 01-.268-.466c0-.156.115-.233.268-.156.154.117.268.311.268.466z" fill="url(#paint16_linear_87_8781)"/><path d="M38.863 14.255c0 .077-.077.116-.154.077a.328.328 0 01-.153-.272c0-.077.077-.116.153-.077.077.077.154.194.154.272z" fill="#3F21D3"/><path d="M26.572 6.875c0-.155-.115-.35-.268-.466-.076-.04-.153-.04-.191 0l-.192.116h.115v.04c0 .154.115.349.268.465 0 0 .038 0 .038.04l-.038.116.192-.117a.299.299 0 00.076-.194z" fill="url(#paint17_linear_87_8781)"/><path d="M26.38 6.991c0 .156-.114.233-.267.156a.54.54 0 01-.268-.466c0-.156.114-.233.268-.156.153.078.268.311.268.466z" fill="url(#paint18_linear_87_8781)"/><path d="M26.266 6.914c0 .077-.077.116-.153.077a.328.328 0 01-.154-.271c0-.117.077-.117.154-.078.076.078.153.194.153.272z" fill="#3F21D3"/><path d="M39.169 39.074c0-.155-.115-.35-.268-.466-.077-.039-.153-.039-.192 0l-.19.117c.037-.04.114-.04.19 0a.54.54 0 01.268.466c0 .078-.038.116-.076.155l.191-.116c.039 0 .077-.078.077-.156z" fill="url(#paint19_linear_87_8781)"/><path d="M38.9 39.23l-.037-.04c-.039.04-.077.04-.115 0a.328.328 0 01-.153-.271c0-.078.038-.117.076-.117v-.117h-.115c-.038.04-.076.078-.076.156 0 .155.115.35.268.466.076.04.153.04.191 0l.038-.077h-.076z" fill="url(#paint20_linear_87_8781)"/><path d="M38.977 39.19c0-.155-.114-.349-.267-.465-.077-.04-.115-.04-.192 0h.115v.115h.076a.328.328 0 01.154.272v.078l.038.039s.038 0 .038.039l-.038.077c.038-.039.076-.077.076-.155z" fill="url(#paint21_linear_87_8781)"/><path d="M38.977 39.19c0-.155-.114-.349-.267-.465-.077-.04-.115-.04-.192 0h.115v.115h.076a.328.328 0 01.154.272v.078l.038.039s.038 0 .038.039l-.038.077c.038-.039.076-.077.076-.155z" fill="url(#paint22_linear_87_8781)"/><path d="M38.595 38.958c0 .077.076.194.153.272.038.038.115.038.115 0a.465.465 0 01-.192-.35c-.076-.039-.076 0-.076.078z" fill="#3F21D3"/><path d="M38.863 39.19v-.077c0-.078-.077-.194-.154-.272-.038 0-.038-.039-.076 0 .038.117.115.272.23.35z" fill="#3F21D3"/><path d="M26.304 31.306c-.076-.039-.153-.039-.191 0l-.192.116c.039-.038.115-.038.192 0a.54.54 0 01.268.467c0 .077-.039.116-.077.155l.192-.117c.038-.038.076-.077.076-.155a.54.54 0 00-.268-.466z" fill="url(#paint23_linear_87_8781)"/><path d="M26.304 31.889l-.038-.04c-.038.04-.077.04-.115 0a.328.328 0 01-.153-.271c0-.078.038-.117.076-.117v-.117h-.115c-.038.04-.076.078-.076.156 0 .155.115.35.268.466.076.039.153.039.191 0l.039-.078h-.077z" fill="url(#paint24_linear_87_8781)"/><path d="M26.38 31.85c0-.156-.114-.35-.267-.466-.077-.04-.115-.04-.192 0h.115v.116h.077a.328.328 0 01.153.272v.078l.038.039s.038 0 .038.038l-.038.078c.038-.039.077-.078.077-.155z" fill="url(#paint25_linear_87_8781)"/><path d="M26.38 31.85c0-.156-.114-.35-.267-.466-.077-.04-.115-.04-.192 0h.115v.116h.077a.328.328 0 01.153.272v.078l.038.039s.038 0 .038.038l-.038.078c.038-.039.077-.078.077-.155z" fill="url(#paint26_linear_87_8781)"/><path d="M25.96 31.617c0 .077.076.194.153.271.038.04.114.04.114 0a.465.465 0 01-.191-.35c-.038-.038-.077 0-.077.079z" fill="#3F21D3"/><path d="M26.266 31.85v-.078c0-.078-.077-.194-.153-.272-.039 0-.039-.039-.077 0 .038.117.115.272.23.35z" fill="#3F21D3"/><path d="M41.351 15.07l6.51-3.767v22.8l-6.51 3.806V15.071z" fill="#453C9E"/><path d="M47.86 34.103l-6.509 3.806v.466l6.93-4.04V11.032l-.42.272v22.8z" fill="#fff"/><path d="M46.52 23.072l.536-.31v.62l-.536.35v-.66z" fill="#42E8E0"/><path opacity=".1" d="M45.448 23.732l.536-.35v.661l-.536.31v-.62z" fill="#42E8E0"/><path opacity=".4" d="M44.376 24.354l.536-.311v.621l-.536.311v-.621z" fill="#42E8E0"/><path d="M43.304 24.975l.536-.31v.62l-.536.311v-.621z" fill="#42E8E0"/><path opacity=".4" d="M42.232 25.597l.536-.311v.621l-.536.311v-.621z" fill="#42E8E0"/><path d="M46.52 21.829l.536-.31v.62l-.536.312v-.622zm-1.072.621l.536-.31v.621l-.536.31v-.62zm-1.072.622l.536-.31v.62l-.536.311v-.621zm-1.072.622l.536-.311v.66l-.536.31v-.66zm-1.072.66l.536-.35v.66l-.536.311v-.621zm4.288-3.807l.536-.31v.62l-.536.312v-.622zm-1.072.622l.536-.311v.621l-.536.35v-.66zm-1.072.66l.536-.35v.66l-.536.311v-.621z" fill="#42E8E0"/><path opacity=".1" d="M43.304 22.45l.536-.31v.62l-.536.312v-.622z" fill="#42E8E0"/><path opacity=".4" d="M42.232 23.072l.536-.311v.621l-.536.311v-.621zm4.288-3.768l.536-.35v.66l-.536.312v-.622zm-1.072.622l.536-.311v.622l-.536.31v-.621z" fill="#42E8E0"/><path opacity=".1" d="M44.376 20.547l.536-.31v.62l-.536.312v-.622z" fill="#42E8E0"/><path d="M43.304 21.168l.536-.31v.621l-.536.31v-.62zm-1.072.622l.536-.31v.66l-.536.31v-.66zm4.288-3.768l.536-.31v.621l-.536.31v-.62zm-1.072.622l.536-.31v.62l-.536.311v-.621zm-1.072.621l.536-.31v.621l-.536.35v-.66zm-1.072.661l.536-.35v.66l-.536.311v-.621zm-1.072.621l.536-.31v.62l-.536.312v-.622zm4.288-3.807l.536-.31v.621l-.536.35v-.66zm-1.072.661l.536-.35v.66l-.536.312V17.4z" fill="#42E8E0"/><path opacity=".4" d="M44.376 18.022l.536-.31v.621l-.536.31v-.62z" fill="#42E8E0"/><path d="M43.304 18.644l.536-.311v.622l-.536.31v-.621z" fill="#42E8E0"/><path opacity=".1" d="M42.232 19.265l.536-.31v.621l-.536.31v-.62z" fill="#42E8E0"/><path d="M46.52 15.498l.536-.311v.622l-.536.31v-.621zm-1.072.622l.536-.311v.621l-.536.31v-.62z" fill="#42E8E0"/><path opacity=".4" d="M44.376 16.74l.536-.31v.621l-.536.311v-.621z" fill="#42E8E0"/><path d="M43.304 17.362l.536-.31v.621l-.536.35v-.66zm-1.072.66l.536-.35v.661l-.536.31v-.62zm4.288-3.806l.575-.31v.62l-.575.312v-.622z" fill="#42E8E0"/><path opacity=".4" d="M45.448 14.838l.536-.311v.621l-.536.35v-.66z" fill="#42E8E0"/><path d="M44.376 15.498l.536-.35v.66l-.536.311v-.621zm-1.072.622l.536-.312v.622l-.536.31v-.62zm-1.072.62l.536-.31v.621l-.536.311v-.621zm4.327-3.767l.536-.35v.66l-.575.312.039-.622z" fill="#42E8E0"/><path opacity=".1" d="M45.448 13.595l.536-.311v.621l-.536.311v-.621z" fill="#42E8E0"/><path d="M44.376 14.216l.536-.31v.62l-.536.312v-.622zm-1.072.621l.536-.31v.621l-.536.31v-.62zm-1.072.622l.536-.31v.62l-.536.35v-.66zm4.288 17.673l.536-.35v.66l-.536.311v-.621zm-1.072.621l.536-.31v.62l-.536.311v-.621zm-1.072.621l.536-.31v.621l-.536.31v-.62zm-1.072.622l.536-.31v.62l-.536.311v-.621zm-1.072.621l.536-.31v.621l-.536.35v-.66zm4.288-3.767l.536-.31v.62l-.536.311v-.621zm-1.072.621l.536-.31v.621l-.536.31v-.62zm-1.072.622l.536-.311v.621l-.536.35v-.66z" fill="#42E8E0"/><path opacity=".1" d="M43.304 33.753l.536-.35v.66l-.536.312v-.622z" fill="#42E8E0"/><path opacity=".4" d="M42.232 34.374l.536-.31v.621l-.536.31v-.62zm4.288-3.806l.536-.31v.62l-.536.35v-.66zm-1.072.661l.536-.35v.66l-.536.31v-.62z" fill="#42E8E0"/><path opacity=".1" d="M44.376 31.85l.536-.31v.62l-.536.311v-.621z" fill="#42E8E0"/><path d="M43.304 32.471l.536-.31v.62l-.536.312v-.622zm-1.072.622l.536-.311v.621l-.536.311v-.621zm4.288-3.768l.536-.31v.62l-.536.312v-.622zm-1.072.622l.536-.311v.621l-.536.311v-.621zm-1.072.621l.536-.31v.62l-.536.311v-.62zm-1.072.622l.536-.311v.621l-.536.35v-.66zm-1.072.66l.536-.35v.66l-.536.311v-.621zm4.288-3.807l.536-.31v.621l-.536.31v-.62zm-1.072.622l.536-.31v.62l-.536.35v-.66z" fill="#42E8E0"/><path opacity=".4" d="M44.376 29.325l.536-.35v.66l-.536.312v-.622z" fill="#42E8E0"/><path d="M43.304 29.947l.536-.311v.621l-.536.31v-.62z" fill="#42E8E0"/><path opacity=".1" d="M42.232 30.568l.536-.31v.62l-.536.311v-.62z" fill="#42E8E0"/><path d="M46.52 26.8l.536-.35v.661l-.536.311V26.8zm-1.072.622l.536-.31v.62l-.536.312v-.622z" fill="#42E8E0"/><path opacity=".4" d="M44.376 28.043l.536-.31v.621l-.536.31v-.62z" fill="#42E8E0"/><path d="M43.304 28.665l.536-.311v.622l-.536.31v-.621zm-1.072.621l.536-.31v.621l-.536.35v-.66zm4.288-3.767l.575-.311v.622l-.575.31v-.621z" fill="#42E8E0"/><path opacity=".4" d="M45.448 26.14l.536-.31v.621l-.536.31v-.62z" fill="#42E8E0"/><path d="M44.376 26.762l.536-.311v.621l-.536.35v-.66zm-1.072.66l.536-.35v.66l-.536.312v-.622zm-1.072.621l.536-.31v.621l-.536.31v-.62zm4.327-3.806l.536-.31v.62l-.575.35.039-.66z" fill="#42E8E0"/><path opacity=".1" d="M45.448 24.897l.536-.35v.661l-.536.31v-.62z" fill="#42E8E0"/><path d="M44.376 25.519l.536-.311v.622l-.536.31v-.621zm-1.072.621l.536-.31v.62l-.536.312v-.622zm-1.072.622l.536-.311v.621l-.536.311v-.621z" fill="#42E8E0"/><path opacity=".7" d="M28.678 51.465c-.153 0-.268-.04-.383-.078l-16.273-9.516a.409.409 0 01-.191-.35c0-.155.077-.31.268-.388l9.764-5.71a.927.927 0 01.842-.039l16.272 9.517a.409.409 0 01.192.349c0 .155-.077.31-.268.388l-9.764 5.71a.807.807 0 01-.46.117zm-6.356-16.042a.64.64 0 00-.383.117l-9.764 5.71c-.114.077-.19.155-.19.271 0 .078.037.156.114.194l16.273 9.517c.153.116.497.077.689-.04l9.763-5.709c.115-.078.192-.155.192-.272a.214.214 0 00-.115-.194l-16.273-9.516a.712.712 0 00-.306-.078z" fill="#6B5E9A"/><path d="M28.142 19.926h1.57c-.23-.544-.383-.855-.383-.855l-15.66-6.215v26.607c0 .039.038.078.076.116l14.282 8.39c.038 0 .076.039.076.039V19.926h.039z" fill="#24126A"/><path d="M37.37 16.119l-9.037 5.205v26.684c.115 0 .192-.04.307-.078l8.576-5.05c.077-.038.115-.116.153-.194V16.12z" fill="url(#paint27_linear_87_8781)"/><path d="M27.682 13.361v34.375l.383.233c.077.039.153.078.268.039.115 0 .115-.078.192-.117l.076-.039-.076-4.078v-6.409l.191-24.004h-1.034z" fill="#393091"/><path d="M28.716 43.813V21.13l-.383.232v26.684h.077c.038 0 .076-.038.153-.038.038 0 .038-.04.077-.04l.076-.038v-4.117z" fill="#CAD0F9"/><path opacity=".51" d="M14.358 14.293l12.597 7.38v24.859l-12.597-7.38V14.294z" fill="#453C9E"/><path opacity=".51" d="M13.669 35.579l14.013-9.517V21.13L13.67 12.856V35.58z" fill="#453C9E"/><path d="M28.065 21.363l-14.32-8.39c-.153-.078-.114-.233.039-.31l8.576-5.05c.153-.117.421-.117.575-.04l14.281 8.39c.153.078.115.234-.038.311l-8.577 5.05a.533.533 0 01-.536.039z" fill="#BCBEFF"/><mask id="b" style="mask-type:alpha" maskUnits="userSpaceOnUse" x="13" y="7" width="16" height="14"><path d="M22.82 7.962h-1.034l-7.964 4.7c-.153.117-.191.233-.038.31l.382.234 12.406 7.263h1.646L22.82 7.962z" fill="url(#paint28_linear_87_8781)"/></mask><g mask="url(#b)"><path opacity=".78" d="M22.82 7.962h-1.034l-7.964 4.7c-.153.117-.191.233-.038.31l.382.234 12.406 7.263h1.646L22.82 7.962z" fill="url(#paint29_linear_87_8781)"/><path d="M22.82 8.506l-6.854 4-.69-.116v.505L28.18 20.47l6.547-4.505L22.82 8.506z" fill="url(#paint30_linear_87_8781)"/><path d="M35.723 15.536v.505L28.18 20.47v-.505l7.543-4.428z" fill="url(#paint31_linear_87_8781)"/><path d="M28.18 19.964L15.277 12.39l7.543-4.428 12.903 7.575-7.543 4.427z" fill="url(#paint32_linear_87_8781)"/><path d="M20.101 11.847l-.191-.117v-.117l1.914-1.126.268.117-.038.116-1.953 1.127z" fill="#3F21D3"/><path d="M21.824 10.565l.23.155.115-.078-.345-.233-2.067 1.243.153.078 1.914-1.165z" fill="url(#paint33_linear_87_8781)"/><path d="M20.714 12.196l-.192-.116v-.117l1.915-1.126.268.155-.038.078-1.953 1.126z" fill="#3F21D3"/><path d="M22.475 10.953l.191.117.115-.078-.306-.194-2.068 1.204.115.078 1.953-1.127z" fill="url(#paint34_linear_87_8781)"/><path d="M21.365 12.585l-.23-.156.038-.078 1.915-1.126.268.117-.077.077-1.914 1.165z" fill="#3F21D3"/><path d="M23.088 11.303l.191.116.153-.077-.344-.194-2.068 1.204.115.077 1.953-1.126z" fill="url(#paint35_linear_87_8781)"/><path d="M21.977 12.934l-.191-.116V12.7l1.914-1.126.268.155-.038.078-1.953 1.126z" fill="#3F21D3"/><path d="M23.7 11.691l.23.117.115-.078-.345-.194-2.067 1.204.153.078L23.7 11.69z" fill="url(#paint36_linear_87_8781)"/><path d="M23.815 14.022l-.23-.117.039-.116 1.914-1.127.268.117-.076.077-1.915 1.166z" fill="#3F21D3"/><path d="M25.538 12.74l.192.116.153-.077-.345-.194-2.067 1.242.114.078 1.953-1.165z" fill="url(#paint37_linear_87_8781)"/><path d="M24.428 14.371l-.192-.116v-.117l1.915-1.126.268.155-.038.078-1.953 1.126z" fill="#3F21D3"/><path d="M26.15 13.128l.23.117.115-.078-.344-.194-2.068 1.204.153.078 1.915-1.127z" fill="url(#paint38_linear_87_8781)"/><path d="M25.04 14.72l-.191-.116v-.077l1.914-1.127.268.117-.038.077-1.953 1.127z" fill="#3F21D3"/><path d="M26.802 13.478l.191.116.115-.077-.306-.194-2.068 1.204.115.077 1.953-1.126z" fill="url(#paint39_linear_87_8781)"/><path d="M25.691 15.11l-.23-.117.039-.117 1.914-1.126.23.116-.038.117-1.915 1.126z" fill="#3F21D3"/><path d="M27.414 13.828l.192.155.153-.078-.345-.233-2.067 1.243.114.078 1.953-1.165z" fill="url(#paint40_linear_87_8781)"/><path d="M27.49 16.158l-.19-.117v-.077l1.914-1.127.268.117-.038.078-1.953 1.126z" fill="#3F21D3"/><path d="M29.252 14.915l.192.117.114-.078-.306-.194-2.067 1.204.114.077 1.953-1.126z" fill="url(#paint41_linear_87_8781)"/><path d="M28.142 16.547l-.23-.117.038-.117 1.915-1.126.268.155-.077.078-1.914 1.127z" fill="#3F21D3"/><path d="M29.865 15.304l.191.116.153-.078-.344-.194-2.068 1.204.115.078 1.953-1.126z" fill="url(#paint42_linear_87_8781)"/></g><path d="M27.3 21.751c0-.155-.115-.35-.269-.466-.076-.039-.153-.039-.191 0l-.191.116h.114v.04c0 .155.115.349.268.466 0 0 .039 0 .039.038l-.039.117.192-.117c.076-.038.076-.077.076-.194z" fill="url(#paint43_linear_87_8781)"/><path d="M27.146 21.868c0 .155-.115.233-.268.155a.54.54 0 01-.268-.466c0-.155.115-.233.268-.155.153.116.268.31.268.466z" fill="url(#paint44_linear_87_8781)"/><path d="M27.031 21.829c0 .078-.076.116-.153.078a.328.328 0 01-.153-.272c0-.078.077-.117.153-.078a.328.328 0 01.153.272z" fill="#3F21D3"/><path d="M14.703 14.449c0-.155-.115-.35-.268-.466-.077-.04-.154-.04-.192 0l-.191.116h.114v.04c0 .155.115.349.268.465 0 0 .039 0 .039.039l-.039.117.192-.117c.077-.078.077-.117.077-.194z" fill="url(#paint45_linear_87_8781)"/><path d="M14.55 14.527c0 .155-.116.233-.269.155a.54.54 0 01-.268-.466c0-.155.115-.233.268-.155.153.116.268.31.268.466z" fill="url(#paint46_linear_87_8781)"/><path d="M14.434 14.488c0 .077-.076.116-.153.077a.328.328 0 01-.153-.272c0-.077.077-.116.153-.077a.328.328 0 01.153.272z" fill="#3F21D3"/><path d="M27.3 46.61c0-.156-.116-.35-.269-.467-.076-.038-.153-.038-.191 0l-.192.117c.039-.039.115-.039.192 0a.54.54 0 01.268.466c0 .078-.038.117-.077.155l.192-.116c.076 0 .076-.078.076-.156z" fill="url(#paint47_linear_87_8781)"/><path d="M27.07 46.765l-.039-.04c-.038.04-.076.04-.114 0a.328.328 0 01-.154-.271c0-.078.039-.117.077-.117v-.117h-.115c-.038.04-.077.079-.077.156 0 .156.115.35.268.466.077.04.154.04.192 0l.038-.077c-.038.039-.076 0-.076 0z" fill="url(#paint48_linear_87_8781)"/><path d="M27.146 46.726c0-.155-.115-.35-.268-.466-.076-.039-.115-.039-.191 0h.115v.116h.076a.328.328 0 01.153.272v.078l.039.039s.038 0 .038.039l-.038.077c.038-.038.076-.077.076-.155z" fill="url(#paint49_linear_87_8781)"/><path d="M27.146 46.726c0-.155-.115-.35-.268-.466-.076-.039-.115-.039-.191 0h.115v.116h.076a.328.328 0 01.153.272v.078l.039.039s.038 0 .038.039l-.038.077c.038-.038.076-.077.076-.155z" fill="url(#paint50_linear_87_8781)"/><path d="M26.725 46.493c0 .078.077.194.153.272.038.039.115.039.115 0a.465.465 0 01-.191-.35c-.039-.039-.077 0-.077.078z" fill="#3F21D3"/><path d="M26.993 46.726v-.078c0-.077-.076-.194-.153-.272-.038 0-.038-.038-.077 0 .077.117.153.272.23.35z" fill="#3F21D3"/><path d="M14.473 38.841c-.077-.039-.153-.039-.192 0l-.191.117c.038-.04.115-.04.191 0a.54.54 0 01.268.466c0 .077-.038.116-.076.155l.191-.116c.039-.04.077-.078.077-.156-.038-.194-.153-.388-.268-.466z" fill="url(#paint51_linear_87_8781)"/><path d="M14.473 39.424l-.039-.04c-.038.04-.076.04-.114 0a.328.328 0 01-.154-.271c0-.078.039-.117.077-.117v-.117h-.115c-.038.04-.076.079-.076.156 0 .156.114.35.268.466.076.04.153.04.191 0l.038-.077c-.038.038-.076 0-.076 0z" fill="url(#paint52_linear_87_8781)"/><path d="M14.55 39.385c0-.155-.115-.35-.269-.466-.076-.04-.115-.04-.191 0h.115v.116c.038 0 .038 0 .076.04a.328.328 0 01.154.271v.078l.038.039s.038 0 .038.038l-.038.078a.299.299 0 00.076-.194z" fill="url(#paint53_linear_87_8781)"/><path d="M14.55 39.385c0-.155-.115-.35-.269-.466-.076-.04-.115-.04-.191 0h.115v.116c.038 0 .038 0 .076.04a.328.328 0 01.154.271v.078l.038.039s.038 0 .038.038l-.038.078a.299.299 0 00.076-.194z" fill="url(#paint54_linear_87_8781)"/><path d="M14.128 39.152c0 .077.077.194.153.272.039.038.115.038.115 0a.465.465 0 01-.191-.35c-.039-.039-.077 0-.077.078z" fill="#3F21D3"/><path d="M14.396 39.385v-.078c0-.077-.076-.194-.153-.272-.038 0-.038-.038-.077-.038.077.194.154.31.23.388z" fill="#3F21D3"/><path d="M29.52 22.644l6.51-3.806-.04 22.8-6.47 3.806v-22.8z" fill="#453C9E"/><path d="M35.99 41.638l-6.47 3.806v.505l6.892-4.078.038-23.305-.42.272-.04 22.8z" fill="#fff"/><path d="M34.689 30.645l.536-.35v.661l-.536.31v-.62z" fill="#42E8E0"/><path opacity=".1" d="M33.617 31.267l.536-.31v.62l-.536.311v-.621z" fill="#42E8E0"/><path opacity=".4" d="M32.545 31.888l.536-.31v.621l-.536.31v-.62z" fill="#42E8E0"/><path d="M31.434 32.51l.575-.311v.621l-.575.311v-.621z" fill="#42E8E0"/><path opacity=".4" d="M30.362 33.131l.537-.31v.66l-.537.31v-.66z" fill="#42E8E0"/><path d="M34.689 29.364l.536-.311v.621l-.536.311v-.621zm-1.072.621l.536-.31v.621l-.536.31v-.62zm-1.072.622l.536-.311v.66l-.536.31v-.66zm-1.072.66l.536-.35v.66l-.536.311v-.62zm-1.111.621l.537-.31v.621l-.537.31v-.62zm4.327-3.806l.536-.31v.62l-.536.35v-.66zm-1.072.66l.536-.35v.661l-.536.31v-.62zm-1.072.622l.536-.311v.621l-.536.311v-.621z" fill="#42E8E0"/><path opacity=".1" d="M31.473 29.985l.536-.31v.62l-.536.311v-.621z" fill="#42E8E0"/><path opacity=".4" d="M30.362 30.607l.537-.311v.621l-.537.311v-.621zm4.327-3.768l.536-.31v.62l-.536.311v-.621zm-1.072.621l.536-.31v.621l-.536.311v-.621z" fill="#42E8E0"/><path opacity=".1" d="M32.545 28.082l.536-.31v.62l-.536.311v-.621z" fill="#42E8E0"/><path d="M31.473 28.704l.536-.311v.66l-.536.31v-.66zm-1.111.66l.575-.35v.66l-.575.311v-.621zm4.327-3.807l.536-.31v.621l-.536.31v-.62zm-1.072.622l.536-.31v.62l-.536.35v-.66zm-1.072.661l.536-.35v.66l-.536.31v-.62zm-1.072.62l.536-.31v.621l-.536.31v-.62zm-1.111.622l.575-.31v.62l-.575.311v-.621zm4.328-3.768l.535-.35v.661l-.536.31v-.62zm-1.073.622l.536-.31v.62l-.536.311v-.621z" fill="#42E8E0"/><path opacity=".4" d="M32.545 25.557l.536-.31v.621l-.536.31v-.62z" fill="#42E8E0"/><path d="M31.473 26.179l.536-.311v.621l-.536.311v-.621z" fill="#42E8E0"/><path opacity=".1" d="M30.4 26.8l.537-.31v.66l-.536.31v-.66z" fill="#42E8E0"/><path d="M34.69 23.033l.535-.311v.621l-.536.311v-.621zm-1.073.621l.536-.31v.62l-.536.312v-.622z" fill="#42E8E0"/><path opacity=".4" d="M32.545 24.276l.536-.311v.621l-.536.35v-.66z" fill="#42E8E0"/><path d="M31.473 24.936l.536-.35v.66l-.536.312v-.622zm-1.073.621l.537-.31v.621l-.536.31v-.62zm4.29-3.807l.535-.31v.622l-.536.35v-.661z" fill="#42E8E0"/><path opacity=".4" d="M33.617 22.411l.536-.35v.66l-.536.312v-.622z" fill="#42E8E0"/><path d="M32.545 23.033l.536-.311v.621l-.536.311v-.621zm-1.072.621l.536-.31v.621l-.536.31v-.62zm-1.073.622l.537-.311v.621l-.536.311v-.621zm4.29-3.768l.535-.31v.62l-.536.311v-.621z" fill="#42E8E0"/><path opacity=".1" d="M33.617 21.13l.536-.311v.621l-.536.311v-.621z" fill="#42E8E0"/><path d="M32.545 21.75l.536-.31v.622l-.536.31v-.621zm-1.072.622l.536-.31v.621l-.536.35v-.66zm-1.073.661l.537-.35v.66l-.536.311v-.621zm4.289 17.634l.536-.311v.621l-.536.311v-.621zm-1.072.621l.536-.31v.621l-.536.31v-.62zm-1.072.622l.536-.311v.621l-.536.311v-.621zm-1.072.621l.536-.31v.62l-.536.35v-.66zm-1.111.66l.537-.35v.661l-.537.31v-.62zm4.327-3.806l.536-.311v.621l-.536.311v-.621zm-1.072.621l.536-.31v.621l-.536.35v-.66zm-1.072.66l.536-.35v.661l-.536.31v-.62z" fill="#42E8E0"/><path opacity=".1" d="M31.473 41.288l.536-.31v.62l-.536.311v-.621z" fill="#42E8E0"/><path opacity=".4" d="M30.362 41.91l.537-.311v.621l-.537.31v-.62zm4.327-3.768l.536-.35v.66l-.536.311v-.621zm-1.072.621l.536-.31v.621l-.536.31v-.62z" fill="#42E8E0"/><path opacity=".1" d="M32.545 39.385l.536-.311v.621l-.536.311v-.621z" fill="#42E8E0"/><path d="M31.473 40.006l.536-.31v.62l-.536.311v-.621zm-1.111.622l.575-.311v.621l-.575.35v-.66zm4.327-3.768l.536-.31v.62l-.536.311v-.621zm-1.072.622l.536-.311v.621l-.536.311v-.621zm-1.072.621l.536-.31v.62l-.536.35v-.66zm-1.072.66l.536-.35v.661l-.536.31v-.62zm-1.111.622l.575-.311v.621l-.575.311v-.621zm4.328-3.807l.535-.31v.621l-.536.35v-.66zm-1.073.661l.536-.35v.66l-.536.311v-.621z" fill="#42E8E0"/><path opacity=".4" d="M32.545 36.86l.536-.31v.62l-.536.311v-.621z" fill="#42E8E0"/><path d="M31.473 37.481l.536-.31v.621l-.536.31v-.62z" fill="#42E8E0"/><path opacity=".1" d="M30.4 38.103l.537-.31v.62l-.536.311v-.621z" fill="#42E8E0"/><path d="M34.69 34.335l.535-.31v.621l-.536.31v-.62zm-1.073.622l.536-.31v.62l-.536.311v-.621z" fill="#42E8E0"/><path opacity=".4" d="M32.545 35.578l.536-.31v.621l-.536.31v-.62z" fill="#42E8E0"/><path d="M31.473 36.2l.536-.31v.62l-.536.35v-.66zm-1.073.66l.537-.35v.66l-.536.311v-.62zm4.29-3.806l.535-.311v.621l-.536.311v-.621z" fill="#42E8E0"/><path opacity=".4" d="M33.617 33.675l.536-.31v.62l-.536.35v-.66z" fill="#42E8E0"/><path d="M32.545 34.335l.536-.35v.661l-.536.31v-.62zm-1.072.622l.536-.311v.621l-.536.311v-.621zm-1.073.621l.537-.31v.621l-.536.31v-.62zm4.29-3.768l.535-.349v.66l-.536.311v-.621z" fill="#42E8E0"/><path opacity=".1" d="M33.617 32.432l.536-.31v.621l-.536.31v-.62z" fill="#42E8E0"/><path d="M32.545 33.054l.536-.311v.621l-.536.311v-.621zm-1.072.621l.536-.31v.62l-.536.312v-.622zm-1.073.622l.537-.311v.621l-.536.35v-.66z" fill="#42E8E0"/><path opacity=".7" d="M16.847 59c-.153 0-.268-.039-.383-.078L.191 49.367a.41.41 0 01-.191-.35c0-.155.077-.31.268-.388l9.764-5.71a.927.927 0 01.842-.038l16.234 9.555a.41.41 0 01.191.35c0 .155-.076.31-.267.388l-9.764 5.71c-.077.077-.268.116-.421.116zM10.49 42.96a.64.64 0 00-.383.116l-9.763 5.71c-.115.078-.192.155-.192.233 0 .078.038.155.115.194l16.273 9.516c.153.117.497.078.689-.039l9.763-5.71c.115-.077.192-.155.192-.271a.214.214 0 00-.115-.194l-16.273-9.517c-.076 0-.191-.038-.306-.038z" fill="#6B5E9A"/><path d="M16.31 27.461h1.57c-.229-.544-.382-.854-.382-.854l-15.66-6.215v26.607c0 .038.038.077.076.116l14.282 8.39c.038 0 .077.038.077.038V27.461h.038z" fill="#24126A"/><path d="M25.5 23.654l-8.998 5.205v26.684c.115 0 .192-.039.307-.077l8.576-5.05c.077-.039.115-.116.153-.194L25.5 23.654z" fill="url(#paint55_linear_87_8781)"/><path d="M15.851 20.897V55.27l.383.233c.077.04.153.078.268.04.115 0 .115-.078.192-.117l.076-.04-.076-4.078V44.9l.153-24.004h-.996z" fill="#393091"/><path d="M16.847 51.348V28.665l-.383.233v26.645h.077c.038 0 .076-.039.153-.039.038 0 .038-.038.076-.038l.077-.04v-4.078z" fill="#CAD0F9"/><path opacity=".51" d="M2.527 21.829l12.597 7.38v24.858l-12.597-7.38V21.83z" fill="#453C9E"/><path opacity=".51" d="M1.838 43.114l14.013-9.516v-4.933L1.838 20.392v22.722z" fill="#453C9E"/><path d="M16.196 28.898l-14.282-8.35c-.153-.079-.114-.234.039-.312l8.576-5.049c.153-.117.421-.117.575-.039l14.281 8.39c.153.078.115.233-.038.31l-8.577 5.05a.737.737 0 01-.574 0z" fill="#BCBEFF"/><mask id="c" style="mask-type:alpha" maskUnits="userSpaceOnUse" x="1" y="15" width="16" height="14"><path d="M10.989 15.537H9.955l-8.002 4.66c-.153.117-.192.234-.039.311l.383.233 12.406 7.264h1.646l-5.36-12.468z" fill="url(#paint56_linear_87_8781)"/></mask><g mask="url(#c)"><path opacity=".78" d="M10.989 15.537H9.955l-8.002 4.66c-.153.117-.192.234-.039.311l.383.233 12.406 7.264h1.646l-5.36-12.468z" fill="url(#paint57_linear_87_8781)"/><path d="M10.989 16.041l-6.892 4.001-.651-.116v.505l12.903 7.574 6.547-4.506-11.907-7.457z" fill="url(#paint58_linear_87_8781)"/><path d="M16.35 27.5L3.445 19.926l7.543-4.39 12.903 7.536-7.543 4.428z" fill="url(#paint59_linear_87_8781)"/><path d="M8.27 19.382l-.23-.117.039-.116 1.914-1.127.268.156-.076.078-1.915 1.126z" fill="#3F21D3"/><path d="M9.993 18.139l.192.117.153-.078-.345-.194-2.067 1.204.115.077 1.952-1.126z" fill="url(#paint60_linear_87_8781)"/><path d="M8.883 19.732l-.191-.117v-.078l1.914-1.126.268.116-.038.078-1.953 1.127z" fill="#3F21D3"/><path d="M10.606 18.489l.23.116.114-.078-.344-.194-2.068 1.204.153.078 1.915-1.126z" fill="url(#paint61_linear_87_8781)"/><path d="M9.496 20.12l-.192-.117v-.116l1.915-1.127.268.117-.039.117-1.952 1.126z" fill="#3F21D3"/><path d="M11.257 18.838l.191.156.115-.078-.306-.233-2.068 1.243.115.078 1.953-1.166z" fill="url(#paint62_linear_87_8781)"/><path d="M10.146 20.47l-.23-.117.039-.117 1.914-1.126.268.155-.076.078-1.915 1.127z" fill="#3F21D3"/><path d="M11.87 19.227l.19.116.154-.078-.345-.194-2.067 1.204.115.078 1.952-1.126z" fill="url(#paint63_linear_87_8781)"/><path d="M11.946 21.557l-.191-.117v-.116l1.914-1.127.268.117-.038.117-1.953 1.126z" fill="#3F21D3"/><path d="M13.707 20.314l.192.117.115-.078-.307-.194-2.067 1.204.114.078 1.953-1.127z" fill="url(#paint64_linear_87_8781)"/><path d="M12.597 21.907l-.23-.117.038-.078 1.915-1.126.268.117-.077.077-1.914 1.127z" fill="#3F21D3"/><path d="M14.32 20.664l.191.116.154-.078-.345-.194-2.068 1.204.115.078 1.953-1.126z" fill="url(#paint65_linear_87_8781)"/><path d="M13.21 22.295l-.192-.155v-.078l1.914-1.127.268.117-.038.078-1.953 1.165z" fill="#3F21D3"/><path d="M14.932 21.013l.23.117.115-.078-.345-.194-2.067 1.204.153.078 1.914-1.127z" fill="url(#paint66_linear_87_8781)"/><path d="M13.822 22.645l-.191-.117v-.116l1.914-1.127.268.155-.038.078-1.953 1.127z" fill="#3F21D3"/><path d="M15.583 21.402l.192.116.115-.078-.307-.194-2.067 1.204.115.078 1.952-1.126z" fill="url(#paint67_linear_87_8781)"/><path d="M15.66 23.732l-.191-.116v-.117l1.914-1.126.268.116-.038.117-1.953 1.126z" fill="#3F21D3"/><path d="M17.383 22.45l.23.156.114-.078-.344-.233-2.068 1.243.154.078 1.914-1.166z" fill="url(#paint68_linear_87_8781)"/><path d="M16.273 24.082l-.192-.117v-.116l1.915-1.127.268.155-.039.078-1.953 1.127z" fill="#3F21D3"/><path d="M18.034 22.839l.191.116.115-.077-.306-.195-2.068 1.204.115.078 1.953-1.126z" fill="url(#paint69_linear_87_8781)"/></g><path d="M15.468 29.325c0-.155-.114-.35-.268-.466-.076-.039-.153-.039-.191 0l-.191.117h.114v.039c0 .155.115.35.268.466 0 0 .039 0 .039.038l-.039.117.192-.116c.038-.078.076-.117.076-.195z" fill="url(#paint70_linear_87_8781)"/><path d="M15.277 29.403c0 .155-.115.233-.268.155a.54.54 0 01-.268-.466c0-.194.115-.233.268-.155.153.116.268.31.268.466z" fill="url(#paint71_linear_87_8781)"/><path d="M15.2 29.364c0 .078-.076.117-.153.078a.328.328 0 01-.153-.272c0-.117.077-.117.153-.078a.328.328 0 01.153.272z" fill="#3F21D3"/><path d="M2.872 21.984c0-.155-.115-.35-.268-.466-.077-.039-.154-.039-.192 0l-.191.117h.115v.038c0 .156.114.35.268.467 0 0 .038 0 .038.038l-.038.117.191-.155c.038-.04.077-.078.077-.156z" fill="url(#paint72_linear_87_8781)"/><path d="M2.68 22.1c0 .156-.115.234-.268.156-.115-.116-.23-.31-.23-.466 0-.155.115-.233.268-.155.115.077.23.272.23.466z" fill="url(#paint73_linear_87_8781)"/><path d="M2.604 22.023c0 .078-.077.117-.154.078a.328.328 0 01-.153-.272c0-.117.077-.117.153-.078a.328.328 0 01.154.272z" fill="#3F21D3"/><path d="M15.468 54.145c0-.156-.114-.35-.268-.466-.076-.04-.153-.04-.191 0l-.191.116c.038-.038.114-.038.19 0a.54.54 0 01.269.466c0 .078-.038.117-.077.156l.192-.117c.038 0 .076-.039.076-.155z" fill="url(#paint74_linear_87_8781)"/><path d="M15.2 54.3l-.038-.039c-.038.04-.077.04-.115 0a.328.328 0 01-.153-.272c0-.077.038-.116.077-.116v-.117h-.115c-.038.04-.077.078-.077.156 0 .155.115.35.268.466.077.039.153.039.192 0l.038-.078c-.038.039-.038.039-.077 0z" fill="url(#paint75_linear_87_8781)"/><path d="M15.277 54.261c0-.155-.115-.35-.268-.466-.077-.039-.115-.039-.191 0h.114v.117c.039 0 .039 0 .077.039a.328.328 0 01.153.271v.078l.038.039s.039 0 .039.039l-.039.078c.077-.04.077-.117.077-.195z" fill="url(#paint76_linear_87_8781)"/><path d="M15.277 54.261c0-.155-.115-.35-.268-.466-.077-.039-.115-.039-.191 0h.114v.117c.039 0 .039 0 .077.039a.328.328 0 01.153.271v.078l.038.039s.039 0 .039.039l-.039.078c.077-.04.077-.117.077-.195z" fill="url(#paint77_linear_87_8781)"/><path d="M14.894 54.028c0 .078.077.194.153.272.038.039.115.039.115 0a.465.465 0 01-.191-.35c-.039-.038-.077 0-.077.078z" fill="#3F21D3"/><path d="M15.162 54.261v-.078c0-.077-.077-.194-.153-.271-.038 0-.038-.04-.077-.04.077.195.153.312.23.39z" fill="#3F21D3"/><path d="M2.604 46.377c-.077-.04-.154-.04-.192 0l-.191.116c.038-.039.115-.039.191 0a.54.54 0 01.268.466c0 .078-.038.117-.076.155l.191-.116c.038-.039.077-.078.077-.155a.54.54 0 00-.268-.467z" fill="url(#paint78_linear_87_8781)"/><path d="M2.604 46.96l-.039-.04c-.038.04-.076.04-.115 0a.328.328 0 01-.153-.272c0-.077.039-.116.077-.116v-.117h-.115c-.038.04-.077.078-.077.156 0 .155.115.35.268.466.077.039.154.039.192 0l.038-.04c-.038 0-.038 0-.076-.038z" fill="url(#paint79_linear_87_8781)"/><path d="M2.68 46.92c0-.155-.115-.35-.268-.466-.076-.039-.115-.039-.191 0h.115v.117c.038 0 .038 0 .076.038a.328.328 0 01.153.272v.078l.039.039s.038 0 .038.039l-.038.078c.076-.04.076-.117.076-.195z" fill="url(#paint80_linear_87_8781)"/><path d="M2.68 46.92c0-.155-.115-.35-.268-.466-.076-.039-.115-.039-.191 0h.115v.117c.038 0 .038 0 .076.038a.328.328 0 01.153.272v.078l.039.039s.038 0 .038.039l-.038.078c.076-.04.076-.117.076-.195z" fill="url(#paint81_linear_87_8781)"/><path d="M2.297 46.687c0 .078.077.195.153.272.039.039.115.039.115 0a.465.465 0 01-.191-.35c-.038 0-.077 0-.077.078z" fill="#3F21D3"/><path d="M2.565 46.92v-.077c0-.078-.076-.195-.153-.272-.038 0-.038-.039-.076-.039.038.194.153.31.23.388z" fill="#3F21D3"/><path d="M17.69 30.18l6.508-3.806-.038 22.8-6.51 3.806.04-22.8z" fill="#453C9E"/><path d="M24.16 49.173l-6.51 3.807v.505l6.931-4.04V26.14l-.383.233-.038 22.8z" fill="#fff"/><path d="M22.858 38.181l.536-.31v.621l-.536.31v-.62z" fill="#42E8E0"/><path opacity=".1" d="M21.748 38.803l.574-.31v.62l-.574.311v-.621z" fill="#42E8E0"/><path opacity=".4" d="M20.676 39.424l.536-.31v.621l-.536.31v-.62z" fill="#42E8E0"/><path d="M19.604 40.046l.536-.31v.66l-.537.31v-.66z" fill="#42E8E0"/><path opacity=".4" d="M18.532 40.706l.535-.35v.66l-.535.312v-.622z" fill="#42E8E0"/><path d="M22.858 36.9l.536-.311v.621l-.536.31v-.62zm-1.11.62l.574-.31v.66l-.574.311v-.66zm-1.072.661l.536-.35v.66l-.536.312v-.622zm-1.072.621l.536-.31v.621l-.537.31v-.62zm-1.072.622l.535-.31v.62l-.535.311v-.621zm4.326-3.767l.536-.35v.66l-.536.31v-.62zm-1.072.621l.536-.31v.62l-.536.312v-.622zm-1.11.622l.536-.311v.621l-.536.31v-.62z" fill="#42E8E0"/><path opacity=".1" d="M19.604 37.52l.536-.31v.621l-.537.311v-.621z" fill="#42E8E0"/><path opacity=".4" d="M18.532 38.142l.535-.31v.66l-.535.31v-.66zm4.326-3.767l.536-.311v.621l-.536.311v-.621zm-1.072.621l.536-.31v.621l-.536.31v-.62z" fill="#42E8E0"/><path opacity=".1" d="M20.676 35.618l.574-.311-.038.66-.536.31v-.66z" fill="#42E8E0"/><path d="M19.604 36.278l.536-.35v.66l-.537.312v-.622zm-1.072.622l.535-.311v.621l-.535.31v-.62zm4.326-3.807l.536-.31v.62l-.536.35v-.66zm-1.072.66l.536-.35v.661l-.536.31v-.62zm-1.11.622l.574-.311v.621l-.574.311v-.621zm-1.072.621l.536-.31v.62l-.537.312v-.622zm-1.072.622l.535-.311v.621l-.535.311v-.621zm4.326-3.768l.536-.31v.62l-.536.312v-.622zm-1.072.622l.536-.311v.621l-.536.311v-.621z" fill="#42E8E0"/><path opacity=".4" d="M20.714 33.093l.536-.31v.62l-.574.311.038-.621z" fill="#42E8E0"/><path d="M19.604 33.715l.536-.311v.66l-.537.31v-.66z" fill="#42E8E0"/><path opacity=".1" d="M18.532 34.375l.535-.35v.66l-.535.311v-.621z" fill="#42E8E0"/><path d="M22.858 30.568l.536-.31v.621l-.536.31v-.62zm-1.072.622l.536-.31v.62l-.536.35v-.66z" fill="#42E8E0"/><path opacity=".4" d="M20.714 31.85l.536-.35v.66l-.536.312v-.622z" fill="#42E8E0"/><path d="M19.604 32.471l.536-.31v.621l-.537.31v-.62zm-1.072.622l.535-.31v.62l-.535.311v-.621zm4.326-3.768l.536-.35v.661l-.536.31v-.62z" fill="#42E8E0"/><path opacity=".4" d="M21.786 29.947l.536-.31v.62l-.536.311v-.621z" fill="#42E8E0"/><path d="M20.714 30.568l.536-.31v.621l-.536.31v-.62zm-1.11.622l.574-.311-.038.621-.537.311v-.621zm-1.072.621l.535-.31v.66l-.535.31v-.66zm4.326-3.767l.536-.311v.621l-.536.311v-.621z" fill="#42E8E0"/><path opacity=".1" d="M21.786 28.665l.536-.31v.621l-.536.31v-.62z" fill="#42E8E0"/><path d="M20.714 29.287l.536-.311v.621l-.536.35v-.66zm-1.11.66l.574-.35v.66l-.575.311v-.621zm-1.072.621l.535-.31v.621l-.535.31v-.62zm4.326 17.634l.536-.31v.62l-.536.312v-.622zm-1.11.622l.574-.311v.621l-.574.311v-.621zm-1.072.621l.536-.31v.62l-.536.35v-.66zm-1.072.66l.536-.35v.661l-.537.31v-.62zm-1.072.622l.535-.311v.622l-.535.31v-.621zm4.326-3.807l.536-.31v.621l-.536.35v-.66zm-1.072.66l.536-.349v.66l-.536.311v-.621zm-1.11.622l.536-.31v.62l-.536.312v-.622z" fill="#42E8E0"/><path opacity=".1" d="M19.604 48.823l.536-.31v.621l-.537.31v-.62z" fill="#42E8E0"/><path opacity=".4" d="M18.532 49.445l.535-.31v.62l-.535.311v-.621zm4.326-3.768l.536-.31v.621l-.536.31v-.62zm-1.072.622l.536-.31v.62l-.536.311v-.62z" fill="#42E8E0"/><path opacity=".1" d="M20.676 46.92l.574-.31-.038.621-.536.31v-.62z" fill="#42E8E0"/><path d="M19.604 47.542l.536-.31v.62l-.537.35v-.66zm-1.072.66l.535-.35v.66l-.535.312v-.622zm4.326-3.806l.536-.311v.621l-.536.311v-.621zm-1.072.621l.536-.31v.62l-.536.35v-.66zm-1.11.661l.574-.35v.66l-.574.31v-.62zm-1.072.621l.536-.311v.621l-.537.311v-.62zm-1.072.621l.535-.31v.621l-.535.31v-.62zm4.326-3.767l.536-.35v.66l-.536.311v-.621zm-1.072.621l.536-.31v.621l-.536.31v-.62z" fill="#42E8E0"/><path opacity=".4" d="M20.714 44.396l.536-.311v.621l-.574.311.038-.621z" fill="#42E8E0"/><path d="M19.604 45.017l.536-.31v.62l-.537.312v-.622z" fill="#42E8E0"/><path opacity=".1" d="M18.532 45.639l.535-.311v.621l-.535.35v-.66z" fill="#42E8E0"/><path d="M22.858 41.871l.536-.31v.62l-.536.312v-.622zm-1.072.621l.536-.31v.621l-.536.31v-.62z" fill="#42E8E0"/><path opacity=".4" d="M20.714 43.114l.536-.31v.62l-.536.35v-.66z" fill="#42E8E0"/><path d="M19.604 43.774l.536-.35v.661l-.537.31v-.62zm-1.072.622l.535-.311v.621l-.535.311v-.621zm4.326-3.806l.536-.311v.621l-.536.35v-.66z" fill="#42E8E0"/><path opacity=".4" d="M21.786 41.25l.536-.35v.66l-.536.311v-.621z" fill="#42E8E0"/><path d="M20.714 41.871l.536-.31v.62l-.536.312v-.622zm-1.11.621l.574-.31-.038.621-.537.31v-.62zm-1.072.622l.535-.31v.62l-.535.311v-.621zm4.326-3.768l.536-.31v.621l-.536.31v-.62z" fill="#42E8E0"/><path opacity=".1" d="M21.786 39.968l.536-.31v.62l-.536.311v-.621z" fill="#42E8E0"/><path d="M20.714 40.59l.536-.311v.621l-.536.31v-.62zm-1.11.62l.574-.31v.622l-.575.35v-.661zm-1.072.661l.535-.35v.66l-.535.312v-.622z" fill="#42E8E0"/></g><defs><linearGradient id="paint0_linear_87_8781" x1="44.681" y1="40.445" x2="44.681" y2="8.568" gradientUnits="userSpaceOnUse"><stop stop-color="#C0BFF6"/><stop offset=".294" stop-color="#C5C4F7"/><stop offset=".64" stop-color="#D3D2F9"/><stop offset="1" stop-color="#E9E9FD"/></linearGradient><linearGradient id="paint1_linear_87_8781" x1="27.768" y1="6.688" x2="42.301" y2="6.688" gradientUnits="userSpaceOnUse"><stop/><stop offset=".047" stop-color="#2F2F2F"/><stop offset=".098" stop-color="#5A5A5A"/><stop offset=".155" stop-color="#828282"/><stop offset=".216" stop-color="#A4A4A4"/><stop offset=".283" stop-color="silver"/><stop offset=".357" stop-color="#D7D7D7"/><stop offset=".442" stop-color="#E9E9E9"/><stop offset=".544" stop-color="#F6F6F6"/><stop offset=".681" stop-color="#FDFDFD"/><stop offset="1" stop-color="#fff"/></linearGradient><linearGradient id="paint2_linear_87_8781" x1="27.768" y1="6.688" x2="42.301" y2="6.688" gradientUnits="userSpaceOnUse"><stop stop-color="#E9E9FD"/><stop offset=".037" stop-color="#D3D5F7"/><stop offset=".106" stop-color="#B2B6EF"/><stop offset=".182" stop-color="#969BE7"/><stop offset=".266" stop-color="#7F86E1"/><stop offset=".363" stop-color="#6D75DD"/><stop offset=".48" stop-color="#606AD9"/><stop offset=".636" stop-color="#5963D8"/><stop offset="1" stop-color="#5761D7"/></linearGradient><linearGradient id="paint3_linear_87_8781" x1="27.127" y1="6.936" x2="46.581" y2="6.936" gradientUnits="userSpaceOnUse"><stop stop-color="#5761D7"/><stop offset=".178" stop-color="#5C66D9"/><stop offset=".388" stop-color="#6A73DF"/><stop offset=".613" stop-color="#8289E8"/><stop offset=".849" stop-color="#A3A7F5"/><stop offset="1" stop-color="#BCBEFF"/></linearGradient><linearGradient id="paint4_linear_87_8781" x1="27.127" y1="6.42" x2="47.576" y2="6.42" gradientUnits="userSpaceOnUse"><stop stop-color="#C0BFF6"/><stop offset=".294" stop-color="#C5C4F7"/><stop offset=".64" stop-color="#D3D2F9"/><stop offset="1" stop-color="#E9E9FD"/></linearGradient><linearGradient id="paint5_linear_87_8781" x1="31.609" y1="3.528" x2="34.015" y2="3.528" gradientUnits="userSpaceOnUse"><stop stop-color="#5761D7"/><stop offset=".178" stop-color="#5C66D9"/><stop offset=".388" stop-color="#6A73DF"/><stop offset=".613" stop-color="#8289E8"/><stop offset=".849" stop-color="#A3A7F5"/><stop offset="1" stop-color="#BCBEFF"/></linearGradient><linearGradient id="paint6_linear_87_8781" x1="32.234" y1="3.893" x2="34.64" y2="3.893" gradientUnits="userSpaceOnUse"><stop stop-color="#5761D7"/><stop offset=".178" stop-color="#5C66D9"/><stop offset=".388" stop-color="#6A73DF"/><stop offset=".613" stop-color="#8289E8"/><stop offset=".849" stop-color="#A3A7F5"/><stop offset="1" stop-color="#BCBEFF"/></linearGradient><linearGradient id="paint7_linear_87_8781" x1="32.858" y1="4.258" x2="35.264" y2="4.258" gradientUnits="userSpaceOnUse"><stop stop-color="#5761D7"/><stop offset=".178" stop-color="#5C66D9"/><stop offset=".388" stop-color="#6A73DF"/><stop offset=".613" stop-color="#8289E8"/><stop offset=".849" stop-color="#A3A7F5"/><stop offset="1" stop-color="#BCBEFF"/></linearGradient><linearGradient id="paint8_linear_87_8781" x1="33.483" y1="4.622" x2="35.889" y2="4.622" gradientUnits="userSpaceOnUse"><stop stop-color="#5761D7"/><stop offset=".178" stop-color="#5C66D9"/><stop offset=".388" stop-color="#6A73DF"/><stop offset=".613" stop-color="#8289E8"/><stop offset=".849" stop-color="#A3A7F5"/><stop offset="1" stop-color="#BCBEFF"/></linearGradient><linearGradient id="paint9_linear_87_8781" x1="35.309" y1="5.699" x2="37.715" y2="5.699" gradientUnits="userSpaceOnUse"><stop stop-color="#5761D7"/><stop offset=".178" stop-color="#5C66D9"/><stop offset=".388" stop-color="#6A73DF"/><stop offset=".613" stop-color="#8289E8"/><stop offset=".849" stop-color="#A3A7F5"/><stop offset="1" stop-color="#BCBEFF"/></linearGradient><linearGradient id="paint10_linear_87_8781" x1="35.934" y1="6.063" x2="38.34" y2="6.063" gradientUnits="userSpaceOnUse"><stop stop-color="#5761D7"/><stop offset=".178" stop-color="#5C66D9"/><stop offset=".388" stop-color="#6A73DF"/><stop offset=".613" stop-color="#8289E8"/><stop offset=".849" stop-color="#A3A7F5"/><stop offset="1" stop-color="#BCBEFF"/></linearGradient><linearGradient id="paint11_linear_87_8781" x1="36.559" y1="6.428" x2="38.965" y2="6.428" gradientUnits="userSpaceOnUse"><stop stop-color="#5761D7"/><stop offset=".178" stop-color="#5C66D9"/><stop offset=".388" stop-color="#6A73DF"/><stop offset=".613" stop-color="#8289E8"/><stop offset=".849" stop-color="#A3A7F5"/><stop offset="1" stop-color="#BCBEFF"/></linearGradient><linearGradient id="paint12_linear_87_8781" x1="37.183" y1="6.793" x2="39.589" y2="6.793" gradientUnits="userSpaceOnUse"><stop stop-color="#5761D7"/><stop offset=".178" stop-color="#5C66D9"/><stop offset=".388" stop-color="#6A73DF"/><stop offset=".613" stop-color="#8289E8"/><stop offset=".849" stop-color="#A3A7F5"/><stop offset="1" stop-color="#BCBEFF"/></linearGradient><linearGradient id="paint13_linear_87_8781" x1="39.01" y1="7.869" x2="41.416" y2="7.869" gradientUnits="userSpaceOnUse"><stop stop-color="#5761D7"/><stop offset=".178" stop-color="#5C66D9"/><stop offset=".388" stop-color="#6A73DF"/><stop offset=".613" stop-color="#8289E8"/><stop offset=".849" stop-color="#A3A7F5"/><stop offset="1" stop-color="#BCBEFF"/></linearGradient><linearGradient id="paint14_linear_87_8781" x1="39.634" y1="8.234" x2="42.04" y2="8.234" gradientUnits="userSpaceOnUse"><stop stop-color="#5761D7"/><stop offset=".178" stop-color="#5C66D9"/><stop offset=".388" stop-color="#6A73DF"/><stop offset=".613" stop-color="#8289E8"/><stop offset=".849" stop-color="#A3A7F5"/><stop offset="1" stop-color="#BCBEFF"/></linearGradient><linearGradient id="paint15_linear_87_8781" x1="38.543" y1="14.12" x2="39.159" y2="14.12" gradientUnits="userSpaceOnUse"><stop stop-color="#C0BFF6"/><stop offset=".294" stop-color="#C5C4F7"/><stop offset=".64" stop-color="#D3D2F9"/><stop offset="1" stop-color="#E9E9FD"/></linearGradient><linearGradient id="paint16_linear_87_8781" x1="38.468" y1="14.184" x2="38.977" y2="14.184" gradientUnits="userSpaceOnUse"><stop stop-color="#5761D7"/><stop offset=".178" stop-color="#5C66D9"/><stop offset=".388" stop-color="#6A73DF"/><stop offset=".613" stop-color="#8289E8"/><stop offset=".849" stop-color="#A3A7F5"/><stop offset="1" stop-color="#BCBEFF"/></linearGradient><linearGradient id="paint17_linear_87_8781" x1="25.944" y1="6.783" x2="26.561" y2="6.783" gradientUnits="userSpaceOnUse"><stop stop-color="#C0BFF6"/><stop offset=".294" stop-color="#C5C4F7"/><stop offset=".64" stop-color="#D3D2F9"/><stop offset="1" stop-color="#E9E9FD"/></linearGradient><linearGradient id="paint18_linear_87_8781" x1="25.869" y1="6.847" x2="26.379" y2="6.847" gradientUnits="userSpaceOnUse"><stop stop-color="#5761D7"/><stop offset=".178" stop-color="#5C66D9"/><stop offset=".388" stop-color="#6A73DF"/><stop offset=".613" stop-color="#8289E8"/><stop offset=".849" stop-color="#A3A7F5"/><stop offset="1" stop-color="#BCBEFF"/></linearGradient><linearGradient id="paint19_linear_87_8781" x1="38.543" y1="38.968" x2="39.159" y2="38.968" gradientUnits="userSpaceOnUse"><stop stop-color="#C0BFF6"/><stop offset=".294" stop-color="#C5C4F7"/><stop offset=".64" stop-color="#D3D2F9"/><stop offset="1" stop-color="#E9E9FD"/></linearGradient><linearGradient id="paint20_linear_87_8781" x1="38.468" y1="39.04" x2="38.977" y2="39.04" gradientUnits="userSpaceOnUse"><stop stop-color="#5761D7"/><stop offset=".178" stop-color="#5C66D9"/><stop offset=".388" stop-color="#6A73DF"/><stop offset=".613" stop-color="#8289E8"/><stop offset=".849" stop-color="#A3A7F5"/><stop offset="1" stop-color="#BCBEFF"/></linearGradient><linearGradient id="paint21_linear_87_8781" x1="38.543" y1="39.021" x2="39.159" y2="39.021" gradientUnits="userSpaceOnUse"><stop stop-color="#C0BFF6"/><stop offset=".294" stop-color="#C5C4F7"/><stop offset=".64" stop-color="#D3D2F9"/><stop offset="1" stop-color="#E9E9FD"/></linearGradient><linearGradient id="paint22_linear_87_8781" x1="38.468" y1="39.021" x2="38.977" y2="39.021" gradientUnits="userSpaceOnUse"><stop stop-color="#5761D7"/><stop offset=".178" stop-color="#5C66D9"/><stop offset=".388" stop-color="#6A73DF"/><stop offset=".613" stop-color="#8289E8"/><stop offset=".849" stop-color="#A3A7F5"/><stop offset="1" stop-color="#BCBEFF"/></linearGradient><linearGradient id="paint23_linear_87_8781" x1="25.945" y1="31.631" x2="26.561" y2="31.631" gradientUnits="userSpaceOnUse"><stop stop-color="#C0BFF6"/><stop offset=".294" stop-color="#C5C4F7"/><stop offset=".64" stop-color="#D3D2F9"/><stop offset="1" stop-color="#E9E9FD"/></linearGradient><linearGradient id="paint24_linear_87_8781" x1="25.869" y1="31.703" x2="26.379" y2="31.703" gradientUnits="userSpaceOnUse"><stop stop-color="#5761D7"/><stop offset=".178" stop-color="#5C66D9"/><stop offset=".388" stop-color="#6A73DF"/><stop offset=".613" stop-color="#8289E8"/><stop offset=".849" stop-color="#A3A7F5"/><stop offset="1" stop-color="#BCBEFF"/></linearGradient><linearGradient id="paint25_linear_87_8781" x1="25.945" y1="31.684" x2="26.561" y2="31.684" gradientUnits="userSpaceOnUse"><stop stop-color="#C0BFF6"/><stop offset=".294" stop-color="#C5C4F7"/><stop offset=".64" stop-color="#D3D2F9"/><stop offset="1" stop-color="#E9E9FD"/></linearGradient><linearGradient id="paint26_linear_87_8781" x1="25.869" y1="31.684" x2="26.379" y2="31.684" gradientUnits="userSpaceOnUse"><stop stop-color="#5761D7"/><stop offset=".178" stop-color="#5C66D9"/><stop offset=".388" stop-color="#6A73DF"/><stop offset=".613" stop-color="#8289E8"/><stop offset=".849" stop-color="#A3A7F5"/><stop offset="1" stop-color="#BCBEFF"/></linearGradient><linearGradient id="paint27_linear_87_8781" x1="32.838" y1="47.988" x2="32.838" y2="16.112" gradientUnits="userSpaceOnUse"><stop stop-color="#C0BFF6"/><stop offset=".294" stop-color="#C5C4F7"/><stop offset=".64" stop-color="#D3D2F9"/><stop offset="1" stop-color="#E9E9FD"/></linearGradient><linearGradient id="paint28_linear_87_8781" x1="15.925" y1="14.231" x2="30.459" y2="14.231" gradientUnits="userSpaceOnUse"><stop/><stop offset=".047" stop-color="#2F2F2F"/><stop offset=".098" stop-color="#5A5A5A"/><stop offset=".155" stop-color="#828282"/><stop offset=".216" stop-color="#A4A4A4"/><stop offset=".283" stop-color="silver"/><stop offset=".357" stop-color="#D7D7D7"/><stop offset=".442" stop-color="#E9E9E9"/><stop offset=".544" stop-color="#F6F6F6"/><stop offset=".681" stop-color="#FDFDFD"/><stop offset="1" stop-color="#fff"/></linearGradient><linearGradient id="paint29_linear_87_8781" x1="15.925" y1="14.231" x2="30.459" y2="14.231" gradientUnits="userSpaceOnUse"><stop stop-color="#E9E9FD"/><stop offset=".037" stop-color="#D3D5F7"/><stop offset=".106" stop-color="#B2B6EF"/><stop offset=".182" stop-color="#969BE7"/><stop offset=".266" stop-color="#7F86E1"/><stop offset=".363" stop-color="#6D75DD"/><stop offset=".48" stop-color="#606AD9"/><stop offset=".636" stop-color="#5963D8"/><stop offset="1" stop-color="#5761D7"/></linearGradient><linearGradient id="paint30_linear_87_8781" x1="15.283" y1="14.479" x2="34.738" y2="14.479" gradientUnits="userSpaceOnUse"><stop stop-color="#5761D7"/><stop offset=".178" stop-color="#5C66D9"/><stop offset=".388" stop-color="#6A73DF"/><stop offset=".613" stop-color="#8289E8"/><stop offset=".849" stop-color="#A3A7F5"/><stop offset="1" stop-color="#BCBEFF"/></linearGradient><linearGradient id="paint31_linear_87_8781" x1="28.199" y1="18.004" x2="35.733" y2="18.004" gradientUnits="userSpaceOnUse"><stop stop-color="#C0BFF6"/><stop offset=".294" stop-color="#C5C4F7"/><stop offset=".64" stop-color="#D3D2F9"/><stop offset="1" stop-color="#E9E9FD"/></linearGradient><linearGradient id="paint32_linear_87_8781" x1="15.283" y1="13.964" x2="35.733" y2="13.964" gradientUnits="userSpaceOnUse"><stop stop-color="#C0BFF6"/><stop offset=".294" stop-color="#C5C4F7"/><stop offset=".64" stop-color="#D3D2F9"/><stop offset="1" stop-color="#E9E9FD"/></linearGradient><linearGradient id="paint33_linear_87_8781" x1="19.766" y1="11.071" x2="22.172" y2="11.071" gradientUnits="userSpaceOnUse"><stop stop-color="#5761D7"/><stop offset=".178" stop-color="#5C66D9"/><stop offset=".388" stop-color="#6A73DF"/><stop offset=".613" stop-color="#8289E8"/><stop offset=".849" stop-color="#A3A7F5"/><stop offset="1" stop-color="#BCBEFF"/></linearGradient><linearGradient id="paint34_linear_87_8781" x1="20.391" y1="11.436" x2="22.797" y2="11.436" gradientUnits="userSpaceOnUse"><stop stop-color="#5761D7"/><stop offset=".178" stop-color="#5C66D9"/><stop offset=".388" stop-color="#6A73DF"/><stop offset=".613" stop-color="#8289E8"/><stop offset=".849" stop-color="#A3A7F5"/><stop offset="1" stop-color="#BCBEFF"/></linearGradient><linearGradient id="paint35_linear_87_8781" x1="21.015" y1="11.801" x2="23.422" y2="11.801" gradientUnits="userSpaceOnUse"><stop stop-color="#5761D7"/><stop offset=".178" stop-color="#5C66D9"/><stop offset=".388" stop-color="#6A73DF"/><stop offset=".613" stop-color="#8289E8"/><stop offset=".849" stop-color="#A3A7F5"/><stop offset="1" stop-color="#BCBEFF"/></linearGradient><linearGradient id="paint36_linear_87_8781" x1="21.64" y1="12.165" x2="24.046" y2="12.165" gradientUnits="userSpaceOnUse"><stop stop-color="#5761D7"/><stop offset=".178" stop-color="#5C66D9"/><stop offset=".388" stop-color="#6A73DF"/><stop offset=".613" stop-color="#8289E8"/><stop offset=".849" stop-color="#A3A7F5"/><stop offset="1" stop-color="#BCBEFF"/></linearGradient><linearGradient id="paint37_linear_87_8781" x1="23.466" y1="13.242" x2="25.872" y2="13.242" gradientUnits="userSpaceOnUse"><stop stop-color="#5761D7"/><stop offset=".178" stop-color="#5C66D9"/><stop offset=".388" stop-color="#6A73DF"/><stop offset=".613" stop-color="#8289E8"/><stop offset=".849" stop-color="#A3A7F5"/><stop offset="1" stop-color="#BCBEFF"/></linearGradient><linearGradient id="paint38_linear_87_8781" x1="24.091" y1="13.607" x2="26.497" y2="13.607" gradientUnits="userSpaceOnUse"><stop stop-color="#5761D7"/><stop offset=".178" stop-color="#5C66D9"/><stop offset=".388" stop-color="#6A73DF"/><stop offset=".613" stop-color="#8289E8"/><stop offset=".849" stop-color="#A3A7F5"/><stop offset="1" stop-color="#BCBEFF"/></linearGradient><linearGradient id="paint39_linear_87_8781" x1="24.716" y1="13.971" x2="27.122" y2="13.971" gradientUnits="userSpaceOnUse"><stop stop-color="#5761D7"/><stop offset=".178" stop-color="#5C66D9"/><stop offset=".388" stop-color="#6A73DF"/><stop offset=".613" stop-color="#8289E8"/><stop offset=".849" stop-color="#A3A7F5"/><stop offset="1" stop-color="#BCBEFF"/></linearGradient><linearGradient id="paint40_linear_87_8781" x1="25.34" y1="14.336" x2="27.746" y2="14.336" gradientUnits="userSpaceOnUse"><stop stop-color="#5761D7"/><stop offset=".178" stop-color="#5C66D9"/><stop offset=".388" stop-color="#6A73DF"/><stop offset=".613" stop-color="#8289E8"/><stop offset=".849" stop-color="#A3A7F5"/><stop offset="1" stop-color="#BCBEFF"/></linearGradient><linearGradient id="paint41_linear_87_8781" x1="27.166" y1="15.412" x2="29.573" y2="15.412" gradientUnits="userSpaceOnUse"><stop stop-color="#5761D7"/><stop offset=".178" stop-color="#5C66D9"/><stop offset=".388" stop-color="#6A73DF"/><stop offset=".613" stop-color="#8289E8"/><stop offset=".849" stop-color="#A3A7F5"/><stop offset="1" stop-color="#BCBEFF"/></linearGradient><linearGradient id="paint42_linear_87_8781" x1="27.791" y1="15.777" x2="30.197" y2="15.777" gradientUnits="userSpaceOnUse"><stop stop-color="#5761D7"/><stop offset=".178" stop-color="#5C66D9"/><stop offset=".388" stop-color="#6A73DF"/><stop offset=".613" stop-color="#8289E8"/><stop offset=".849" stop-color="#A3A7F5"/><stop offset="1" stop-color="#BCBEFF"/></linearGradient><linearGradient id="paint43_linear_87_8781" x1="26.7" y1="21.663" x2="27.316" y2="21.663" gradientUnits="userSpaceOnUse"><stop stop-color="#C0BFF6"/><stop offset=".294" stop-color="#C5C4F7"/><stop offset=".64" stop-color="#D3D2F9"/><stop offset="1" stop-color="#E9E9FD"/></linearGradient><linearGradient id="paint44_linear_87_8781" x1="26.625" y1="21.727" x2="27.134" y2="21.727" gradientUnits="userSpaceOnUse"><stop stop-color="#5761D7"/><stop offset=".178" stop-color="#5C66D9"/><stop offset=".388" stop-color="#6A73DF"/><stop offset=".613" stop-color="#8289E8"/><stop offset=".849" stop-color="#A3A7F5"/><stop offset="1" stop-color="#BCBEFF"/></linearGradient><linearGradient id="paint45_linear_87_8781" x1="14.101" y1="14.326" x2="14.717" y2="14.326" gradientUnits="userSpaceOnUse"><stop stop-color="#C0BFF6"/><stop offset=".294" stop-color="#C5C4F7"/><stop offset=".64" stop-color="#D3D2F9"/><stop offset="1" stop-color="#E9E9FD"/></linearGradient><linearGradient id="paint46_linear_87_8781" x1="14.026" y1="14.39" x2="14.536" y2="14.39" gradientUnits="userSpaceOnUse"><stop stop-color="#5761D7"/><stop offset=".178" stop-color="#5C66D9"/><stop offset=".388" stop-color="#6A73DF"/><stop offset=".613" stop-color="#8289E8"/><stop offset=".849" stop-color="#A3A7F5"/><stop offset="1" stop-color="#BCBEFF"/></linearGradient><linearGradient id="paint47_linear_87_8781" x1="26.7" y1="46.511" x2="27.316" y2="46.511" gradientUnits="userSpaceOnUse"><stop stop-color="#C0BFF6"/><stop offset=".294" stop-color="#C5C4F7"/><stop offset=".64" stop-color="#D3D2F9"/><stop offset="1" stop-color="#E9E9FD"/></linearGradient><linearGradient id="paint48_linear_87_8781" x1="26.625" y1="46.583" x2="27.134" y2="46.583" gradientUnits="userSpaceOnUse"><stop stop-color="#5761D7"/><stop offset=".178" stop-color="#5C66D9"/><stop offset=".388" stop-color="#6A73DF"/><stop offset=".613" stop-color="#8289E8"/><stop offset=".849" stop-color="#A3A7F5"/><stop offset="1" stop-color="#BCBEFF"/></linearGradient><linearGradient id="paint49_linear_87_8781" x1="26.7" y1="46.564" x2="27.316" y2="46.564" gradientUnits="userSpaceOnUse"><stop stop-color="#C0BFF6"/><stop offset=".294" stop-color="#C5C4F7"/><stop offset=".64" stop-color="#D3D2F9"/><stop offset="1" stop-color="#E9E9FD"/></linearGradient><linearGradient id="paint50_linear_87_8781" x1="26.625" y1="46.564" x2="27.134" y2="46.564" gradientUnits="userSpaceOnUse"><stop stop-color="#5761D7"/><stop offset=".178" stop-color="#5C66D9"/><stop offset=".388" stop-color="#6A73DF"/><stop offset=".613" stop-color="#8289E8"/><stop offset=".849" stop-color="#A3A7F5"/><stop offset="1" stop-color="#BCBEFF"/></linearGradient><linearGradient id="paint51_linear_87_8781" x1="14.101" y1="39.174" x2="14.717" y2="39.174" gradientUnits="userSpaceOnUse"><stop stop-color="#C0BFF6"/><stop offset=".294" stop-color="#C5C4F7"/><stop offset=".64" stop-color="#D3D2F9"/><stop offset="1" stop-color="#E9E9FD"/></linearGradient><linearGradient id="paint52_linear_87_8781" x1="14.026" y1="39.246" x2="14.536" y2="39.246" gradientUnits="userSpaceOnUse"><stop stop-color="#5761D7"/><stop offset=".178" stop-color="#5C66D9"/><stop offset=".388" stop-color="#6A73DF"/><stop offset=".613" stop-color="#8289E8"/><stop offset=".849" stop-color="#A3A7F5"/><stop offset="1" stop-color="#BCBEFF"/></linearGradient><linearGradient id="paint53_linear_87_8781" x1="14.102" y1="39.227" x2="14.718" y2="39.227" gradientUnits="userSpaceOnUse"><stop stop-color="#C0BFF6"/><stop offset=".294" stop-color="#C5C4F7"/><stop offset=".64" stop-color="#D3D2F9"/><stop offset="1" stop-color="#E9E9FD"/></linearGradient><linearGradient id="paint54_linear_87_8781" x1="14.026" y1="39.227" x2="14.536" y2="39.227" gradientUnits="userSpaceOnUse"><stop stop-color="#5761D7"/><stop offset=".178" stop-color="#5C66D9"/><stop offset=".388" stop-color="#6A73DF"/><stop offset=".613" stop-color="#8289E8"/><stop offset=".849" stop-color="#A3A7F5"/><stop offset="1" stop-color="#BCBEFF"/></linearGradient><linearGradient id="paint55_linear_87_8781" x1="20.995" y1="55.532" x2="20.995" y2="23.655" gradientUnits="userSpaceOnUse"><stop stop-color="#C0BFF6"/><stop offset=".294" stop-color="#C5C4F7"/><stop offset=".64" stop-color="#D3D2F9"/><stop offset="1" stop-color="#E9E9FD"/></linearGradient><linearGradient id="paint56_linear_87_8781" x1="4.082" y1="21.774" x2="18.616" y2="21.774" gradientUnits="userSpaceOnUse"><stop/><stop offset=".047" stop-color="#2F2F2F"/><stop offset=".098" stop-color="#5A5A5A"/><stop offset=".155" stop-color="#828282"/><stop offset=".216" stop-color="#A4A4A4"/><stop offset=".283" stop-color="silver"/><stop offset=".357" stop-color="#D7D7D7"/><stop offset=".442" stop-color="#E9E9E9"/><stop offset=".544" stop-color="#F6F6F6"/><stop offset=".681" stop-color="#FDFDFD"/><stop offset="1" stop-color="#fff"/></linearGradient><linearGradient id="paint57_linear_87_8781" x1="4.082" y1="21.774" x2="18.616" y2="21.774" gradientUnits="userSpaceOnUse"><stop stop-color="#E9E9FD"/><stop offset=".037" stop-color="#D3D5F7"/><stop offset=".106" stop-color="#B2B6EF"/><stop offset=".182" stop-color="#969BE7"/><stop offset=".266" stop-color="#7F86E1"/><stop offset=".363" stop-color="#6D75DD"/><stop offset=".48" stop-color="#606AD9"/><stop offset=".636" stop-color="#5963D8"/><stop offset="1" stop-color="#5761D7"/></linearGradient><linearGradient id="paint58_linear_87_8781" x1="3.441" y1="22.023" x2="22.895" y2="22.023" gradientUnits="userSpaceOnUse"><stop stop-color="#5761D7"/><stop offset=".178" stop-color="#5C66D9"/><stop offset=".388" stop-color="#6A73DF"/><stop offset=".613" stop-color="#8289E8"/><stop offset=".849" stop-color="#A3A7F5"/><stop offset="1" stop-color="#BCBEFF"/></linearGradient><linearGradient id="paint59_linear_87_8781" x1="3.441" y1="21.507" x2="23.89" y2="21.507" gradientUnits="userSpaceOnUse"><stop stop-color="#C0BFF6"/><stop offset=".294" stop-color="#C5C4F7"/><stop offset=".64" stop-color="#D3D2F9"/><stop offset="1" stop-color="#E9E9FD"/></linearGradient><linearGradient id="paint60_linear_87_8781" x1="7.924" y1="18.615" x2="10.33" y2="18.615" gradientUnits="userSpaceOnUse"><stop stop-color="#5761D7"/><stop offset=".178" stop-color="#5C66D9"/><stop offset=".388" stop-color="#6A73DF"/><stop offset=".613" stop-color="#8289E8"/><stop offset=".849" stop-color="#A3A7F5"/><stop offset="1" stop-color="#BCBEFF"/></linearGradient><linearGradient id="paint61_linear_87_8781" x1="8.548" y1="18.98" x2="10.954" y2="18.98" gradientUnits="userSpaceOnUse"><stop stop-color="#5761D7"/><stop offset=".178" stop-color="#5C66D9"/><stop offset=".388" stop-color="#6A73DF"/><stop offset=".613" stop-color="#8289E8"/><stop offset=".849" stop-color="#A3A7F5"/><stop offset="1" stop-color="#BCBEFF"/></linearGradient><linearGradient id="paint62_linear_87_8781" x1="9.173" y1="19.344" x2="11.579" y2="19.344" gradientUnits="userSpaceOnUse"><stop stop-color="#5761D7"/><stop offset=".178" stop-color="#5C66D9"/><stop offset=".388" stop-color="#6A73DF"/><stop offset=".613" stop-color="#8289E8"/><stop offset=".849" stop-color="#A3A7F5"/><stop offset="1" stop-color="#BCBEFF"/></linearGradient><linearGradient id="paint63_linear_87_8781" x1="9.797" y1="19.709" x2="12.203" y2="19.709" gradientUnits="userSpaceOnUse"><stop stop-color="#5761D7"/><stop offset=".178" stop-color="#5C66D9"/><stop offset=".388" stop-color="#6A73DF"/><stop offset=".613" stop-color="#8289E8"/><stop offset=".849" stop-color="#A3A7F5"/><stop offset="1" stop-color="#BCBEFF"/></linearGradient><linearGradient id="paint64_linear_87_8781" x1="11.624" y1="20.785" x2="14.03" y2="20.785" gradientUnits="userSpaceOnUse"><stop stop-color="#5761D7"/><stop offset=".178" stop-color="#5C66D9"/><stop offset=".388" stop-color="#6A73DF"/><stop offset=".613" stop-color="#8289E8"/><stop offset=".849" stop-color="#A3A7F5"/><stop offset="1" stop-color="#BCBEFF"/></linearGradient><linearGradient id="paint65_linear_87_8781" x1="12.248" y1="21.15" x2="14.654" y2="21.15" gradientUnits="userSpaceOnUse"><stop stop-color="#5761D7"/><stop offset=".178" stop-color="#5C66D9"/><stop offset=".388" stop-color="#6A73DF"/><stop offset=".613" stop-color="#8289E8"/><stop offset=".849" stop-color="#A3A7F5"/><stop offset="1" stop-color="#BCBEFF"/></linearGradient><linearGradient id="paint66_linear_87_8781" x1="12.873" y1="21.515" x2="15.279" y2="21.515" gradientUnits="userSpaceOnUse"><stop stop-color="#5761D7"/><stop offset=".178" stop-color="#5C66D9"/><stop offset=".388" stop-color="#6A73DF"/><stop offset=".613" stop-color="#8289E8"/><stop offset=".849" stop-color="#A3A7F5"/><stop offset="1" stop-color="#BCBEFF"/></linearGradient><linearGradient id="paint67_linear_87_8781" x1="13.497" y1="21.879" x2="15.903" y2="21.879" gradientUnits="userSpaceOnUse"><stop stop-color="#5761D7"/><stop offset=".178" stop-color="#5C66D9"/><stop offset=".388" stop-color="#6A73DF"/><stop offset=".613" stop-color="#8289E8"/><stop offset=".849" stop-color="#A3A7F5"/><stop offset="1" stop-color="#BCBEFF"/></linearGradient><linearGradient id="paint68_linear_87_8781" x1="15.324" y1="22.956" x2="17.73" y2="22.956" gradientUnits="userSpaceOnUse"><stop stop-color="#5761D7"/><stop offset=".178" stop-color="#5C66D9"/><stop offset=".388" stop-color="#6A73DF"/><stop offset=".613" stop-color="#8289E8"/><stop offset=".849" stop-color="#A3A7F5"/><stop offset="1" stop-color="#BCBEFF"/></linearGradient><linearGradient id="paint69_linear_87_8781" x1="15.948" y1="23.32" x2="18.354" y2="23.32" gradientUnits="userSpaceOnUse"><stop stop-color="#5761D7"/><stop offset=".178" stop-color="#5C66D9"/><stop offset=".388" stop-color="#6A73DF"/><stop offset=".613" stop-color="#8289E8"/><stop offset=".849" stop-color="#A3A7F5"/><stop offset="1" stop-color="#BCBEFF"/></linearGradient><linearGradient id="paint70_linear_87_8781" x1="14.857" y1="29.206" x2="15.473" y2="29.206" gradientUnits="userSpaceOnUse"><stop stop-color="#C0BFF6"/><stop offset=".294" stop-color="#C5C4F7"/><stop offset=".64" stop-color="#D3D2F9"/><stop offset="1" stop-color="#E9E9FD"/></linearGradient><linearGradient id="paint71_linear_87_8781" x1="14.782" y1="29.27" x2="15.292" y2="29.27" gradientUnits="userSpaceOnUse"><stop stop-color="#5761D7"/><stop offset=".178" stop-color="#5C66D9"/><stop offset=".388" stop-color="#6A73DF"/><stop offset=".613" stop-color="#8289E8"/><stop offset=".849" stop-color="#A3A7F5"/><stop offset="1" stop-color="#BCBEFF"/></linearGradient><linearGradient id="paint72_linear_87_8781" x1="2.259" y1="21.869" x2="2.875" y2="21.869" gradientUnits="userSpaceOnUse"><stop stop-color="#C0BFF6"/><stop offset=".294" stop-color="#C5C4F7"/><stop offset=".64" stop-color="#D3D2F9"/><stop offset="1" stop-color="#E9E9FD"/></linearGradient><linearGradient id="paint73_linear_87_8781" x1="2.184" y1="21.933" x2="2.693" y2="21.933" gradientUnits="userSpaceOnUse"><stop stop-color="#5761D7"/><stop offset=".178" stop-color="#5C66D9"/><stop offset=".388" stop-color="#6A73DF"/><stop offset=".613" stop-color="#8289E8"/><stop offset=".849" stop-color="#A3A7F5"/><stop offset="1" stop-color="#BCBEFF"/></linearGradient><linearGradient id="paint74_linear_87_8781" x1="14.857" y1="54.054" x2="15.473" y2="54.054" gradientUnits="userSpaceOnUse"><stop stop-color="#C0BFF6"/><stop offset=".294" stop-color="#C5C4F7"/><stop offset=".64" stop-color="#D3D2F9"/><stop offset="1" stop-color="#E9E9FD"/></linearGradient><linearGradient id="paint75_linear_87_8781" x1="14.782" y1="54.126" x2="15.292" y2="54.126" gradientUnits="userSpaceOnUse"><stop stop-color="#5761D7"/><stop offset=".178" stop-color="#5C66D9"/><stop offset=".388" stop-color="#6A73DF"/><stop offset=".613" stop-color="#8289E8"/><stop offset=".849" stop-color="#A3A7F5"/><stop offset="1" stop-color="#BCBEFF"/></linearGradient><linearGradient id="paint76_linear_87_8781" x1="14.857" y1="54.107" x2="15.473" y2="54.107" gradientUnits="userSpaceOnUse"><stop stop-color="#C0BFF6"/><stop offset=".294" stop-color="#C5C4F7"/><stop offset=".64" stop-color="#D3D2F9"/><stop offset="1" stop-color="#E9E9FD"/></linearGradient><linearGradient id="paint77_linear_87_8781" x1="14.782" y1="54.107" x2="15.292" y2="54.107" gradientUnits="userSpaceOnUse"><stop stop-color="#5761D7"/><stop offset=".178" stop-color="#5C66D9"/><stop offset=".388" stop-color="#6A73DF"/><stop offset=".613" stop-color="#8289E8"/><stop offset=".849" stop-color="#A3A7F5"/><stop offset="1" stop-color="#BCBEFF"/></linearGradient><linearGradient id="paint78_linear_87_8781" x1="2.259" y1="46.717" x2="2.875" y2="46.717" gradientUnits="userSpaceOnUse"><stop stop-color="#C0BFF6"/><stop offset=".294" stop-color="#C5C4F7"/><stop offset=".64" stop-color="#D3D2F9"/><stop offset="1" stop-color="#E9E9FD"/></linearGradient><linearGradient id="paint79_linear_87_8781" x1="2.184" y1="46.789" x2="2.693" y2="46.789" gradientUnits="userSpaceOnUse"><stop stop-color="#5761D7"/><stop offset=".178" stop-color="#5C66D9"/><stop offset=".388" stop-color="#6A73DF"/><stop offset=".613" stop-color="#8289E8"/><stop offset=".849" stop-color="#A3A7F5"/><stop offset="1" stop-color="#BCBEFF"/></linearGradient><linearGradient id="paint80_linear_87_8781" x1="2.259" y1="46.77" x2="2.875" y2="46.77" gradientUnits="userSpaceOnUse"><stop stop-color="#C0BFF6"/><stop offset=".294" stop-color="#C5C4F7"/><stop offset=".64" stop-color="#D3D2F9"/><stop offset="1" stop-color="#E9E9FD"/></linearGradient><linearGradient id="paint81_linear_87_8781" x1="2.184" y1="46.77" x2="2.693" y2="46.77" gradientUnits="userSpaceOnUse"><stop stop-color="#5761D7"/><stop offset=".178" stop-color="#5C66D9"/><stop offset=".388" stop-color="#6A73DF"/><stop offset=".613" stop-color="#8289E8"/><stop offset=".849" stop-color="#A3A7F5"/><stop offset="1" stop-color="#BCBEFF"/></linearGradient><clipPath id="clip0_87_8781"><path fill="#fff" d="M0 0h51v59H0z"/></clipPath></defs></svg>