<svg width="58" height="66" fill="none" xmlns="http://www.w3.org/2000/svg"><path d="M10.325 47.85c-.146 0-.292-.025-.39-.098L1.117 42.66c-.097-.073-.17-.146-.17-.268 0-.122.097-.243.243-.317l8.698-5.018c.268-.147.658-.17.901-.025l8.82 5.092c.122.073.17.17.17.268 0 .122-.097.244-.243.317l-8.698 5.019a1.216 1.216 0 01-.511.122zm-.316-.22a.912.912 0 00.755-.024l8.698-5.019c.097-.049.17-.146.17-.22a.164.164 0 00-.097-.145L10.69 37.13a.912.912 0 00-.755.024l-8.698 5.043c-.097.049-.17.146-.17.22 0 .073.048.121.097.146l8.844 5.067z" fill="#8686F2"/><path d="M19.68 38.665v1.072l-9.354 5.409L.97 39.737v-1.072h18.71z" fill="url(#paint0_linear_87_10505)"/><path d="M10.325 44.074L.97 38.665l9.355-5.409 9.356 5.409-9.356 5.409z" fill="#BCBEFF"/><path d="M10.325 43.927l-9.258-5.335-.097.073 9.356 5.409 9.355-5.41-.098-.072-9.257 5.335z" fill="#fff"/><path d="M10.325 42.806l-7.187-4.141 7.187-4.166 7.212 4.166-7.212 4.141z" fill="#0F054C"/><path opacity=".5" d="M10.325 42.806l-7.187-4.141 7.187-4.166 7.212 4.166-7.212 4.141z" fill="url(#paint1_linear_87_10505)"/><path opacity=".5" d="M10.325 33.45l7.211 4.167v1.048l-7.211-4.166V33.45z" fill="url(#paint2_linear_87_10505)"/><path opacity=".5" d="M10.325 34.498l-7.187 4.167v-1.048l7.187-4.166v1.047z" fill="url(#paint3_linear_87_10505)"/><path opacity=".5" d="M10.325 41.759l-7.187-4.142 7.187-4.166 7.212 4.166-7.212 4.142z" fill="url(#paint4_linear_87_10505)"/><path opacity=".5" d="M10.325 39.274L7.45 37.617l2.875-1.657 2.875 1.657-2.875 1.657z" fill="#42E8E0"/><path opacity=".5" d="M10.325 36.107l2.753 1.583.122-.073-2.875-1.657-2.875 1.657.146.073 2.73-1.583z" fill="#42E8E0"/><path opacity=".5" d="M10.325 41.759v1.047l7.211-4.141v-1.048l-7.211 4.142z" fill="url(#paint5_linear_87_10505)"/><path opacity=".5" d="M3.138 37.617v1.048l7.187 4.141V41.76l-7.187-4.142z" fill="url(#paint6_linear_87_10505)"/><path opacity=".8" d="M10.325 41.662l-7.09-4.118-.097.073 7.187 4.142 7.212-4.142-.098-.073-7.114 4.118z" fill="#42E8E0"/><path d="M47.845 47.85c-.146 0-.292-.025-.39-.098l-8.82-5.092c-.12-.073-.17-.17-.17-.268 0-.122.098-.243.244-.317l8.698-5.018c.268-.147.657-.17.901-.025l8.82 5.092c.121.073.17.17.17.268 0 .122-.097.244-.244.317l-8.697 5.019a1.132 1.132 0 01-.512.122zm-.316-.22a.912.912 0 00.755-.024l8.697-5.019c.098-.049.17-.146.17-.22a.164.164 0 00-.097-.145l-8.819-5.092a.912.912 0 00-.755.024l-8.698 5.019c-.097.049-.17.146-.17.22 0 .072.048.121.097.145l8.82 5.092z" fill="#8686F2"/><path d="M57.225 38.665v1.072l-9.355 5.408-9.38-5.409v-1.071h18.735z" fill="url(#paint7_linear_87_10505)"/><path d="M47.87 44.073l-9.38-5.409 9.38-5.408 9.355 5.408-9.356 5.41z" fill="#BCBEFF"/><path d="M47.87 43.927l-9.26-5.337-.121.073 9.38 5.409 9.355-5.409-.122-.073-9.233 5.336z" fill="#fff"/><path d="M47.87 42.806l-7.212-4.142 7.212-4.166 7.187 4.166-7.188 4.142z" fill="#0F054C"/><path opacity=".5" d="M47.87 42.806l-7.212-4.142 7.212-4.166 7.187 4.166-7.188 4.142z" fill="url(#paint8_linear_87_10505)"/><path opacity=".5" d="M47.87 33.45l7.187 4.167v1.048l-7.188-4.166V33.45z" fill="url(#paint9_linear_87_10505)"/><path opacity=".5" d="M47.87 34.498l-7.212 4.167v-1.048l7.212-4.166v1.047z" fill="url(#paint10_linear_87_10505)"/><path opacity=".5" d="M47.87 41.759l-7.212-4.142 7.212-4.166 7.187 4.166-7.188 4.142z" fill="url(#paint11_linear_87_10505)"/><path opacity=".5" d="M47.87 39.274l-2.9-1.657 2.9-1.657 2.875 1.657-2.875 1.657z" fill="#42E8E0"/><path opacity=".5" d="M47.87 36.107l2.728 1.583.147-.073-2.875-1.657-2.9 1.657.147.073 2.753-1.583z" fill="#42E8E0"/><path opacity=".5" d="M47.87 41.759v1.047l7.187-4.141v-1.048l-7.188 4.142z" fill="url(#paint12_linear_87_10505)"/><path opacity=".5" d="M40.658 37.617v1.048l7.212 4.141V41.76l-7.212-4.142z" fill="url(#paint13_linear_87_10505)"/><path opacity=".8" d="M47.87 41.661l-7.115-4.117-.097.073 7.212 4.142 7.187-4.142-.098-.073-7.09 4.117z" fill="#42E8E0"/><path d="M29.11 26.386l-16.64-9.6 16.64-9.599 16.64 9.6-16.64 9.599z" fill="#BCBEFF"/><path opacity=".7" d="M29.11 25.533l-15.13-8.747L29.11 8.04l15.154 8.746-15.155 8.747z" fill="#453C9E"/><path d="M29.11 66c-.268 0-.512-.073-.731-.195L7.987 54.038c-.147-.073-.22-.22-.22-.39 0-.146.073-.293.22-.39L29.11 41.052l21.78 12.571-21.025 12.133c-.244.17-.487.244-.755.244zm-.658-.341c.414.243.925.243 1.315 0l20.807-12.011L29.11 41.247 8.06 53.404a.268.268 0 00-.146.244c0 .097.048.195.146.243L28.452 65.66z" fill="#8686F2"/><path d="M29.11 63.271l-16.64-9.623 16.64-9.6 16.64 9.6-16.64 9.623z" fill="#fff"/><path d="M45.75 16.786v36.862L29.11 63.27V26.385l16.64-9.599z" fill="url(#paint14_linear_87_10505)"/><path d="M12.47 16.786v36.862l16.64 9.623V26.385l-16.64-9.599z" fill="#24126A"/><path opacity=".51" d="M13.614 19.223V52.38l14.374 8.308V27.53l-14.374-8.307z" fill="#453C9E"/><path d="M43.264 25.703v.975L31.62 33.402v-.974l11.645-6.725zm0 4.117v.975L31.62 37.52v-.975l11.645-6.724zm0 4.118v.975L31.62 41.637v-.974l11.645-6.725zm0 4.117v.975L31.62 45.754v-.974l11.645-6.725zm0 4.118v.974L31.62 49.871v-.974l11.645-6.724zm0 4.117v.975L31.62 53.989v-.975l11.645-6.724z" fill="#453C9E"/><path d="M29.11 26.069l-16.373-9.453-.268.17 16.64 9.6 16.64-9.6-.268-.17-16.372 9.453z" fill="#fff"/><path opacity=".51" d="M12.47 47.825l16.64-10.038v-11.4l-16.64-9.6v31.04z" fill="#453C9E"/><path d="M15.32 30.965l2.07 1.194v-.365L15.32 30.6v.365zm2.412 1.389l1.12.658v-.365l-1.12-.658v.365zm2.875 1.657l.828.487v-.365l-.828-.463v.341zm-.585-.341l.268.17v-.365l-.268-.17v.365zm-.828-.463l.512.292v-.365l-.512-.292v.365zm-1.95.511l.805.463v-.365l-.805-.463v.365zm-1.924-1.12l1.608.926v-.341l-1.608-.926v.34zm2.996 5.847l1.584.902v-.341l-1.584-.926v.365zm-.828-.487l.512.292v-.365l-.512-.292v.365zm.804-1.17l1.608.926v-.365l-1.608-.926v.365zm-.804-.462l.487.292v-.365l-.487-.293v.366zm.829 9.209l-3.021-1.754v.365l3.02 1.73v-.341zm1.071.609l-.755-.439v.366l.755.438v-.365zm4.873.341l-3.02-1.73v.341l3.02 1.754v-.365zm1.072.609l-.755-.414v.341l.755.439v-.366zm-9.209-3.654l-.828-.463v.34l.828.488v-.365zm4.678 1.072l-.804-.488v.366l.803.463v-.341zm-2.753.024l-1.608-.926v.366l1.608.925v-.365zm.804.487l-.488-.292v.365l.488.293v-.366zm1.949 1.121l-1.608-.926v.341l1.608.926v-.341zm.803.463l-.487-.293v.366l.487.292v-.365zm-.803-1.291l-.804-.463v.365l.803.463v-.365zm1.924 1.12l-1.608-.926v.366l1.608.901v-.34zm.829.463l-.512-.292v.365l.512.292V46.9zm-6.578-3.801l-1.681-.95v.366l1.68.95v-.366zm1.535.902l-1.219-.707v.366l1.219.682V44zm1.12.633l-.804-.463v.366l.804.463v-.366zm5.531-7.163l1.656.95v-.365l-1.656-.95v.365zm-1.535-.9l1.218.706v-.366l-1.218-.682v.341zm-1.121-.634l.804.463v-.366l-.804-.463v.366zm1.949.292l1.681.975v-.366l-1.68-.95v.341zm-1.51-.877l1.193.707v-.366l-1.193-.706v.365zm-1.146-.658l.829.487v-.365l-.829-.463v.341zm-3.264 3.07l.585.317v-.366l-.585-.316v.365zm-1.048-.633l.731.438.024-.365-.755-.415v.341zm-.511 5.164l-1.657-.974v.365l1.657.975v-.366zm1.535.877l-1.219-.706v.365l1.219.707v-.366zm1.145.659l-.829-.463v.34l.829.488v-.366zm-3.777-2.997l-.56-.317v.341l.56.341v-.365zm1.072.609l-.755-.414v.34l.755.44v-.366zm1.511.877l-1.194-.682v.34l1.194.707v-.365zm.438-6.822l.56.317v-.366l-.56-.316v.365zm-1.071-.609l.755.414v-.365l-.756-.414v.365zm-1.511-.877l1.194.682v-.365l-1.194-.683v.366zm3.581 2.802l1.194.706v-.365L19.9 36.47v.342zm-1.973-1.048l1.632.926v-.366l-1.632-.926v.366zm-.829-.487l.512.292v-.365l-.487-.292-.025.365zm-.779-.463l.511.292v-.34l-.511-.293v.341zm.804 4.653l1.608.926v-.365l-1.608-.926v.365zm-.828-.487l.511.292v-.365l-.487-.292-.024.365zm1.072 1.438l.584.34v-.365l-.584-.317v.342zm1.729-.659l.56.342v-.366l-.56-.317v.342zm.804.463l1.34.78v-.341l-1.34-.78v.341zm1.584.927l.804.462v-.365l-.804-.463v.365zm-5.165-1.34l.73.438v-.366l-.73-.438v.365zm.073.852l.56.317v-.366l-.56-.317v.366zm-1.072-.609l.755.414v-.365l-.755-.414v.365zm2.948-.755l.512.292v-.366l-.512-.292v.366zm-.78-.463l.512.292v-.365l-.512-.293v.366zm2.924-4.117l1.705.998v-.365l-1.705-.999v.366zm-1.949-1.121l1.632.926v-.341l-1.632-.95v.365zm-.828-.487l.511.292v-.341l-.511-.292v.34zm-.78-.44l.511.293v-.365l-.511-.293v.366zm-.439-.243l-1.096-.633v-.366l1.096.634v.365z" fill="#42E8E0"/><path d="M29.11 19.223L12.47 9.599 29.11 0l16.64 9.6-16.64 9.623z" fill="#BCBEFF"/><path d="M29.11 16.591L17.024 9.6 29.11 2.631 41.218 9.6l-12.109 6.992z" fill="#453C9E"/><path d="M29.11 3.094l11.694 6.749.414-.244-12.109-6.968L17.025 9.6l.414.244 11.67-6.749z" fill="#fff"/><path d="M45.75 9.6v5.457l-16.64 9.599v-5.433l16.64-9.624z" fill="url(#paint15_linear_87_10505)"/><path d="M12.47 9.6v5.457l16.64 9.599v-5.433L12.47 9.599z" fill="#24126A"/><path opacity=".51" d="M13.614 12.06v1.705l14.375 8.308v-1.705L13.614 12.06z" fill="#453C9E"/><path d="M29.11 18.906L12.736 9.453l-.268.146 16.64 9.623L45.75 9.6l-.268-.146-16.372 9.453z" fill="#fff"/><path d="M43.265 13.424v.975l-11.646 6.724v-.974l11.646-6.725z" fill="#453C9E"/><path opacity=".51" d="M12.47 9.6v5.457l16.64 9.599v-5.433L12.47 9.599z" fill="#453C9E"/><path d="M24.261 18.93l-3.02-1.754v.366l3.02 1.73v-.342zm-3.459-1.997l-.804-.463v.365l.803.463v-.365zm-3.826-2.193l-1.656-.975v.366l1.656.95v-.341zm1.535.877l-1.218-.707v.366l1.218.682v-.341zm1.146.658l-.829-.488v.366l.829.463v-.341zm9.477-11.256l-.536-.292.536-.317.536.317-.536.292z" fill="#42E8E0"/><path opacity=".1" d="M30.181 5.628l-.511-.292.511-.317.536.317-.536.292z" fill="#42E8E0"/><path opacity=".4" d="M31.253 6.237l-.535-.292.535-.317.512.317-.512.292z" fill="#42E8E0"/><path d="M32.301 6.846l-.536-.292.536-.317.536.317-.536.292z" fill="#42E8E0"/><path opacity=".4" d="M33.349 7.455l-.512-.292.512-.317.536.317-.536.292z" fill="#42E8E0"/><path d="M34.421 8.064l-.536-.292.536-.317.536.317-.536.292zm1.047.61l-.511-.293.511-.317.536.317-.535.293zm1.072.608l-.536-.292.536-.317.512.317-.512.292z" fill="#42E8E0"/><path opacity=".1" d="M37.588 9.892l-.536-.293.536-.317.536.317-.536.293z" fill="#42E8E0"/><path d="M28.062 5.628l-.512-.292.512-.317.536.317-.536.292zm1.072.609l-.536-.292.536-.317.536.317-.536.292zm1.047.609l-.511-.292.511-.317.537.317-.537.292zm1.073.609l-.536-.292.536-.317.511.317-.511.292zm1.047.609l-.536-.292.536-.317.536.317-.536.292zm1.048.61l-.512-.293.512-.317.536.317-.536.293zm1.072.608l-.536-.292.536-.317.512.317-.512.292zm1.048.634l-.536-.317.536-.317.536.317-.536.317zm1.047.609l-.511-.317.511-.292.536.292-.536.317zm-9.502-4.288l-.536-.292.536-.317.536.317-.536.292zm1.048.609l-.512-.292.512-.317.536.317-.536.292zm1.072.609l-.536-.292.536-.317.511.317-.511.292z" fill="#42E8E0"/><path opacity=".1" d="M30.182 8.064l-.536-.292.536-.317.536.317-.536.292z" fill="#42E8E0"/><path opacity=".4" d="M31.23 8.698l-.512-.317.511-.317.536.317-.536.317zm1.071.609l-.536-.317.536-.292.512.292-.512.317z" fill="#42E8E0"/><path d="M33.349 9.916l-.536-.317.536-.292.536.292-.536.317zm1.071.609l-.535-.317.536-.292.511.292-.511.317zm1.048.609l-.536-.317.536-.292.536.292-.536.317z" fill="#42E8E0"/><path opacity=".4" d="M25.942 6.87l-.511-.316.511-.317.536.317-.536.316zm1.073.61l-.537-.317.537-.292.511.292-.511.317z" fill="#42E8E0"/><path opacity=".1" d="M28.062 8.089l-.536-.317.536-.292.536.292-.536.317z" fill="#42E8E0"/><path d="M29.11 8.698l-.512-.317.512-.292.535.292-.535.317zm1.072.609l-.536-.317.536-.292.536.292-.536.317zm1.048.609l-.512-.317.511-.292.536.292-.536.317z" fill="#42E8E0"/><path opacity=".4" d="M32.301 10.525l-.536-.317.536-.292.512.292-.512.317z" fill="#42E8E0"/><path d="M33.349 11.134l-.536-.317.536-.292.536.292-.536.317zm1.048.609l-.512-.317.512-.292.536.292-.536.317zM24.895 7.48l-.536-.317.536-.293.511.293-.511.316zm1.047.609l-.536-.317.536-.292.536.292-.536.317zm1.072.609l-.536-.317.536-.292.512.292-.512.317zm1.048.609l-.536-.317.536-.292.536.292-.536.317zm1.048.609l-.512-.317.512-.292.535.292-.535.317zm1.071.609l-.536-.317.536-.292.512.292-.512.317zm1.049.609l-.537-.316.536-.293.536.293-.536.316zm1.047.609l-.512-.317.512-.292.536.292-.536.317zm1.072.609l-.536-.317.536-.292.511.292-.511.317zm-9.526-4.263l-.512-.317.512-.293.536.293-.536.317zm1.072.609l-.536-.317.536-.292.511.292-.511.317z" fill="#42E8E0"/><path opacity=".4" d="M25.942 9.307l-.535-.317.535-.292.537.292-.537.317z" fill="#42E8E0"/><path d="M26.99 9.916l-.511-.317.511-.292.536.292-.536.317z" fill="#42E8E0"/><path opacity=".1" d="M28.062 10.525l-.536-.317.536-.292.511.292-.511.317z" fill="#42E8E0"/><path d="M29.11 11.134l-.536-.317.536-.292.536.292-.536.317zm1.047.609l-.511-.292.511-.317.536.317-.536.292zm1.073.609l-.537-.293.536-.316.536.316-.536.293zm1.047.609l-.512-.292.512-.317.536.317-.536.292zm-9.502-4.263l-.536-.317.536-.292.512.292-.512.317zm1.048.609l-.536-.317.536-.292.536.292-.536.317z" fill="#42E8E0"/><path opacity=".4" d="M24.87 9.916l-.511-.292.511-.317.536.317-.536.292z" fill="#42E8E0"/><path d="M25.942 10.525l-.536-.292.536-.317.536.317-.536.292zm1.048.609l-.512-.292.512-.317.536.317-.536.292z" fill="#42E8E0"/><path opacity=".1" d="M28.062 11.743l-.536-.292.536-.317.511.317-.511.292z" fill="#42E8E0"/><path opacity=".4" d="M29.11 12.352l-.536-.292.536-.317.536.317-.536.292z" fill="#42E8E0"/><path d="M30.157 12.961l-.511-.292.511-.317.536.317-.536.292z" fill="#42E8E0"/><path opacity=".1" d="M31.23 13.57l-.537-.292.536-.317.512.317-.512.292z" fill="#42E8E0"/><path d="M21.703 9.307l-.536-.293.536-.316.536.316-.536.293z" fill="#42E8E0"/><path opacity=".4" d="M22.775 9.916l-.536-.292.536-.317.512.317-.512.292z" fill="#42E8E0"/><path d="M23.823 10.525l-.536-.292.536-.317.536.317-.536.292zm1.047.609l-.511-.292.511-.317.536.317-.536.292zm1.072.609l-.536-.292.536-.317.512.317-.512.292zm1.048.609l-.536-.292.536-.317.536.317-.536.292zm1.048.609l-.512-.292.512-.317.535.317-.535.292z" fill="#42E8E0"/><path opacity=".4" d="M29.11 13.57l-.537-.292.537-.317.511.317-.511.292z" fill="#42E8E0"/><path d="M30.157 14.18l-.536-.293.536-.317.536.317-.536.292zm-9.502-4.264l-.536-.292.537-.317.511.317-.512.292z" fill="#42E8E0"/><path opacity=".1" d="M21.703 10.525l-.536-.292.536-.317.536.317-.536.292z" fill="#42E8E0"/><path d="M22.75 11.134l-.511-.292.512-.317.536.317-.536.292zm1.073.609l-.536-.292.536-.317.511.317-.511.292zm1.047.609l-.536-.292.536-.317.536.317-.536.292zm1.048.609l-.512-.292.512-.317.536.317-.536.292z" fill="#42E8E0"/><path opacity=".4" d="M26.99 13.57l-.536-.292.536-.317.536.317-.536.292z" fill="#42E8E0"/><path d="M28.037 14.204l-.511-.317.511-.317.536.317-.536.317zm1.073.609l-.537-.317.536-.292.512.292-.512.317z" fill="#42E8E0"/><defs><linearGradient id="paint0_linear_87_10505" x1="-3.661" y1="41.903" x2="20.333" y2="41.903" gradientUnits="userSpaceOnUse"><stop stop-color="#5761D7"/><stop offset=".165" stop-color="#5E67DA"/><stop offset=".405" stop-color="#727AE2"/><stop offset=".692" stop-color="#9297EE"/><stop offset="1" stop-color="#BCBEFF"/></linearGradient><linearGradient id="paint1_linear_87_10505" x1="3.129" y1="38.661" x2="17.531" y2="38.661" gradientUnits="userSpaceOnUse"><stop stop-color="#42E8E0"/><stop offset=".151" stop-color="#43E3E0"/><stop offset=".329" stop-color="#45D5DF"/><stop offset=".52" stop-color="#49BDDD"/><stop offset=".721" stop-color="#4E9CDB"/><stop offset=".927" stop-color="#5472D8"/><stop offset="1" stop-color="#5761D7"/></linearGradient><linearGradient id="paint2_linear_87_10505" x1="10.33" y1="36.058" x2="17.531" y2="36.058" gradientUnits="userSpaceOnUse"><stop stop-color="#42E8E0"/><stop offset=".151" stop-color="#43E3E0"/><stop offset=".329" stop-color="#45D5DF"/><stop offset=".52" stop-color="#49BDDD"/><stop offset=".721" stop-color="#4E9CDB"/><stop offset=".927" stop-color="#5472D8"/><stop offset="1" stop-color="#5761D7"/></linearGradient><linearGradient id="paint3_linear_87_10505" x1="3.129" y1="36.058" x2="10.33" y2="36.058" gradientUnits="userSpaceOnUse"><stop stop-color="#42E8E0"/><stop offset=".151" stop-color="#43E3E0"/><stop offset=".329" stop-color="#45D5DF"/><stop offset=".52" stop-color="#49BDDD"/><stop offset=".721" stop-color="#4E9CDB"/><stop offset=".927" stop-color="#5472D8"/><stop offset="1" stop-color="#5761D7"/></linearGradient><linearGradient id="paint4_linear_87_10505" x1="3.129" y1="37.612" x2="17.531" y2="37.612" gradientUnits="userSpaceOnUse"><stop stop-color="#42E8E0"/><stop offset=".151" stop-color="#43E3E0"/><stop offset=".329" stop-color="#45D5DF"/><stop offset=".52" stop-color="#49BDDD"/><stop offset=".721" stop-color="#4E9CDB"/><stop offset=".927" stop-color="#5472D8"/><stop offset="1" stop-color="#5761D7"/></linearGradient><linearGradient id="paint5_linear_87_10505" x1="10.33" y1="40.215" x2="17.531" y2="40.215" gradientUnits="userSpaceOnUse"><stop stop-color="#42E8E0"/><stop offset=".151" stop-color="#43E3E0"/><stop offset=".329" stop-color="#45D5DF"/><stop offset=".52" stop-color="#49BDDD"/><stop offset=".721" stop-color="#4E9CDB"/><stop offset=".927" stop-color="#5472D8"/><stop offset="1" stop-color="#5761D7"/></linearGradient><linearGradient id="paint6_linear_87_10505" x1="3.129" y1="40.215" x2="10.33" y2="40.215" gradientUnits="userSpaceOnUse"><stop stop-color="#42E8E0"/><stop offset=".151" stop-color="#43E3E0"/><stop offset=".329" stop-color="#45D5DF"/><stop offset=".52" stop-color="#49BDDD"/><stop offset=".721" stop-color="#4E9CDB"/><stop offset=".927" stop-color="#5472D8"/><stop offset="1" stop-color="#5761D7"/></linearGradient><linearGradient id="paint7_linear_87_10505" x1="33.867" y1="41.903" x2="57.861" y2="41.903" gradientUnits="userSpaceOnUse"><stop stop-color="#5761D7"/><stop offset=".165" stop-color="#5E67DA"/><stop offset=".405" stop-color="#727AE2"/><stop offset=".692" stop-color="#9297EE"/><stop offset="1" stop-color="#BCBEFF"/></linearGradient><linearGradient id="paint8_linear_87_10505" x1="40.657" y1="38.66" x2="55.059" y2="38.66" gradientUnits="userSpaceOnUse"><stop stop-color="#42E8E0"/><stop offset=".151" stop-color="#43E3E0"/><stop offset=".329" stop-color="#45D5DF"/><stop offset=".52" stop-color="#49BDDD"/><stop offset=".721" stop-color="#4E9CDB"/><stop offset=".927" stop-color="#5472D8"/><stop offset="1" stop-color="#5761D7"/></linearGradient><linearGradient id="paint9_linear_87_10505" x1="47.858" y1="36.058" x2="55.059" y2="36.058" gradientUnits="userSpaceOnUse"><stop stop-color="#42E8E0"/><stop offset=".151" stop-color="#43E3E0"/><stop offset=".329" stop-color="#45D5DF"/><stop offset=".52" stop-color="#49BDDD"/><stop offset=".721" stop-color="#4E9CDB"/><stop offset=".927" stop-color="#5472D8"/><stop offset="1" stop-color="#5761D7"/></linearGradient><linearGradient id="paint10_linear_87_10505" x1="40.657" y1="36.058" x2="47.858" y2="36.058" gradientUnits="userSpaceOnUse"><stop stop-color="#42E8E0"/><stop offset=".151" stop-color="#43E3E0"/><stop offset=".329" stop-color="#45D5DF"/><stop offset=".52" stop-color="#49BDDD"/><stop offset=".721" stop-color="#4E9CDB"/><stop offset=".927" stop-color="#5472D8"/><stop offset="1" stop-color="#5761D7"/></linearGradient><linearGradient id="paint11_linear_87_10505" x1="40.657" y1="37.612" x2="55.059" y2="37.612" gradientUnits="userSpaceOnUse"><stop stop-color="#42E8E0"/><stop offset=".151" stop-color="#43E3E0"/><stop offset=".329" stop-color="#45D5DF"/><stop offset=".52" stop-color="#49BDDD"/><stop offset=".721" stop-color="#4E9CDB"/><stop offset=".927" stop-color="#5472D8"/><stop offset="1" stop-color="#5761D7"/></linearGradient><linearGradient id="paint12_linear_87_10505" x1="47.858" y1="40.215" x2="55.059" y2="40.215" gradientUnits="userSpaceOnUse"><stop stop-color="#42E8E0"/><stop offset=".151" stop-color="#43E3E0"/><stop offset=".329" stop-color="#45D5DF"/><stop offset=".52" stop-color="#49BDDD"/><stop offset=".721" stop-color="#4E9CDB"/><stop offset=".927" stop-color="#5472D8"/><stop offset="1" stop-color="#5761D7"/></linearGradient><linearGradient id="paint13_linear_87_10505" x1="40.657" y1="40.215" x2="47.858" y2="40.215" gradientUnits="userSpaceOnUse"><stop stop-color="#42E8E0"/><stop offset=".151" stop-color="#43E3E0"/><stop offset=".329" stop-color="#45D5DF"/><stop offset=".52" stop-color="#49BDDD"/><stop offset=".721" stop-color="#4E9CDB"/><stop offset=".927" stop-color="#5472D8"/><stop offset="1" stop-color="#5761D7"/></linearGradient><linearGradient id="paint14_linear_87_10505" x1="37.437" y1="52.883" x2="37.437" y2="17.77" gradientUnits="userSpaceOnUse"><stop stop-color="#C0BFF6"/><stop offset=".294" stop-color="#C5C4F7"/><stop offset=".64" stop-color="#D3D2F9"/><stop offset="1" stop-color="#E9E9FD"/></linearGradient><linearGradient id="paint15_linear_87_10505" x1="37.437" y1="21.296" x2="37.437" y2="9.926" gradientUnits="userSpaceOnUse"><stop stop-color="#C0BFF6"/><stop offset=".294" stop-color="#C5C4F7"/><stop offset=".64" stop-color="#D3D2F9"/><stop offset="1" stop-color="#E9E9FD"/></linearGradient></defs></svg>