<svg width="47" height="60" fill="none" xmlns="http://www.w3.org/2000/svg"><path d="M23.5 52.402L0 38.987l23.5-13.363L47 38.987 23.5 52.402z" fill="#BCBEFF"/><path d="M23.5 48.733L6.419 38.987 23.5 29.24l17.081 9.747L23.5 48.733z" fill="#453C9E"/><path d="M23.5 29.921l16.498 9.432.583-.366L23.5 29.24 6.419 38.987l.583.366L23.5 29.921z" fill="#fff"/><path d="M47 38.987v7.598L23.5 60v-7.598L47 38.987z" fill="url(#paint0_linear_87_8135)"/><path d="M0 38.987v7.598L23.5 60v-7.598L0 38.987z" fill="#24126A"/><path opacity=".51" d="M1.591 42.393v2.41L21.91 56.384v-2.41L1.59 42.393z" fill="#453C9E"/><path d="M23.5 51.982L.371 38.777l-.371.21 23.5 13.415L47 38.987l-.424-.21L23.5 51.982z" fill="#fff"/><path d="M43.446 44.332v1.362L27 55.074v-1.362l16.445-9.38z" fill="#453C9E"/><path opacity=".51" d="M0 38.987v7.598L23.5 60v-7.598L0 38.987z" fill="#453C9E"/><path d="M16.657 51.983l-4.297-2.411v.472l4.297 2.463v-.524zm-4.88-2.778l-1.167-.629v.472l1.167.681v-.524zm-5.411-3.039l-2.334-1.363v.524l2.334 1.31v-.471zM8.54 47.37l-1.75-.995v.524l1.75.996v-.524zm1.592.892l-1.167-.629v.472l1.167.68v-.523zM23.5 32.594l-.743-.42.743-.419.743.42-.743.419z" fill="#42E8E0"/><path opacity=".1" d="M24.985 33.432l-.742-.419.742-.42.743.42-.743.42z" fill="#42E8E0"/><path opacity=".4" d="M26.47 34.323l-.742-.42.743-.47.795.47-.795.42z" fill="#42E8E0"/><path d="M28.009 35.161l-.743-.419.743-.419.743.42-.743.418z" fill="#42E8E0"/><path opacity=".4" d="M29.494 36l-.742-.42.742-.419.743.42-.743.419z" fill="#42E8E0"/><path d="M30.98 36.838l-.743-.419.743-.419.742.42-.742.418zm1.485.892l-.743-.42.743-.472.743.472-.743.42zm1.485.838l-.742-.42.742-.419.743.42-.743.419z" fill="#42E8E0"/><path opacity=".1" d="M35.436 39.406l-.743-.42.743-.418.742.419-.742.42z" fill="#42E8E0"/><path d="M22.015 33.485l-.743-.472.743-.42.742.42-.742.472zm1.485.838l-.743-.42.743-.418.743.419-.743.419zm1.485.838l-.742-.419.742-.419.743.42-.743.418zM26.47 36l-.742-.42.743-.419.742.42-.742.419zm1.486.838l-.743-.419.743-.42.796.42-.796.42zm1.538.892l-.742-.42.742-.472.743.472-.742.42zm1.486.837l-.743-.419.743-.419.742.42-.742.418zm1.485.839l-.743-.42.743-.418.743.419-.743.42zm1.485.838l-.742-.419.742-.419.743.42-.743.418zm-13.42-5.921l-.743-.42.742-.418.743.419-.743.419zm1.485.838l-.743-.419.743-.419.742.42-.742.418zM23.5 36l-.743-.42.743-.419.743.42L23.5 36z" fill="#42E8E0"/><path opacity=".1" d="M24.985 36.89l-.742-.47.742-.42.743.42-.743.47z" fill="#42E8E0"/><path opacity=".4" d="M26.47 37.729l-.742-.42.743-.418.742.419-.742.419zm1.486.839l-.743-.42.743-.419.743.42-.743.419z" fill="#42E8E0"/><path d="M29.441 39.406l-.742-.42.742-.418.796.419-.796.42zm1.539.891l-.743-.472.743-.419.742.42-.742.47zm1.485.838l-.743-.419.743-.42.743.42-.743.42z" fill="#42E8E0"/><path opacity=".4" d="M19.044 35.161l-.796-.419.796-.419.743.42-.743.418zM20.53 36l-.743-.42.742-.419.743.42-.743.419z" fill="#42E8E0"/><path opacity=".1" d="M22.015 36.89l-.743-.419.743-.471.742.471-.742.42z" fill="#42E8E0"/><path d="M23.5 37.73l-.743-.42.743-.42.743.42-.743.42zm1.485.837l-.742-.419.742-.419.743.42-.743.418zm1.485.839l-.742-.42.743-.418.742.419-.742.42z" fill="#42E8E0"/><path opacity=".4" d="M27.956 40.297l-.743-.472.743-.419.743.42-.743.47z" fill="#42E8E0"/><path d="M29.441 41.135l-.742-.419.742-.42.743.42-.743.42zm1.539.839l-.796-.42.796-.419.742.42-.742.419zM17.506 36l-.743-.42.743-.419.742.42-.742.419zm1.485.89l-.743-.419.743-.471.743.471-.743.42zm1.539.84l-.796-.42.795-.42.743.42-.743.42zm1.485.837l-.743-.419.743-.419.742.42-.742.418zm1.485.839l-.743-.42.743-.419.743.42-.743.419zm1.485.891l-.742-.42.742-.471.743.472-.743.419zm1.485.838l-.742-.42.743-.418.742.419-.742.42zm1.486.839l-.743-.42.743-.419.743.42-.743.419zm1.485.838l-.742-.42.742-.418.743.419-.743.42zM16.02 36.89l-.742-.418.742-.42.743.42-.743.419zm1.486.84l-.743-.42.743-.42.742.42-.742.42z" fill="#42E8E0"/><path opacity=".4" d="M18.99 38.568l-.742-.42.743-.419.742.42-.742.419z" fill="#42E8E0"/><path d="M20.476 39.406l-.742-.419.742-.42.743.42-.743.42z" fill="#42E8E0"/><path opacity=".1" d="M22.015 40.297l-.796-.42.796-.47.742.47-.742.42z" fill="#42E8E0"/><path d="M23.5 41.136l-.743-.42.743-.419.743.42-.743.419zm1.485.838l-.742-.42.742-.419.743.42-.743.419zm1.485.838l-.742-.419.743-.42.742.42-.742.42zm1.486.891l-.743-.42.743-.47.743.47-.743.42zm-13.421-5.974l-.743-.42.743-.418.743.419-.743.419zm1.485.838l-.742-.419.742-.419.743.42-.743.418z" fill="#42E8E0"/><path opacity=".4" d="M17.506 39.458l-.743-.471.743-.42.742.42-.742.471z" fill="#42E8E0"/><path d="M18.991 40.297l-.743-.42.743-.419.743.42-.743.419zm1.485.838l-.742-.42.742-.418.743.419-.743.42z" fill="#42E8E0"/><path opacity=".1" d="M21.962 41.974l-.743-.42.743-.419.742.42-.742.419z" fill="#42E8E0"/><path opacity=".4" d="M23.5 42.812l-.796-.42.796-.418.743.419-.743.42z" fill="#42E8E0"/><path d="M24.985 43.703l-.742-.42.742-.471.743.472-.743.419z" fill="#42E8E0"/><path opacity=".1" d="M26.47 44.541l-.742-.419.743-.42.742.42-.742.42z" fill="#42E8E0"/><path d="M13.05 38.568l-.743-.42.743-.419.742.42-.742.419z" fill="#42E8E0"/><path opacity=".4" d="M14.535 39.459l-.743-.472.743-.42.743.42-.743.471z" fill="#42E8E0"/><path d="M16.02 40.297l-.742-.42.742-.419.743.42-.743.419zm1.486.838l-.743-.419.743-.42.742.42-.742.42zm1.485.839l-.743-.42.743-.419.743.42-.743.419zm1.485.891l-.742-.472.742-.42.743.42-.743.472zm1.486.838l-.743-.419.742-.42.743.42-.742.42z" fill="#42E8E0"/><path opacity=".4" d="M23.447 44.542l-.743-.42.743-.419.796.42-.796.419z" fill="#42E8E0"/><path d="M24.985 45.38l-.742-.42.742-.419.743.42-.743.419zm-13.474-5.921l-.742-.42.742-.471.743.471-.743.42z" fill="#42E8E0"/><path opacity=".1" d="M12.997 40.297l-.743-.42.743-.419.795.42-.795.419z" fill="#42E8E0"/><path d="M14.535 41.135l-.743-.419.743-.42.743.42-.743.42zm1.485.839l-.742-.42.742-.419.743.42-.743.419zm1.486.89l-.743-.471.743-.42.742.42-.742.471zm1.485.839l-.743-.42.743-.419.743.42-.743.419z" fill="#42E8E0"/><path opacity=".4" d="M20.476 44.541l-.742-.419.742-.42.743.42-.743.42z" fill="#42E8E0"/><path d="M21.962 45.38l-.743-.42.743-.419.742.42-.742.419zm1.485.89l-.743-.47.743-.42.743.42-.743.47z" fill="#42E8E0"/><path d="M23.5 39.616L0 26.2l23.5-13.415L47 26.201 23.5 39.616z" fill="#BCBEFF"/><path d="M23.5 35.948L6.419 26.2 23.5 16.454l17.081 9.747L23.5 35.948z" fill="#453C9E"/><path d="M23.5 17.136l16.498 9.38.583-.315L23.5 16.454 6.419 26.201l.583.314 16.498-9.38z" fill="#fff"/><path d="M47 26.2v7.6L23.5 47.213v-7.598L47 26.2z" fill="url(#paint1_linear_87_8135)"/><path d="M0 26.2v7.6l23.5 13.414v-7.598L0 26.2z" fill="#24126A"/><path opacity=".51" d="M1.591 29.607v2.41L21.91 43.599v-2.41L1.59 29.608z" fill="#453C9E"/><path d="M23.5 39.144L.371 25.992l-.371.21 23.5 13.414L47 26.2l-.424-.21L23.5 39.145z" fill="#fff"/><path d="M43.446 31.546v1.31L27 42.236v-1.363l16.445-9.327z" fill="#453C9E"/><path opacity=".51" d="M0 26.2v7.6l23.5 13.414v-7.598L0 26.2z" fill="#453C9E"/><path d="M16.657 39.197l-4.297-2.41v.47l4.297 2.411v-.471zm-4.88-2.777l-1.167-.682v.524l1.167.681v-.524zm-5.411-3.092l-2.334-1.31v.471l2.334 1.363v-.524zm2.174 1.257l-1.75-.995v.524l1.75.943v-.472zm1.592.891l-1.167-.629v.472l1.167.681v-.524zM23.5 19.808l-.743-.42.743-.419.743.42-.743.419z" fill="#42E8E0"/><path opacity=".1" d="M24.985 20.646l-.742-.419.742-.42.743.42-.743.42z" fill="#42E8E0"/><path opacity=".4" d="M26.47 21.485l-.742-.42.743-.419.795.42-.795.419z" fill="#42E8E0"/><path d="M28.009 22.376l-.743-.42.743-.471.743.471-.743.42z" fill="#42E8E0"/><path opacity=".4" d="M29.494 23.214l-.742-.42.742-.419.743.42-.743.419z" fill="#42E8E0"/><path d="M30.98 24.052l-.743-.419.743-.419.742.42-.742.418zm1.485.838l-.743-.418.743-.42.743.42-.743.419zm1.485.892l-.742-.472.742-.42.743.42-.743.472z" fill="#42E8E0"/><path opacity=".1" d="M35.436 26.62l-.743-.419.743-.42.742.42-.742.42z" fill="#42E8E0"/><path d="M22.015 20.646l-.743-.419.743-.42.742.42-.742.42zm1.485.839l-.743-.42.743-.419.743.42-.743.419zm1.485.89l-.742-.419.742-.471.743.471-.743.42zm1.485.839l-.742-.42.743-.419.742.42-.742.419zm1.486.838l-.743-.419.743-.42.796.42-.796.42zm1.538.838l-.742-.418.742-.42.743.42-.742.419zm1.486.892l-.743-.42.743-.471.742.472-.742.419zm1.485.838l-.743-.419.743-.42.743.42-.743.42zm1.485.839l-.742-.42.742-.419.743.42-.743.419zm-13.42-5.922l-.743-.471.742-.42.743.42-.743.471zm1.485.838l-.743-.419.743-.419.742.42-.742.418zm1.485.839l-.743-.42.743-.419.743.42-.743.419z" fill="#42E8E0"/><path opacity=".1" d="M24.985 24.052l-.742-.419.742-.42.743.42-.743.42z" fill="#42E8E0"/><path opacity=".4" d="M26.47 24.89l-.742-.419.743-.419.742.42-.742.419zm1.486.892l-.743-.42.743-.471.743.472-.743.419z" fill="#42E8E0"/><path d="M29.441 26.62l-.742-.419.742-.42.796.42-.796.42zm1.539.839l-.743-.42.743-.419.742.42-.742.419zm1.485.838l-.743-.42.743-.418.743.419-.743.419z" fill="#42E8E0"/><path opacity=".4" d="M19.044 22.375l-.796-.419.796-.419.743.42-.743.418zm1.486.839l-.743-.42.742-.419.743.42-.743.419z" fill="#42E8E0"/><path opacity=".1" d="M22.015 24.052l-.743-.419.743-.42.742.42-.742.42z" fill="#42E8E0"/><path d="M23.5 24.943l-.743-.471.743-.42.743.42-.743.471zm1.485.839l-.742-.42.742-.419.743.42-.743.419zm1.485.838l-.742-.419.743-.42.742.42-.742.42z" fill="#42E8E0"/><path opacity=".4" d="M27.956 27.459l-.743-.42.743-.419.743.42-.743.419z" fill="#42E8E0"/><path d="M29.441 28.297l-.742-.42.742-.418.743.419-.743.419zm1.539.891l-.796-.42.796-.471.742.471-.742.42zm-13.474-5.974l-.743-.42.743-.419.742.42-.742.419zm1.485.838l-.743-.419.743-.42.743.42-.743.42zm1.539.891l-.796-.472.795-.419.743.42-.743.471zm1.485.839l-.743-.42.743-.419.742.42-.742.419zm1.485.838l-.743-.42.743-.418.743.419-.743.419zm1.485.839l-.742-.42.742-.419.743.42-.743.419zm1.485.891l-.742-.472.743-.42.742.42-.742.471zm1.486.838l-.743-.42.743-.419.743.42-.743.419zm1.485.838l-.742-.419.742-.42.743.42-.743.42zM16.02 24.052l-.742-.419.742-.419.743.42-.743.418zm1.486.891l-.743-.419.743-.472.742.472-.742.42z" fill="#42E8E0"/><path opacity=".4" d="M18.99 25.782l-.742-.42.743-.419.742.42-.742.419z" fill="#42E8E0"/><path d="M20.476 26.62l-.742-.419.742-.42.743.42-.743.42z" fill="#42E8E0"/><path opacity=".1" d="M22.015 27.459l-.796-.42.796-.419.742.42-.742.419z" fill="#42E8E0"/><path d="M23.5 28.35l-.743-.472.743-.42.743.42-.743.472zm1.485.838l-.742-.42.742-.419.743.42-.743.419zm1.485.838l-.742-.419.743-.419.742.42-.742.418zm1.486.839l-.743-.42.743-.419.743.42-.743.419zm-13.421-5.922l-.743-.419.743-.42.743.42-.743.42zm1.485.839l-.742-.42.742-.419.743.42-.743.419z" fill="#42E8E0"/><path opacity=".4" d="M17.506 26.62l-.743-.42.743-.418.742.419-.742.419z" fill="#42E8E0"/><path d="M18.991 27.459l-.743-.42.743-.419.743.42-.743.419zm1.485.891l-.742-.42.742-.471.743.471-.743.42z" fill="#42E8E0"/><path opacity=".1" d="M21.962 29.188l-.743-.42.743-.419.742.42-.742.419z" fill="#42E8E0"/><path opacity=".4" d="M23.5 30.026l-.796-.419.796-.42.743.42-.743.42z" fill="#42E8E0"/><path d="M24.985 30.865l-.742-.42.742-.419.743.42-.743.419z" fill="#42E8E0"/><path opacity=".1" d="M26.47 31.755l-.742-.419.743-.471.742.471-.742.42z" fill="#42E8E0"/><path d="M13.05 25.782l-.743-.42.743-.419.742.42-.742.419z" fill="#42E8E0"/><path opacity=".4" d="M14.535 26.62l-.743-.419.743-.42.743.42-.743.42z" fill="#42E8E0"/><path d="M16.02 27.51l-.742-.47.742-.42.743.42-.743.47zm1.486.84l-.743-.42.743-.419.742.42-.742.418zm1.485.838l-.743-.42.743-.419.743.42-.743.419zm1.485.838l-.742-.419.742-.419.743.42-.743.418zm1.486.839l-.743-.42.742-.419.743.42-.742.419z" fill="#42E8E0"/><path opacity=".4" d="M23.447 31.756l-.743-.42.743-.471.796.471-.796.42z" fill="#42E8E0"/><path d="M24.985 32.594l-.742-.42.742-.418.743.419-.743.419zM11.511 26.62l-.742-.419.742-.42.743.42-.743.42z" fill="#42E8E0"/><path opacity=".1" d="M12.997 27.51l-.743-.47.743-.42.795.42-.795.47z" fill="#42E8E0"/><path d="M14.535 28.35l-.743-.42.743-.419.743.42-.743.418zm1.485.838l-.742-.42.742-.419.743.42-.743.419zm1.486.838l-.743-.419.743-.42.742.42-.742.42zm1.485.891l-.743-.471.743-.42.743.42-.743.471z" fill="#42E8E0"/><path opacity=".4" d="M20.476 31.755l-.742-.419.742-.419.743.42-.743.418z" fill="#42E8E0"/><path d="M21.962 32.594l-.743-.42.743-.418.742.419-.742.419zm1.485.838l-.743-.419.743-.419.743.42-.743.418z" fill="#42E8E0"/><path d="M23.5 26.777L0 13.415 23.5 0 47 13.415 23.5 26.777z" fill="#BCBEFF"/><path d="M23.5 23.11L6.419 13.414 23.5 3.668l17.081 9.747L23.5 23.109z" fill="#453C9E"/><path d="M23.5 4.297l16.498 9.432.583-.314L23.5 3.668 6.419 13.415l.583.314L23.5 4.297z" fill="#fff"/><path d="M47 13.415v7.598L23.5 34.376v-7.599L47 13.415z" fill="url(#paint2_linear_87_8135)"/><path d="M0 13.415v7.598l23.5 13.363v-7.599L0 13.415z" fill="#24126A"/><path opacity=".51" d="M1.591 16.821v2.358L21.91 30.76v-2.357L1.59 16.82z" fill="#453C9E"/><path d="M23.5 26.358L.371 13.153 0 13.415l23.5 13.362L47 13.415l-.424-.262L23.5 26.358z" fill="#fff"/><path d="M43.446 18.707v1.363L27 29.45v-1.363l16.445-9.38z" fill="#453C9E"/><path opacity=".51" d="M0 13.415v7.598l23.5 13.363v-7.599L0 13.415z" fill="#453C9E"/><path d="M16.657 26.41l-4.297-2.462v.524l4.297 2.41v-.471zm-4.88-2.777l-1.167-.681v.524l1.167.629v-.472zm-5.411-3.092L4.032 19.18v.524l2.334 1.362v-.524zm2.174 1.206l-1.75-.944v.472l1.75.996v-.524zm1.592.943l-1.167-.681v.524l1.167.629v-.472zM23.5 7.022l-.743-.472.743-.419.743.42-.743.47z" fill="#42E8E0"/><path opacity=".1" d="M24.985 7.86l-.742-.419.742-.419.743.42-.743.418z" fill="#42E8E0"/><path opacity=".4" d="M26.47 8.699l-.742-.42.743-.419.795.42-.795.419z" fill="#42E8E0"/><path d="M28.009 9.537l-.743-.42.743-.418.743.419-.743.42z" fill="#42E8E0"/><path opacity=".4" d="M29.494 10.428l-.742-.472.742-.419.743.42-.743.47z" fill="#42E8E0"/><path d="M30.98 11.266l-.743-.419.743-.419.742.42-.742.418zm1.485.839l-.743-.42.743-.419.743.42-.743.419zm1.485.838l-.742-.419.742-.419.743.42-.743.418z" fill="#42E8E0"/><path opacity=".1" d="M35.436 13.782l-.743-.42.743-.419.742.42-.742.419z" fill="#42E8E0"/><path d="M22.015 7.86l-.743-.419.743-.419.742.42-.742.418zm1.485.839l-.743-.42.743-.419.743.42-.743.419zm1.485.838l-.742-.42.742-.418.743.419-.743.42zm1.485.891l-.742-.419.743-.472.742.472-.742.42zm1.486.838l-.743-.419.743-.419.796.42-.796.418zm1.538.839l-.742-.42.742-.418.743.419-.742.419zm1.486.838l-.743-.419.743-.419.742.42-.742.418zm1.485.891l-.743-.471.743-.42.743.42-.743.471zm1.485.839l-.742-.42.742-.419.743.42-.743.419zM20.53 8.699l-.743-.42.742-.419.743.42-.743.419zm1.485.838l-.743-.42.743-.418.742.419-.742.42zm1.485.891l-.743-.42.743-.47.743.47-.743.42z" fill="#42E8E0"/><path opacity=".1" d="M24.985 11.266l-.742-.419.742-.419.743.42-.743.418z" fill="#42E8E0"/><path opacity=".4" d="M26.47 12.105l-.742-.42.743-.419.742.42-.742.419zm1.486.838l-.743-.419.743-.419.743.42-.743.418z" fill="#42E8E0"/><path d="M29.441 13.834l-.742-.419.742-.472.796.472-.796.42zm1.539.839l-.743-.42.743-.419.742.42-.742.419zm1.485.838l-.743-.42.743-.418.743.419-.743.419z" fill="#42E8E0"/><path opacity=".4" d="M19.044 9.59l-.796-.472.796-.42.743.42-.743.472zm1.486.838l-.743-.42.742-.418.743.419-.743.419z" fill="#42E8E0"/><path opacity=".1" d="M22.015 11.266l-.743-.419.743-.419.742.42-.742.418z" fill="#42E8E0"/><path d="M23.5 12.105l-.743-.42.743-.419.743.42-.743.419zm1.485.838l-.742-.42.742-.418.743.419-.743.42zm1.485.891l-.742-.419.743-.472.742.472-.742.42z" fill="#42E8E0"/><path opacity=".4" d="M27.956 14.672l-.743-.419.743-.419.743.42-.743.418z" fill="#42E8E0"/><path d="M29.441 15.511l-.742-.42.742-.418.743.419-.743.419zm1.539.839l-.796-.42.796-.419.742.42-.742.418zm-13.474-5.922l-.743-.42.743-.418.742.419-.742.419zm1.485.838l-.743-.419.743-.419.743.42-.743.418zm1.539.839l-.796-.42.795-.419.743.42-.743.419zm1.485.891l-.743-.472.743-.419.742.42-.742.47zm1.485.838l-.743-.42.743-.418.743.419-.743.419zm1.485.839l-.742-.42.742-.419.743.42-.743.419zm1.485.838l-.742-.42.743-.418.742.419-.742.419zm1.486.839l-.743-.42.743-.419.743.42-.743.418zm1.485.89l-.742-.419.742-.472.743.472-.743.42zM16.02 11.267l-.742-.42.742-.419.743.42-.743.419zm1.486.838l-.743-.42.743-.418.742.419-.742.419z" fill="#42E8E0"/><path opacity=".4" d="M18.99 12.996l-.742-.472.743-.419.742.42-.742.47z" fill="#42E8E0"/><path d="M20.476 13.834l-.742-.419.742-.42.743.42-.743.42z" fill="#42E8E0"/><path opacity=".1" d="M22.015 14.673l-.796-.42.796-.419.742.42-.742.419z" fill="#42E8E0"/><path d="M23.5 15.511l-.743-.419.743-.42.743.42-.743.42zm1.485.891l-.742-.472.742-.419.743.42-.743.471zm1.485.838l-.742-.419.743-.419.742.42-.742.419zm1.486.839l-.743-.42.743-.418.743.419-.743.419zm-13.421-5.974l-.743-.42.743-.419.743.42-.743.419zm1.485.891l-.742-.42.742-.471.743.471-.743.42z" fill="#42E8E0"/><path opacity=".4" d="M17.506 13.834l-.743-.42.743-.418.742.419-.742.419z" fill="#42E8E0"/><path d="M18.991 14.672l-.743-.419.743-.419.743.42-.743.418zm1.485.838l-.742-.418.742-.42.743.42-.743.419z" fill="#42E8E0"/><path opacity=".1" d="M21.962 16.402l-.743-.472.743-.419.742.42-.742.47z" fill="#42E8E0"/><path opacity=".4" d="M23.5 17.24l-.796-.419.796-.42.743.42-.743.42z" fill="#42E8E0"/><path d="M24.985 18.079l-.742-.42.742-.419.743.42-.743.419z" fill="#42E8E0"/><path opacity=".1" d="M26.47 18.917l-.742-.42.743-.418.742.419-.742.419z" fill="#42E8E0"/><path d="M13.05 12.996l-.743-.42.743-.471.742.472-.742.419z" fill="#42E8E0"/><path opacity=".4" d="M14.535 13.834l-.743-.419.743-.42.743.42-.743.42z" fill="#42E8E0"/><path d="M16.02 14.673l-.742-.42.742-.419.743.42-.743.419zm1.486.838l-.743-.42.743-.418.742.419-.742.419zm1.485.891l-.743-.42.743-.471.743.472-.743.419zm1.485.838l-.742-.419.742-.42.743.42-.743.42zm1.486.839l-.743-.42.742-.418.743.419-.742.419z" fill="#42E8E0"/><path opacity=".4" d="M23.447 18.917l-.743-.419.743-.42.796.42-.796.42z" fill="#42E8E0"/><path d="M24.985 19.808l-.742-.471.742-.42.743.42-.743.471zm-13.474-5.974l-.742-.419.742-.42.743.42-.743.42z" fill="#42E8E0"/><path opacity=".1" d="M12.997 14.673l-.743-.42.743-.419.795.42-.795.419z" fill="#42E8E0"/><path d="M14.535 15.511l-.743-.42.743-.418.743.419-.743.419zm1.485.891l-.742-.42.742-.47.743.47-.743.42zm1.486.838l-.743-.419.743-.42.742.42-.742.42zm1.485.839l-.743-.42.743-.418.743.419-.743.419z" fill="#42E8E0"/><path opacity=".4" d="M20.476 18.917l-.742-.419.742-.42.743.42-.743.42z" fill="#42E8E0"/><path d="M21.962 19.808l-.743-.42.743-.47.742.47-.742.42zm1.485.838l-.743-.419.743-.419.743.42-.743.418z" fill="#42E8E0"/><defs><linearGradient id="paint0_linear_87_8135" x1="35.233" y1="55.303" x2="35.233" y2="39.447" gradientUnits="userSpaceOnUse"><stop stop-color="#C0BFF6"/><stop offset=".294" stop-color="#C5C4F7"/><stop offset=".64" stop-color="#D3D2F9"/><stop offset="1" stop-color="#E9E9FD"/></linearGradient><linearGradient id="paint1_linear_87_8135" x1="35.233" y1="42.5" x2="35.233" y2="26.644" gradientUnits="userSpaceOnUse"><stop stop-color="#C0BFF6"/><stop offset=".294" stop-color="#C5C4F7"/><stop offset=".64" stop-color="#D3D2F9"/><stop offset="1" stop-color="#E9E9FD"/></linearGradient><linearGradient id="paint2_linear_87_8135" x1="35.233" y1="29.697" x2="35.233" y2="13.841" gradientUnits="userSpaceOnUse"><stop stop-color="#C0BFF6"/><stop offset=".294" stop-color="#C5C4F7"/><stop offset=".64" stop-color="#D3D2F9"/><stop offset="1" stop-color="#E9E9FD"/></linearGradient></defs></svg>