<svg width="64" height="67" fill="none" xmlns="http://www.w3.org/2000/svg"><path d="M40.977 27.081L36.564.486l.347-.151-.545-.302c-.05-.05-.198-.05-.397.05L.62 20.797c-.297.15-.495.603-.446.905l4.462 26.847c0 .15.1.251.199.251l.545.302.1-.503h-.05l35.1-20.562c.298-.202.546-.654.447-.956z" fill="url(#paint0_linear_87_10273)"/><path d="M.819 21.5l-.595-.25c-.05.15-.1.3-.1.452l4.463 26.847c0 .15.099.251.198.251l.545.302.1-.503h-.05l1.785-1.056L.819 21.501z" fill="url(#paint1_linear_87_10273)"/><path d="M41.076 28.338L5.727 49.051c-.297.151-.496.05-.545-.2L.72 22.002c-.05-.301.148-.754.446-.905L36.564.385c.298-.151.496-.05.546.2l4.462 26.848c.05.302-.199.754-.496.905z" fill="#24126A"/><path opacity=".51" d="M36.069 2.094l-34.06 19.96 4.214 25.238 34.06-19.91-4.214-25.288z" fill="#453C9E"/><path opacity=".7" d="M27.293 67c.248 0 .546-.05.794-.201l35.002-20.513c.247-.15.346-.301.346-.502 0-.151-.099-.302-.297-.402L42.266 33.165c-.347-.201-.992-.201-1.388.05L5.876 53.677c-.248.15-.347.302-.347.503 0 .15.099.301.297.402l20.872 12.267c.15.1.397.151.595.151zm14.378-33.835c.198 0 .397.05.496.1l20.872 12.267c.1.05.198.151.198.252 0 .1-.099.251-.248.352L27.987 66.598c-.347.2-.892.251-1.19.05L5.925 54.431c-.099-.05-.198-.15-.198-.251 0-.1.1-.252.248-.352l35.002-20.462c.198-.1.446-.201.694-.201z" fill="#6B5E9A"/><path d="M63.337 41.058l-1.934 1.005-19.335-11.312c-.347-.2-.893-.15-1.24.05L7.462 50.36c-.297-.201-1.784-.905-1.784-.905l.694 1.86c.05.1.099.15.198.201L26.947 63.43c.347.202.892.151 1.239-.05l34.16-19.96c.148-.1.247-.2.297-.3l.694-2.062z" fill="url(#paint2_linear_87_10273)"/><path d="M63.039 41.36L28.037 61.821c-.397.2-.942.25-1.29.05L5.877 49.655c-.347-.201-.298-.553.099-.754l34.952-20.462c.397-.202.942-.252 1.29-.05L63.09 40.605c.346.201.297.503-.05.754z" fill="url(#paint3_linear_87_10273)"/><path d="M63.04 41.209L28.036 61.67c-.396.2-.942.251-1.289.05L5.876 49.504c-.1-.05-.198-.15-.198-.251-.05.15.05.301.198.402l20.872 12.217c.347.2.893.15 1.29-.05l35.001-20.463c.248-.15.347-.352.298-.502a.939.939 0 01-.298.352z" fill="#fff"/><path d="M17.477 57.397v-.402c0-.05 0-.05.05-.05l1.338.804c.05 0 .05.05.05.1v.403c0 .05 0 .05-.05.05l-1.338-.804c-.05 0-.05-.05-.05-.1zm2.033 1.207v-.402c0-.05 0-.05.05-.05l1.338.804c.05 0 .05.05.05.1v.403c0 .05 0 .05-.05.05l-1.339-.804c-.05-.05-.05-.05-.05-.1z" fill="#24126A"/><path d="M11.28 48.549l29.102-17.044c.198-.1.446-.1.644 0L51.34 37.59c.148.1.148.301 0 .402L22.286 54.984a.73.73 0 01-.645 0L11.28 48.901c-.15-.05-.15-.302 0-.352z" fill="#ADB1F2"/><path d="M11.28 48.9l.099.05 29.003-16.942c.198-.1.446-.1.644 0l10.263 6.033.1-.05a.237.237 0 000-.402l-10.363-6.084a.727.727 0 00-.644 0L11.28 48.55c-.15.05-.15.301 0 .352z" fill="#9198DB"/><path d="M41.77 33.064L16.535 47.845l-1.14-.654 25.284-14.83 1.091.703zm2.776 1.609L20.848 48.498l-1.14-.653 23.698-13.826 1.14.654zm1.785 1.005L18.42 52.018l-1.09-.654 27.862-16.34 1.14.654zm1.785 1.056l-27.862 16.34-1.14-.654 27.862-16.34 1.14.654zm1.785 1.056L22.038 54.13l-1.14-.654 27.912-16.34 1.091.654zM14.998 48.7l-1.14.703-1.09-.703 1.09-.654 1.14.654zm3.967.905l-2.33 1.408-1.141-.654 2.33-1.408 1.14.654z" fill="#24126A"/><path d="M41.473 52.621l7.833-4.575c.297-.2.297-.452 0-.653l-5.354-3.117c-.298-.202-.794-.202-1.091 0l-7.833 4.575c-.298.2-.298.452 0 .653l5.354 3.117c.297.201.793.201 1.09 0z" fill="url(#paint4_linear_87_10273)"/><path d="M35.028 49.102l7.833-4.575c.297-.201.793-.201 1.09 0l5.355 3.117c.1.05.149.1.198.201.1-.15 0-.352-.198-.452l-5.354-3.117c-.298-.202-.794-.202-1.091 0l-7.833 4.575c-.199.1-.298.301-.199.452l.199-.201z" fill="#9198DB"/><path d="M21.79 18.534l-.149-.703-.595.352.1.754.644-.403z" fill="#42E8E0"/><path opacity=".1" d="M22.038 20.043l-.1-.754-.644.351.1.755.644-.352z" fill="#42E8E0"/><path opacity=".4" d="M22.286 21.5l-.1-.703-.644.352.1.754.644-.402z" fill="#42E8E0"/><path d="M22.534 23.009l-.1-.754-.644.402.1.704.644-.352z" fill="#42E8E0"/><path opacity=".4" d="M22.782 24.517l-.1-.754-.644.352.149.754.595-.352z" fill="#42E8E0"/><path d="M23.03 25.975l-.1-.754-.644.402.149.704.595-.352zm.247 1.509l-.099-.755-.644.352.148.755.595-.352zm.298 1.457l-.149-.754-.644.402.148.755.645-.403z" fill="#42E8E0"/><path opacity=".1" d="M23.823 30.45l-.149-.754-.645.351.15.755.644-.352z" fill="#42E8E0"/><path d="M23.08 17.78l-.15-.704-.644.352.149.755.644-.403zm.247 1.509l-.149-.755-.644.403.148.703.645-.351zm.248 1.508l-.149-.755-.595.352.1.755.644-.352zm.248 1.458l-.149-.755-.595.403.1.704.644-.352zm.247 1.508l-.148-.754-.595.352.099.754.645-.352zm.249 1.458l-.1-.754-.644.402.1.754.644-.402zm.247 1.509l-.099-.755-.644.352.099.754.644-.352zm.248 1.457l-.099-.704-.644.352.099.755.644-.403zm.248 1.509l-.099-.754-.644.352.148.754.595-.352zm-.743-12.62l-.1-.754-.644.352.149.754.595-.352zm.247 1.458l-.099-.754-.644.402.148.754.595-.402zm.298 1.509l-.149-.754-.644.351.148.755.645-.352z" fill="#42E8E0"/><path opacity=".1" d="M25.112 21.5l-.149-.754-.645.402.15.755.644-.402z" fill="#42E8E0"/><path opacity=".4" d="M25.36 23.009l-.15-.754-.644.352.149.754.645-.352zm.248 1.458l-.15-.704-.644.352.149.754.645-.402z" fill="#42E8E0"/><path d="M25.855 25.975l-.149-.754-.594.402.099.704.644-.352zm.248 1.458l-.149-.703-.594.351.099.755.644-.403zm.248 1.509l-.149-.755-.595.403.1.704.644-.352z" fill="#42E8E0"/><path opacity=".4" d="M25.607 16.323l-.099-.755-.644.352.099.754.644-.351zm.248 1.457l-.099-.704-.644.352.099.755.644-.403z" fill="#42E8E0"/><path opacity=".1" d="M26.103 19.289l-.1-.754-.644.352.1.754.644-.352z" fill="#42E8E0"/><path d="M26.351 20.747l-.1-.704-.644.352.15.754.594-.402zm.248 1.508l-.1-.754-.644.402.149.704.595-.352zm.248 1.458l-.1-.704-.644.352.149.754.595-.402z" fill="#42E8E0"/><path opacity=".4" d="M27.144 25.221l-.148-.754-.645.402.149.704.644-.352z" fill="#42E8E0"/><path d="M27.392 26.73l-.149-.754-.644.352.149.754.644-.352zm.248 1.458l-.149-.754-.644.402.149.754.644-.402zm-.744-12.62l-.148-.754-.645.352.149.754.645-.352zm.248 1.458l-.148-.704-.595.352.099.754.644-.402zm.248 1.508l-.148-.754-.595.402.099.704.644-.352zm.248 1.509l-.149-.754-.595.351.1.755.644-.352zm.248 1.457l-.1-.754-.644.402.1.704.644-.352zm.248 1.509l-.1-.754-.644.352.1.754.644-.352zm.248 1.458l-.1-.754-.644.402.1.754.644-.402zm.248 1.508l-.1-.754-.644.352.149.754.595-.352zm.248 1.458l-.1-.754-.644.402.149.755.595-.403zm-.744-12.619l-.099-.754-.644.402.148.704.595-.352zm.298 1.508l-.149-.754-.644.352.148.754.645-.352z" fill="#42E8E0"/><path opacity=".4" d="M28.682 17.78l-.15-.754-.644.402.15.755.644-.403z" fill="#42E8E0"/><path d="M28.93 19.289l-.15-.754-.644.352.149.754.644-.352z" fill="#42E8E0"/><path opacity=".1" d="M29.177 20.747l-.148-.754-.645.402.149.754.644-.402z" fill="#42E8E0"/><path d="M29.425 22.255l-.148-.754-.595.352.099.754.644-.352zm.248 1.458l-.148-.704-.595.352.099.754.644-.402zm.248 1.508l-.149-.754-.595.352.1.754.644-.352zm.248 1.459l-.1-.705-.644.352.1.754.644-.402zm-.744-12.62l-.099-.754-.645.402.1.754.644-.402zm.248 1.508l-.099-.754-.644.352.099.754.644-.352z" fill="#42E8E0"/><path opacity=".4" d="M29.921 17.026l-.1-.754-.644.402.1.755.644-.403z" fill="#42E8E0"/><path d="M30.169 18.535l-.1-.755-.644.352.149.755.595-.352zm.248 1.457l-.1-.703-.644.351.149.755.595-.403z" fill="#42E8E0"/><path opacity=".1" d="M30.714 21.501l-.148-.754-.645.402.149.704.644-.352z" fill="#42E8E0"/><path opacity=".4" d="M30.962 22.959l-.149-.704-.644.352.148.754.645-.402z" fill="#42E8E0"/><path d="M31.21 24.467l-.149-.754-.644.402.149.704.644-.352z" fill="#42E8E0"/><path opacity=".1" d="M31.458 25.975l-.149-.754-.644.352.148.754.645-.352z" fill="#42E8E0"/><path d="M30.714 13.306l-.148-.704-.645.352.149.754.644-.402z" fill="#42E8E0"/><path opacity=".4" d="M30.962 14.814l-.149-.754-.595.352.1.754.644-.352z" fill="#42E8E0"/><path d="M31.21 16.272l-.149-.704-.595.352.1.754.644-.402zm.248 1.508l-.1-.754-.644.402.1.704.644-.352zm.248 1.458l-.1-.703-.644.352.1.754.644-.402zm.248 1.509l-.1-.754-.644.402.1.704.644-.352zm.247 1.508l-.099-.754-.644.352.099.754.644-.352z" fill="#42E8E0"/><path opacity=".4" d="M32.45 23.713l-.1-.754-.644.402.149.754.595-.402z" fill="#42E8E0"/><path d="M32.697 25.221l-.099-.754-.644.352.148.754.595-.352zm-.743-12.669l-.1-.704-.644.352.149.754.595-.402z" fill="#42E8E0"/><path opacity=".1" d="M32.251 14.06l-.149-.754-.644.402.149.704.644-.352z" fill="#42E8E0"/><path d="M32.499 15.568l-.149-.754-.645.352.15.754.644-.352zm.248 1.458l-.149-.754-.644.402.148.704.645-.352zm.248 1.508l-.15-.754-.644.352.15.754.644-.352zm.248 1.459l-.15-.755-.594.403.1.754.644-.402z" fill="#42E8E0"/><path opacity=".4" d="M33.49 21.5l-.148-.753-.595.352.099.754.645-.352z" fill="#42E8E0"/><path d="M33.738 22.959l-.099-.754-.644.402.099.754.644-.402zm.248 1.508l-.099-.754-.644.352.099.754.644-.352zm-23.648.754l-.1-.703-.644.351.1.755.644-.403z" fill="#42E8E0"/><path opacity=".1" d="M10.585 26.73l-.099-.755-.644.402.099.704.644-.351z" fill="#42E8E0"/><path opacity=".4" d="M10.833 28.188l-.099-.704-.644.352.148.754.595-.402z" fill="#42E8E0"/><path d="M11.081 29.696l-.099-.754-.644.402.148.704.595-.352z" fill="#42E8E0"/><path opacity=".4" d="M11.33 31.204l-.1-.754-.645.352.15.754.594-.352z" fill="#42E8E0"/><path d="M11.627 32.662l-.149-.754-.644.402.148.754.645-.402zm.247 1.508l-.148-.754-.645.352.149.754.644-.352zm.248 1.458l-.148-.754-.645.402.149.755.644-.403z" fill="#42E8E0"/><path opacity=".1" d="M12.37 37.137l-.148-.754-.645.351.149.755.644-.352z" fill="#42E8E0"/><path d="M11.627 24.517l-.15-.754-.644.352.149.754.645-.352zm.247 1.458l-.149-.754-.594.402.099.704.644-.352zm.248 1.509l-.148-.755-.595.352.099.755.644-.352zm.248 1.457l-.099-.754-.645.402.1.755.644-.403zm.248 1.509l-.1-.754-.644.351.1.755.644-.352zm.248 1.458l-.1-.754-.644.402.1.754.644-.402zm.248 1.508l-.1-.754-.644.352.149.754.595-.352zm.248 1.458l-.1-.704-.644.352.149.754.595-.402zm.248 1.509l-.1-.755-.644.403.149.703.595-.351zm-.695-12.62l-.148-.754-.645.352.149.754.644-.352zm.249 1.458l-.15-.754-.644.402.15.755.644-.403zm.247 1.509l-.148-.755-.645.352.149.754.644-.351z" fill="#42E8E0"/><path opacity=".1" d="M13.66 28.188l-.15-.704-.644.352.149.754.644-.402z" fill="#42E8E0"/><path opacity=".4" d="M13.907 29.696l-.149-.754-.594.352.099.754.644-.352zm.248 1.458l-.149-.704-.595.352.1.754.644-.402z" fill="#42E8E0"/><path d="M14.403 32.662l-.149-.754-.595.402.1.704.644-.352zm.247 1.458l-.098-.704-.645.352.1.754.644-.402zm.249 1.508l-.1-.754-.644.402.1.704.644-.352z" fill="#42E8E0"/><path opacity=".4" d="M14.155 23.01l-.1-.755-.644.352.1.754.644-.352zm.248 1.457l-.1-.704-.644.352.1.754.644-.402z" fill="#42E8E0"/><path opacity=".1" d="M14.65 25.975l-.098-.754-.645.402.149.704.595-.352z" fill="#42E8E0"/><path d="M14.899 27.434l-.1-.704-.644.352.149.754.595-.402zm.297 1.508l-.149-.755-.644.403.149.704.644-.352zm.248 1.508l-.149-.754-.644.352.149.754.644-.352z" fill="#42E8E0"/><path opacity=".4" d="M15.692 31.908l-.149-.754-.644.402.148.704.645-.352z" fill="#42E8E0"/><path d="M15.94 33.416l-.149-.754-.644.352.148.754.645-.352zm.248 1.458l-.15-.754-.594.402.1.755.644-.403zm-.744-12.619l-.149-.754-.595.402.1.704.644-.352zm.248 1.458l-.149-.704-.595.352.1.754.644-.402zm.248 1.508l-.1-.754-.644.402.1.704.644-.352zm.248 1.509l-.1-.755-.644.352.1.754.644-.351zm.248 1.458l-.1-.755-.644.403.1.754.644-.402zm.248 1.508l-.1-.754-.644.352.1.754.644-.352zm.247 1.458l-.099-.755-.644.403.149.754.594-.402zm.249 1.508l-.1-.754-.644.352.148.754.595-.352zm.297 1.458l-.149-.704-.644.352.148.754.645-.402zm-.744-12.619l-.148-.754-.645.402.149.704.644-.352zm.248 1.508l-.149-.754-.644.352.149.754.644-.352z" fill="#42E8E0"/><path opacity=".4" d="M17.23 24.467l-.15-.754-.644.402.149.754.644-.402z" fill="#42E8E0"/><path d="M17.477 25.975l-.149-.754-.644.352.148.754.645-.352z" fill="#42E8E0"/><path opacity=".1" d="M17.725 27.433l-.149-.754-.595.402.1.755.644-.403z" fill="#42E8E0"/><path d="M17.973 28.942l-.149-.755-.595.352.1.755.644-.352zm.247 1.458l-.098-.704-.645.352.1.754.644-.402zm.248 1.508l-.099-.754-.644.402.099.704.644-.352zm.249 1.458l-.1-.704-.644.352.099.754.645-.402zm-.744-12.619l-.1-.755-.644.403.1.754.644-.402zm.247 1.508l-.099-.755-.644.352.149.755.595-.352z" fill="#42E8E0"/><path opacity=".4" d="M18.468 23.713l-.099-.704-.644.352.148.754.595-.402z" fill="#42E8E0"/><path d="M18.716 25.221l-.099-.754-.644.352.149.754.594-.352zm.298 1.458l-.149-.704-.644.352.148.754.645-.402z" fill="#42E8E0"/><path opacity=".1" d="M19.262 28.188l-.15-.755-.644.403.15.703.644-.352z" fill="#42E8E0"/><path opacity=".4" d="M19.51 29.645l-.15-.703-.644.352.15.754.644-.402z" fill="#42E8E0"/><path d="M19.757 31.154l-.148-.755-.645.403.149.704.644-.352z" fill="#42E8E0"/><path opacity=".1" d="M20.006 32.662l-.15-.754-.594.352.099.754.645-.352z" fill="#42E8E0"/><path d="M19.262 19.993l-.149-.704-.595.352.1.754.644-.402z" fill="#42E8E0"/><path opacity=".4" d="M19.51 21.5l-.15-.753-.594.402.1.704.644-.352z" fill="#42E8E0"/><path d="M19.758 22.959l-.1-.704-.644.352.1.754.644-.402zm.248 1.508l-.1-.754-.644.402.099.704.645-.352zm.247 1.508l-.099-.754-.644.352.099.754.644-.352zm.248 1.459l-.099-.755-.644.403.148.703.595-.351zm.248 1.508l-.1-.755-.644.352.15.755.594-.352z" fill="#42E8E0"/><path opacity=".4" d="M20.997 30.4l-.1-.755-.644.402.15.755.594-.403z" fill="#42E8E0"/><path d="M21.294 31.908l-.148-.754-.645.352.149.754.644-.352zm-.744-12.67l-.148-.703-.645.352.15.754.644-.402z" fill="#42E8E0"/><path opacity=".1" d="M20.799 20.747l-.15-.754-.644.402.15.704.644-.352z" fill="#42E8E0"/><path d="M21.046 22.255l-.148-.754-.645.352.149.754.644-.352zm.248 1.458l-.149-.754-.595.402.1.754.644-.402zm.248 1.508l-.149-.754-.594.352.099.754.644-.352zm.248 1.459l-.149-.755-.595.402.1.754.644-.402z" fill="#42E8E0"/><path opacity=".4" d="M22.038 28.188l-.1-.755-.644.352.1.754.644-.352z" fill="#42E8E0"/><path d="M22.286 29.646l-.1-.704-.644.352.1.754.644-.402zm.248 1.508l-.1-.754-.644.352.1.754.644-.352z" fill="#42E8E0"/><defs><linearGradient id="paint0_linear_87_10273" x1=".171" y1="24.526" x2="41.008" y2="24.526" gradientUnits="userSpaceOnUse"><stop stop-color="#C0BFF6"/><stop offset=".294" stop-color="#C5C4F7"/><stop offset=".64" stop-color="#D3D2F9"/><stop offset="1" stop-color="#E9E9FD"/></linearGradient><linearGradient id="paint1_linear_87_10273" x1=".172" y1="35.146" x2="7.184" y2="35.146" gradientUnits="userSpaceOnUse"><stop stop-color="#5761D7"/><stop offset=".178" stop-color="#5C66D9"/><stop offset=".388" stop-color="#6A73DF"/><stop offset=".613" stop-color="#8289E8"/><stop offset=".849" stop-color="#A3A7F5"/><stop offset="1" stop-color="#BCBEFF"/></linearGradient><linearGradient id="paint2_linear_87_10273" x1="5.643" y1="47.085" x2="63.318" y2="47.085" gradientUnits="userSpaceOnUse"><stop stop-color="#5761D7"/><stop offset=".178" stop-color="#5C66D9"/><stop offset=".388" stop-color="#6A73DF"/><stop offset=".613" stop-color="#8289E8"/><stop offset=".849" stop-color="#A3A7F5"/><stop offset="1" stop-color="#BCBEFF"/></linearGradient><linearGradient id="paint3_linear_87_10273" x1="25.022" y1="45.134" x2="82.728" y2="45.134" gradientUnits="userSpaceOnUse"><stop stop-color="#C0BFF6"/><stop offset=".294" stop-color="#C5C4F7"/><stop offset=".64" stop-color="#D3D2F9"/><stop offset="1" stop-color="#E9E9FD"/></linearGradient><linearGradient id="paint4_linear_87_10273" x1="34.794" y1="48.457" x2="49.565" y2="48.457" gradientUnits="userSpaceOnUse"><stop stop-color="#C0BFF6"/><stop offset=".294" stop-color="#C5C4F7"/><stop offset=".64" stop-color="#D3D2F9"/><stop offset="1" stop-color="#E9E9FD"/></linearGradient></defs></svg>