<svg width="396" height="463" fill="none" xmlns="http://www.w3.org/2000/svg"><path d="M65.801 335.673c-1.025 0-2.05-.171-2.735-.684l-61.87-35.721C.513 298.756 0 298.243 0 297.388c0-.854.684-1.709 1.71-2.221l61.015-35.208c1.88-1.026 4.614-1.197 6.323-.171l61.871 35.72c.854.513 1.196 1.197 1.196 1.88 0 .855-.684 1.71-1.709 2.222L69.39 334.818c-1.025.513-2.392.855-3.589.855zm-2.222-1.538c1.367.683 3.76.683 5.298-.171l61.016-35.208c.684-.342 1.196-1.026 1.196-1.538 0-.513-.341-.855-.683-1.026l-62.041-35.721c-1.367-.683-3.76-.683-5.298.171L2.05 296.021c-.684.342-1.196 1.026-1.196 1.538 0 .513.341.855.683 1.026l62.041 35.55z" fill="#8686F2"/><path d="M131.431 271.242v7.52l-65.63 37.943L.17 278.762v-7.52h131.26z" fill="url(#paint0_linear_118_15844)"/><path d="M65.8 309.184L.17 271.242l65.63-37.943 65.631 37.943-65.63 37.942z" fill="#BCBEFF"/><path d="M65.8 308.158L.855 270.728l-.684.513 65.63 37.942 65.631-37.942-.684-.513-64.946 37.43z" fill="#fff"/><path d="M65.802 300.294l-50.42-29.055 50.42-29.226 50.59 29.226-50.59 29.055z" fill="#0F054C"/><path opacity=".5" d="M65.798 300.294l-50.42-29.055 50.42-29.226 50.59 29.226-50.59 29.055z" fill="url(#paint1_linear_118_15844)"/><path opacity=".5" d="M65.797 234.664l50.59 29.226v7.349l-50.59-29.225v-7.35z" fill="url(#paint2_linear_118_15844)"/><path opacity=".5" d="M65.798 242.014l-50.42 29.225v-7.349l50.42-29.226v7.35z" fill="url(#paint3_linear_118_15844)"/><path opacity=".5" d="M65.798 292.945l-50.42-29.055 50.42-29.226 50.59 29.226-50.59 29.055z" fill="url(#paint4_linear_118_15844)"/><path opacity=".5" d="M65.799 275.513l-20.168-11.622L65.8 252.269l20.168 11.622L65.8 275.513z" fill="#42E8E0"/><path opacity=".5" d="M65.799 253.294l19.313 11.11.855-.513-20.168-11.622-20.168 11.622 1.026.513 19.142-11.11z" fill="#42E8E0"/><path opacity=".5" d="M65.797 292.944v7.35l50.59-29.055v-7.35l-50.59 29.055z" fill="url(#paint5_linear_118_15844)"/><path opacity=".5" d="M15.379 263.889v7.35l50.419 29.055v-7.35l-50.42-29.055z" fill="url(#paint6_linear_118_15844)"/><path opacity=".8" d="M65.802 292.263l-49.736-28.884-.683.513 50.419 29.055 50.59-29.055-.684-.513-49.906 28.884z" fill="#42E8E0"/><path d="M329.006 335.672c-1.025 0-2.051-.171-2.734-.683l-61.871-35.721c-.854-.513-1.196-1.196-1.196-1.88 0-.855.684-1.709 1.709-2.222l61.016-35.208c1.88-1.025 4.614-1.196 6.323-.171l61.871 35.721c.854.513 1.196 1.196 1.196 1.88 0 .855-.684 1.709-1.709 2.222l-61.016 35.208a7.953 7.953 0 01-3.589.854zm-2.222-1.538c1.368.684 3.76.684 5.299-.171l61.015-35.208c.684-.342 1.197-1.025 1.197-1.538 0-.513-.342-.855-.684-1.025l-61.87-35.721c-1.368-.684-3.76-.684-5.299.171l-61.015 35.208c-.684.342-1.196 1.025-1.196 1.538 0 .513.341.855.683 1.025l61.87 35.721z" fill="#8686F2"/><path d="M394.808 271.238v7.52l-65.63 37.942-65.801-37.942v-7.52h131.431z" fill="url(#paint7_linear_118_15844)"/><path d="M329.178 309.18l-65.801-37.943 65.801-37.942 65.63 37.942-65.63 37.943z" fill="#BCBEFF"/><path d="M329.178 308.154l-64.946-37.43-.855.513 65.801 37.942 65.63-37.942-.854-.513-64.776 37.43z" fill="#fff"/><path d="M329.179 300.291l-50.59-29.055 50.59-29.226 50.419 29.226-50.419 29.055z" fill="#0F054C"/><path opacity=".5" d="M329.178 300.291l-50.59-29.055 50.59-29.226 50.419 29.226-50.419 29.055z" fill="url(#paint8_linear_118_15844)"/><path opacity=".5" d="M329.178 234.663l50.419 29.226v7.349l-50.419-29.226v-7.349z" fill="url(#paint9_linear_118_15844)"/><path opacity=".5" d="M329.178 242.012l-50.59 29.226v-7.349l50.59-29.226v7.349z" fill="url(#paint10_linear_118_15844)"/><path opacity=".5" d="M329.178 292.944l-50.59-29.055 50.59-29.226 50.419 29.226-50.419 29.055z" fill="url(#paint11_linear_118_15844)"/><path opacity=".5" d="M329.179 275.511l-20.338-11.622 20.338-11.622 20.168 11.622-20.168 11.622z" fill="#42E8E0"/><path opacity=".5" d="M329.179 253.293l19.142 11.109 1.026-.513-20.168-11.622-20.338 11.622 1.025.513 19.313-11.109z" fill="#42E8E0"/><path opacity=".5" d="M329.178 292.943v7.349l50.419-29.055v-7.349l-50.419 29.055z" fill="url(#paint12_linear_118_15844)"/><path opacity=".5" d="M278.588 263.888v7.349l50.59 29.055v-7.349l-50.59-29.055z" fill="url(#paint13_linear_118_15844)"/><path opacity=".8" d="M329.179 292.26l-49.906-28.884-.684.513 50.59 29.055 50.419-29.055-.684-.513-49.735 28.884z" fill="#42E8E0"/><path d="M197.575 185.098L80.842 117.759l116.733-67.34 116.732 67.34-116.732 67.339z" fill="#BCBEFF"/><path opacity=".7" d="M197.573 179.115L91.436 117.758 197.573 56.4l106.307 61.358-106.307 61.357z" fill="#453C9E"/><path d="M197.574 463c-1.88 0-3.589-.513-5.127-1.367L49.394 379.082c-1.026-.512-1.538-1.538-1.538-2.734 0-1.026.512-2.051 1.538-2.735l148.18-85.627 152.796 88.191-147.497 85.114c-1.71 1.196-3.419 1.709-5.299 1.709zm-4.614-2.393c2.905 1.709 6.494 1.709 9.229 0l145.959-84.259-150.574-86.994-147.668 85.285c-.683.341-1.025 1.025-1.025 1.709 0 .683.342 1.367 1.025 1.709l143.054 82.55z" fill="#8686F2"/><path d="M197.575 443.859l-116.733-67.51 116.733-67.339 116.732 67.339-116.732 67.51z" fill="#fff"/><path d="M314.307 117.757v258.59l-116.732 67.51v-258.76l116.732-67.34z" fill="url(#paint14_linear_118_15844)"/><path d="M80.842 117.757v258.59l116.733 67.51v-258.76l-116.733-67.34z" fill="#24126A"/><path opacity=".51" d="M88.871 134.85v232.611l100.838 58.281V193.131L88.871 134.85z" fill="#453C9E"/><path d="M296.874 180.313v6.837l-81.696 47.171v-6.836l81.696-47.172zm0 28.885v6.836l-81.696 47.172v-6.837l81.696-47.171zm0 28.884v6.837l-81.696 47.171v-6.836l81.696-47.172zm0 28.883v6.836l-81.696 47.172v-6.837l81.696-47.171zm0 28.882v6.837l-81.696 47.172v-6.837l81.696-47.172zm0 28.885v6.836l-81.696 47.172v-6.837l81.696-47.171z" fill="#453C9E"/><path d="M197.575 182.876L82.722 116.562l-1.88 1.196 116.733 67.34 116.732-67.34-1.88-1.196-114.852 66.314z" fill="#fff"/><path opacity=".51" d="M80.842 335.501l116.733-70.416v-79.987L80.842 117.759v217.742z" fill="#453C9E"/><path d="M100.838 217.228l14.528 8.375v-2.564l-14.528-8.374v2.563zm16.919 9.742l7.862 4.614v-2.563l-7.862-4.615v2.564zm20.168 11.623l5.811 3.418v-2.564l-5.811-3.247v2.393zm-4.1-2.394l1.88 1.197v-2.564l-1.88-1.196v2.563zm-5.809-3.247l3.589 2.051v-2.564l-3.589-2.051v2.564zm-13.675 3.588l5.64 3.248v-2.564l-5.64-3.247v2.563zm-13.503-7.861l11.281 6.495v-2.393l-11.281-6.494v2.392zm21.018 41.021l11.11 6.324v-2.393l-11.11-6.495v2.564zm-5.809-3.419l3.59 2.051v-2.564l-3.59-2.05v2.563zm5.645-8.205l11.281 6.494v-2.563l-11.281-6.495v2.564zm-5.644-3.246l3.418 2.051v-2.563l-3.418-2.051v2.563zm5.813 64.604l-21.194-12.305v2.563l21.194 12.135v-2.393zm7.517 4.272l-5.298-3.076v2.564l5.298 3.076v-2.564zm34.186 2.393l-21.193-12.135v2.393l21.193 12.306v-2.564zm7.518 4.273l-5.298-2.905v2.393l5.298 3.076v-2.564zm-64.604-25.637l-5.811-3.248v2.393l5.811 3.418v-2.563zm32.816 7.521l-5.64-3.418v2.564l5.64 3.247v-2.393zm-19.314.171l-11.28-6.495v2.564l11.28 6.494v-2.563zm5.641 3.417l-3.418-2.051v2.564l3.418 2.051v-2.564zm13.675 7.862l-11.28-6.495v2.393l11.28 6.495v-2.393zm5.637 3.246l-3.418-2.051v2.564l3.418 2.051v-2.564zm-5.639-9.056l-5.64-3.247v2.564l5.64 3.247v-2.564zm13.501 7.86l-11.28-6.495v2.564l11.28 6.324v-2.393zm5.812 3.248l-3.589-2.051v2.564l3.589 2.051v-2.564zm-46.147-26.662l-11.793-6.666v2.564l11.793 6.665v-2.563zm10.77 6.323l-8.546-4.957v2.564l8.546 4.786v-2.393zm7.86 4.445l-5.64-3.248v2.564l5.64 3.247v-2.563zm38.797-50.249l11.622 6.665v-2.563l-11.622-6.666v2.564zm-10.769-6.323l8.545 4.956v-2.563l-8.545-4.786v2.393zm-7.861-4.443l5.64 3.247v-2.563l-5.64-3.248v2.564zm13.674 2.05l11.793 6.837v-2.564l-11.793-6.665v2.392zm-10.598-6.152l8.375 4.956v-2.563l-8.375-4.957v2.564zm-8.033-4.615l5.811 3.418v-2.564l-5.811-3.247v2.393zm-22.902 21.535l4.102 2.222v-2.564l-4.102-2.222v2.564zm-7.35-4.444l5.127 3.076.171-2.564-5.298-2.905v2.393zm-3.588 36.232l-11.622-6.836v2.564l11.622 6.836v-2.564zm10.77 6.153l-8.546-4.957v2.564l8.546 4.957v-2.564zm8.031 4.616l-5.811-3.247v2.392l5.811 3.419v-2.564zm-26.492-21.021l-3.931-2.222v2.393l3.931 2.392v-2.563zm7.52 4.271l-5.298-2.905v2.393l5.298 3.076v-2.564zm10.599 6.153l-8.375-4.785v2.393l8.375 4.956v-2.564zm3.076-47.856l3.931 2.222v-2.564l-3.931-2.221v2.563zm-7.523-4.271l5.299 2.905v-2.563l-5.299-2.906v2.564zm-10.594-6.154l8.374 4.786v-2.564l-8.374-4.785v2.563zm25.122 19.654l8.374 4.956v-2.564l-8.374-4.785v2.393zm-13.842-7.35l11.451 6.495v-2.564l-11.451-6.494v2.563zm-5.813-3.415l3.589 2.051v-2.564l-3.418-2.051-.171 2.564zm-5.467-3.249l3.589 2.051v-2.392l-3.589-2.051v2.392zm5.639 32.644l11.28 6.494v-2.563l-11.28-6.495v2.564zm-5.81-3.417l3.589 2.051v-2.564l-3.418-2.051-.171 2.564zm7.522 10.083l4.102 2.392v-2.563l-4.102-2.222v2.393zm12.133-4.616l3.931 2.393v-2.564l-3.931-2.222v2.393zm5.638 3.247l9.4 5.469v-2.392l-9.4-5.469v2.392zm11.112 6.494l5.64 3.248v-2.564l-5.64-3.247v2.563zm-36.233-9.399l5.127 3.076v-2.563l-5.127-3.077v2.564zm.51 5.981l3.931 2.222v-2.564l-3.931-2.222v2.564zm-7.519-4.272l5.299 2.906v-2.564l-5.299-2.905v2.563zm20.682-5.299l3.59 2.051v-2.563l-3.59-2.051v2.563zm-5.473-3.247l3.589 2.051v-2.564l-3.589-2.051v2.564zm20.511-28.882l11.963 7.007v-2.563l-11.963-7.008v2.564zm-13.675-7.862l11.451 6.495v-2.393l-11.451-6.665v2.563zm-5.809-3.418l3.589 2.051v-2.393l-3.589-2.051v2.393zm-5.47-3.078l3.589 2.051v-2.564l-3.589-2.051v2.564zm-3.076-1.708l-7.691-4.444v-2.563l7.691 4.443v2.564z" fill="#42E8E0"/><path d="M197.575 134.849L80.842 67.339 197.575 0l116.732 67.34-116.732 67.509z" fill="#BCBEFF"/><path d="M197.573 116.392L112.801 67.34l84.772-48.88 84.943 48.88-84.943 49.052z" fill="#453C9E"/><path d="M197.573 21.707l82.038 47.342 2.905-1.709-84.943-48.88-84.772 48.88 2.905 1.71 81.867-47.343z" fill="#fff"/><path d="M314.308 67.34v38.283l-116.733 67.34v-38.114l116.733-67.51z" fill="url(#paint15_linear_118_15844)"/><path d="M80.842 67.34v38.283l116.733 67.34v-38.114L80.842 67.339z" fill="#24126A"/><path opacity=".51" d="M88.874 84.603v11.964l100.839 58.281v-11.964L88.875 84.603z" fill="#453C9E"/><path d="M197.575 132.627L82.722 66.313l-1.88 1.026 116.733 67.51 116.732-67.51-1.88-1.025-114.852 66.313z" fill="#fff"/><path d="M296.877 94.174v6.836l-81.696 47.172v-6.836l81.696-47.172z" fill="#453C9E"/><path opacity=".51" d="M80.842 67.34v38.283l116.733 67.34v-38.114L80.842 67.339z" fill="#453C9E"/><path d="M163.565 132.798l-21.193-12.306v2.564l21.193 12.135v-2.393zm-24.271-14.013l-5.64-3.247v2.564l5.64 3.247v-2.564zm-26.833-15.384l-11.622-6.836v2.563l11.622 6.666v-2.393zm10.765 6.153l-8.545-4.957v2.564l8.545 4.785v-2.392zm8.035 4.615l-5.811-3.418v2.563l5.811 3.248v-2.393zm66.484-78.959l-3.76-2.052 3.76-2.222 3.76 2.222-3.76 2.051z" fill="#42E8E0"/><path opacity=".1" d="M205.093 39.48l-3.589-2.05 3.589-2.222 3.76 2.222-3.76 2.05z" fill="#42E8E0"/><path opacity=".4" d="M212.615 43.754l-3.76-2.05 3.76-2.223 3.589 2.222-3.589 2.051z" fill="#42E8E0"/><path d="M219.962 48.027l-3.76-2.05 3.76-2.223 3.76 2.222-3.76 2.051z" fill="#42E8E0"/><path opacity=".4" d="M227.313 52.299l-3.589-2.051 3.589-2.222 3.76 2.222-3.76 2.05z" fill="#42E8E0"/><path d="M234.835 56.573l-3.76-2.05 3.76-2.223 3.76 2.222-3.76 2.051zm7.348 4.273l-3.589-2.05 3.589-2.222 3.76 2.222-3.76 2.05zm7.518 4.27l-3.76-2.05 3.76-2.223 3.589 2.222-3.589 2.051z" fill="#42E8E0"/><path opacity=".1" d="M257.049 69.391l-3.76-2.05 3.76-2.223 3.76 2.222-3.76 2.051z" fill="#42E8E0"/><path d="M190.227 39.482l-3.589-2.05 3.589-2.223 3.76 2.222-3.76 2.051zm7.519 4.272l-3.76-2.051 3.76-2.222 3.76 2.222-3.76 2.05zm7.347 4.273l-3.589-2.051 3.589-2.222 3.76 2.222-3.76 2.05zm7.522 4.273l-3.76-2.051 3.76-2.222 3.589 2.222-3.589 2.05zm7.351 4.273l-3.76-2.05 3.76-2.223 3.76 2.222-3.76 2.051zm7.348 4.273l-3.589-2.05 3.589-2.222 3.76 2.221-3.76 2.051zm7.522 4.272l-3.76-2.051 3.76-2.222 3.589 2.222-3.589 2.05zm7.347 4.444l-3.76-2.222 3.76-2.222 3.76 2.222-3.76 2.222zm7.351 4.273l-3.589-2.222 3.589-2.05 3.76 2.05-3.76 2.222zm-66.658-30.081l-3.76-2.05 3.76-2.223 3.76 2.222-3.76 2.051zm7.348 4.273l-3.589-2.05 3.589-2.223 3.76 2.222-3.76 2.051zm7.522 4.273l-3.76-2.05 3.76-2.223 3.589 2.222-3.589 2.051z" fill="#42E8E0"/><path opacity=".1" d="M205.096 56.572l-3.76-2.051 3.76-2.222 3.761 2.222-3.761 2.05z" fill="#42E8E0"/><path opacity=".4" d="M212.444 61.017l-3.589-2.221 3.589-2.222 3.76 2.222-3.76 2.221zm7.519 4.273l-3.76-2.223 3.76-2.05 3.589 2.05-3.589 2.222z" fill="#42E8E0"/><path d="M227.314 69.56l-3.76-2.221 3.76-2.05 3.76 2.05-3.76 2.222zm7.522 4.275l-3.76-2.221 3.76-2.051 3.589 2.05-3.589 2.222zm7.347 4.272l-3.76-2.222 3.76-2.05 3.76 2.05-3.76 2.222z" fill="#42E8E0"/><path opacity=".4" d="M175.358 48.198l-3.589-2.222 3.589-2.222 3.76 2.222-3.76 2.222zm7.522 4.273l-3.76-2.221 3.76-2.051 3.589 2.05-3.589 2.222z" fill="#42E8E0"/><path opacity=".1" d="M190.227 56.745l-3.76-2.222 3.76-2.051 3.76 2.05-3.76 2.223z" fill="#42E8E0"/><path d="M197.578 61.016l-3.589-2.222 3.589-2.05 3.76 2.05-3.76 2.222zm7.518 4.271l-3.76-2.221 3.76-2.051 3.761 2.05-3.761 2.222zm7.352 4.275l-3.59-2.221 3.59-2.051 3.76 2.05-3.76 2.222z" fill="#42E8E0"/><path opacity=".4" d="M219.966 73.835l-3.76-2.222 3.76-2.05 3.589 2.05-3.589 2.222z" fill="#42E8E0"/><path d="M227.317 78.107l-3.76-2.222 3.76-2.051 3.76 2.05-3.76 2.223zm7.347 4.273l-3.589-2.222 3.589-2.05 3.76 2.05-3.76 2.222zm-66.658-29.91l-3.76-2.222 3.76-2.051 3.589 2.051-3.589 2.222zm7.348 4.275l-3.76-2.222 3.76-2.051 3.76 2.05-3.76 2.223zm7.522 4.271l-3.76-2.222 3.76-2.05 3.589 2.05-3.589 2.222zm7.35 4.271l-3.76-2.221 3.76-2.051 3.76 2.05-3.76 2.222zm7.348 4.273l-3.589-2.221 3.589-2.051 3.76 2.05-3.76 2.223zm7.519 4.274l-3.76-2.222 3.76-2.051 3.589 2.051-3.589 2.222zm7.351 4.275l-3.76-2.222 3.76-2.051 3.76 2.05-3.76 2.223zm7.347 4.27l-3.589-2.222 3.589-2.051 3.76 2.05-3.76 2.222zm7.522 4.272l-3.76-2.221 3.76-2.051 3.589 2.05-3.589 2.222zm-66.825-29.908l-3.59-2.222 3.59-2.051 3.76 2.05-3.76 2.223zm7.522 4.273l-3.76-2.222 3.76-2.05 3.589 2.05-3.589 2.222z" fill="#42E8E0"/><path opacity=".4" d="M175.361 65.287l-3.76-2.221 3.76-2.051 3.76 2.05-3.76 2.222z" fill="#42E8E0"/><path d="M182.708 69.56l-3.589-2.222 3.589-2.05 3.76 2.05-3.76 2.222z" fill="#42E8E0"/><path opacity=".1" d="M190.226 73.834l-3.76-2.222 3.76-2.051 3.59 2.05-3.59 2.223z" fill="#42E8E0"/><path d="M197.577 78.107l-3.76-2.222 3.76-2.051 3.761 2.05-3.761 2.223zm7.348 4.273l-3.589-2.051 3.589-2.222 3.76 2.222-3.76 2.051zm7.518 4.27l-3.76-2.051 3.76-2.222 3.76 2.222-3.76 2.05zm7.351 4.274l-3.589-2.05 3.589-2.222 3.76 2.222-3.76 2.05zm-66.657-29.908l-3.76-2.222 3.76-2.051 3.589 2.05-3.589 2.223zm7.351 4.271l-3.76-2.222 3.76-2.05 3.76 2.05-3.76 2.222z" fill="#42E8E0"/><path opacity=".4" d="M167.836 69.562l-3.589-2.051 3.589-2.222 3.76 2.222-3.76 2.05z" fill="#42E8E0"/><path d="M175.357 73.835l-3.76-2.05 3.76-2.223 3.76 2.222-3.76 2.051zm7.348 4.271l-3.589-2.05 3.589-2.222 3.76 2.222-3.76 2.05z" fill="#42E8E0"/><path opacity=".1" d="M190.223 82.38l-3.76-2.051 3.76-2.222 3.59 2.222-3.59 2.05z" fill="#42E8E0"/><path opacity=".4" d="M197.575 86.651l-3.761-2.05 3.761-2.223 3.76 2.222-3.76 2.051z" fill="#42E8E0"/><path d="M204.922 90.926l-3.589-2.05 3.589-2.223 3.76 2.222-3.76 2.051z" fill="#42E8E0"/><path opacity=".1" d="M212.444 95.197l-3.76-2.05 3.76-2.222 3.589 2.221-3.589 2.051z" fill="#42E8E0"/><path d="M145.618 65.289l-3.76-2.051 3.76-2.222 3.76 2.222-3.76 2.05z" fill="#42E8E0"/><path opacity=".4" d="M153.137 69.562l-3.761-2.051 3.761-2.222 3.589 2.222-3.589 2.05z" fill="#42E8E0"/><path d="M160.488 73.837l-3.76-2.05 3.76-2.223 3.76 2.222-3.76 2.051zm7.348 4.269l-3.589-2.05 3.589-2.222 3.76 2.222-3.76 2.05zm7.521 4.276l-3.76-2.051 3.76-2.222 3.589 2.222-3.589 2.05zm7.347 4.271l-3.76-2.051 3.76-2.222 3.76 2.222-3.76 2.05zm7.351 4.273l-3.589-2.05 3.589-2.223 3.761 2.222-3.761 2.051z" fill="#42E8E0"/><path opacity=".4" d="M197.575 95.2l-3.761-2.052 3.761-2.221 3.589 2.221-3.589 2.051z" fill="#42E8E0"/><path d="M204.925 99.47l-3.76-2.05 3.76-2.222 3.76 2.222-3.76 2.05zm-66.657-29.907l-3.76-2.051 3.76-2.222 3.589 2.222-3.589 2.05z" fill="#42E8E0"/><path opacity=".1" d="M145.616 73.836l-3.761-2.051 3.761-2.222 3.76 2.222-3.76 2.05z" fill="#42E8E0"/><path d="M152.967 78.109l-3.59-2.051 3.59-2.222 3.76 2.222-3.76 2.05zm7.521 4.271l-3.76-2.05 3.76-2.223 3.589 2.222-3.589 2.051zm7.348 4.272l-3.76-2.051 3.76-2.222 3.76 2.222-3.76 2.05zm7.347 4.275l-3.589-2.051 3.589-2.222 3.76 2.222-3.76 2.05z" fill="#42E8E0"/><path opacity=".4" d="M182.705 95.2l-3.76-2.051 3.76-2.222 3.76 2.222-3.76 2.05z" fill="#42E8E0"/><path d="M190.053 99.642l-3.59-2.222 3.59-2.222 3.76 2.222-3.76 2.222zm7.522 4.274l-3.761-2.222 3.761-2.051 3.589 2.051-3.589 2.222z" fill="#42E8E0"/><defs><linearGradient id="paint0_linear_118_15844" x1="-32.315" y1="293.958" x2="136.007" y2="293.958" gradientUnits="userSpaceOnUse"><stop stop-color="#5761D7"/><stop offset=".165" stop-color="#5E67DA"/><stop offset=".405" stop-color="#727AE2"/><stop offset=".692" stop-color="#9297EE"/><stop offset="1" stop-color="#BCBEFF"/></linearGradient><linearGradient id="paint1_linear_118_15844" x1="15.318" y1="271.211" x2="116.349" y2="271.211" gradientUnits="userSpaceOnUse"><stop stop-color="#42E8E0"/><stop offset=".151" stop-color="#43E3E0"/><stop offset=".329" stop-color="#45D5DF"/><stop offset=".52" stop-color="#49BDDD"/><stop offset=".721" stop-color="#4E9CDB"/><stop offset=".927" stop-color="#5472D8"/><stop offset="1" stop-color="#5761D7"/></linearGradient><linearGradient id="paint2_linear_118_15844" x1="65.832" y1="252.951" x2="116.348" y2="252.951" gradientUnits="userSpaceOnUse"><stop stop-color="#42E8E0"/><stop offset=".151" stop-color="#43E3E0"/><stop offset=".329" stop-color="#45D5DF"/><stop offset=".52" stop-color="#49BDDD"/><stop offset=".721" stop-color="#4E9CDB"/><stop offset=".927" stop-color="#5472D8"/><stop offset="1" stop-color="#5761D7"/></linearGradient><linearGradient id="paint3_linear_118_15844" x1="15.318" y1="252.95" x2="65.834" y2="252.95" gradientUnits="userSpaceOnUse"><stop stop-color="#42E8E0"/><stop offset=".151" stop-color="#43E3E0"/><stop offset=".329" stop-color="#45D5DF"/><stop offset=".52" stop-color="#49BDDD"/><stop offset=".721" stop-color="#4E9CDB"/><stop offset=".927" stop-color="#5472D8"/><stop offset="1" stop-color="#5761D7"/></linearGradient><linearGradient id="paint4_linear_118_15844" x1="15.318" y1="263.856" x2="116.349" y2="263.856" gradientUnits="userSpaceOnUse"><stop stop-color="#42E8E0"/><stop offset=".151" stop-color="#43E3E0"/><stop offset=".329" stop-color="#45D5DF"/><stop offset=".52" stop-color="#49BDDD"/><stop offset=".721" stop-color="#4E9CDB"/><stop offset=".927" stop-color="#5472D8"/><stop offset="1" stop-color="#5761D7"/></linearGradient><linearGradient id="paint5_linear_118_15844" x1="65.833" y1="282.115" x2="116.348" y2="282.115" gradientUnits="userSpaceOnUse"><stop stop-color="#42E8E0"/><stop offset=".151" stop-color="#43E3E0"/><stop offset=".329" stop-color="#45D5DF"/><stop offset=".52" stop-color="#49BDDD"/><stop offset=".721" stop-color="#4E9CDB"/><stop offset=".927" stop-color="#5472D8"/><stop offset="1" stop-color="#5761D7"/></linearGradient><linearGradient id="paint6_linear_118_15844" x1="15.318" y1="282.115" x2="65.834" y2="282.115" gradientUnits="userSpaceOnUse"><stop stop-color="#42E8E0"/><stop offset=".151" stop-color="#43E3E0"/><stop offset=".329" stop-color="#45D5DF"/><stop offset=".52" stop-color="#49BDDD"/><stop offset=".721" stop-color="#4E9CDB"/><stop offset=".927" stop-color="#5472D8"/><stop offset="1" stop-color="#5761D7"/></linearGradient><linearGradient id="paint7_linear_118_15844" x1="230.945" y1="293.954" x2="399.267" y2="293.954" gradientUnits="userSpaceOnUse"><stop stop-color="#5761D7"/><stop offset=".165" stop-color="#5E67DA"/><stop offset=".405" stop-color="#727AE2"/><stop offset=".692" stop-color="#9297EE"/><stop offset="1" stop-color="#BCBEFF"/></linearGradient><linearGradient id="paint8_linear_118_15844" x1="278.581" y1="271.207" x2="379.612" y2="271.207" gradientUnits="userSpaceOnUse"><stop stop-color="#42E8E0"/><stop offset=".151" stop-color="#43E3E0"/><stop offset=".329" stop-color="#45D5DF"/><stop offset=".52" stop-color="#49BDDD"/><stop offset=".721" stop-color="#4E9CDB"/><stop offset=".927" stop-color="#5472D8"/><stop offset="1" stop-color="#5761D7"/></linearGradient><linearGradient id="paint9_linear_118_15844" x1="329.095" y1="252.949" x2="379.612" y2="252.949" gradientUnits="userSpaceOnUse"><stop stop-color="#42E8E0"/><stop offset=".151" stop-color="#43E3E0"/><stop offset=".329" stop-color="#45D5DF"/><stop offset=".52" stop-color="#49BDDD"/><stop offset=".721" stop-color="#4E9CDB"/><stop offset=".927" stop-color="#5472D8"/><stop offset="1" stop-color="#5761D7"/></linearGradient><linearGradient id="paint10_linear_118_15844" x1="278.581" y1="252.949" x2="329.097" y2="252.949" gradientUnits="userSpaceOnUse"><stop stop-color="#42E8E0"/><stop offset=".151" stop-color="#43E3E0"/><stop offset=".329" stop-color="#45D5DF"/><stop offset=".52" stop-color="#49BDDD"/><stop offset=".721" stop-color="#4E9CDB"/><stop offset=".927" stop-color="#5472D8"/><stop offset="1" stop-color="#5761D7"/></linearGradient><linearGradient id="paint11_linear_118_15844" x1="278.581" y1="263.855" x2="379.612" y2="263.855" gradientUnits="userSpaceOnUse"><stop stop-color="#42E8E0"/><stop offset=".151" stop-color="#43E3E0"/><stop offset=".329" stop-color="#45D5DF"/><stop offset=".52" stop-color="#49BDDD"/><stop offset=".721" stop-color="#4E9CDB"/><stop offset=".927" stop-color="#5472D8"/><stop offset="1" stop-color="#5761D7"/></linearGradient><linearGradient id="paint12_linear_118_15844" x1="329.097" y1="282.114" x2="379.612" y2="282.114" gradientUnits="userSpaceOnUse"><stop stop-color="#42E8E0"/><stop offset=".151" stop-color="#43E3E0"/><stop offset=".329" stop-color="#45D5DF"/><stop offset=".52" stop-color="#49BDDD"/><stop offset=".721" stop-color="#4E9CDB"/><stop offset=".927" stop-color="#5472D8"/><stop offset="1" stop-color="#5761D7"/></linearGradient><linearGradient id="paint13_linear_118_15844" x1="278.581" y1="282.114" x2="329.097" y2="282.114" gradientUnits="userSpaceOnUse"><stop stop-color="#42E8E0"/><stop offset=".151" stop-color="#43E3E0"/><stop offset=".329" stop-color="#45D5DF"/><stop offset=".52" stop-color="#49BDDD"/><stop offset=".721" stop-color="#4E9CDB"/><stop offset=".927" stop-color="#5472D8"/><stop offset="1" stop-color="#5761D7"/></linearGradient><linearGradient id="paint14_linear_118_15844" x1="255.989" y1="370.981" x2="255.989" y2="124.656" gradientUnits="userSpaceOnUse"><stop stop-color="#C0BFF6"/><stop offset=".294" stop-color="#C5C4F7"/><stop offset=".64" stop-color="#D3D2F9"/><stop offset="1" stop-color="#E9E9FD"/></linearGradient><linearGradient id="paint15_linear_118_15844" x1="255.989" y1="149.397" x2="255.989" y2="69.632" gradientUnits="userSpaceOnUse"><stop stop-color="#C0BFF6"/><stop offset=".294" stop-color="#C5C4F7"/><stop offset=".64" stop-color="#D3D2F9"/><stop offset="1" stop-color="#E9E9FD"/></linearGradient></defs></svg>