<svg width="1440" height="897" fill="none" xmlns="http://www.w3.org/2000/svg"><rect opacity=".5" x="555.882" y="259.666" width="96" height="448" rx="48" transform="rotate(-135 555.882 259.666)" fill="url(#paint0_linear_307_2598)"/><rect x="582.452" y="488.893" width="156.202" height="728.944" rx="78.101" transform="rotate(-135 582.452 488.893)" fill="url(#paint1_linear_307_2598)"/><rect x="1164.45" y="741.893" width="156.202" height="728.944" rx="78.101" transform="rotate(-135 1164.45 741.893)" fill="url(#paint2_linear_307_2598)"/><rect x="545.3" y="259.741" width="99.418" height="728.944" rx="49.709" transform="rotate(-135 545.3 259.741)" fill="url(#paint3_linear_307_2598)"/><rect x="44.3" y="255.741" width="99.418" height="728.944" rx="49.709" transform="rotate(-135 44.3 255.741)" fill="url(#paint4_linear_307_2598)"/><rect x="130.835" y="697.063" width="101.59" height="474.085" rx="50.795" transform="rotate(-135 130.835 697.063)" fill="url(#paint5_linear_307_2598)"/><rect x="612.452" y="728.893" width="156.202" height="728.944" rx="78.101" transform="rotate(-135 612.452 728.893)" fill="url(#paint6_linear_307_2598)"/><rect x="680.377" y="896.699" width="136.298" height="1396.28" rx="68.149" transform="rotate(-135 680.377 896.699)" fill="url(#paint7_linear_307_2598)"/><defs><linearGradient id="paint0_linear_307_2598" x1="603.882" y1="259.666" x2="603.882" y2="707.666" gradientUnits="userSpaceOnUse"><stop stop-color="#181340"/><stop offset="1" stop-color="#1B135B" stop-opacity="0"/></linearGradient><linearGradient id="paint1_linear_307_2598" x1="660.553" y1="488.893" x2="660.553" y2="1217.84" gradientUnits="userSpaceOnUse"><stop stop-color="#1B135B" stop-opacity="0"/><stop offset=".334" stop-color="#1A1352"/></linearGradient><linearGradient id="paint2_linear_307_2598" x1="1242.55" y1="741.893" x2="1242.55" y2="1470.84" gradientUnits="userSpaceOnUse"><stop stop-color="#1B135B" stop-opacity="0"/><stop offset=".334" stop-color="#1A1352"/></linearGradient><linearGradient id="paint3_linear_307_2598" x1="595.009" y1="259.741" x2="595.009" y2="988.685" gradientUnits="userSpaceOnUse"><stop stop-color="#1B135B" stop-opacity="0"/><stop offset=".334" stop-color="#1A1352"/></linearGradient><linearGradient id="paint4_linear_307_2598" x1="94.009" y1="255.741" x2="94.009" y2="984.685" gradientUnits="userSpaceOnUse"><stop stop-color="#1B135B" stop-opacity="0"/><stop offset=".334" stop-color="#1A1352"/></linearGradient><linearGradient id="paint5_linear_307_2598" x1="181.629" y1="697.063" x2="181.629" y2="1171.15" gradientUnits="userSpaceOnUse"><stop stop-color="#23187C"/><stop offset="1" stop-color="#1B135B" stop-opacity="0"/></linearGradient><linearGradient id="paint6_linear_307_2598" x1="690.553" y1="728.893" x2="690.553" y2="1457.84" gradientUnits="userSpaceOnUse"><stop stop-color="#150E48"/><stop offset="1" stop-color="#1B135B" stop-opacity="0"/></linearGradient><linearGradient id="paint7_linear_307_2598" x1="748.526" y1="896.699" x2="748.526" y2="2292.98" gradientUnits="userSpaceOnUse"><stop stop-color="#130D42"/><stop offset="1" stop-color="#1B135B" stop-opacity="0"/></linearGradient></defs></svg>