<svg width="358" height="514" fill="none" xmlns="http://www.w3.org/2000/svg"><g opacity=".25"><g filter="url(#filter0_d_183_7668)"><path d="M172.469 384.327l-41.849-24.161-47.901 12.835-52.342-30.22-12.835-47.901-57.774-33.356" stroke="url(#paint0_linear_183_7668)" stroke-width="2" shape-rendering="crispEdges"/></g><circle r="2.566" transform="scale(-1 1) rotate(60 -312.203 144.5)" fill="#7A8EF6"/><circle r="2.566" transform="scale(-1 1) rotate(60 -364.298 114.422)" fill="#7A8EF6"/><g filter="url(#filter1_f_183_7668)"><circle r="2.566" transform="scale(-1 1) rotate(60 -364.298 114.422)" fill="#DEE3FC"/></g><g filter="url(#filter2_f_183_7668)"><circle r="2.566" transform="scale(-1 1) rotate(60 -312.203 144.5)" fill="#DEE3FC"/></g><g filter="url(#filter3_f_183_7668)"><circle r="2.566" transform="scale(-1 1) rotate(60 -264.092 132.443)" fill="#DEE3FC"/></g><g filter="url(#filter4_f_183_7668)"><circle r="2.566" transform="scale(-1 1) rotate(60 -376.677 67.442)" fill="#DEE3FC"/></g><circle r="2.566" transform="scale(-1 1) rotate(60 -376.677 67.442)" fill="#7A8EF6"/><circle r="2.566" transform="scale(-1 1) rotate(60 -264.092 132.443)" fill="#7A8EF6"/><g filter="url(#filter5_d_183_7668)"><path d="M222.922 249.434l26.86-15.507 30.744 8.238 33.595-19.396 8.238-30.744 37.081-21.409" stroke="url(#paint1_linear_183_7668)" stroke-width="2" shape-rendering="crispEdges"/></g><circle cx="313.746" cy="222.669" r="1.647" transform="rotate(60 313.746 222.669)" fill="#7A8EF6"/><circle cx="280.31" cy="241.973" r="1.647" transform="rotate(60 280.31 241.973)" fill="#7A8EF6"/><g filter="url(#filter6_f_183_7668)"><circle cx="280.31" cy="241.973" r="1.647" transform="rotate(60 280.31 241.973)" fill="#DEE3FC"/></g><g filter="url(#filter7_f_183_7668)"><circle cx="313.746" cy="222.669" r="1.647" transform="rotate(60 313.746 222.669)" fill="#DEE3FC"/></g><g filter="url(#filter8_f_183_7668)"><circle cx="322.484" cy="192.058" r="1.647" transform="rotate(60 322.484 192.058)" fill="#DEE3FC"/></g><g filter="url(#filter9_f_183_7668)"><circle cx="250.224" cy="233.777" r="1.647" transform="rotate(60 250.224 233.777)" fill="#DEE3FC"/></g><circle cx="250.224" cy="233.777" r="1.647" transform="rotate(60 250.224 233.777)" fill="#7A8EF6"/><circle cx="322.484" cy="192.058" r="1.647" transform="rotate(60 322.484 192.058)" fill="#7A8EF6"/><g filter="url(#filter10_d_183_7668)"><path d="M222.398 502v-68.527l-49.727-49.728v-85.71l49.727-49.727v-2.426" stroke="url(#paint2_linear_183_7668)" stroke-width="2" shape-rendering="crispEdges"/></g><circle r="3.639" transform="matrix(-1 0 0 1 173.277 298.642)" fill="#7A8EF6"/><circle r="3.639" transform="matrix(-1 0 0 1 173.277 383.947)" fill="#7A8EF6"/><g filter="url(#filter11_f_183_7668)"><circle r="3.639" transform="matrix(-1 0 0 1 173.277 383.947)" fill="#DEE3FC"/></g><g filter="url(#filter12_f_183_7668)"><circle r="3.639" transform="matrix(-1 0 0 1 173.277 298.642)" fill="#DEE3FC"/></g><g filter="url(#filter13_f_183_7668)"><circle r="3.639" transform="matrix(-1 0 0 1 222.196 248.106)" fill="#DEE3FC"/></g><g filter="url(#filter14_f_183_7668)"><circle r="3.639" transform="matrix(-1 0 0 1 222.196 432.462)" fill="#DEE3FC"/></g><circle r="3.639" transform="matrix(-1 0 0 1 222.196 432.462)" fill="#7A8EF6"/><circle r="3.639" transform="matrix(-1 0 0 1 222.196 248.106)" fill="#7A8EF6"/><g filter="url(#filter15_d_183_7668)"><path d="M129.816 360.296v-68.527l-49.728-49.728v-85.709l49.728-49.728V12" stroke="url(#paint3_linear_183_7668)" stroke-width="2" shape-rendering="crispEdges"/></g><circle r="3.639" transform="matrix(-1 0 0 1 80.695 156.938)" fill="#7A8EF6"/><circle r="3.639" transform="matrix(-1 0 0 1 80.695 242.243)" fill="#7A8EF6"/><g filter="url(#filter16_f_183_7668)"><circle r="3.639" transform="matrix(-1 0 0 1 80.695 242.243)" fill="#DEE3FC"/></g><g filter="url(#filter17_f_183_7668)"><circle r="3.639" transform="matrix(-1 0 0 1 80.695 156.938)" fill="#DEE3FC"/></g><g filter="url(#filter18_f_183_7668)"><circle r="3.639" transform="matrix(-1 0 0 1 129.614 106.402)" fill="#DEE3FC"/></g><g filter="url(#filter19_f_183_7668)"><circle r="3.639" transform="matrix(-1 0 0 1 129.614 290.758)" fill="#DEE3FC"/></g><circle r="3.639" transform="matrix(-1 0 0 1 129.614 290.758)" fill="#7A8EF6"/><circle r="3.639" transform="matrix(-1 0 0 1 129.614 106.402)" fill="#7A8EF6"/></g><defs><filter id="filter0_d_183_7668" x="-52.732" y="248.658" width="237.701" height="148.535" filterUnits="userSpaceOnUse" color-interpolation-filters="sRGB"><feFlood flood-opacity="0" result="BackgroundImageFix"/><feColorMatrix in="SourceAlpha" values="0 0 0 0 0 0 0 0 0 0 0 0 0 0 0 0 0 0 127 0" result="hardAlpha"/><feOffset/><feGaussianBlur stdDeviation="6"/><feComposite in2="hardAlpha" operator="out"/><feColorMatrix values="0 0 0 0 0.737255 0 0 0 0 0.745098 0 0 0 0 1 0 0 0 1 0"/><feBlend in2="BackgroundImageFix" result="effect1_dropShadow_183_7668"/><feBlend in="SourceGraphic" in2="effect1_dropShadow_183_7668" result="shape"/></filter><filter id="filter1_f_183_7668" x="62.49" y="352.136" width="41.133" height="41.133" filterUnits="userSpaceOnUse" color-interpolation-filters="sRGB"><feFlood flood-opacity="0" result="BackgroundImageFix"/><feBlend in="SourceGraphic" in2="BackgroundImageFix" result="shape"/><feGaussianBlur stdDeviation="9" result="effect1_foregroundBlur_183_7668"/></filter><filter id="filter2_f_183_7668" x="10.395" y="322.059" width="41.133" height="41.133" filterUnits="userSpaceOnUse" color-interpolation-filters="sRGB"><feFlood flood-opacity="0" result="BackgroundImageFix"/><feBlend in="SourceGraphic" in2="BackgroundImageFix" result="shape"/><feGaussianBlur stdDeviation="9" result="effect1_foregroundBlur_183_7668"/></filter><filter id="filter3_f_183_7668" x="-3.219" y="274.366" width="41.133" height="41.133" filterUnits="userSpaceOnUse" color-interpolation-filters="sRGB"><feFlood flood-opacity="0" result="BackgroundImageFix"/><feBlend in="SourceGraphic" in2="BackgroundImageFix" result="shape"/><feGaussianBlur stdDeviation="9" result="effect1_foregroundBlur_183_7668"/></filter><filter id="filter4_f_183_7668" x="109.366" y="339.367" width="41.133" height="41.133" filterUnits="userSpaceOnUse" color-interpolation-filters="sRGB"><feFlood flood-opacity="0" result="BackgroundImageFix"/><feBlend in="SourceGraphic" in2="BackgroundImageFix" result="shape"/><feGaussianBlur stdDeviation="9" result="effect1_foregroundBlur_183_7668"/></filter><filter id="filter5_d_183_7668" x="210.422" y="157.75" width="161.517" height="104.55" filterUnits="userSpaceOnUse" color-interpolation-filters="sRGB"><feFlood flood-opacity="0" result="BackgroundImageFix"/><feColorMatrix in="SourceAlpha" values="0 0 0 0 0 0 0 0 0 0 0 0 0 0 0 0 0 0 127 0" result="hardAlpha"/><feOffset/><feGaussianBlur stdDeviation="6"/><feComposite in2="hardAlpha" operator="out"/><feColorMatrix values="0 0 0 0 0.737255 0 0 0 0 0.745098 0 0 0 0 1 0 0 0 1 0"/><feBlend in2="BackgroundImageFix" result="effect1_dropShadow_183_7668"/><feBlend in="SourceGraphic" in2="effect1_dropShadow_183_7668" result="shape"/></filter><filter id="filter6_f_183_7668" x="260.663" y="222.326" width="39.294" height="39.294" filterUnits="userSpaceOnUse" color-interpolation-filters="sRGB"><feFlood flood-opacity="0" result="BackgroundImageFix"/><feBlend in="SourceGraphic" in2="BackgroundImageFix" result="shape"/><feGaussianBlur stdDeviation="9" result="effect1_foregroundBlur_183_7668"/></filter><filter id="filter7_f_183_7668" x="294.099" y="203.021" width="39.294" height="39.294" filterUnits="userSpaceOnUse" color-interpolation-filters="sRGB"><feFlood flood-opacity="0" result="BackgroundImageFix"/><feBlend in="SourceGraphic" in2="BackgroundImageFix" result="shape"/><feGaussianBlur stdDeviation="9" result="effect1_foregroundBlur_183_7668"/></filter><filter id="filter8_f_183_7668" x="302.837" y="172.411" width="39.294" height="39.294" filterUnits="userSpaceOnUse" color-interpolation-filters="sRGB"><feFlood flood-opacity="0" result="BackgroundImageFix"/><feBlend in="SourceGraphic" in2="BackgroundImageFix" result="shape"/><feGaussianBlur stdDeviation="9" result="effect1_foregroundBlur_183_7668"/></filter><filter id="filter9_f_183_7668" x="230.577" y="214.13" width="39.294" height="39.294" filterUnits="userSpaceOnUse" color-interpolation-filters="sRGB"><feFlood flood-opacity="0" result="BackgroundImageFix"/><feBlend in="SourceGraphic" in2="BackgroundImageFix" result="shape"/><feGaussianBlur stdDeviation="9" result="effect1_foregroundBlur_183_7668"/></filter><filter id="filter10_d_183_7668" x="159.671" y="233.882" width="75.728" height="280.118" filterUnits="userSpaceOnUse" color-interpolation-filters="sRGB"><feFlood flood-opacity="0" result="BackgroundImageFix"/><feColorMatrix in="SourceAlpha" values="0 0 0 0 0 0 0 0 0 0 0 0 0 0 0 0 0 0 127 0" result="hardAlpha"/><feOffset/><feGaussianBlur stdDeviation="6"/><feComposite in2="hardAlpha" operator="out"/><feColorMatrix values="0 0 0 0 0.737255 0 0 0 0 0.745098 0 0 0 0 1 0 0 0 1 0"/><feBlend in2="BackgroundImageFix" result="effect1_dropShadow_183_7668"/><feBlend in="SourceGraphic" in2="effect1_dropShadow_183_7668" result="shape"/></filter><filter id="filter11_f_183_7668" x="151.638" y="362.309" width="43.277" height="43.277" filterUnits="userSpaceOnUse" color-interpolation-filters="sRGB"><feFlood flood-opacity="0" result="BackgroundImageFix"/><feBlend in="SourceGraphic" in2="BackgroundImageFix" result="shape"/><feGaussianBlur stdDeviation="9" result="effect1_foregroundBlur_183_7668"/></filter><filter id="filter12_f_183_7668" x="151.638" y="277.003" width="43.277" height="43.277" filterUnits="userSpaceOnUse" color-interpolation-filters="sRGB"><feFlood flood-opacity="0" result="BackgroundImageFix"/><feBlend in="SourceGraphic" in2="BackgroundImageFix" result="shape"/><feGaussianBlur stdDeviation="9" result="effect1_foregroundBlur_183_7668"/></filter><filter id="filter13_f_183_7668" x="200.557" y="226.467" width="43.277" height="43.277" filterUnits="userSpaceOnUse" color-interpolation-filters="sRGB"><feFlood flood-opacity="0" result="BackgroundImageFix"/><feBlend in="SourceGraphic" in2="BackgroundImageFix" result="shape"/><feGaussianBlur stdDeviation="9" result="effect1_foregroundBlur_183_7668"/></filter><filter id="filter14_f_183_7668" x="200.558" y="410.823" width="43.277" height="43.277" filterUnits="userSpaceOnUse" color-interpolation-filters="sRGB"><feFlood flood-opacity="0" result="BackgroundImageFix"/><feBlend in="SourceGraphic" in2="BackgroundImageFix" result="shape"/><feGaussianBlur stdDeviation="9" result="effect1_foregroundBlur_183_7668"/></filter><filter id="filter15_d_183_7668" x="67.088" y="0" width="75.728" height="372.296" filterUnits="userSpaceOnUse" color-interpolation-filters="sRGB"><feFlood flood-opacity="0" result="BackgroundImageFix"/><feColorMatrix in="SourceAlpha" values="0 0 0 0 0 0 0 0 0 0 0 0 0 0 0 0 0 0 127 0" result="hardAlpha"/><feOffset/><feGaussianBlur stdDeviation="6"/><feComposite in2="hardAlpha" operator="out"/><feColorMatrix values="0 0 0 0 0.737255 0 0 0 0 0.745098 0 0 0 0 1 0 0 0 1 0"/><feBlend in2="BackgroundImageFix" result="effect1_dropShadow_183_7668"/><feBlend in="SourceGraphic" in2="effect1_dropShadow_183_7668" result="shape"/></filter><filter id="filter16_f_183_7668" x="59.056" y="220.605" width="43.277" height="43.277" filterUnits="userSpaceOnUse" color-interpolation-filters="sRGB"><feFlood flood-opacity="0" result="BackgroundImageFix"/><feBlend in="SourceGraphic" in2="BackgroundImageFix" result="shape"/><feGaussianBlur stdDeviation="9" result="effect1_foregroundBlur_183_7668"/></filter><filter id="filter17_f_183_7668" x="59.056" y="135.299" width="43.277" height="43.277" filterUnits="userSpaceOnUse" color-interpolation-filters="sRGB"><feFlood flood-opacity="0" result="BackgroundImageFix"/><feBlend in="SourceGraphic" in2="BackgroundImageFix" result="shape"/><feGaussianBlur stdDeviation="9" result="effect1_foregroundBlur_183_7668"/></filter><filter id="filter18_f_183_7668" x="107.975" y="84.763" width="43.277" height="43.277" filterUnits="userSpaceOnUse" color-interpolation-filters="sRGB"><feFlood flood-opacity="0" result="BackgroundImageFix"/><feBlend in="SourceGraphic" in2="BackgroundImageFix" result="shape"/><feGaussianBlur stdDeviation="9" result="effect1_foregroundBlur_183_7668"/></filter><filter id="filter19_f_183_7668" x="107.975" y="269.12" width="43.277" height="43.277" filterUnits="userSpaceOnUse" color-interpolation-filters="sRGB"><feFlood flood-opacity="0" result="BackgroundImageFix"/><feBlend in="SourceGraphic" in2="BackgroundImageFix" result="shape"/><feGaussianBlur stdDeviation="9" result="effect1_foregroundBlur_183_7668"/></filter><linearGradient id="paint0_linear_183_7668" x1="-48.999" y1="276.708" x2="163.703" y2="399.512" gradientUnits="userSpaceOnUse"><stop offset=".005" stop-color="#7A8EF6" stop-opacity="0"/><stop offset=".625" stop-color="#7A8EF6"/></linearGradient><linearGradient id="paint1_linear_183_7668" x1="365.066" y1="180.362" x2="228.549" y2="259.18" gradientUnits="userSpaceOnUse"><stop offset=".005" stop-color="#7A8EF6" stop-opacity="0"/><stop offset=".625" stop-color="#7A8EF6"/></linearGradient><linearGradient id="paint2_linear_183_7668" x1="197.534" y1="153.704" x2="197.534" y2="502" gradientUnits="userSpaceOnUse"><stop offset=".005" stop-color="#7A8EF6" stop-opacity="0"/><stop offset=".625" stop-color="#7A8EF6"/></linearGradient><linearGradient id="paint3_linear_183_7668" x1="104.952" y1="12" x2="104.952" y2="360.296" gradientUnits="userSpaceOnUse"><stop offset=".005" stop-color="#7A8EF6" stop-opacity="0"/><stop offset=".625" stop-color="#7A8EF6"/></linearGradient></defs></svg>