<svg width="1440" height="846" fill="none" xmlns="http://www.w3.org/2000/svg"><rect x="430.451" y="410.893" width="156.202" height="728.944" rx="78.101" transform="rotate(-135 430.451 410.893)" fill="url(#paint0_linear_302_2768)"/><rect x="-28.264" y="602.608" width="156.202" height="786.524" rx="78.101" transform="rotate(-135 -28.264 602.608)" fill="url(#paint1_linear_302_2768)"/><rect x="1.371" y="301.812" width="140.532" height="728.944" rx="70.266" transform="rotate(-135 1.371 301.812)" fill="url(#paint2_linear_302_2768)"/><rect x="393.299" y="181.741" width="99.418" height="728.944" rx="49.709" transform="rotate(-135 393.299 181.741)" fill="url(#paint3_linear_302_2768)"/><rect x="-107.7" y="177.741" width="99.418" height="728.944" rx="49.709" transform="rotate(-135 -107.7 177.741)" fill="url(#paint4_linear_302_2768)"/><rect x="266.107" y="845.237" width="156.202" height="1003.79" rx="78.101" transform="rotate(-135 266.107 845.237)" fill="url(#paint5_linear_302_2768)"/><rect x="528.377" y="818.699" width="136.298" height="1396.28" rx="68.149" transform="rotate(-135 528.377 818.699)" fill="url(#paint6_linear_302_2768)"/><rect x="935.604" y="767.094" width="170.432" height="1073.34" rx="78.101" transform="rotate(-135 935.604 767.094)" fill="url(#paint7_linear_302_2768)"/><defs><linearGradient id="paint0_linear_302_2768" x1="508.553" y1="410.893" x2="508.553" y2="1139.84" gradientUnits="userSpaceOnUse"><stop stop-color="#1B135B" stop-opacity="0"/><stop offset=".334" stop-color="#1A1352"/></linearGradient><linearGradient id="paint1_linear_302_2768" x1="49.837" y1="602.608" x2="49.837" y2="1389.13" gradientUnits="userSpaceOnUse"><stop stop-color="#1B135B" stop-opacity="0"/><stop offset=".334" stop-color="#1A1352"/></linearGradient><linearGradient id="paint2_linear_302_2768" x1="71.637" y1="301.812" x2="71.637" y2="1030.76" gradientUnits="userSpaceOnUse"><stop stop-color="#1B135B" stop-opacity="0"/><stop offset=".334" stop-color="#1A1352"/></linearGradient><linearGradient id="paint3_linear_302_2768" x1="443.009" y1="181.741" x2="443.009" y2="910.685" gradientUnits="userSpaceOnUse"><stop stop-color="#1B135B" stop-opacity="0"/><stop offset=".334" stop-color="#1A1352"/></linearGradient><linearGradient id="paint4_linear_302_2768" x1="-57.991" y1="177.741" x2="-57.991" y2="906.685" gradientUnits="userSpaceOnUse"><stop stop-color="#1B135B" stop-opacity="0"/><stop offset=".334" stop-color="#1A1352"/></linearGradient><linearGradient id="paint5_linear_302_2768" x1="344.208" y1="845.237" x2="344.208" y2="1849.03" gradientUnits="userSpaceOnUse"><stop stop-color="#150E48"/><stop offset="1" stop-color="#1B135B" stop-opacity="0"/></linearGradient><linearGradient id="paint6_linear_302_2768" x1="596.526" y1="818.699" x2="596.526" y2="2214.98" gradientUnits="userSpaceOnUse"><stop stop-color="#130D42"/><stop offset="1" stop-color="#1B135B" stop-opacity="0"/></linearGradient><linearGradient id="paint7_linear_302_2768" x1="1020.82" y1="767.094" x2="1020.82" y2="1840.43" gradientUnits="userSpaceOnUse"><stop stop-color="#1B135B" stop-opacity="0"/><stop offset=".334" stop-color="#1A1352"/></linearGradient></defs></svg>