<svg width="1440" height="352" fill="none" xmlns="http://www.w3.org/2000/svg"><rect x="635.452" y="321.893" width="156.202" height="728.944" rx="78.101" transform="rotate(-135 635.452 321.893)" fill="url(#paint0_linear_188_8501)"/><rect x="1254.45" y="334.893" width="156.202" height="728.944" rx="78.101" transform="rotate(-135 1254.45 334.893)" fill="url(#paint1_linear_188_8501)"/><rect x="904.119" y="335.56" width="93.506" height="728.944" rx="46.753" transform="rotate(-135 904.119 335.56)" fill="url(#paint2_linear_188_8501)"/><rect x="275.299" y="351.741" width="99.418" height="728.944" rx="49.709" transform="rotate(-135 275.299 351.741)" fill="url(#paint3_linear_188_8501)"/><rect x="2.8" y="330.242" width="77.499" height="728.944" rx="38.75" transform="rotate(-135 2.8 330.242)" fill="url(#paint4_linear_188_8501)"/><defs><linearGradient id="paint0_linear_188_8501" x1="713.553" y1="321.893" x2="713.553" y2="1050.84" gradientUnits="userSpaceOnUse"><stop stop-color="#1B135B" stop-opacity="0"/><stop offset=".334" stop-color="#1A1352"/></linearGradient><linearGradient id="paint1_linear_188_8501" x1="1332.55" y1="334.893" x2="1332.55" y2="1063.84" gradientUnits="userSpaceOnUse"><stop stop-color="#1B135B" stop-opacity="0"/><stop offset=".334" stop-color="#1A1352"/></linearGradient><linearGradient id="paint2_linear_188_8501" x1="950.872" y1="335.56" x2="950.872" y2="1064.5" gradientUnits="userSpaceOnUse"><stop stop-color="#1B135B" stop-opacity="0"/><stop offset=".334" stop-color="#1A1352"/></linearGradient><linearGradient id="paint3_linear_188_8501" x1="325.009" y1="351.741" x2="325.009" y2="1080.68" gradientUnits="userSpaceOnUse"><stop stop-color="#1B135B" stop-opacity="0"/><stop offset=".334" stop-color="#1A1352"/></linearGradient><linearGradient id="paint4_linear_188_8501" x1="41.55" y1="330.242" x2="41.55" y2="1059.19" gradientUnits="userSpaceOnUse"><stop stop-color="#1B135B" stop-opacity="0"/><stop offset=".334" stop-color="#1A1352"/></linearGradient></defs></svg>