<svg width="167" height="39" fill="none" xmlns="http://www.w3.org/2000/svg"><path fill-rule="evenodd" clip-rule="evenodd" d="M19.21 38.704c10.583 0 19.212-8.695 19.212-19.352C38.422 8.694 29.793 0 19.21 0 8.628 0 0 8.694 0 19.352c0 10.66 8.631 19.352 19.21 19.352z" fill="#3841B2"/><path fill-rule="evenodd" clip-rule="evenodd" d="M8.139 23.696c.242 3.171 2.209 5.61 5.839 5.78 3.49.167 6.978.222 10.466 0 3.204-.2 5.597-2.609 5.84-5.78.126-1.625.177-3.251.162-4.874-.807-4.386-4.46-4.542-4.803-4.547H13.34a.79.79 0 010-1.58h12.318c-.113-2.939-3.338-3.49-4.875-3.583l-.796-.018h-.003a64.387 64.387 0 00-6.006.177c-3.702.29-5.597 2.61-5.84 5.78a56.263 56.263 0 000 8.645zm18.48-1.667v1.052a.714.714 0 01-.708.714.714.714 0 01-.709-.714v-1.055a1.146 1.146 0 01-.516-.947c0-.644.55-1.164 1.225-1.164s1.224.522 1.224 1.164c0 .392-.203.737-.515.95z" fill="#1B135B"/><path fill-rule="evenodd" clip-rule="evenodd" d="M135.337 17.599l-.01 3.495s-1.186 2.348-5.282 2.924c-4.096.574-4.099-1.994-3.803-2.656.297-.665 1.261-1.58 4.651-2.137 3.617-.598 4.444-1.626 4.444-1.626zm4.826-3.366c0-5.406-5.161-7.925-9.78-7.479-4.3.418-7.912 2.439-9.023 6.96l4.452 1.104c1.407-4.051 6.679-5.238 8.912-2.343.598.787.348 1.608-.531 2.065-1.31.68-3.81.483-6.36 1.187-10.781 2.978-7.388 12.909 1.544 12.654 2.859-.08 4.919-1.397 6.316-2.714l.047 2.213h4.421V14.233h.002zM55.787 11.77c-3.24 0-5.873 2.66-5.873 5.944 0 3.282 2.63 5.944 5.873 5.944 3.245 0 5.875-2.659 5.875-5.944s-2.63-5.944-5.875-5.944zm11.508-4.376v20.074c0 7.022-4.852 11.236-11.018 11.236-4.19 0-7.255-.992-10.23-4.269l3.656-3.31c1.766 2.095 3.89 2.601 6.496 2.601 3.133 0 5.46-2.54 5.46-5.653v-2.06a10.147 10.147 0 01-6.725 2.553c-5.736 0-10.387-4.804-10.387-10.73s4.65-10.73 10.387-10.73c2.565 0 4.913.96 6.726 2.553V7.393h5.635zm99.367-.335l-6.037-.01-5.968 13.181-6.883-13.184h-6.056l9.943 18.783-5.254 10.902h6.056l14.199-29.672zm-58.976 4.71c3.241 0 5.87 2.66 5.87 5.945 0 3.282-2.629 5.944-5.87 5.944-3.245 0-5.875-2.659-5.875-5.944s2.63-5.944 5.875-5.944zM96.178 7.394h5.636v2.27a10.155 10.155 0 016.726-2.553c5.736 0 10.386 4.804 10.386 10.73s-4.653 10.73-10.386 10.73c-2.565 0-4.914-.96-6.726-2.552v10.715h-5.636V7.393zm-15.024 4.212c3.532 0 6.396 2.792 6.396 6.235 0 3.446-2.862 6.238-6.396 6.238-3.532 0-6.393-2.792-6.393-6.238-.003-3.443 2.859-6.235 6.393-6.235zm0-4.89c-6.3 0-11.41 4.984-11.41 11.128 0 6.147 5.107 11.128 11.41 11.128s11.41-4.981 11.41-11.128c-.003-6.147-5.11-11.128-11.41-11.128z" fill="#3841B2"/></svg>