<svg width="115" height="47" fill="none" xmlns="http://www.w3.org/2000/svg"><path fill-rule="evenodd" clip-rule="evenodd" d="M52.822 36.453V22.777h7.143c2.927 0 5.398-.97 7.412-2.88l.483-.485c3.679-3.958 3.437-10.123-.483-13.784-1.96-1.939-4.646-2.989-7.412-2.935H48.5v33.76h4.323zm0-17.823V6.84h7.252a5.89 5.89 0 014.136 1.669c2.337 2.261 2.39 6.03.135 8.373a5.648 5.648 0 01-4.27 1.75h-7.252zm35.205-3.472c-1.853-1.696-4.377-2.558-7.573-2.558-4.108 0-7.197 1.508-9.237 4.496l3.813 2.396c1.396-2.046 3.303-3.069 5.72-3.069 1.53 0 3.007.565 4.162 1.588a5.067 5.067 0 011.772 3.85v.996c-1.665-.915-3.76-1.4-6.337-1.4-3.008 0-5.425.7-7.224 2.127-1.799 1.427-2.712 3.311-2.712 5.708a7.147 7.147 0 002.551 5.653c1.692 1.508 3.84 2.262 6.364 2.262 2.981 0 5.344-1.32 7.143-3.958h.188v3.204h4.136V22.21c0-2.988-.913-5.357-2.766-7.053zM76.293 32.199a3.496 3.496 0 01-1.424-2.827c0-1.265.591-2.315 1.746-3.15 1.182-.834 2.659-1.265 4.405-1.265 2.417-.027 4.297.512 5.64 1.589 0 1.83-.725 3.419-2.149 4.765a6.862 6.862 0 01-4.861 2.019 5.273 5.273 0 01-3.357-1.13zm23.791 14.403l14.447-33.248h-4.699l-6.687 16.584h-.08l-6.848-16.584h-4.7l9.48 21.618-5.37 11.63h4.457z" fill="#fff"/><path d="M37.896 19.816a24 24 0 00-.322-3.931H19.341v7.457h10.446a8.978 8.978 0 01-3.867 5.896v4.846h6.23c3.652-3.365 5.746-8.346 5.746-14.269z" fill="#4285F4"/><path d="M19.341 38.769c5.21 0 9.614-1.723 12.81-4.685l-6.23-4.846c-1.746 1.185-3.975 1.858-6.58 1.858-5.048 0-9.318-3.42-10.848-7.996H2.075v5.008a19.307 19.307 0 0017.267 10.66z" fill="#34A853"/><path d="M8.494 23.1a11.723 11.723 0 010-7.43v-4.98h-6.42a19.26 19.26 0 000 17.39l6.42-4.98z" fill="#FBBC04"/><path d="M19.341 7.674a10.39 10.39 0 017.412 2.907l5.532-5.545A18.637 18.637 0 0019.342 0C12.037.001 5.35 4.147 2.075 10.69l6.418 5.008c1.53-4.604 5.8-8.023 10.848-8.023z" fill="#EA4335"/></svg>