<svg width="1123" height="429" fill="none" xmlns="http://www.w3.org/2000/svg"><path fill="#7A8EF6" d="M875.962 179.44h107.877v5.394H875.962z"/><g clip-path="url(#clip0_146_3703)"><path opacity=".7" d="M983.091 244.01c.527 0 .922-.134 1.316-.267l55.933-32.712c.4-.267.66-.667.66-1.201s-.26-1.068-.92-1.335l-33.43-19.627c-.92-.534-2.11-.534-2.9-.134l-55.931 32.712c-.395.267-.658.667-.658 1.201s.263 1.068.921 1.335l33.561 19.627c.395.267.922.401 1.448.401zm21.849-55.008c.53 0 .92.133 1.32.267l33.69 19.76c.39.267.66.534.66.801s-.14.534-.53.667l-55.936 32.712c-.526.4-1.711.267-2.369-.134l-33.561-19.627c-.395-.267-.658-.534-.658-.801s.131-.534.394-.667l56.07-32.711c.26-.134.66-.267.92-.267z" fill="#6B5E9A"/><path d="M985.066 135.595h-5.396c.789-1.869 1.316-2.937 1.316-2.937l53.834-21.362v91.457c0 .134-.14.267-.27.401l-49.089 28.839c-.132 0-.264.133-.264.133v-96.531h-.131z" fill="#24126A"/><path d="M953.346 122.645l31.061 17.891v91.724c-.395 0-.658-.133-1.053-.267l-29.481-17.357c-.263-.133-.395-.4-.527-.667v-91.324z" fill="url(#paint0_linear_146_3703)"/><path d="M986.645 113.031v118.161l-1.316.801c-.263.133-.527.267-.921.133-.395 0-.395-.267-.658-.4l-.264-.134.264-14.019v-21.896l-.659-82.646h3.554z" fill="#393091"/><path d="M983.091 217.841v-77.973l1.316.801v91.725h-.263c-.132 0-.263-.134-.526-.134-.132 0-.132-.133-.264-.133l-.263-.134v-14.152z" fill="#CAD0F9"/><path opacity=".51" d="M1032.31 116.37l-43.296 25.367v85.45l43.296-25.368V116.37z" fill="#453C9E"/><path opacity=".51" d="M1034.82 189.402l-48.175-32.711v-16.823l48.175-28.572v78.106z" fill="#453C9E"/><path d="M985.329 140.669l49.091-28.839c.53-.267.4-.801-.13-1.068l-29.48-17.357c-.53-.4-1.45-.4-1.98-.134l-49.089 28.84c-.526.267-.394.801.132 1.068l29.482 17.357c.658.4 1.447.4 1.974.133z" fill="#BCBEFF"/><mask id="a" style="mask-type:alpha" maskUnits="userSpaceOnUse" x="984" y="94" width="51" height="44"><path d="M1003.36 94.607h3.55l27.38 16.155c.53.4.66.801.13 1.068l-1.32.801-42.638 24.967h-5.66l18.558-42.991z" fill="url(#paint1_linear_146_3703)"/></mask><g mask="url(#a)"><path opacity=".78" d="M1003.36 94.607h3.55l27.38 16.155c.53.4.66.801.13 1.068l-1.32.801-42.638 24.967h-5.66l18.558-42.991z" fill="url(#paint2_linear_146_3703)"/><path d="M1003.36 96.342l23.56 13.886 2.37-.401v1.736l-44.488 26.035-22.506-15.487 41.064-25.769z" fill="url(#paint3_linear_146_3703)"/><path d="M984.802 135.729l44.488-25.902-25.93-15.22-44.486 26.035 25.928 15.087z" fill="url(#paint4_linear_146_3703)"/><path d="M1012.7 107.958l.66-.534v-.267l-6.58-3.872-.92.401.13.267 6.71 4.005z" fill="#3F21D3"/><path d="M1006.65 103.552l-.66.401-.39-.267 1.05-.668 7.11 4.139-.4.267-6.71-3.872z" fill="url(#paint5_linear_146_3703)"/><path d="M1010.47 109.159l.79-.4-.14-.401-6.58-3.872-.92.534.27.267 6.58 3.872z" fill="#3F21D3"/><path d="M1004.54 104.887l-.65.4-.53-.267 1.18-.667 7.11 4.139-.39.267-6.72-3.872z" fill="url(#paint6_linear_146_3703)"/><path d="M1008.36 110.361l.66-.4v-.267l-6.58-3.872-.92.4.13.267 6.71 3.872z" fill="#3F21D3"/><path d="M1002.44 106.089l-.79.4-.4-.267 1.19-.667 7.11 4.139-.53.267-6.58-3.872z" fill="url(#paint7_linear_146_3703)"/><path d="M1006.25 111.696l.66-.4v-.401l-6.58-3.872-.919.401.131.401 6.708 3.871z" fill="#3F21D3"/><path d="M1000.2 107.29l-.657.534-.395-.267 1.052-.801 7.24 4.273-.53.267-6.71-4.006z" fill="url(#paint8_linear_146_3703)"/><path d="M999.938 115.301l.662-.4v-.267l-6.585-3.872-.921.4.131.267 6.713 3.872z" fill="#3F21D3"/><path d="M994.015 111.029l-.789.4-.395-.267 1.184-.667 7.105 4.139-.52.267-6.585-3.872z" fill="url(#paint9_linear_146_3703)"/><path d="M997.832 116.636l.658-.4v-.401l-6.581-3.872-.921.401.132.4 6.712 3.872z" fill="#3F21D3"/><path d="M991.778 112.364l-.658.4-.395-.267 1.053-.667 7.107 4.139-.395.267-6.712-3.872z" fill="url(#paint10_linear_146_3703)"/><path d="M995.594 117.838l.79-.4-.132-.267-6.58-3.872-.79.4.132.267 6.58 3.872z" fill="#3F21D3"/><path d="M989.672 113.566l-.658.4-.527-.267 1.185-.667 7.107 4.139-.395.267-6.712-3.872z" fill="url(#paint11_linear_146_3703)"/><path d="M993.489 119.173l.658-.534v-.267l-6.581-3.872-.921.401.131.267 6.713 4.005z" fill="#3F21D3"/><path d="M987.566 114.767l-.789.401-.395-.267 1.184-.668 7.107 4.139-.526.267-6.581-3.872z" fill="url(#paint12_linear_146_3703)"/><path d="M987.171 122.778l.79-.4-.132-.267-6.58-3.872-.922.4.264.267 6.58 3.872z" fill="#3F21D3"/><path d="M981.249 118.506l-.658.4-.527-.267 1.185-.667 7.107 4.139-.395.267-6.712-3.872z" fill="url(#paint13_linear_146_3703)"/><path d="M985.065 124.113l.658-.4v-.401l-6.581-3.872-.921.401.132.267 6.712 4.005z" fill="#3F21D3"/><path d="M979.142 119.707l-.789.401-.395-.267 1.184-.668 7.108 4.273-.527.267-6.581-4.006z" fill="url(#paint14_linear_146_3703)"/></g><path d="M987.829 142.004c0-.534.395-1.201.922-1.602.263-.133.526-.133.658 0l.658.401h-.395v.133c0 .534-.395 1.202-.921 1.602 0 0-.132 0-.132.134l.132.4-.658-.4a1.028 1.028 0 01-.264-.668z" fill="url(#paint15_linear_146_3703)"/><path d="M988.487 142.405c0 .534.395.801.922.534.526-.267.921-.935.921-1.602 0-.534-.395-.801-.921-.534-.527.4-.922 1.068-.922 1.602z" fill="url(#paint16_linear_146_3703)"/><path d="M988.882 142.137c0 .268.263.401.527.268.263-.134.526-.535.526-.935 0-.267-.263-.401-.526-.267-.264.267-.527.667-.527.934z" fill="#3F21D3"/><path d="M1031.13 116.77c0-.534.4-1.202.92-1.602.26-.134.53-.134.66 0l.66.4h-.4v.134c0 .534-.39 1.201-.92 1.602 0 0-.13 0-.13.134l.13.4-.66-.4a1.037 1.037 0 01-.26-.668z" fill="url(#paint17_linear_146_3703)"/><path d="M1031.79 117.17c0 .534.39.801.92.534s.92-.934.92-1.602c0-.534-.39-.801-.92-.534s-.92 1.068-.92 1.602z" fill="url(#paint18_linear_146_3703)"/><path d="M1032.18 116.903c0 .268.27.401.53.268.26-.134.53-.535.53-.935 0-.401-.27-.401-.53-.267-.26.267-.53.667-.53.934z" fill="#3F21D3"/><path d="M987.829 227.454c0-.535.395-1.202.921-1.603.263-.133.527-.133.658 0l.658.401c-.131-.134-.394-.134-.658 0-.526.267-.921.935-.921 1.602 0 .267.132.401.263.534l-.658-.4c-.131 0-.263-.267-.263-.534z" fill="url(#paint19_linear_146_3703)"/><path d="M988.75 227.988l.132-.134c.132.134.263.134.395 0 .263-.133.526-.534.526-.934 0-.268-.131-.401-.263-.401v-.401h.395c.132.134.263.267.263.534 0 .535-.395 1.202-.921 1.603-.263.133-.527.133-.658 0l-.132-.267h.263z" fill="url(#paint20_linear_146_3703)"/><path d="M988.487 227.854c0-.534.395-1.202.921-1.602.264-.134.395-.134.658 0h-.394v.4h-.264c-.263.134-.526.534-.526.935v.267l-.132.133s-.131 0-.131.134l.131.267c-.131-.134-.263-.267-.263-.534z" fill="url(#paint21_linear_146_3703)"/><path d="M988.487 227.854c0-.534.395-1.202.921-1.602.264-.134.395-.134.658 0h-.394v.4h-.264c-.263.134-.526.534-.526.935v.267l-.132.133s-.131 0-.131.134l.131.267c-.131-.134-.263-.267-.263-.534z" fill="url(#paint22_linear_146_3703)"/><path d="M989.803 227.053c0 .267-.263.668-.526.935-.132.133-.395.133-.395 0 .395-.267.658-.801.658-1.202.263-.133.263 0 .263.267z" fill="#3F21D3"/><path d="M988.882 227.854v-.267c0-.267.263-.667.526-.935.132 0 .132-.133.264 0-.132.401-.395.935-.79 1.202z" fill="#3F21D3"/><path d="M1032.05 200.751c.26-.134.53-.134.66 0l.66.4c-.13-.133-.4-.133-.66 0-.53.267-.92.935-.92 1.602 0 .267.13.401.26.534l-.66-.4c-.13-.134-.26-.267-.26-.534 0-.668.39-1.335.92-1.602z" fill="url(#paint23_linear_146_3703)"/><path d="M1032.05 202.753l.13-.134c.13.134.27.134.4 0 .26-.133.52-.534.52-.934 0-.267-.13-.401-.26-.401v-.4h.4c.13.133.26.267.26.534 0 .534-.4 1.201-.92 1.602-.27.134-.53.134-.66 0l-.13-.267h.26z" fill="url(#paint24_linear_146_3703)"/><path d="M1031.79 202.62c0-.534.39-1.202.92-1.602.26-.134.39-.134.66 0h-.4v.4h-.26c-.26.134-.53.534-.53.935v.267l-.13.133s-.13 0-.13.134l.13.267c-.13-.134-.26-.267-.26-.534z" fill="url(#paint25_linear_146_3703)"/><path d="M1031.79 202.62c0-.534.39-1.202.92-1.602.26-.134.39-.134.66 0h-.4v.4h-.26c-.26.134-.53.534-.53.935v.267l-.13.133s-.13 0-.13.134l.13.267c-.13-.134-.26-.267-.26-.534z" fill="url(#paint26_linear_146_3703)"/><path d="M1033.24 201.818c0 .267-.27.668-.53.935-.13.133-.4.133-.4 0 .4-.267.66-.801.66-1.202.13-.133.27 0 .27.267z" fill="#3F21D3"/><path d="M1032.18 202.62v-.267c0-.267.27-.668.53-.935.13 0 .13-.133.26 0-.13.401-.39.935-.79 1.202z" fill="#3F21D3"/><path d="M980.327 144.942l-22.374-12.951v78.373l22.374 13.085v-78.507z" fill="#453C9E"/><path d="M957.953 210.364l22.374 13.085v1.602l-23.822-13.886v-80.109l1.448.935v78.373z" fill="#fff"/><path d="M962.559 172.446l-1.842-1.068v2.136l1.842 1.202v-2.27z" fill="#42E8E0"/><path opacity=".1" d="M966.245 174.716l-1.843-1.202v2.27l1.843 1.068v-2.136z" fill="#42E8E0"/><path opacity=".4" d="M969.93 176.852l-1.843-1.068v2.136l1.843 1.068v-2.136z" fill="#42E8E0"/><path d="M973.615 178.988l-1.842-1.068v2.136l1.842 1.068v-2.136z" fill="#42E8E0"/><path opacity=".4" d="M977.3 181.125l-1.842-1.069v2.137l1.842 1.068v-2.136z" fill="#42E8E0"/><path d="M962.559 168.173l-1.842-1.068v2.137l1.842 1.068v-2.137zm3.686 2.136l-1.843-1.068v2.136l1.843 1.069v-2.137zm3.685 2.137l-1.843-1.068v2.136l1.843 1.068v-2.136zm3.685 2.137l-1.842-1.069v2.27l1.842 1.068v-2.269zm3.685 2.269l-1.842-1.202v2.27l1.842 1.068v-2.136zm-14.741-13.084l-1.842-1.069v2.137l1.842 1.068v-2.136zm3.686 2.136l-1.843-1.068v2.136l1.843 1.202v-2.27zm3.685 2.269l-1.843-1.201v2.27l1.843 1.068v-2.137z" fill="#42E8E0"/><path opacity=".1" d="M973.615 170.309l-1.842-1.068v2.137l1.842 1.068v-2.137z" fill="#42E8E0"/><path opacity=".4" d="M977.3 172.446l-1.842-1.068v2.136l1.842 1.068v-2.136zm-14.741-12.951l-1.842-1.202v2.27l1.842 1.068v-2.136zm3.686 2.136l-1.843-1.068v2.136l1.843 1.069v-2.137z" fill="#42E8E0"/><path opacity=".1" d="M969.93 163.768l-1.843-1.069v2.137l1.843 1.068v-2.136z" fill="#42E8E0"/><path d="M973.615 165.903l-1.842-1.068v2.137l1.842 1.068v-2.137zm3.685 2.137l-1.842-1.068v2.27l1.842 1.068v-2.27zm-14.741-12.951l-1.842-1.068v2.136l1.842 1.068v-2.136zm3.686 2.137l-1.843-1.068v2.136l1.843 1.068v-2.136zm3.685 2.136l-1.843-1.069v2.137l1.843 1.201v-2.269zm3.685 2.27l-1.842-1.202v2.27l1.842 1.068v-2.136zm3.685 2.136l-1.842-1.068v2.136l1.842 1.068v-2.136zm-14.741-13.085l-1.842-1.068v2.136l1.842 1.202v-2.27zm3.686 2.27l-1.843-1.201v2.269l1.843 1.068v-2.136z" fill="#42E8E0"/><path opacity=".4" d="M969.93 155.089l-1.843-1.068v2.136l1.843 1.068v-2.136z" fill="#42E8E0"/><path d="M973.615 157.225l-1.842-1.068v2.136l1.842 1.068v-2.136z" fill="#42E8E0"/><path opacity=".1" d="M977.3 159.362l-1.842-1.069v2.137l1.842 1.068v-2.136z" fill="#42E8E0"/><path d="M962.559 146.411l-1.842-1.068v2.136l1.842 1.068v-2.136zm3.686 2.136l-1.843-1.068v2.136l1.843 1.068v-2.136z" fill="#42E8E0"/><path opacity=".4" d="M969.93 150.683l-1.843-1.068v2.136l1.843 1.068v-2.136z" fill="#42E8E0"/><path d="M973.615 152.82l-1.842-1.068v2.136l1.842 1.201v-2.269zm3.685 2.269l-1.842-1.201v2.269l1.842 1.068v-2.136zm-14.741-13.084l-1.974-1.068v2.136l1.974 1.068v-2.136z" fill="#42E8E0"/><path opacity=".4" d="M966.245 144.141l-1.843-1.068v2.136l1.843 1.202v-2.27z" fill="#42E8E0"/><path d="M969.93 146.41l-1.843-1.201v2.27l1.843 1.068v-2.137zm3.685 2.137l-1.842-1.069v2.137l1.842 1.068v-2.136zm3.685 2.136l-1.842-1.068v2.136l1.842 1.068v-2.136zm-14.872-12.951l-1.843-1.201v2.269l1.974 1.068-.131-2.136z" fill="#42E8E0"/><path opacity=".1" d="M966.245 139.868l-1.843-1.068v2.137l1.843 1.068v-2.137z" fill="#42E8E0"/><path d="M969.93 142.005l-1.843-1.068v2.136l1.843 1.068v-2.136zm3.685 2.136l-1.842-1.069v2.137l1.842 1.068v-2.136zm3.685 2.136l-1.842-1.068v2.136l1.842 1.202v-2.27zm-14.741 60.749l-1.842-1.201v2.269l1.842 1.068v-2.136zm3.686 2.136l-1.843-1.068v2.136l1.843 1.068v-2.136zm3.685 2.137l-1.843-1.069v2.137l1.843 1.068v-2.136zm3.685 2.136l-1.842-1.069v2.137l1.842 1.068v-2.136zm3.685 2.136l-1.842-1.068v2.136l1.842 1.202v-2.27zm-14.741-12.951l-1.842-1.068v2.136l1.842 1.068v-2.136zm3.686 2.137l-1.843-1.068v2.136l1.843 1.068v-2.136zm3.685 2.136l-1.843-1.068v2.136l1.843 1.201v-2.269z" fill="#42E8E0"/><path opacity=".1" d="M973.615 209.163l-1.842-1.202v2.27l1.842 1.068v-2.136z" fill="#42E8E0"/><path opacity=".4" d="M977.3 211.299l-1.842-1.069v2.137l1.842 1.068v-2.136zm-14.741-13.085l-1.842-1.068v2.136l1.842 1.202v-2.27zm3.686 2.27l-1.843-1.201v2.27l1.843 1.068v-2.137z" fill="#42E8E0"/><path opacity=".1" d="M969.93 202.62l-1.843-1.068v2.136l1.843 1.068v-2.136z" fill="#42E8E0"/><path d="M973.615 204.756l-1.842-1.068v2.136l1.842 1.068v-2.136zm3.685 2.137l-1.842-1.068v2.136l1.842 1.068v-2.136zm-14.741-12.951l-1.842-1.068v2.136l1.842 1.068v-2.136zm3.686 2.136l-1.843-1.068v2.136l1.843 1.068v-2.136zm3.685 2.136l-1.843-1.068v2.136l1.843 1.068v-2.136zm3.685 2.136l-1.842-1.068v2.137l1.842 1.201v-2.27zm3.685 2.27l-1.842-1.201v2.269l1.842 1.068v-2.136zm-14.741-13.084l-1.842-1.068v2.136l1.842 1.068v-2.136zm3.686 2.136l-1.843-1.068v2.136l1.843 1.202v-2.27z" fill="#42E8E0"/><path opacity=".4" d="M969.93 193.942l-1.843-1.202v2.27l1.843 1.068v-2.136z" fill="#42E8E0"/><path d="M973.615 196.078l-1.842-1.068v2.136l1.842 1.068v-2.136z" fill="#42E8E0"/><path opacity=".1" d="M977.3 198.214l-1.842-1.068v2.136l1.842 1.069v-2.137z" fill="#42E8E0"/><path d="M962.559 185.263l-1.842-1.201v2.27l1.842 1.068v-2.137zm3.686 2.137l-1.843-1.068v2.136l1.843 1.068V187.4z" fill="#42E8E0"/><path opacity=".4" d="M969.93 189.536l-1.843-1.068v2.136l1.843 1.068v-2.136z" fill="#42E8E0"/><path d="M973.615 191.672l-1.842-1.068v2.136l1.842 1.068v-2.136zm3.685 2.136l-1.842-1.068v2.136l1.842 1.202v-2.27zm-14.741-12.951l-1.974-1.068v2.136l1.974 1.069v-2.137z" fill="#42E8E0"/><path opacity=".4" d="M966.245 182.994l-1.843-1.068v2.136l1.843 1.068v-2.136z" fill="#42E8E0"/><path d="M969.93 185.13l-1.843-1.068v2.136l1.843 1.202v-2.27zm3.685 2.27l-1.842-1.202v2.27l1.842 1.068V187.4zm3.685 2.136l-1.842-1.068v2.136l1.842 1.068v-2.136zm-14.872-13.085l-1.843-1.068v2.137l1.974 1.201-.131-2.27z" fill="#42E8E0"/><path opacity=".1" d="M966.245 178.722l-1.843-1.202v2.27l1.843 1.068v-2.136z" fill="#42E8E0"/><path d="M969.93 180.857l-1.843-1.068v2.136l1.843 1.069v-2.137zm3.685 2.136l-1.842-1.068v2.136l1.842 1.069v-2.137zm3.685 2.137l-1.842-1.068v2.136l1.842 1.068v-2.136z" fill="#42E8E0"/><path opacity=".7" d="M1023.89 270.045c.53 0 .92-.134 1.32-.267l55.93-32.711c.4-.267.66-.668.66-1.202 0-.534-.26-1.068-.92-1.335l-33.56-19.627c-.92-.534-2.11-.534-2.9-.133l-55.932 32.711c-.395.267-.658.668-.658 1.202 0 .534.263 1.068.921 1.335l33.559 19.626c.4.267.92.401 1.58.401zm21.85-55.142c.53 0 .92.134 1.32.401l33.56 19.627c.39.267.66.534.66.934 0 .267-.14.534-.4.668l-55.94 32.711c-.52.4-1.71.267-2.36-.134l-33.566-19.626c-.395-.267-.658-.534-.658-.935 0-.267.132-.534.395-.667l55.939-32.712c.26-.133.65-.267 1.05-.267z" fill="#6B5E9A"/><path d="M1025.73 161.631h-5.39c.79-1.869 1.31-2.937 1.31-2.937l53.83-21.363v91.458c0 .133-.13.267-.26.4l-49.09 28.84c-.13 0-.26.133-.26.133v-96.531h-.14z" fill="#24126A"/><path d="M994.015 148.546l31.065 17.891v91.725c-.4 0-.66-.134-1.06-.267l-29.478-17.357c-.263-.133-.395-.401-.527-.668v-91.324z" fill="url(#paint27_linear_146_3703)"/><path d="M1027.31 139.067v118.161l-1.31.801c-.27.133-.53.267-.92.133-.4 0-.4-.267-.66-.4l-.26-.134.26-14.019v-22.03l-.66-82.512h3.55z" fill="#393091"/><path d="M1023.76 243.742V165.77l1.32.801v91.724h-.27c-.13 0-.26-.133-.52-.133-.14 0-.14-.134-.27-.134l-.26-.133v-14.153z" fill="#CAD0F9"/><path opacity=".51" d="M1073.12 142.271l-43.31 25.368v85.45l43.31-25.368v-85.45z" fill="#453C9E"/><path opacity=".51" d="M1075.48 215.437l-48.17-32.711V165.77l48.17-28.439v78.106z" fill="#453C9E"/><path d="M1026 166.571l49.22-28.839c.53-.267.4-.801-.13-1.068l-29.48-17.357c-.53-.401-1.45-.401-1.98-.134l-49.088 28.839c-.526.267-.395.802.132 1.069l29.486 17.357c.52.4 1.31.4 1.84.133z" fill="#BCBEFF"/><mask id="b" style="mask-type:alpha" maskUnits="userSpaceOnUse" x="1025" y="120" width="51" height="44"><path d="M1044.03 120.508h3.55l27.38 16.156c.52.4.66.801.13 1.068l-1.32.801-42.64 24.967h-5.66l18.56-42.992z" fill="url(#paint28_linear_146_3703)"/></mask><g mask="url(#b)"><path opacity=".78" d="M1044.03 120.508h3.55l27.38 16.156c.52.4.66.801.13 1.068l-1.32.801-42.64 24.967h-5.66l18.56-42.992z" fill="url(#paint29_linear_146_3703)"/><path d="M1044.03 122.378l23.56 13.752 2.37-.401v1.736L1025.6 163.5l-22.5-15.487 40.93-25.635z" fill="url(#paint30_linear_146_3703)"/><path d="M999.675 146.544v1.736l25.925 15.22v-1.735l-25.925-15.221z" fill="url(#paint31_linear_146_3703)"/><path d="M1025.6 161.764l44.36-26.035-25.93-15.221-44.355 26.036 25.925 15.22z" fill="url(#paint32_linear_146_3703)"/><path d="M1053.37 133.86l.66-.401v-.4l-6.58-3.872-.92.4.13.401 6.71 3.872z" fill="#3F21D3"/><path d="M1047.45 129.454l-.79.534-.39-.267 1.18-.801 7.11 4.272-.53.267-6.58-4.005z" fill="url(#paint33_linear_146_3703)"/><path d="M1051.27 135.061l.66-.4v-.401l-6.59-3.872-.92.534.14.267 6.71 3.872z" fill="#3F21D3"/><path d="M1045.21 130.789l-.65.4-.4-.267 1.05-.667 7.11 4.139-.39.267-6.72-3.872z" fill="url(#paint34_linear_146_3703)"/><path d="M1049.03 136.397l.79-.534-.13-.267-6.58-3.872-.92.4.26.267 6.58 4.006z" fill="#3F21D3"/><path d="M1043.11 131.991l-.66.4-.53-.267 1.19-.667 7.1 4.139-.39.267-6.71-3.872z" fill="url(#paint35_linear_146_3703)"/><path d="M1046.92 137.599l.66-.401v-.4l-6.58-3.872-.92.534.13.267 6.71 3.872z" fill="#3F21D3"/><path d="M1041 133.326l-.79.401-.39-.267 1.18-.668 7.11 4.139-.53.267-6.58-3.872z" fill="url(#paint36_linear_146_3703)"/><path d="M1040.61 141.337l.79-.401-.14-.4-6.58-3.872-.92.4.27.267 6.58 4.006z" fill="#3F21D3"/><path d="M1034.68 136.931l-.65.4-.53-.267 1.18-.667 7.11 4.272-.39.267-6.72-4.005z" fill="url(#paint37_linear_146_3703)"/><path d="M1038.5 142.538l.66-.401v-.4l-6.58-3.872-.92.534.13.267 6.71 3.872z" fill="#3F21D3"/><path d="M1032.58 138.266l-.79.4-.4-.267 1.19-.668 7.11 4.139-.53.267-6.58-3.871z" fill="url(#paint38_linear_146_3703)"/><path d="M1036.39 143.74l.66-.4v-.268l-6.58-3.871-.92.4.13.267 6.71 3.872z" fill="#3F21D3"/><path d="M1030.34 139.468l-.66.4-.39-.267 1.05-.668 7.11 4.139-.4.267-6.71-3.871z" fill="url(#paint39_linear_146_3703)"/><path d="M1034.16 145.075l.79-.4-.13-.401-6.58-3.872-.79.401.13.4 6.58 3.872z" fill="#3F21D3"/><path d="M1028.24 140.669l-.66.534-.53-.267 1.19-.801 7.1 4.273-.39.267-6.71-4.006z" fill="url(#paint40_linear_146_3703)"/><path d="M1027.97 148.68l.66-.4v-.267l-6.58-3.872-.92.4.13.267 6.71 3.872z" fill="#3F21D3"/><path d="M1021.92 144.408l-.66.4-.4-.267 1.06-.667 7.1 4.139-.39.267-6.71-3.872z" fill="url(#paint41_linear_146_3703)"/><path d="M1025.73 150.015l.79-.4-.13-.401-6.58-3.872-.92.534.26.267 6.58 3.872z" fill="#3F21D3"/><path d="M1019.81 145.743l-.66.4-.52-.267 1.18-.668 7.11 4.139-.4.267-6.71-3.871z" fill="url(#paint42_linear_146_3703)"/></g><path d="M1028.63 167.906c0-.534.39-1.201.92-1.602.26-.133.53-.133.66 0l.66.401h-.4v.133c0 .534-.39 1.202-.92 1.602 0 0-.13 0-.13.134l.13.4-.66-.4c-.26-.134-.26-.267-.26-.668z" fill="url(#paint43_linear_146_3703)"/><path d="M1029.16 168.307c0 .534.39.801.92.534.52-.267.92-.935.92-1.602 0-.534-.4-.801-.92-.534-.53.4-.92 1.068-.92 1.602z" fill="url(#paint44_linear_146_3703)"/><path d="M1029.55 168.173c0 .267.26.401.53.267.26-.133.52-.534.52-.934 0-.267-.26-.401-.52-.267-.27.133-.53.534-.53.934z" fill="#3F21D3"/><path d="M1071.93 142.805c0-.534.4-1.201.92-1.602.27-.133.53-.133.66 0l.66.401h-.4v.133c0 .534-.39 1.202-.92 1.602 0 0-.13 0-.13.134l.13.4-.66-.4c-.26-.267-.26-.401-.26-.668z" fill="url(#paint45_linear_146_3703)"/><path d="M1072.46 143.072c0 .534.39.802.92.534.53-.267.92-.934.92-1.602 0-.534-.39-.801-.92-.534-.53.401-.92 1.068-.92 1.602z" fill="url(#paint46_linear_146_3703)"/><path d="M1072.85 142.939c0 .267.27.4.53.267.26-.134.53-.535.53-.935 0-.267-.27-.401-.53-.267-.26.133-.53.534-.53.935z" fill="#3F21D3"/><path d="M1028.63 253.356c0-.534.39-1.202.92-1.603.26-.133.53-.133.66 0l.66.401c-.13-.134-.4-.134-.66 0-.53.267-.92.935-.92 1.602 0 .267.13.401.26.534l-.66-.4c-.26 0-.26-.267-.26-.534z" fill="url(#paint47_linear_146_3703)"/><path d="M1029.42 253.89l.13-.134c.13.134.26.134.4 0 .26-.133.52-.534.52-.934 0-.267-.13-.401-.26-.401v-.4h.39c.14.133.27.267.27.534 0 .534-.4 1.201-.92 1.602-.27.133-.53.133-.66 0l-.13-.267c.13.133.26 0 .26 0z" fill="url(#paint48_linear_146_3703)"/><path d="M1029.16 253.756c0-.534.39-1.202.92-1.602.26-.134.39-.134.66 0h-.4v.4h-.26c-.27.134-.53.534-.53.935v.267l-.13.133s-.13 0-.13.134l.13.267c-.13-.134-.26-.267-.26-.534z" fill="url(#paint49_linear_146_3703)"/><path d="M1029.16 253.756c0-.534.39-1.202.92-1.602.26-.134.39-.134.66 0h-.4v.4h-.26c-.27.134-.53.534-.53.935v.267l-.13.133s-.13 0-.13.134l.13.267c-.13-.134-.26-.267-.26-.534z" fill="url(#paint50_linear_146_3703)"/><path d="M1030.6 252.955c0 .267-.26.668-.52.935-.13.133-.4.133-.4 0 .4-.267.66-.801.66-1.202.13-.134.26 0 .26.267z" fill="#3F21D3"/><path d="M1029.68 253.756v-.267c0-.267.27-.667.53-.934.13 0 .13-.134.26 0-.26.4-.52.934-.79 1.201z" fill="#3F21D3"/><path d="M1072.72 226.653c.26-.134.53-.134.66 0l.66.4c-.13-.133-.4-.133-.66 0-.53.267-.92.935-.92 1.602 0 .267.13.401.26.534l-.66-.4c-.13-.134-.26-.267-.26-.534.13-.668.53-1.335.92-1.602z" fill="url(#paint51_linear_146_3703)"/><path d="M1072.72 228.655l.13-.133c.13.133.27.133.4 0 .26-.134.52-.535.52-.935 0-.267-.13-.401-.26-.401v-.4h.39c.14.133.27.267.27.534 0 .534-.4 1.202-.92 1.602-.27.134-.53.134-.66 0l-.13-.267c.13.134.26 0 .26 0z" fill="url(#paint52_linear_146_3703)"/><path d="M1072.46 228.522c0-.534.39-1.202.92-1.602.26-.134.39-.134.66 0h-.4v.4c-.13 0-.13 0-.26.134-.26.133-.53.534-.53.934v.267l-.13.134s-.13 0-.13.133l.13.267c-.13-.133-.26-.4-.26-.667z" fill="url(#paint53_linear_146_3703)"/><path d="M1072.46 228.522c0-.534.39-1.202.92-1.602.26-.134.39-.134.66 0h-.4v.4c-.13 0-.13 0-.26.134-.26.133-.53.534-.53.934v.267l-.13.134s-.13 0-.13.133l.13.267c-.13-.133-.26-.4-.26-.667z" fill="url(#paint54_linear_146_3703)"/><path d="M1073.91 227.72c0 .267-.27.668-.53.935-.13.134-.4.134-.4 0 .4-.267.66-.801.66-1.202.13-.133.27 0 .27.267z" fill="#3F21D3"/><path d="M1072.98 228.522v-.267c0-.267.27-.668.53-.935.13 0 .13-.133.26-.133-.26.667-.52 1.068-.79 1.335z" fill="#3F21D3"/><path d="M1021 170.977l-22.378-13.085.131 78.374L1021 249.35v-78.373z" fill="#453C9E"/><path d="M998.754 236.266L1021 249.35v1.736l-23.694-14.019-.132-80.109 1.448.934.132 78.374z" fill="#fff"/><path d="M1003.23 198.481l-1.84-1.201v2.269l1.84 1.069v-2.137z" fill="#42E8E0"/><path opacity=".1" d="M1006.91 200.618l-1.84-1.069v2.137l1.84 1.068v-2.136z" fill="#42E8E0"/><path opacity=".4" d="M1010.6 202.754l-1.84-1.068v2.136l1.84 1.068v-2.136z" fill="#42E8E0"/><path d="M1014.42 204.89l-1.98-1.068v2.136l1.98 1.068v-2.136z" fill="#42E8E0"/><path opacity=".4" d="M1018.1 207.026l-1.84-1.068v2.27l1.84 1.068v-2.27z" fill="#42E8E0"/><path d="M1003.23 194.075l-1.84-1.068v2.136l1.84 1.069v-2.137zm3.68 2.137l-1.84-1.068v2.136l1.84 1.068v-2.136zm3.69 2.136l-1.84-1.068v2.269l1.84 1.068v-2.269zm3.68 2.27l-1.84-1.202v2.27l1.84 1.068v-2.136zm3.82 2.136l-1.84-1.068v2.136l1.84 1.068v-2.136zm-14.87-13.085l-1.84-1.068v2.136l1.84 1.202v-2.27zm3.68 2.27l-1.84-1.201v2.27l1.84 1.068v-2.137zm3.69 2.136l-1.84-1.068v2.136l1.84 1.069v-2.137z" fill="#42E8E0"/><path opacity=".1" d="M1014.28 196.211l-1.84-1.068v2.136l1.84 1.069v-2.137z" fill="#42E8E0"/><path opacity=".4" d="M1018.1 198.348l-1.84-1.068v2.136l1.84 1.068v-2.136zm-14.87-12.951l-1.84-1.068v2.136l1.84 1.068v-2.136zm3.68 2.136l-1.84-1.068v2.136l1.84 1.069v-2.137z" fill="#42E8E0"/><path opacity=".1" d="M1010.6 189.669l-1.84-1.068v2.136l1.84 1.069v-2.137z" fill="#42E8E0"/><path d="M1014.28 191.806l-1.84-1.068v2.27l1.84 1.068v-2.27zm3.82 2.269l-1.97-1.201v2.27l1.97 1.068v-2.137zm-14.87-13.084l-1.84-1.068v2.136l1.84 1.068v-2.136zm3.68 2.136l-1.84-1.068v2.137l1.84 1.201v-2.27zm3.69 2.27l-1.84-1.202v2.27l1.84 1.068v-2.136zm3.68 2.136l-1.84-1.068v2.136l1.84 1.068v-2.136zm3.82 2.136l-1.97-1.068v2.136l1.97 1.069v-2.137zm-14.87-12.951l-1.84-1.201v2.269l1.84 1.069v-2.137zm3.68 2.137l-1.84-1.069v2.137l1.84 1.068v-2.136z" fill="#42E8E0"/><path opacity=".4" d="M1010.6 180.991l-1.84-1.068v2.136l1.84 1.068v-2.136z" fill="#42E8E0"/><path d="M1014.28 183.127l-1.84-1.068v2.136l1.84 1.068v-2.136z" fill="#42E8E0"/><path opacity=".1" d="M1017.97 185.263l-1.84-1.068v2.27l1.84 1.068v-2.27z" fill="#42E8E0"/><path d="M1003.23 172.313l-1.84-1.069v2.137l1.84 1.068v-2.136zm3.68 2.135l-1.84-1.068v2.136l1.84 1.068v-2.136z" fill="#42E8E0"/><path opacity=".4" d="M1010.6 176.585l-1.84-1.068v2.136l1.84 1.202v-2.27z" fill="#42E8E0"/><path d="M1014.28 178.855l-1.84-1.202v2.27l1.84 1.068v-2.136zm3.69 2.136l-1.84-1.068v2.136l1.84 1.068v-2.136zm-14.74-13.085l-1.84-1.068v2.137l1.84 1.201v-2.27z" fill="#42E8E0"/><path opacity=".4" d="M1006.91 170.176l-1.84-1.202v2.27l1.84 1.068v-2.136z" fill="#42E8E0"/><path d="M1010.6 172.313l-1.84-1.069v2.137l1.84 1.068v-2.136zm3.68 2.136l-1.84-1.068v2.136l1.84 1.068v-2.136zm3.69 2.136l-1.84-1.068v2.136l1.84 1.068v-2.136zm-14.74-12.951l-1.84-1.068v2.136l1.84 1.068v-2.136z" fill="#42E8E0"/><path opacity=".1" d="M1006.91 165.771l-1.84-1.068v2.136l1.84 1.068v-2.136z" fill="#42E8E0"/><path d="M1010.6 167.906l-1.84-1.068v2.136l1.84 1.069v-2.137zm3.68 2.137l-1.84-1.068v2.136l1.84 1.202v-2.27zm3.69 2.269l-1.84-1.201v2.27l1.84 1.068v-2.137zm-14.74 60.616l-1.84-1.068v2.136l1.84 1.068v-2.136zm3.68 2.136l-1.84-1.068v2.136l1.84 1.068v-2.136zm3.69 2.136l-1.84-1.068v2.136l1.84 1.068V237.2zm3.68 2.137l-1.84-1.068v2.136l1.84 1.202v-2.27zm3.82 2.269l-1.84-1.201v2.269l1.84 1.068v-2.136zm-14.87-13.084l-1.84-1.068v2.136l1.84 1.068v-2.136zm3.68 2.136l-1.84-1.068v2.137l1.84 1.201v-2.27zm3.69 2.27l-1.84-1.202v2.27l1.84 1.068v-2.136z" fill="#42E8E0"/><path opacity=".1" d="M1014.28 235.064l-1.84-1.068v2.136l1.84 1.068v-2.136z" fill="#42E8E0"/><path opacity=".4" d="M1018.1 237.2l-1.84-1.068v2.136l1.84 1.069V237.2zm-14.87-12.951l-1.84-1.201v2.269l1.84 1.069v-2.137zm3.68 2.137l-1.84-1.068v2.136l1.84 1.068v-2.136z" fill="#42E8E0"/><path opacity=".1" d="M1010.6 228.522l-1.84-1.068v2.136l1.84 1.068v-2.136z" fill="#42E8E0"/><path d="M1014.28 230.658l-1.84-1.068v2.136l1.84 1.068v-2.136zm3.82 2.136l-1.97-1.068v2.136l1.97 1.202v-2.27zm-14.87-12.951l-1.84-1.068v2.136l1.84 1.069v-2.137zm3.68 2.137l-1.84-1.068v2.136l1.84 1.068v-2.136zm3.69 2.136l-1.84-1.068v2.136l1.84 1.202v-2.27zm3.68 2.27l-1.84-1.202v2.27l1.84 1.068v-2.136zm3.82 2.136l-1.97-1.068v2.136l1.97 1.068v-2.136zm-14.87-13.085l-1.84-1.068v2.136l1.84 1.202v-2.27zm3.68 2.27l-1.84-1.201v2.27l1.84 1.068v-2.137z" fill="#42E8E0"/><path opacity=".4" d="M1010.6 219.843l-1.84-1.068v2.136l1.84 1.069v-2.137z" fill="#42E8E0"/><path d="M1014.28 221.979l-1.84-1.068v2.136l1.84 1.068v-2.136z" fill="#42E8E0"/><path opacity=".1" d="M1017.97 224.116l-1.84-1.068v2.136l1.84 1.068v-2.136z" fill="#42E8E0"/><path d="M1003.23 211.165l-1.84-1.068v2.136l1.84 1.068v-2.136zm3.68 2.136l-1.84-1.068v2.136l1.84 1.069v-2.137z" fill="#42E8E0"/><path opacity=".4" d="M1010.6 215.437l-1.84-1.068v2.136l1.84 1.069v-2.137z" fill="#42E8E0"/><path d="M1014.28 217.574l-1.84-1.069v2.137l1.84 1.201v-2.269zm3.69 2.269l-1.84-1.201v2.269l1.84 1.068v-2.136zm-14.74-13.084l-1.84-1.068v2.136l1.84 1.068v-2.136z" fill="#42E8E0"/><path opacity=".4" d="M1006.91 208.895l-1.84-1.068v2.136l1.84 1.201v-2.269z" fill="#42E8E0"/><path d="M1010.6 211.165l-1.84-1.202v2.27l1.84 1.068v-2.136zm3.68 2.136l-1.84-1.068v2.136l1.84 1.068v-2.136zm3.69 2.136l-1.84-1.068v2.136l1.84 1.069v-2.137zm-14.74-12.951l-1.84-1.201v2.27l1.84 1.068v-2.137z" fill="#42E8E0"/><path opacity=".1" d="M1006.91 204.623l-1.84-1.068v2.136l1.84 1.068v-2.136z" fill="#42E8E0"/><path d="M1010.6 206.759l-1.84-1.068v2.136l1.84 1.068v-2.136zm3.68 2.136l-1.84-1.068v2.136l1.84 1.068v-2.136zm3.69 2.136l-1.84-1.068v2.136l1.84 1.202v-2.27z" fill="#42E8E0"/><path opacity=".7" d="M1064.56 295.947c.53 0 .92-.134 1.32-.267l55.93-32.845c.4-.267.66-.667.66-1.201 0-.535-.26-1.069-.92-1.336l-33.56-19.626c-.92-.534-2.11-.534-2.9-.134l-55.8 32.845c-.4.267-.66.667-.66 1.201s.26 1.069.92 1.336l33.56 19.626c.27.267.92.401 1.45.401zm21.85-55.142c.52 0 .92.134 1.31.401l33.57 19.626c.39.267.65.534.65.802 0 .267-.13.534-.39.667l-55.94 32.711c-.52.401-1.71.267-2.37-.133l-33.56-19.627c-.39-.267-.66-.534-.66-.935 0-.267.14-.534.4-.667l55.93-32.711c.27 0 .66-.134 1.06-.134z" fill="#6B5E9A"/><path d="M1066.4 187.533h-5.39a67.152 67.152 0 011.31-2.937l53.83-21.362v91.457c0 .134-.13.267-.26.401l-49.09 28.839c-.13 0-.27.133-.27.133v-96.531h-.13z" fill="#24126A"/><path d="M1034.81 174.449l30.93 17.891v91.724c-.39 0-.65-.133-1.05-.267l-29.48-17.357c-.26-.133-.4-.4-.53-.667l.13-91.324z" fill="url(#paint55_linear_146_3703)"/><path d="M1067.98 164.969V283.13l-1.31.801c-.27.133-.53.267-.93.133-.39 0-.39-.267-.65-.4l-.27-.134.27-14.019v-22.03l-.53-82.512h3.42z" fill="#393091"/><path d="M1064.56 269.645v-77.973l1.32.801v91.591h-.27c-.13 0-.26-.133-.52-.133-.14 0-.14-.134-.27-.134l-.26-.133v-14.019z" fill="#CAD0F9"/><path opacity=".51" d="M1113.78 168.173l-43.3 25.368v85.449l43.3-25.367v-85.45z" fill="#453C9E"/><path opacity=".51" d="M1116.15 241.34l-48.17-32.711v-16.957l48.17-28.438v78.106z" fill="#453C9E"/><path d="M1066.8 192.473l49.09-28.706c.53-.267.39-.801-.13-1.068l-29.48-17.357c-.53-.4-1.45-.4-1.98-.133l-49.09 28.839c-.53.267-.39.801.13 1.068l29.48 17.357c.53.267 1.45.267 1.98 0z" fill="#BCBEFF"/><mask id="c" style="mask-type:alpha" maskUnits="userSpaceOnUse" x="1066" y="146" width="51" height="44"><path d="M1084.7 146.544h3.55l27.51 16.022c.52.4.66.801.13 1.068l-1.32.801-42.64 24.967h-5.66l18.43-42.858z" fill="url(#paint56_linear_146_3703)"/></mask><g mask="url(#c)"><path opacity=".78" d="M1084.7 146.544h3.55l27.51 16.022c.52.4.66.801.13 1.068l-1.32.801-42.64 24.967h-5.66l18.43-42.858z" fill="url(#paint57_linear_146_3703)"/><path d="M1084.7 148.28l23.69 13.752 2.23-.401v1.736l-44.35 26.035-22.51-15.488 40.94-25.634z" fill="url(#paint58_linear_146_3703)"/><path d="M1066.27 187.666l44.35-26.035-25.92-15.087-44.36 25.902 25.93 15.22z" fill="url(#paint59_linear_146_3703)"/><path d="M1094.04 159.762l.79-.401-.13-.4-6.58-3.872-.92.534.26.267 6.58 3.872z" fill="#3F21D3"/><path d="M1088.12 155.489l-.66.401-.53-.267 1.19-.668 7.11 4.139-.4.267-6.71-3.872z" fill="url(#paint60_linear_146_3703)"/><path d="M1091.94 160.963l.65-.4v-.267l-6.58-3.872-.92.4.13.268 6.72 3.871z" fill="#3F21D3"/><path d="M1086.01 156.691l-.79.4-.39-.267 1.18-.667 7.11 4.139-.53.267-6.58-3.872z" fill="url(#paint61_linear_146_3703)"/><path d="M1089.83 162.299l.66-.401v-.401l-6.58-3.872-.92.401.13.401 6.71 3.872z" fill="#3F21D3"/><path d="M1083.78 157.893l-.66.534-.4-.267 1.06-.801 7.1 4.272-.39.267-6.71-4.005z" fill="url(#paint62_linear_146_3703)"/><path d="M1087.59 163.5l.79-.4-.13-.401-6.58-3.872-.92.534.26.267 6.58 3.872z" fill="#3F21D3"/><path d="M1081.67 159.228l-.66.4-.52-.267 1.18-.667 7.11 4.139-.4.267-6.71-3.872z" fill="url(#paint63_linear_146_3703)"/><path d="M1081.41 167.239l.65-.401v-.401l-6.58-3.871-.92.4.13.401 6.72 3.872z" fill="#3F21D3"/><path d="M1075.35 162.966l-.66.401-.39-.267 1.05-.668 7.11 4.139-.4.267-6.71-3.872z" fill="url(#paint64_linear_146_3703)"/><path d="M1079.17 168.44l.79-.4-.13-.267-6.58-3.872-.93.4.27.267 6.58 3.872z" fill="#3F21D3"/><path d="M1073.25 164.168l-.66.4-.53-.267 1.19-.667 7.1 4.139-.39.267-6.71-3.872z" fill="url(#paint65_linear_146_3703)"/><path d="M1077.06 169.775l.66-.534v-.267l-6.58-3.872-.92.401.13.267 6.71 4.005z" fill="#3F21D3"/><path d="M1071.14 165.369l-.79.401-.39-.267 1.18-.668 7.11 4.139-.53.267-6.58-3.872z" fill="url(#paint66_linear_146_3703)"/><path d="M1074.96 170.977l.66-.4v-.401l-6.59-3.872-.92.534.13.267 6.72 3.872z" fill="#3F21D3"/><path d="M1068.9 166.705l-.65.4-.4-.267 1.05-.667 7.11 4.138-.39.268-6.72-3.872z" fill="url(#paint67_linear_146_3703)"/><path d="M1068.64 174.715l.66-.4v-.401l-6.58-3.872-.92.401.13.401 6.71 3.871z" fill="#3F21D3"/><path d="M1062.72 170.309l-.79.535-.4-.268 1.19-.801 7.1 4.273-.52.267-6.58-4.006z" fill="url(#paint68_linear_146_3703)"/><path d="M1066.53 175.917l.66-.401v-.4l-6.58-3.872-.92.534.13.267 6.71 3.872z" fill="#3F21D3"/><path d="M1060.48 171.644l-.66.401-.39-.267 1.05-.668 7.11 4.139-.4.267-6.71-3.872z" fill="url(#paint69_linear_146_3703)"/></g><path d="M1069.3 193.942c0-.534.39-1.202.92-1.603.26-.133.53-.133.66 0l.66.401h-.4v.133c0 .535-.39 1.202-.92 1.603 0 0-.13 0-.13.133l.13.401-.66-.401c-.13-.267-.26-.4-.26-.667z" fill="url(#paint70_linear_146_3703)"/><path d="M1069.96 194.209c0 .534.39.801.92.534.52-.267.92-.935.92-1.603 0-.667-.4-.801-.92-.534-.53.401-.92 1.068-.92 1.603z" fill="url(#paint71_linear_146_3703)"/><path d="M1070.22 194.075c0 .267.26.401.53.267.26-.133.52-.534.52-.935 0-.4-.26-.4-.52-.267-.27.134-.53.534-.53.935z" fill="#3F21D3"/><path d="M1112.6 168.707c0-.534.39-1.201.92-1.602.26-.133.53-.133.66 0l.66.401h-.4v.133c0 .534-.39 1.202-.92 1.602 0 0-.13 0-.13.134l.13.4-.66-.534c-.13-.133-.26-.267-.26-.534z" fill="url(#paint72_linear_146_3703)"/><path d="M1113.26 169.108c0 .534.39.801.92.534.39-.401.79-1.068.79-1.602s-.4-.801-.92-.534c-.4.267-.79.934-.79 1.602z" fill="url(#paint73_linear_146_3703)"/><path d="M1113.52 168.841c0 .267.26.4.53.267.26-.134.52-.534.52-.935 0-.4-.26-.4-.52-.267-.27.134-.53.534-.53.935z" fill="#3F21D3"/><path d="M1069.3 279.257c0-.534.39-1.201.92-1.602.26-.133.53-.133.66 0l.66.401c-.14-.134-.4-.134-.66 0-.53.267-.92.934-.92 1.602 0 .267.13.401.26.534l-.66-.4c-.13 0-.26-.134-.26-.535z" fill="url(#paint74_linear_146_3703)"/><path d="M1070.22 279.791l.13-.133c.13.133.26.133.4 0 .26-.134.52-.534.52-.935 0-.267-.13-.4-.26-.4v-.401h.39c.14.134.27.267.27.534 0 .534-.4 1.202-.92 1.603-.27.133-.53.133-.66 0l-.13-.268c.13.134.13.134.26 0z" fill="url(#paint75_linear_146_3703)"/><path d="M1069.96 279.658c0-.534.39-1.202.92-1.603.26-.133.39-.133.66 0h-.4v.401c-.13 0-.13 0-.26.134-.27.133-.53.534-.53.934v.267l-.13.134s-.13 0-.13.133l.13.267c-.26-.133-.26-.4-.26-.667z" fill="url(#paint76_linear_146_3703)"/><path d="M1069.96 279.658c0-.534.39-1.202.92-1.603.26-.133.39-.133.66 0h-.4v.401c-.13 0-.13 0-.26.134-.27.133-.53.534-.53.934v.267l-.13.134s-.13 0-.13.133l.13.267c-.26-.133-.26-.4-.26-.667z" fill="url(#paint77_linear_146_3703)"/><path d="M1071.27 278.857c0 .267-.26.667-.52.934-.14.134-.4.134-.4 0 .4-.267.66-.801.66-1.201.13-.134.26 0 .26.267z" fill="#3F21D3"/><path d="M1070.35 279.658v-.267c0-.267.26-.668.53-.935.13 0 .13-.133.26-.133-.26.667-.53 1.068-.79 1.335z" fill="#3F21D3"/><path d="M1113.52 252.554c.26-.133.53-.133.66 0l.66.401c-.14-.133-.4-.133-.66 0-.53.267-.92.935-.92 1.602 0 .267.13.401.26.534l-.66-.4c-.13-.134-.26-.267-.26-.534 0-.668.39-1.335.92-1.603z" fill="url(#paint78_linear_146_3703)"/><path d="M1113.52 254.557l.13-.134c.13.134.27.134.4 0 .26-.133.52-.534.52-.934 0-.267-.13-.401-.26-.401v-.4h.39c.14.133.27.267.27.534 0 .534-.4 1.201-.92 1.602-.27.134-.53.134-.66 0l-.13-.133c.13 0 .13 0 .26-.134z" fill="url(#paint79_linear_146_3703)"/><path d="M1113.26 254.424c0-.534.39-1.202.92-1.602.26-.134.39-.134.66 0h-.4v.4c-.13 0-.13 0-.26.134-.26.133-.53.534-.53.934v.267l-.13.134s-.13 0-.13.133l.13.267c-.26-.133-.26-.4-.26-.667z" fill="url(#paint80_linear_146_3703)"/><path d="M1113.26 254.424c0-.534.39-1.202.92-1.602.26-.134.39-.134.66 0h-.4v.4c-.13 0-.13 0-.26.134-.26.133-.53.534-.53.934v.267l-.13.134s-.13 0-.13.133l.13.267c-.26-.133-.26-.4-.26-.667z" fill="url(#paint81_linear_146_3703)"/><path d="M1114.57 253.623c0 .267-.26.667-.52.934-.13.134-.4.134-.4 0 .4-.267.66-.801.66-1.201.13 0 .26 0 .26.267z" fill="#3F21D3"/><path d="M1113.65 254.424v-.267c0-.267.27-.668.53-.935.13 0 .13-.133.26-.133-.13.667-.52 1.068-.79 1.335z" fill="#3F21D3"/><path d="M1061.66 196.879l-22.37-13.084.13 78.373 22.38 13.084-.14-78.373z" fill="#453C9E"/><path d="M1039.42 262.168l22.38 13.084v1.736l-23.83-13.886v-80.108l1.32.801.13 78.373z" fill="#fff"/><path d="M1043.9 224.383l-1.85-1.068v2.136l1.85 1.068v-2.136z" fill="#42E8E0"/><path opacity=".1" d="M1047.71 226.52l-1.97-1.068v2.136l1.97 1.068v-2.136z" fill="#42E8E0"/><path opacity=".4" d="M1051.4 228.656l-1.84-1.068v2.136l1.84 1.068v-2.136z" fill="#42E8E0"/><path d="M1055.08 230.792l-1.84-1.068v2.27l1.84 1.068v-2.27z" fill="#42E8E0"/><path opacity=".4" d="M1058.77 233.062l-1.84-1.202v2.27l1.84 1.068v-2.136z" fill="#42E8E0"/><path d="M1043.9 219.977l-1.85-1.068v2.136l1.85 1.068v-2.136zm3.81 2.137l-1.97-1.068v2.269l1.97 1.068v-2.269zm3.69 2.269l-1.84-1.201v2.269l1.84 1.068v-2.136zm3.68 2.136l-1.84-1.068v2.136l1.84 1.068v-2.136zm3.69 2.137l-1.84-1.068v2.136l1.84 1.068v-2.136zm-14.87-12.951l-1.85-1.202v2.27l1.85 1.068v-2.136zm3.68 2.136l-1.84-1.068v2.136l1.84 1.068v-2.136zm3.82 2.136l-1.84-1.068v2.136l1.84 1.068v-2.136z" fill="#42E8E0"/><path opacity=".1" d="M1055.08 222.113l-1.84-1.068v2.136l1.84 1.068v-2.136z" fill="#42E8E0"/><path opacity=".4" d="M1058.77 224.25l-1.84-1.068v2.269l1.84 1.068v-2.269zm-14.87-12.951l-1.85-1.068v2.136l1.85 1.068v-2.136zm3.68 2.136l-1.84-1.068v2.136l1.84 1.069v-2.137z" fill="#42E8E0"/><path opacity=".1" d="M1051.4 215.571l-1.98-1.068.14 2.27 1.84 1.068v-2.27z" fill="#42E8E0"/><path d="M1055.08 217.841l-1.84-1.201v2.269l1.84 1.069v-2.137zm3.69 2.136l-1.84-1.068v2.136l1.84 1.068v-2.136zm-14.87-13.084l-1.85-1.068v2.136l1.85 1.202v-2.27zm3.68 2.27l-1.84-1.202v2.27l1.84 1.068v-2.136zm3.82 2.136l-1.98-1.068v2.136l1.98 1.068v-2.136zm3.68 2.136l-1.84-1.068v2.136l1.84 1.068v-2.136zm3.69 2.136l-1.84-1.068v2.136l1.84 1.069v-2.137zm-14.87-12.951l-1.85-1.068v2.136l1.85 1.068v-2.136zm3.68 2.137l-1.84-1.068v2.136l1.84 1.068v-2.136z" fill="#42E8E0"/><path opacity=".4" d="M1051.27 206.893l-1.85-1.068v2.136l1.98 1.068-.13-2.136z" fill="#42E8E0"/><path d="M1055.08 209.029l-1.84-1.068v2.27l1.84 1.068v-2.27z" fill="#42E8E0"/><path opacity=".1" d="M1058.77 211.299l-1.84-1.202v2.27l1.84 1.068v-2.136z" fill="#42E8E0"/><path d="M1043.9 198.214l-1.85-1.068v2.136l1.85 1.068v-2.136zm3.68 2.137l-1.84-1.068v2.136l1.84 1.202v-2.27z" fill="#42E8E0"/><path opacity=".4" d="M1051.27 202.62l-1.85-1.201v2.269l1.85 1.068v-2.136z" fill="#42E8E0"/><path d="M1055.08 204.756l-1.84-1.068v2.136l1.84 1.069v-2.137zm3.69 2.137l-1.84-1.068v2.136l1.84 1.068v-2.136zm-14.87-12.951l-1.85-1.202v2.27l1.85 1.068v-2.136z" fill="#42E8E0"/><path opacity=".4" d="M1047.58 196.078l-1.84-1.068v2.136l1.84 1.068v-2.136z" fill="#42E8E0"/><path d="M1051.27 198.214l-1.85-1.068v2.136l1.85 1.068v-2.136zm3.81 2.136l-1.97-1.068.13 2.136 1.84 1.068v-2.136zm3.69 2.137l-1.84-1.068v2.269l1.84 1.068v-2.269zm-14.87-12.951l-1.85-1.068v2.136l1.85 1.068v-2.136z" fill="#42E8E0"/><path opacity=".1" d="M1047.58 191.672l-1.84-1.068v2.136l1.84 1.069v-2.137z" fill="#42E8E0"/><path d="M1051.27 193.808l-1.85-1.068v2.136l1.85 1.202v-2.27zm3.81 2.27l-1.97-1.201v2.269l1.97 1.069v-2.137zm3.69 2.136l-1.84-1.068v2.136l1.84 1.068v-2.136zm-14.87 60.616l-1.85-1.068v2.136l1.85 1.068v-2.136zm3.81 2.137l-1.97-1.069v2.137l1.97 1.068v-2.136zm3.69 2.135l-1.84-1.068v2.137l1.84 1.201v-2.27zm3.68 2.271l-1.84-1.202v2.27l1.84 1.068v-2.136zm3.69 2.135l-1.84-1.068v2.137l1.84 1.068v-2.137zm-14.87-13.084l-1.85-1.068v2.136l1.85 1.202v-2.27zm3.68 2.27l-1.84-1.202v2.27l1.84 1.068v-2.136zm3.82 2.136l-1.84-1.068v2.136l1.84 1.068v-2.136z" fill="#42E8E0"/><path opacity=".1" d="M1055.08 260.966l-1.84-1.068v2.136l1.84 1.068v-2.136z" fill="#42E8E0"/><path opacity=".4" d="M1058.77 263.103l-1.84-1.069v2.137l1.84 1.068v-2.136zm-14.87-12.951l-1.85-1.069v2.137l1.85 1.068v-2.136zm3.68 2.136l-1.84-1.068v2.136l1.84 1.068v-2.136z" fill="#42E8E0"/><path opacity=".1" d="M1051.4 254.424l-1.98-1.068.14 2.136 1.84 1.068v-2.136z" fill="#42E8E0"/><path d="M1055.08 256.561l-1.84-1.069v2.137l1.84 1.201v-2.269zm3.69 2.269l-1.84-1.202v2.27l1.84 1.068v-2.136zm-14.87-13.085l-1.85-1.068v2.137l1.85 1.068v-2.137zm3.68 2.136l-1.84-1.068v2.136l1.84 1.202v-2.27zm3.82 2.27l-1.98-1.201v2.27l1.98 1.068v-2.137zm3.68 2.136l-1.84-1.068v2.136l1.84 1.069v-2.137zm3.69 2.137l-1.84-1.068v2.136l1.84 1.068v-2.136zm-14.87-12.951l-1.85-1.202v2.27l1.85 1.068v-2.136zm3.68 2.136l-1.84-1.068v2.136l1.84 1.068v-2.136z" fill="#42E8E0"/><path opacity=".4" d="M1051.27 245.745l-1.85-1.068v2.137l1.98 1.068-.13-2.137z" fill="#42E8E0"/><path d="M1055.08 247.881l-1.84-1.068v2.137l1.84 1.068v-2.137z" fill="#42E8E0"/><path opacity=".1" d="M1058.77 250.018l-1.84-1.068v2.136l1.84 1.202v-2.27z" fill="#42E8E0"/><path d="M1043.9 237.067l-1.85-1.068v2.136l1.85 1.068v-2.136zm3.68 2.136l-1.84-1.068v2.136l1.84 1.068v-2.136z" fill="#42E8E0"/><path opacity=".4" d="M1051.27 241.34l-1.85-1.069v2.137l1.85 1.201v-2.269z" fill="#42E8E0"/><path d="M1055.08 243.61l-1.84-1.202v2.27l1.84 1.068v-2.136zm3.69 2.136l-1.84-1.069v2.137l1.84 1.068v-2.136zm-14.87-13.085l-1.85-1.068v2.136l1.85 1.202v-2.27z" fill="#42E8E0"/><path opacity=".4" d="M1047.58 234.931l-1.84-1.201v2.269l1.84 1.068v-2.136z" fill="#42E8E0"/><path d="M1051.27 237.067l-1.85-1.068v2.136l1.85 1.068v-2.136zm3.81 2.136l-1.97-1.068.13 2.136 1.84 1.068v-2.136zm3.69 2.137l-1.84-1.069v2.137l1.84 1.068v-2.136zm-14.87-12.951l-1.85-1.068v2.136l1.85 1.068v-2.136z" fill="#42E8E0"/><path opacity=".1" d="M1047.58 230.525l-1.84-1.068v2.136l1.84 1.069v-2.137z" fill="#42E8E0"/><path d="M1051.27 232.661l-1.85-1.068v2.136l1.85 1.068v-2.136zm3.81 2.137l-1.97-1.068v2.136l1.97 1.201v-2.269zm3.69 2.269l-1.84-1.202v2.27l1.84 1.068v-2.136z" fill="#42E8E0"/></g><path fill="#7A8EF6" d="M94.932 177.282h637.553v5.394H94.932z"/><path d="M227.621 101.769v53.399c.179 1.977 2.804 5.825 11.866 5.394h259.984c1.618 0 4.854-.863 4.854-4.316v-37.757c-.18-1.618.432-4.746 4.315-4.315h-1.346m-109.767-12.405h99.786m180.694.539h50.702c2.338-.18 7.012.647 7.012 5.394v33.981m44.769 101.404v44.23c-.179 1.618-1.726 4.855-6.472 4.855H649.959c-1.438 0-4.315 1.078-4.315 5.393v31.285m-10.788-1.079V165.416c-.179-1.618-1.726-4.854-6.472-4.854H544.24c-1.439-.36-4.315-1.942-4.315-5.394v-29.666M227.621 258.73v-52.86c0-1.978 1.402-5.825 7.012-5.394h264.838c1.618 0 4.854 1.295 4.854 6.473v39.375m-108.956 11.327h99.787m128.913 70.12v-31.284c0-1.619-1.079-4.747-5.394-4.315h-46.387c-1.439.179-4.315 1.294-4.315 4.315v21.036c-.72 1.258-2.805 3.775-5.394 3.775h-23.733c-1.439 0-4.315-.971-4.315-4.854v-8.63" stroke="#3841B2" stroke-width="5.394"/><path d="M229.5 65.635h-10.357c-.426 0-.426 0-.412-.414.159-4.31 2.939-8.13 7.013-9.638 5.345-1.978 11.286.488 13.639 5.659a10.68 10.68 0 01.947 4.193c.005.205-.094.205-.244.205-1.758-.005-3.516 0-5.274 0-1.763-.005-3.54-.005-5.312-.005zm0 5.423h9.724c.304 0 .6.037.834.275a.851.851 0 01.263.596c.014 1.177-.286 2.27-1.032 3.192a3.553 3.553 0 01-1.936 1.233c-.553.135-1.097.042-1.646.042a10.096 10.096 0 01-3.258-.563 8.43 8.43 0 01-2.823-1.643c-.075-.07-.112-.084-.206-.009-.727.596-1.495 1.13-2.377 1.48-.675.265-1.369.475-2.091.596-.975.162-1.96.181-2.94.167-.6-.01-1.153-.298-1.631-.675-.896-.702-1.393-1.628-1.59-2.736-.065-.363-.06-.722-.06-1.085.004-.553.314-.832.923-.865.085-.005.174 0 .258 0 3.198-.005 6.395-.005 9.588-.005zm5.321 1.792c-.966 0-1.936.005-2.902 0-.183 0-.323.056-.38.242-.051.186.033.312.188.405a6.4 6.4 0 00.848.442c1.234.53 2.542.656 3.864.693.75.024 1.256-.325 1.645-.912.127-.19.197-.39.071-.61-.122-.218-.324-.265-.558-.265-.919.01-1.847.005-2.776.005zm-10.577 0c-.952 0-1.908-.005-2.86 0-.398 0-.637.312-.525.666.178.544.952 1.107 1.528 1.112.619.004 1.234-.028 1.848-.107 1.078-.14 2.11-.428 3.043-1 .168-.103.286-.224.225-.434-.061-.214-.235-.242-.427-.237-.938.005-1.885 0-2.832 0zm-3.971-3.196c-.577 0-1.153-.004-1.73 0-.675.005-1.327-.595-1.528-1.154-.338-.935.136-1.964 1.05-2.294.234-.084.464-.121.698-.121 1.107-.01 2.218 0 3.324-.005.179 0 .244.042.244.233a179.52 179.52 0 000 3.114c0 .2-.065.241-.253.241-.6-.009-1.2-.004-1.805-.004v-.01zm18.412.01c-.586 0-1.173-.005-1.754.004-.145 0-.206-.037-.206-.195.005-1.061.005-2.122 0-3.183 0-.168.065-.21.22-.205 1.125.005 2.246-.014 3.371.01.703.013 1.271.32 1.604.967.342.67.257 1.327-.174 1.913a1.655 1.655 0 01-1.374.689h-1.687zm-5.997 0c-.68 0-1.36-.005-2.04.004-.164 0-.234-.023-.234-.21.009-1.074.009-2.154 0-3.229 0-.13.047-.14.145-.14h4.192c.136 0 .173.056.173.182-.004 1.07-.004 2.14 0 3.207 0 .153-.051.195-.201.195-.675-.014-1.355-.01-2.035-.01zm-6.329 0c-.68 0-1.36-.005-2.04.004-.155 0-.197-.046-.197-.195a338.78 338.78 0 000-3.188c0-.153.047-.2.202-.2 1.374.005 2.747.005 4.126 0 .15 0 .183.051.183.186-.005 1.07-.005 2.14.004 3.211 0 .168-.075.186-.211.186-.694-.009-1.378-.004-2.067-.004zm-7.886 15.122l-8.28 8.28c-.776.776-.798 2.038-.015 2.807 15.385 15.111 30.528 6.062 37.313.54.865-.703.941-1.975.213-2.82l-7.197-8.356c-.967-1.122-2.795-.846-3.865.178-4.108 3.934-11.27 1.825-14.991-.754-.967-.67-2.346-.708-3.178.125z" fill="#fff"/><circle cx="229.239" cy="75.339" r="27.029" stroke="#fff" stroke-width="5.274"/><path d="M369.74 91.525h-10.357c-.426 0-.426 0-.412-.414.159-4.31 2.939-8.13 7.014-9.638 5.344-1.978 11.285.489 13.638 5.66a10.68 10.68 0 01.947 4.192c.005.205-.093.205-.243.205-1.759-.005-3.517 0-5.275 0-1.763-.005-3.54-.005-5.312-.005zm0 5.424h9.724c.305 0 .6.037.834.274a.851.851 0 01.263.596c.014 1.177-.286 2.271-1.032 3.192a3.556 3.556 0 01-1.936 1.234c-.553.135-1.097.042-1.646.042a10.108 10.108 0 01-3.258-.564 8.424 8.424 0 01-2.822-1.642c-.075-.07-.113-.084-.207-.01-.726.596-1.495 1.131-2.377 1.48-.675.266-1.369.475-2.091.596-.975.163-1.96.181-2.939.168-.601-.01-1.154-.298-1.632-.675-.896-.703-1.393-1.629-1.589-2.737-.066-.363-.061-.721-.061-1.084.004-.554.314-.833.923-.866.085-.004.174 0 .258 0 3.198-.004 6.395-.004 9.588-.004zm5.321 1.791c-.965 0-1.936.005-2.902 0-.183 0-.323.056-.38.242-.051.186.033.312.188.405.272.168.553.317.849.442 1.233.531 2.541.657 3.863.694.75.023 1.256-.326 1.645-.912.127-.191.197-.391.071-.61-.122-.219-.324-.265-.558-.265-.919.009-1.847.004-2.776.004zm-10.577 0c-.952 0-1.908-.004-2.86 0-.398 0-.637.312-.525.666.178.544.952 1.107 1.529 1.112.618.005 1.233-.028 1.847-.107 1.078-.14 2.11-.428 3.043-1 .168-.103.286-.224.225-.433-.061-.214-.235-.242-.427-.238-.938.005-1.885 0-2.832 0zm-3.971-3.195c-.577 0-1.153-.005-1.73 0-.675.005-1.327-.596-1.528-1.154-.338-.936.136-1.964 1.05-2.294.234-.084.464-.121.698-.121 1.107-.01 2.218 0 3.325-.005.178 0 .243.042.243.233a179.52 179.52 0 000 3.113c0 .2-.065.242-.253.242-.6-.01-1.2-.005-1.805-.005v-.009zm18.412.009c-.586 0-1.172-.004-1.754.005-.145 0-.206-.037-.206-.195a337.93 337.93 0 000-3.184c0-.167.066-.21.22-.205 1.126.005 2.246-.013 3.371.01.704.014 1.271.32 1.604.968.342.67.258 1.326-.174 1.912a1.653 1.653 0 01-1.373.69h-1.688zm-5.997 0c-.68 0-1.36-.005-2.039.005-.164 0-.235-.023-.235-.21.01-1.075.01-2.154 0-3.23 0-.13.047-.139.146-.139h4.191c.136 0 .174.056.174.181a342.83 342.83 0 000 3.207c0 .154-.052.196-.202.196-.675-.014-1.355-.01-2.035-.01zm-6.329 0c-.68 0-1.36-.004-2.04.005-.154 0-.197-.047-.197-.195a338.78 338.78 0 000-3.188c0-.154.047-.2.202-.2 1.374.004 2.747.004 4.126 0 .15 0 .183.05.183.186-.005 1.07-.005 2.14.004 3.21 0 .168-.075.187-.211.187-.694-.01-1.378-.005-2.067-.005zm-7.886 15.123l-8.28 8.279c-.776.777-.798 2.038-.014 2.808 15.384 15.111 30.527 6.061 37.312.54.865-.704.941-1.976.214-2.82l-7.198-8.356c-.966-1.122-2.795-.847-3.864.178-4.109 3.934-11.271 1.824-14.991-.754-.968-.671-2.346-.708-3.179.125z" fill="#fff"/><circle cx="369.479" cy="101.229" r="27.029" stroke="#fff" stroke-width="5.274"/><path d="M649.142 91.525h-10.357c-.427 0-.427 0-.413-.414.16-4.31 2.94-8.13 7.014-9.638 5.345-1.978 11.285.489 13.639 5.66.605 1.33.909 2.731.947 4.192.005.205-.094.205-.244.205-1.758-.005-3.516 0-5.274 0-1.763-.005-3.54-.005-5.312-.005zm-.001 5.424h9.724c.305 0 .6.037.835.274a.846.846 0 01.262.596c.014 1.177-.286 2.271-1.031 3.192a3.556 3.556 0 01-1.936 1.234c-.554.135-1.097.042-1.646.042a10.098 10.098 0 01-3.258-.564 8.428 8.428 0 01-2.823-1.642c-.075-.07-.112-.084-.206-.01-.727.596-1.496 1.131-2.377 1.48-.675.266-1.369.475-2.091.596-.975.163-1.96.181-2.94.168-.6-.01-1.153-.298-1.632-.675-.895-.703-1.392-1.629-1.589-2.737-.066-.363-.061-.721-.061-1.084.005-.554.314-.833.924-.866.084-.004.173 0 .258 0 3.197-.004 6.395-.004 9.587-.004zm5.322 1.791c-.966 0-1.936.005-2.902 0-.183 0-.324.056-.38.242-.052.186.033.312.188.405.271.168.553.317.848.442 1.233.531 2.541.657 3.863.694.751.023 1.257-.326 1.646-.912.127-.191.197-.391.07-.61-.122-.219-.323-.265-.558-.265-.919.009-1.847.004-2.775.004zm-10.577 0c-.952 0-1.908-.004-2.86 0-.399 0-.638.312-.525.666.178.544.951 1.107 1.528 1.112.619.005 1.233-.028 1.847-.107 1.079-.14 2.11-.428 3.043-1 .169-.103.286-.224.225-.433-.061-.214-.234-.242-.426-.238-.938.005-1.885 0-2.832 0zm-3.971-3.195c-.577 0-1.154-.005-1.73 0-.675.005-1.327-.596-1.529-1.154-.337-.936.136-1.964 1.05-2.294a2.05 2.05 0 01.699-.121c1.106-.01 2.218 0 3.324-.005.178 0 .244.042.244.233a179.52 179.52 0 000 3.113c0 .2-.066.242-.253.242-.6-.01-1.201-.005-1.805-.005v-.009zm18.411.009c-.586 0-1.172-.004-1.753.005-.146 0-.207-.037-.207-.195a337.93 337.93 0 000-3.184c0-.167.066-.21.221-.205 1.125.005 2.246-.013 3.371.01.703.014 1.27.32 1.603.968.343.67.258 1.326-.173 1.912a1.655 1.655 0 01-1.374.69h-1.688zm-5.996 0c-.68 0-1.36-.005-2.04.005-.164 0-.234-.023-.234-.21.009-1.075.009-2.154 0-3.23 0-.13.047-.139.145-.139h4.192c.136 0 .173.056.173.181a342.83 342.83 0 000 3.207c0 .154-.052.196-.202.196-.675-.014-1.354-.01-2.034-.01zm-6.33 0c-.68 0-1.359-.004-2.039.005-.155 0-.197-.047-.197-.195a338.78 338.78 0 000-3.188c0-.154.047-.2.201-.2 1.374.004 2.748.004 4.126 0 .15 0 .183.05.183.186-.005 1.07-.005 2.14.005 3.21 0 .168-.075.187-.211.187-.694-.01-1.379-.005-2.068-.005zm-7.886 15.123l-8.279 8.279c-.777.777-.798 2.038-.015 2.808 15.385 15.111 30.527 6.061 37.313.54.865-.704.941-1.976.213-2.82l-7.197-8.356c-.967-1.122-2.795-.847-3.865.178-4.109 3.934-11.27 1.824-14.991-.754-.968-.671-2.346-.708-3.179.125z" fill="#fff"/><circle cx="648.88" cy="101.229" r="27.029" stroke="#fff" stroke-width="5.274"/><path d="M368.661 241.475h-10.356c-.427 0-.427 0-.413-.415.159-4.309 2.94-8.13 7.014-9.638 5.345-1.978 11.285.489 13.639 5.659.604 1.331.909 2.732.947 4.193.004.205-.094.205-.244.205-1.758-.004-3.517 0-5.275 0-1.763-.004-3.539-.004-5.312-.004zm0 5.423h9.724c.305 0 .6.037.835.274a.855.855 0 01.262.596c.014 1.177-.286 2.271-1.031 3.193a3.559 3.559 0 01-1.937 1.233c-.553.135-1.097.042-1.645.042a10.108 10.108 0 01-3.259-.563 8.427 8.427 0 01-2.822-1.643c-.075-.07-.113-.084-.206-.01-.727.596-1.496 1.131-2.378 1.48-.675.266-1.369.475-2.091.596-.975.163-1.959.182-2.939.168-.6-.01-1.154-.298-1.632-.675-.895-.703-1.392-1.629-1.589-2.737-.066-.363-.061-.721-.061-1.084.005-.554.314-.833.923-.866.085-.004.174 0 .258 0 3.198-.004 6.395-.004 9.588-.004zm5.322 1.791c-.966 0-1.937.005-2.903 0-.182 0-.323.056-.379.242-.052.187.032.312.187.405.272.168.553.317.849.442 1.233.531 2.541.657 3.863.694.75.023 1.257-.326 1.646-.912.126-.191.197-.391.07-.61-.122-.219-.323-.265-.558-.265-.919.009-1.847.004-2.775.004zm-10.578 0c-.951 0-1.908-.004-2.859 0-.399 0-.638.312-.526.666.179.544.952 1.108 1.529 1.112.619.005 1.233-.028 1.847-.107 1.078-.139 2.11-.428 3.043-1 .169-.103.286-.224.225-.433-.061-.214-.234-.242-.427-.238-.937.005-1.884 0-2.832 0zm-3.971-3.195c-.576 0-1.153-.005-1.73 0-.675.005-1.326-.596-1.528-1.154-.338-.935.136-1.964 1.05-2.294.235-.084.464-.121.699-.121 1.106-.01 2.217 0 3.324-.005.178 0 .244.042.244.233-.01 1.037-.01 2.075 0 3.113 0 .2-.066.242-.254.242-.6-.009-1.2-.005-1.805-.005v-.009zm18.412.009c-.586 0-1.172-.004-1.754.005-.145 0-.206-.037-.206-.195a337.93 337.93 0 000-3.184c0-.167.066-.209.221-.204 1.125.004 2.245-.014 3.371.009.703.014 1.27.321 1.603.968.342.67.258 1.326-.174 1.913a1.653 1.653 0 01-1.373.688h-1.688zm-5.997 0c-.679 0-1.359-.004-2.039.005-.164 0-.235-.023-.235-.21.01-1.075.01-2.154 0-3.229 0-.131.047-.14.146-.14h4.191c.136 0 .174.056.174.182-.005 1.07-.005 2.14 0 3.206 0 .154-.052.196-.202.196-.675-.014-1.355-.01-2.035-.01zm-6.329 0c-.68 0-1.36-.004-2.04.005-.154 0-.196-.047-.196-.196.004-1.061.004-2.122 0-3.187 0-.154.046-.201.201-.201 1.374.005 2.748.005 4.126 0 .15 0 .183.052.183.187-.005 1.07-.005 2.14.005 3.211 0 .167-.075.186-.211.186-.694-.009-1.379-.005-2.068-.005zm-7.886 15.123l-8.28 8.279c-.776.777-.798 2.038-.014 2.808 15.384 15.111 30.527 6.062 37.313.54.865-.704.941-1.975.213-2.82l-7.197-8.356c-.967-1.122-2.795-.846-3.865.178-4.109 3.934-11.27 1.825-14.991-.754-.968-.671-2.346-.708-3.179.125z" fill="#fff"/><circle cx="368.4" cy="251.178" r="27.029" stroke="#fff" stroke-width="5.274"/><circle cx="634.856" cy="353.661" r="27.029" stroke="#fff" stroke-width="5.274"/><path d="M229.5 274.916h-10.357c-.426 0-.426 0-.412-.414.159-4.309 2.939-8.13 7.013-9.638 5.345-1.978 11.286.489 13.639 5.659a10.68 10.68 0 01.947 4.193c.005.205-.094.205-.244.205-1.758-.005-3.516 0-5.274 0-1.763-.005-3.54-.005-5.312-.005zm0 5.424h9.724c.304 0 .6.037.834.274a.852.852 0 01.263.596c.014 1.177-.286 2.271-1.032 3.192a3.556 3.556 0 01-1.936 1.234c-.553.135-1.097.042-1.646.042a10.108 10.108 0 01-3.258-.564 8.438 8.438 0 01-2.823-1.642c-.075-.07-.112-.084-.206-.01-.727.596-1.495 1.131-2.377 1.48-.675.266-1.369.475-2.091.596-.975.163-1.96.181-2.94.168-.6-.01-1.153-.298-1.631-.675-.896-.703-1.393-1.629-1.59-2.737-.065-.363-.06-.721-.06-1.084.004-.554.314-.833.923-.866.085-.004.174 0 .258 0 3.198-.004 6.395-.004 9.588-.004zm5.321 1.791c-.966 0-1.936.005-2.902 0-.183 0-.323.056-.38.242-.051.186.033.312.188.405.272.168.553.317.848.442 1.234.531 2.542.657 3.864.694.75.023 1.256-.326 1.645-.912.127-.191.197-.391.071-.61-.122-.219-.324-.265-.558-.265-.919.009-1.847.004-2.776.004zm-10.577 0c-.952 0-1.908-.004-2.86 0-.398 0-.637.312-.525.666.178.544.952 1.107 1.528 1.112a13.59 13.59 0 001.848-.107c1.078-.14 2.11-.428 3.043-1.001.168-.102.286-.223.225-.432-.061-.214-.235-.242-.427-.238-.938.005-1.885 0-2.832 0zm-3.971-3.195c-.577 0-1.153-.005-1.73 0-.675.005-1.327-.596-1.528-1.154-.338-.936.136-1.964 1.05-2.295a2.06 2.06 0 01.698-.121c1.107-.009 2.218 0 3.324-.004.179 0 .244.042.244.233a179.462 179.462 0 000 3.113c0 .2-.065.242-.253.242-.6-.009-1.2-.005-1.805-.005v-.009zm18.412.009c-.586 0-1.173-.004-1.754.005-.145 0-.206-.037-.206-.196.005-1.061.005-2.122 0-3.183 0-.167.065-.209.22-.205 1.125.005 2.246-.014 3.371.01.703.014 1.271.321 1.604.968.342.67.257 1.326-.174 1.913a1.655 1.655 0 01-1.374.688h-1.687zm-5.997 0c-.68 0-1.36-.005-2.04.005-.164 0-.234-.023-.234-.21.009-1.075.009-2.154 0-3.229 0-.131.047-.14.145-.14h4.192c.136 0 .173.056.173.181a428.536 428.536 0 000 3.207c0 .154-.051.195-.201.195-.675-.014-1.355-.009-2.035-.009zm-6.329 0c-.68 0-1.36-.004-2.04.005-.155 0-.197-.047-.197-.196a338.78 338.78 0 000-3.188c0-.153.047-.2.202-.2 1.374.005 2.747.005 4.126 0 .15 0 .183.052.183.186-.005 1.071-.005 2.141.004 3.212 0 .167-.075.186-.211.186-.694-.009-1.378-.005-2.067-.005zm-7.886 15.123l-8.28 8.279c-.776.777-.798 2.038-.015 2.808 15.385 15.111 30.528 6.061 37.313.54.865-.704.941-1.976.213-2.82l-7.197-8.356c-.967-1.122-2.795-.847-3.865.178-4.108 3.934-11.27 1.824-14.991-.754-.967-.671-2.346-.708-3.178.125z" fill="#fff"/><circle cx="229.239" cy="284.62" r="27.029" stroke="#fff" stroke-width="5.274"/><path d="M69.91 131.138c6.633 0 12.179 5.547 12.179 12.18 0 6.741-5.546 12.178-12.18 12.178a12.159 12.159 0 01-12.178-12.178c0-6.633 5.437-12.18 12.179-12.18zm13.919 34.798c5.654 0 10.439 4.784 10.439 10.439v3.479H45.552v-3.479c0-5.655 4.676-10.439 10.439-10.439 9.243 0 7.285 1.74 13.919 1.74 6.524 0 4.567-1.74 13.919-1.74zm-13.92-38.277c-8.699 0-15.658 7.068-15.658 15.659 0 8.699 6.96 15.659 15.659 15.659 8.59 0 15.658-6.96 15.658-15.659 0-8.591-7.068-15.659-15.658-15.659zm13.92 34.797c-10.113 0-7.721 1.739-13.92 1.739-6.198 0-3.914-1.739-13.918-1.739-7.72 0-13.919 6.307-13.919 13.919v3.479c0 1.958 1.522 3.481 3.48 3.481h48.716c1.848 0 3.48-1.523 3.48-3.481v-3.479c0-7.612-6.308-13.919-13.92-13.919z" fill="#7A8EF6"/><path d="M626.226 345.031v-1.594c-.881 0-1.595.714-1.595 1.594h1.595zm18.339 0h1.595c0-.88-.714-1.594-1.595-1.594v1.594zm-18.339 1.595h18.339v-3.189h-18.339v3.189zm16.745-1.595v21.396h3.189v-21.396h-3.189zm.066 21.329h-15.283v3.19h15.283v-3.19zm-15.216.067v-21.396h-3.19v21.396h3.19zm-.067-.067c.037 0 .067.03.067.067h-3.19a3.123 3.123 0 003.123 3.123v-3.19zm15.217.067c0-.037.029-.067.066-.067v3.19a3.123 3.123 0 003.123-3.123h-3.189z" fill="#fff"/><path d="M623.17 345.031h24.452" stroke="#fff" stroke-width="3.189" stroke-linecap="round" stroke-linejoin="round"/><path d="M641.509 345.031v1.595c.88 0 1.594-.714 1.594-1.595h-1.594zm-12.226 0h-1.595c0 .881.714 1.595 1.595 1.595v-1.595zm1.528-2.99h9.169v-3.189h-9.169v3.189zm9.103-.066v3.056h3.189v-3.056h-3.189zm1.595 1.462h-12.226v3.189h12.226v-3.189zm-10.632 1.594v-3.056h-3.189v3.056h3.189zm9.103-2.99a.067.067 0 01-.066-.066h3.189a3.123 3.123 0 00-3.123-3.123v3.189zm-9.169-3.189a3.123 3.123 0 00-3.123 3.123h3.189a.066.066 0 01-.066.066v-3.189z" fill="#fff"/><path fill="#B1BEFF" d="M567.995 285.809v3.015h-21.859v-3.015z"/><path fill="#7A8EF6" d="M487.148 268.799v3.015h21.859v-3.015z"/><circle cx="574.402" cy="287.191" r="3.141" transform="rotate(90 574.402 287.191)" fill="#B1BEFF"/><circle r="3.141" transform="matrix(0 1 1 0 480.741 270.181)" fill="#7A8EF6"/><circle cx="574.402" cy="287.191" r="6.521" transform="rotate(90 574.402 287.191)" stroke="#B1BEFF" stroke-width="1.278"/><circle r="6.521" transform="matrix(0 1 1 0 480.741 270.181)" stroke="#7A8EF6" stroke-width="1.278"/><path d="M526.35 322.716c2.387-1.156 11.181-6.13 21.633-18.291-.276 0-.527.025-.804.025-1.884 0-3.844-.126-5.854-.352a55.123 55.123 0 01-8.543-1.633 68.206 68.206 0 01-7.16-2.311v22.688c.226.025.502-.025.728-.126z" fill="#7A8EF6"/><path d="M560.195 247.01h0v.002c.141 2.213.327 6.513.244 11.815-.204-.24-.41-.477-.617-.708-3.155-3.559-6.763-6.99-10.773-10.219h0l-.002-.001-.002-.001c-.41-.326-.822-.653-1.235-.975.323.01.647.015.976.015 2.912.025 5.822-.228 8.703-.683h0l.003-.001.193-.032a26.85 26.85 0 001.223-.221c.638-.109 1.25.364 1.287 1.009z" fill="#7A8EF6" stroke="url(#paint82_linear_146_3703)" stroke-width=".754"/><path d="M528.034 240.28c-.352-.302-.729-.553-1.081-.854-.351-.277-.678-.629-1.156-.654-.075 0-.125 0-.201.025v54.07a71.83 71.83 0 009.247 3.518c4.899 1.457 9.572 2.211 13.844 2.211.351 0 .703 0 1.03-.026a27.645 27.645 0 002.939-.251c5.427-8.718 7.362-22.085 7.94-33.241-22.889-17.361-31.934-24.271-32.562-24.798zm-10.905 56.054l-.904-.478h-.05l-.88-.502-.527-.302c-.402-.226-.83-.477-1.257-.703l-1.733-1.03h-.051l-1.683-1.081a92.703 92.703 0 01-6.457-4.698 90.92 90.92 0 01-5.854-5.226c-.427-.402-.855-.854-1.357-1.382l-1.281-1.382a16.358 16.358 0 01-.905-1.03c-.126-.151-.251-.276-.377-.427l-.628-.704-.025-.025v-.025l-.603-.728c-.302-.377-.603-.729-.88-1.106 1.257 9.497 3.794 19.095 8.719 25.276 11.834 14.799 22.06 20.678 24.673 21.985.176.075.352.125.553.15v-22.688c-.302-.125-.603-.226-.905-.351-2.663-1.131-5.201-2.287-7.588-3.543z" fill="#B1BEFF"/><path d="M523.243 241.147l.003-.003c.593-.42 1.161-.862 1.723-1.324v52.025a77.587 77.587 0 01-3.642-1.865l-.003-.001a75.64 75.64 0 01-6.254-3.787 99.844 99.844 0 01-5.839-4.292 89.085 89.085 0 01-5.336-4.688h0c-1.614-1.539-3.157-3.206-4.756-5.055-3.082-3.604-5.537-7.325-7.319-11.061l-.622-1.383c-.095-5.701.103-10.355.252-12.684h0v-.005c.028-.474.484-.838.996-.749 2.918.533 5.916.864 8.893.914a43.705 43.705 0 007.519-.509l.004-.001a38.958 38.958 0 006.128-1.481 32.615 32.615 0 004.783-1.995 26.238 26.238 0 003.47-2.056z" fill="#7A8EF6" stroke="url(#paint83_linear_146_3703)" stroke-width="1.256"/><path fill="#B1BEFF" d="M854.283 179.942v5.218H816.45v-5.218z"/><path fill="#7A8EF6" d="M714.355 150.502v5.218h37.833v-5.218z"/><circle cx="865.372" cy="182.334" r="5.436" transform="rotate(90 865.372 182.334)" fill="#B1BEFF"/><circle r="5.436" transform="matrix(0 1 1 0 703.266 152.894)" fill="#7A8EF6"/><circle cx="865.372" cy="182.333" r="11.287" transform="rotate(90 865.372 182.333)" stroke="#B1BEFF" stroke-width="2.213"/><circle r="11.287" transform="matrix(0 1 1 0 703.266 152.893)" stroke="#7A8EF6" stroke-width="2.213"/><path d="M782.205 243.82c4.131-2.001 19.351-10.611 37.442-31.658-.479 0-.914.043-1.392.043-3.261 0-6.653-.217-10.132-.609a95.599 95.599 0 01-14.785-2.826 118.034 118.034 0 01-12.394-4.001v39.268c.391.044.87-.043 1.261-.217z" fill="#7A8EF6"/><path d="M840.782 112.789h0v.004c.245 3.83.567 11.273.423 20.448a61.57 61.57 0 00-1.068-1.224c-5.461-6.16-11.706-12.099-18.646-17.686h0l-.004-.003-.002-.002a427.69 427.69 0 00-2.138-1.688c.559.018 1.12.027 1.689.027 5.041.043 10.077-.395 15.063-1.182h0l.006-.001.333-.056c.677-.112 1.398-.231 2.118-.382 1.104-.189 2.162.63 2.226 1.745z" fill="#7A8EF6" stroke="url(#paint84_linear_146_3703)" stroke-width="1.305"/><path d="M785.119 101.141c-.609-.521-1.262-.956-1.87-1.478-.609-.478-1.174-1.087-2.001-1.13a.96.96 0 00-.348.043v93.582c5.306 2.435 10.655 4.479 16.003 6.088 8.48 2.522 16.568 3.826 23.961 3.826.609 0 1.218 0 1.783-.043 1.739-.043 3.435-.217 5.088-.435 9.393-15.09 12.741-38.224 13.742-57.532-39.616-30.049-55.271-42.007-56.358-42.921zm-18.873 97.017l-1.566-.826h-.087l-1.522-.87a742.8 742.8 0 00-.913-.522c-.696-.391-1.435-.826-2.174-1.217l-3.001-1.783h-.087l-2.913-1.87c-3.914-2.609-7.697-5.349-11.176-8.132a157.68 157.68 0 01-10.132-9.045c-.74-.696-1.479-1.479-2.349-2.392l-2.217-2.392c-.566-.609-1.088-1.174-1.566-1.783-.217-.261-.435-.478-.652-.739l-1.087-1.218-.044-.043v-.043l-1.044-1.262c-.521-.652-1.043-1.261-1.522-1.913 2.175 16.438 6.567 33.049 15.09 43.747 20.482 25.613 38.181 35.789 42.703 38.05.305.131.609.218.957.261v-39.268c-.522-.217-1.044-.391-1.565-.609-4.61-1.956-9.002-3.957-13.133-6.131z" fill="#B1BEFF"/><path d="M776.826 102.642l.007-.004a52.764 52.764 0 002.981-2.293v90.043a134.14 134.14 0 01-6.304-3.227l-.005-.002a130.541 130.541 0 01-10.824-6.555 172.574 172.574 0 01-10.105-7.428 155.134 155.134 0 01-9.236-8.113v-.001c-2.793-2.664-5.464-5.549-8.232-8.75-5.334-6.237-9.582-12.677-12.666-19.143l-1.078-2.394c-.164-9.867.18-17.921.437-21.953h0v-.007c.047-.822.838-1.452 1.724-1.297 5.049.922 10.238 1.494 15.391 1.582a75.679 75.679 0 0013.014-.882h0l.007-.001c3.573-.573 7.152-1.412 10.606-2.564a56.415 56.415 0 008.279-3.452 45.331 45.331 0 006.004-3.559z" fill="#7A8EF6" stroke="url(#paint85_linear_146_3703)" stroke-width="2.174"/><path fill="#B1BEFF" d="M571.232 106.733v3.015h-21.859v-3.015z"/><path fill="#7A8EF6" d="M490.384 89.723v3.015h21.859v-3.015z"/><circle cx="577.639" cy="108.116" r="3.141" transform="rotate(90 577.639 108.116)" fill="#B1BEFF"/><circle r="3.141" transform="matrix(0 1 1 0 483.977 91.106)" fill="#7A8EF6"/><circle cx="577.639" cy="108.115" r="6.521" transform="rotate(90 577.639 108.115)" stroke="#B1BEFF" stroke-width="1.278"/><circle r="6.521" transform="matrix(0 1 1 0 483.977 91.105)" stroke="#7A8EF6" stroke-width="1.278"/><path d="M529.587 143.64c2.387-1.155 11.18-6.13 21.633-18.291-.277 0-.528.025-.804.025-1.885 0-3.845-.125-5.855-.351a55.229 55.229 0 01-8.542-1.634 68.149 68.149 0 01-7.161-2.311v22.688c.226.025.503-.025.729-.126z" fill="#7A8EF6"/><path d="M563.431 67.934h0v.002c.141 2.213.327 6.513.245 11.815a39.22 39.22 0 00-.617-.708c-3.156-3.559-6.764-6.99-10.774-10.218h0l-.002-.002-.001-.001c-.411-.326-.823-.653-1.236-.975.323.01.647.015.976.015 2.913.025 5.823-.228 8.703-.683h.004l.192-.032c.391-.065.808-.134 1.224-.221.638-.11 1.249.363 1.286 1.008z" fill="#7A8EF6" stroke="url(#paint86_linear_146_3703)" stroke-width=".754"/><path d="M531.27 61.204c-.352-.302-.729-.553-1.08-.854-.352-.277-.679-.629-1.156-.654-.076 0-.126 0-.201.026v54.069a71.818 71.818 0 009.246 3.518c4.899 1.457 9.573 2.211 13.844 2.211.352 0 .703 0 1.03-.025a27.95 27.95 0 002.94-.252c5.427-8.718 7.361-22.085 7.939-33.24-22.889-17.362-31.934-24.271-32.562-24.8zm-10.904 56.054l-.905-.477h-.05l-.879-.503-.528-.301c-.402-.226-.829-.478-1.256-.704l-1.734-1.03h-.05l-1.684-1.08a93.038 93.038 0 01-6.457-4.699 90.92 90.92 0 01-5.854-5.226c-.427-.402-.854-.854-1.357-1.382l-1.281-1.382a16.452 16.452 0 01-.905-1.03c-.125-.15-.251-.276-.377-.427l-.628-.703-.025-.025v-.026l-.603-.728c-.301-.377-.603-.729-.879-1.106 1.256 9.498 3.794 19.095 8.718 25.276 11.834 14.799 22.06 20.678 24.673 21.985.176.075.352.125.553.151v-22.689c-.302-.125-.603-.226-.905-.351-2.663-1.131-5.2-2.287-7.587-3.543z" fill="#B1BEFF"/><path d="M526.479 62.071l.003-.002c.594-.42 1.161-.863 1.723-1.325v52.025a77.587 77.587 0 01-3.642-1.865l-.003-.001a75.64 75.64 0 01-6.254-3.787 99.37 99.37 0 01-5.838-4.292 89.352 89.352 0 01-5.337-4.688h0c-1.614-1.54-3.157-3.206-4.756-5.055-3.082-3.604-5.536-7.325-7.318-11.06l-.623-1.384c-.095-5.701.104-10.355.252-12.684h0l.001-.005c.027-.474.484-.838.995-.749 2.918.533 5.916.864 8.893.915a43.702 43.702 0 007.519-.51h.005a38.942 38.942 0 006.127-1.482 32.615 32.615 0 004.784-1.995 26.314 26.314 0 003.469-2.056z" fill="#7A8EF6" stroke="url(#paint87_linear_146_3703)" stroke-width="1.256"/><defs><linearGradient id="paint0_linear_146_3703" x1="968.884" y1="232.166" x2="968.884" y2="122.592" gradientUnits="userSpaceOnUse"><stop stop-color="#C0BFF6"/><stop offset=".294" stop-color="#C5C4F7"/><stop offset=".64" stop-color="#D3D2F9"/><stop offset="1" stop-color="#E9E9FD"/></linearGradient><linearGradient id="paint1_linear_146_3703" x1="1027.02" y1="116.126" x2="977.062" y2="116.126" gradientUnits="userSpaceOnUse"><stop/><stop offset=".047" stop-color="#2F2F2F"/><stop offset=".098" stop-color="#5A5A5A"/><stop offset=".155" stop-color="#828282"/><stop offset=".216" stop-color="#A4A4A4"/><stop offset=".283" stop-color="silver"/><stop offset=".357" stop-color="#D7D7D7"/><stop offset=".442" stop-color="#E9E9E9"/><stop offset=".544" stop-color="#F6F6F6"/><stop offset=".681" stop-color="#FDFDFD"/><stop offset="1" stop-color="#fff"/></linearGradient><linearGradient id="paint2_linear_146_3703" x1="1027.02" y1="116.126" x2="977.062" y2="116.126" gradientUnits="userSpaceOnUse"><stop stop-color="#E9E9FD"/><stop offset=".037" stop-color="#D3D5F7"/><stop offset=".106" stop-color="#B2B6EF"/><stop offset=".182" stop-color="#969BE7"/><stop offset=".266" stop-color="#7F86E1"/><stop offset=".363" stop-color="#6D75DD"/><stop offset=".48" stop-color="#606AD9"/><stop offset=".636" stop-color="#5963D8"/><stop offset="1" stop-color="#5761D7"/></linearGradient><linearGradient id="paint3_linear_146_3703" x1="1029.22" y1="116.981" x2="962.35" y2="116.981" gradientUnits="userSpaceOnUse"><stop stop-color="#5761D7"/><stop offset=".178" stop-color="#5C66D9"/><stop offset=".388" stop-color="#6A73DF"/><stop offset=".613" stop-color="#8289E8"/><stop offset=".849" stop-color="#A3A7F5"/><stop offset="1" stop-color="#BCBEFF"/></linearGradient><linearGradient id="paint4_linear_146_3703" x1="1029.22" y1="115.208" x2="958.932" y2="115.208" gradientUnits="userSpaceOnUse"><stop stop-color="#C0BFF6"/><stop offset=".294" stop-color="#C5C4F7"/><stop offset=".64" stop-color="#D3D2F9"/><stop offset="1" stop-color="#E9E9FD"/></linearGradient><linearGradient id="paint5_linear_146_3703" x1="1013.81" y1="105.266" x2="1005.54" y2="105.266" gradientUnits="userSpaceOnUse"><stop stop-color="#5761D7"/><stop offset=".178" stop-color="#5C66D9"/><stop offset=".388" stop-color="#6A73DF"/><stop offset=".613" stop-color="#8289E8"/><stop offset=".849" stop-color="#A3A7F5"/><stop offset="1" stop-color="#BCBEFF"/></linearGradient><linearGradient id="paint6_linear_146_3703" x1="1011.67" y1="106.519" x2="1003.4" y2="106.519" gradientUnits="userSpaceOnUse"><stop stop-color="#5761D7"/><stop offset=".178" stop-color="#5C66D9"/><stop offset=".388" stop-color="#6A73DF"/><stop offset=".613" stop-color="#8289E8"/><stop offset=".849" stop-color="#A3A7F5"/><stop offset="1" stop-color="#BCBEFF"/></linearGradient><linearGradient id="paint7_linear_146_3703" x1="1009.52" y1="107.773" x2="1001.25" y2="107.773" gradientUnits="userSpaceOnUse"><stop stop-color="#5761D7"/><stop offset=".178" stop-color="#5C66D9"/><stop offset=".388" stop-color="#6A73DF"/><stop offset=".613" stop-color="#8289E8"/><stop offset=".849" stop-color="#A3A7F5"/><stop offset="1" stop-color="#BCBEFF"/></linearGradient><linearGradient id="paint8_linear_146_3703" x1="1007.37" y1="109.026" x2="999.103" y2="109.026" gradientUnits="userSpaceOnUse"><stop stop-color="#5761D7"/><stop offset=".178" stop-color="#5C66D9"/><stop offset=".388" stop-color="#6A73DF"/><stop offset=".613" stop-color="#8289E8"/><stop offset=".849" stop-color="#A3A7F5"/><stop offset="1" stop-color="#BCBEFF"/></linearGradient><linearGradient id="paint9_linear_146_3703" x1="1001.1" y1="112.727" x2="992.826" y2="112.727" gradientUnits="userSpaceOnUse"><stop stop-color="#5761D7"/><stop offset=".178" stop-color="#5C66D9"/><stop offset=".388" stop-color="#6A73DF"/><stop offset=".613" stop-color="#8289E8"/><stop offset=".849" stop-color="#A3A7F5"/><stop offset="1" stop-color="#BCBEFF"/></linearGradient><linearGradient id="paint10_linear_146_3703" x1="998.949" y1="113.98" x2="990.679" y2="113.98" gradientUnits="userSpaceOnUse"><stop stop-color="#5761D7"/><stop offset=".178" stop-color="#5C66D9"/><stop offset=".388" stop-color="#6A73DF"/><stop offset=".613" stop-color="#8289E8"/><stop offset=".849" stop-color="#A3A7F5"/><stop offset="1" stop-color="#BCBEFF"/></linearGradient><linearGradient id="paint11_linear_146_3703" x1="996.802" y1="115.234" x2="988.532" y2="115.234" gradientUnits="userSpaceOnUse"><stop stop-color="#5761D7"/><stop offset=".178" stop-color="#5C66D9"/><stop offset=".388" stop-color="#6A73DF"/><stop offset=".613" stop-color="#8289E8"/><stop offset=".849" stop-color="#A3A7F5"/><stop offset="1" stop-color="#BCBEFF"/></linearGradient><linearGradient id="paint12_linear_146_3703" x1="994.656" y1="116.487" x2="986.385" y2="116.487" gradientUnits="userSpaceOnUse"><stop stop-color="#5761D7"/><stop offset=".178" stop-color="#5C66D9"/><stop offset=".388" stop-color="#6A73DF"/><stop offset=".613" stop-color="#8289E8"/><stop offset=".849" stop-color="#A3A7F5"/><stop offset="1" stop-color="#BCBEFF"/></linearGradient><linearGradient id="paint13_linear_146_3703" x1="988.377" y1="120.188" x2="980.107" y2="120.188" gradientUnits="userSpaceOnUse"><stop stop-color="#5761D7"/><stop offset=".178" stop-color="#5C66D9"/><stop offset=".388" stop-color="#6A73DF"/><stop offset=".613" stop-color="#8289E8"/><stop offset=".849" stop-color="#A3A7F5"/><stop offset="1" stop-color="#BCBEFF"/></linearGradient><linearGradient id="paint14_linear_146_3703" x1="986.23" y1="121.441" x2="977.959" y2="121.441" gradientUnits="userSpaceOnUse"><stop stop-color="#5761D7"/><stop offset=".178" stop-color="#5C66D9"/><stop offset=".388" stop-color="#6A73DF"/><stop offset=".613" stop-color="#8289E8"/><stop offset=".849" stop-color="#A3A7F5"/><stop offset="1" stop-color="#BCBEFF"/></linearGradient><linearGradient id="paint15_linear_146_3703" x1="989.981" y1="141.674" x2="987.863" y2="141.674" gradientUnits="userSpaceOnUse"><stop stop-color="#C0BFF6"/><stop offset=".294" stop-color="#C5C4F7"/><stop offset=".64" stop-color="#D3D2F9"/><stop offset="1" stop-color="#E9E9FD"/></linearGradient><linearGradient id="paint16_linear_146_3703" x1="990.239" y1="141.893" x2="988.487" y2="141.893" gradientUnits="userSpaceOnUse"><stop stop-color="#5761D7"/><stop offset=".178" stop-color="#5C66D9"/><stop offset=".388" stop-color="#6A73DF"/><stop offset=".613" stop-color="#8289E8"/><stop offset=".849" stop-color="#A3A7F5"/><stop offset="1" stop-color="#BCBEFF"/></linearGradient><linearGradient id="paint17_linear_146_3703" x1="1033.29" y1="116.454" x2="1031.17" y2="116.454" gradientUnits="userSpaceOnUse"><stop stop-color="#C0BFF6"/><stop offset=".294" stop-color="#C5C4F7"/><stop offset=".64" stop-color="#D3D2F9"/><stop offset="1" stop-color="#E9E9FD"/></linearGradient><linearGradient id="paint18_linear_146_3703" x1="1033.55" y1="116.672" x2="1031.79" y2="116.672" gradientUnits="userSpaceOnUse"><stop stop-color="#5761D7"/><stop offset=".178" stop-color="#5C66D9"/><stop offset=".388" stop-color="#6A73DF"/><stop offset=".613" stop-color="#8289E8"/><stop offset=".849" stop-color="#A3A7F5"/><stop offset="1" stop-color="#BCBEFF"/></linearGradient><linearGradient id="paint19_linear_146_3703" x1="989.981" y1="227.088" x2="987.863" y2="227.088" gradientUnits="userSpaceOnUse"><stop stop-color="#C0BFF6"/><stop offset=".294" stop-color="#C5C4F7"/><stop offset=".64" stop-color="#D3D2F9"/><stop offset="1" stop-color="#E9E9FD"/></linearGradient><linearGradient id="paint20_linear_146_3703" x1="990.239" y1="227.335" x2="988.487" y2="227.335" gradientUnits="userSpaceOnUse"><stop stop-color="#5761D7"/><stop offset=".178" stop-color="#5C66D9"/><stop offset=".388" stop-color="#6A73DF"/><stop offset=".613" stop-color="#8289E8"/><stop offset=".849" stop-color="#A3A7F5"/><stop offset="1" stop-color="#BCBEFF"/></linearGradient><linearGradient id="paint21_linear_146_3703" x1="989.98" y1="227.27" x2="987.862" y2="227.27" gradientUnits="userSpaceOnUse"><stop stop-color="#C0BFF6"/><stop offset=".294" stop-color="#C5C4F7"/><stop offset=".64" stop-color="#D3D2F9"/><stop offset="1" stop-color="#E9E9FD"/></linearGradient><linearGradient id="paint22_linear_146_3703" x1="990.239" y1="227.27" x2="988.487" y2="227.27" gradientUnits="userSpaceOnUse"><stop stop-color="#5761D7"/><stop offset=".178" stop-color="#5C66D9"/><stop offset=".388" stop-color="#6A73DF"/><stop offset=".613" stop-color="#8289E8"/><stop offset=".849" stop-color="#A3A7F5"/><stop offset="1" stop-color="#BCBEFF"/></linearGradient><linearGradient id="paint23_linear_146_3703" x1="1033.29" y1="201.867" x2="1031.17" y2="201.867" gradientUnits="userSpaceOnUse"><stop stop-color="#C0BFF6"/><stop offset=".294" stop-color="#C5C4F7"/><stop offset=".64" stop-color="#D3D2F9"/><stop offset="1" stop-color="#E9E9FD"/></linearGradient><linearGradient id="paint24_linear_146_3703" x1="1033.55" y1="202.114" x2="1031.79" y2="202.114" gradientUnits="userSpaceOnUse"><stop stop-color="#5761D7"/><stop offset=".178" stop-color="#5C66D9"/><stop offset=".388" stop-color="#6A73DF"/><stop offset=".613" stop-color="#8289E8"/><stop offset=".849" stop-color="#A3A7F5"/><stop offset="1" stop-color="#BCBEFF"/></linearGradient><linearGradient id="paint25_linear_146_3703" x1="1033.29" y1="202.05" x2="1031.17" y2="202.05" gradientUnits="userSpaceOnUse"><stop stop-color="#C0BFF6"/><stop offset=".294" stop-color="#C5C4F7"/><stop offset=".64" stop-color="#D3D2F9"/><stop offset="1" stop-color="#E9E9FD"/></linearGradient><linearGradient id="paint26_linear_146_3703" x1="1033.55" y1="202.05" x2="1031.79" y2="202.05" gradientUnits="userSpaceOnUse"><stop stop-color="#5761D7"/><stop offset=".178" stop-color="#5C66D9"/><stop offset=".388" stop-color="#6A73DF"/><stop offset=".613" stop-color="#8289E8"/><stop offset=".849" stop-color="#A3A7F5"/><stop offset="1" stop-color="#BCBEFF"/></linearGradient><linearGradient id="paint27_linear_146_3703" x1="1009.59" y1="258.095" x2="1009.59" y2="148.521" gradientUnits="userSpaceOnUse"><stop stop-color="#C0BFF6"/><stop offset=".294" stop-color="#C5C4F7"/><stop offset=".64" stop-color="#D3D2F9"/><stop offset="1" stop-color="#E9E9FD"/></linearGradient><linearGradient id="paint28_linear_146_3703" x1="1067.73" y1="142.055" x2="1017.77" y2="142.055" gradientUnits="userSpaceOnUse"><stop/><stop offset=".047" stop-color="#2F2F2F"/><stop offset=".098" stop-color="#5A5A5A"/><stop offset=".155" stop-color="#828282"/><stop offset=".216" stop-color="#A4A4A4"/><stop offset=".283" stop-color="silver"/><stop offset=".357" stop-color="#D7D7D7"/><stop offset=".442" stop-color="#E9E9E9"/><stop offset=".544" stop-color="#F6F6F6"/><stop offset=".681" stop-color="#FDFDFD"/><stop offset="1" stop-color="#fff"/></linearGradient><linearGradient id="paint29_linear_146_3703" x1="1067.73" y1="142.055" x2="1017.77" y2="142.055" gradientUnits="userSpaceOnUse"><stop stop-color="#E9E9FD"/><stop offset=".037" stop-color="#D3D5F7"/><stop offset=".106" stop-color="#B2B6EF"/><stop offset=".182" stop-color="#969BE7"/><stop offset=".266" stop-color="#7F86E1"/><stop offset=".363" stop-color="#6D75DD"/><stop offset=".48" stop-color="#606AD9"/><stop offset=".636" stop-color="#5963D8"/><stop offset="1" stop-color="#5761D7"/></linearGradient><linearGradient id="paint30_linear_146_3703" x1="1069.93" y1="142.91" x2="1003.06" y2="142.91" gradientUnits="userSpaceOnUse"><stop stop-color="#5761D7"/><stop offset=".178" stop-color="#5C66D9"/><stop offset=".388" stop-color="#6A73DF"/><stop offset=".613" stop-color="#8289E8"/><stop offset=".849" stop-color="#A3A7F5"/><stop offset="1" stop-color="#BCBEFF"/></linearGradient><linearGradient id="paint31_linear_146_3703" x1="1025.54" y1="155.025" x2="999.641" y2="155.025" gradientUnits="userSpaceOnUse"><stop stop-color="#C0BFF6"/><stop offset=".294" stop-color="#C5C4F7"/><stop offset=".64" stop-color="#D3D2F9"/><stop offset="1" stop-color="#E9E9FD"/></linearGradient><linearGradient id="paint32_linear_146_3703" x1="1069.93" y1="141.137" x2="999.642" y2="141.137" gradientUnits="userSpaceOnUse"><stop stop-color="#C0BFF6"/><stop offset=".294" stop-color="#C5C4F7"/><stop offset=".64" stop-color="#D3D2F9"/><stop offset="1" stop-color="#E9E9FD"/></linearGradient><linearGradient id="paint33_linear_146_3703" x1="1054.52" y1="131.195" x2="1046.25" y2="131.195" gradientUnits="userSpaceOnUse"><stop stop-color="#5761D7"/><stop offset=".178" stop-color="#5C66D9"/><stop offset=".388" stop-color="#6A73DF"/><stop offset=".613" stop-color="#8289E8"/><stop offset=".849" stop-color="#A3A7F5"/><stop offset="1" stop-color="#BCBEFF"/></linearGradient><linearGradient id="paint34_linear_146_3703" x1="1052.38" y1="132.448" x2="1044.11" y2="132.448" gradientUnits="userSpaceOnUse"><stop stop-color="#5761D7"/><stop offset=".178" stop-color="#5C66D9"/><stop offset=".388" stop-color="#6A73DF"/><stop offset=".613" stop-color="#8289E8"/><stop offset=".849" stop-color="#A3A7F5"/><stop offset="1" stop-color="#BCBEFF"/></linearGradient><linearGradient id="paint35_linear_146_3703" x1="1050.23" y1="133.702" x2="1041.96" y2="133.702" gradientUnits="userSpaceOnUse"><stop stop-color="#5761D7"/><stop offset=".178" stop-color="#5C66D9"/><stop offset=".388" stop-color="#6A73DF"/><stop offset=".613" stop-color="#8289E8"/><stop offset=".849" stop-color="#A3A7F5"/><stop offset="1" stop-color="#BCBEFF"/></linearGradient><linearGradient id="paint36_linear_146_3703" x1="1048.08" y1="134.956" x2="1039.81" y2="134.956" gradientUnits="userSpaceOnUse"><stop stop-color="#5761D7"/><stop offset=".178" stop-color="#5C66D9"/><stop offset=".388" stop-color="#6A73DF"/><stop offset=".613" stop-color="#8289E8"/><stop offset=".849" stop-color="#A3A7F5"/><stop offset="1" stop-color="#BCBEFF"/></linearGradient><linearGradient id="paint37_linear_146_3703" x1="1041.81" y1="138.656" x2="1033.53" y2="138.656" gradientUnits="userSpaceOnUse"><stop stop-color="#5761D7"/><stop offset=".178" stop-color="#5C66D9"/><stop offset=".388" stop-color="#6A73DF"/><stop offset=".613" stop-color="#8289E8"/><stop offset=".849" stop-color="#A3A7F5"/><stop offset="1" stop-color="#BCBEFF"/></linearGradient><linearGradient id="paint38_linear_146_3703" x1="1039.66" y1="139.909" x2="1031.39" y2="139.909" gradientUnits="userSpaceOnUse"><stop stop-color="#5761D7"/><stop offset=".178" stop-color="#5C66D9"/><stop offset=".388" stop-color="#6A73DF"/><stop offset=".613" stop-color="#8289E8"/><stop offset=".849" stop-color="#A3A7F5"/><stop offset="1" stop-color="#BCBEFF"/></linearGradient><linearGradient id="paint39_linear_146_3703" x1="1037.51" y1="141.163" x2="1029.24" y2="141.163" gradientUnits="userSpaceOnUse"><stop stop-color="#5761D7"/><stop offset=".178" stop-color="#5C66D9"/><stop offset=".388" stop-color="#6A73DF"/><stop offset=".613" stop-color="#8289E8"/><stop offset=".849" stop-color="#A3A7F5"/><stop offset="1" stop-color="#BCBEFF"/></linearGradient><linearGradient id="paint40_linear_146_3703" x1="1035.37" y1="142.417" x2="1027.09" y2="142.417" gradientUnits="userSpaceOnUse"><stop stop-color="#5761D7"/><stop offset=".178" stop-color="#5C66D9"/><stop offset=".388" stop-color="#6A73DF"/><stop offset=".613" stop-color="#8289E8"/><stop offset=".849" stop-color="#A3A7F5"/><stop offset="1" stop-color="#BCBEFF"/></linearGradient><linearGradient id="paint41_linear_146_3703" x1="1029.09" y1="146.117" x2="1020.82" y2="146.117" gradientUnits="userSpaceOnUse"><stop stop-color="#5761D7"/><stop offset=".178" stop-color="#5C66D9"/><stop offset=".388" stop-color="#6A73DF"/><stop offset=".613" stop-color="#8289E8"/><stop offset=".849" stop-color="#A3A7F5"/><stop offset="1" stop-color="#BCBEFF"/></linearGradient><linearGradient id="paint42_linear_146_3703" x1="1026.94" y1="147.37" x2="1018.67" y2="147.37" gradientUnits="userSpaceOnUse"><stop stop-color="#5761D7"/><stop offset=".178" stop-color="#5C66D9"/><stop offset=".388" stop-color="#6A73DF"/><stop offset=".613" stop-color="#8289E8"/><stop offset=".849" stop-color="#A3A7F5"/><stop offset="1" stop-color="#BCBEFF"/></linearGradient><linearGradient id="paint43_linear_146_3703" x1="1030.69" y1="167.603" x2="1028.57" y2="167.603" gradientUnits="userSpaceOnUse"><stop stop-color="#C0BFF6"/><stop offset=".294" stop-color="#C5C4F7"/><stop offset=".64" stop-color="#D3D2F9"/><stop offset="1" stop-color="#E9E9FD"/></linearGradient><linearGradient id="paint44_linear_146_3703" x1="1030.95" y1="167.822" x2="1029.2" y2="167.822" gradientUnits="userSpaceOnUse"><stop stop-color="#5761D7"/><stop offset=".178" stop-color="#5C66D9"/><stop offset=".388" stop-color="#6A73DF"/><stop offset=".613" stop-color="#8289E8"/><stop offset=".849" stop-color="#A3A7F5"/><stop offset="1" stop-color="#BCBEFF"/></linearGradient><linearGradient id="paint45_linear_146_3703" x1="1074" y1="142.383" x2="1071.88" y2="142.383" gradientUnits="userSpaceOnUse"><stop stop-color="#C0BFF6"/><stop offset=".294" stop-color="#C5C4F7"/><stop offset=".64" stop-color="#D3D2F9"/><stop offset="1" stop-color="#E9E9FD"/></linearGradient><linearGradient id="paint46_linear_146_3703" x1="1074.26" y1="142.602" x2="1072.5" y2="142.602" gradientUnits="userSpaceOnUse"><stop stop-color="#5761D7"/><stop offset=".178" stop-color="#5C66D9"/><stop offset=".388" stop-color="#6A73DF"/><stop offset=".613" stop-color="#8289E8"/><stop offset=".849" stop-color="#A3A7F5"/><stop offset="1" stop-color="#BCBEFF"/></linearGradient><linearGradient id="paint47_linear_146_3703" x1="1030.69" y1="253.017" x2="1028.57" y2="253.017" gradientUnits="userSpaceOnUse"><stop stop-color="#C0BFF6"/><stop offset=".294" stop-color="#C5C4F7"/><stop offset=".64" stop-color="#D3D2F9"/><stop offset="1" stop-color="#E9E9FD"/></linearGradient><linearGradient id="paint48_linear_146_3703" x1="1030.95" y1="253.264" x2="1029.2" y2="253.264" gradientUnits="userSpaceOnUse"><stop stop-color="#5761D7"/><stop offset=".178" stop-color="#5C66D9"/><stop offset=".388" stop-color="#6A73DF"/><stop offset=".613" stop-color="#8289E8"/><stop offset=".849" stop-color="#A3A7F5"/><stop offset="1" stop-color="#BCBEFF"/></linearGradient><linearGradient id="paint49_linear_146_3703" x1="1030.69" y1="253.199" x2="1028.57" y2="253.199" gradientUnits="userSpaceOnUse"><stop stop-color="#C0BFF6"/><stop offset=".294" stop-color="#C5C4F7"/><stop offset=".64" stop-color="#D3D2F9"/><stop offset="1" stop-color="#E9E9FD"/></linearGradient><linearGradient id="paint50_linear_146_3703" x1="1030.95" y1="253.199" x2="1029.2" y2="253.199" gradientUnits="userSpaceOnUse"><stop stop-color="#5761D7"/><stop offset=".178" stop-color="#5C66D9"/><stop offset=".388" stop-color="#6A73DF"/><stop offset=".613" stop-color="#8289E8"/><stop offset=".849" stop-color="#A3A7F5"/><stop offset="1" stop-color="#BCBEFF"/></linearGradient><linearGradient id="paint51_linear_146_3703" x1="1074" y1="227.797" x2="1071.88" y2="227.797" gradientUnits="userSpaceOnUse"><stop stop-color="#C0BFF6"/><stop offset=".294" stop-color="#C5C4F7"/><stop offset=".64" stop-color="#D3D2F9"/><stop offset="1" stop-color="#E9E9FD"/></linearGradient><linearGradient id="paint52_linear_146_3703" x1="1074.25" y1="228.044" x2="1072.5" y2="228.044" gradientUnits="userSpaceOnUse"><stop stop-color="#5761D7"/><stop offset=".178" stop-color="#5C66D9"/><stop offset=".388" stop-color="#6A73DF"/><stop offset=".613" stop-color="#8289E8"/><stop offset=".849" stop-color="#A3A7F5"/><stop offset="1" stop-color="#BCBEFF"/></linearGradient><linearGradient id="paint53_linear_146_3703" x1="1074" y1="227.979" x2="1071.88" y2="227.979" gradientUnits="userSpaceOnUse"><stop stop-color="#C0BFF6"/><stop offset=".294" stop-color="#C5C4F7"/><stop offset=".64" stop-color="#D3D2F9"/><stop offset="1" stop-color="#E9E9FD"/></linearGradient><linearGradient id="paint54_linear_146_3703" x1="1074.25" y1="227.979" x2="1072.5" y2="227.979" gradientUnits="userSpaceOnUse"><stop stop-color="#5761D7"/><stop offset=".178" stop-color="#5C66D9"/><stop offset=".388" stop-color="#6A73DF"/><stop offset=".613" stop-color="#8289E8"/><stop offset=".849" stop-color="#A3A7F5"/><stop offset="1" stop-color="#BCBEFF"/></linearGradient><linearGradient id="paint55_linear_146_3703" x1="1050.3" y1="284.025" x2="1050.3" y2="174.451" gradientUnits="userSpaceOnUse"><stop stop-color="#C0BFF6"/><stop offset=".294" stop-color="#C5C4F7"/><stop offset=".64" stop-color="#D3D2F9"/><stop offset="1" stop-color="#E9E9FD"/></linearGradient><linearGradient id="paint56_linear_146_3703" x1="1108.44" y1="167.985" x2="1058.48" y2="167.985" gradientUnits="userSpaceOnUse"><stop/><stop offset=".047" stop-color="#2F2F2F"/><stop offset=".098" stop-color="#5A5A5A"/><stop offset=".155" stop-color="#828282"/><stop offset=".216" stop-color="#A4A4A4"/><stop offset=".283" stop-color="silver"/><stop offset=".357" stop-color="#D7D7D7"/><stop offset=".442" stop-color="#E9E9E9"/><stop offset=".544" stop-color="#F6F6F6"/><stop offset=".681" stop-color="#FDFDFD"/><stop offset="1" stop-color="#fff"/></linearGradient><linearGradient id="paint57_linear_146_3703" x1="1108.44" y1="167.985" x2="1058.48" y2="167.985" gradientUnits="userSpaceOnUse"><stop stop-color="#E9E9FD"/><stop offset=".037" stop-color="#D3D5F7"/><stop offset=".106" stop-color="#B2B6EF"/><stop offset=".182" stop-color="#969BE7"/><stop offset=".266" stop-color="#7F86E1"/><stop offset=".363" stop-color="#6D75DD"/><stop offset=".48" stop-color="#606AD9"/><stop offset=".636" stop-color="#5963D8"/><stop offset="1" stop-color="#5761D7"/></linearGradient><linearGradient id="paint58_linear_146_3703" x1="1110.64" y1="168.839" x2="1043.77" y2="168.839" gradientUnits="userSpaceOnUse"><stop stop-color="#5761D7"/><stop offset=".178" stop-color="#5C66D9"/><stop offset=".388" stop-color="#6A73DF"/><stop offset=".613" stop-color="#8289E8"/><stop offset=".849" stop-color="#A3A7F5"/><stop offset="1" stop-color="#BCBEFF"/></linearGradient><linearGradient id="paint59_linear_146_3703" x1="1110.64" y1="167.067" x2="1040.35" y2="167.067" gradientUnits="userSpaceOnUse"><stop stop-color="#C0BFF6"/><stop offset=".294" stop-color="#C5C4F7"/><stop offset=".64" stop-color="#D3D2F9"/><stop offset="1" stop-color="#E9E9FD"/></linearGradient><linearGradient id="paint60_linear_146_3703" x1="1095.23" y1="157.125" x2="1086.96" y2="157.125" gradientUnits="userSpaceOnUse"><stop stop-color="#5761D7"/><stop offset=".178" stop-color="#5C66D9"/><stop offset=".388" stop-color="#6A73DF"/><stop offset=".613" stop-color="#8289E8"/><stop offset=".849" stop-color="#A3A7F5"/><stop offset="1" stop-color="#BCBEFF"/></linearGradient><linearGradient id="paint61_linear_146_3703" x1="1093.09" y1="158.378" x2="1084.82" y2="158.378" gradientUnits="userSpaceOnUse"><stop stop-color="#5761D7"/><stop offset=".178" stop-color="#5C66D9"/><stop offset=".388" stop-color="#6A73DF"/><stop offset=".613" stop-color="#8289E8"/><stop offset=".849" stop-color="#A3A7F5"/><stop offset="1" stop-color="#BCBEFF"/></linearGradient><linearGradient id="paint62_linear_146_3703" x1="1090.94" y1="159.632" x2="1082.67" y2="159.632" gradientUnits="userSpaceOnUse"><stop stop-color="#5761D7"/><stop offset=".178" stop-color="#5C66D9"/><stop offset=".388" stop-color="#6A73DF"/><stop offset=".613" stop-color="#8289E8"/><stop offset=".849" stop-color="#A3A7F5"/><stop offset="1" stop-color="#BCBEFF"/></linearGradient><linearGradient id="paint63_linear_146_3703" x1="1088.79" y1="160.885" x2="1080.52" y2="160.885" gradientUnits="userSpaceOnUse"><stop stop-color="#5761D7"/><stop offset=".178" stop-color="#5C66D9"/><stop offset=".388" stop-color="#6A73DF"/><stop offset=".613" stop-color="#8289E8"/><stop offset=".849" stop-color="#A3A7F5"/><stop offset="1" stop-color="#BCBEFF"/></linearGradient><linearGradient id="paint64_linear_146_3703" x1="1082.51" y1="164.586" x2="1074.24" y2="164.586" gradientUnits="userSpaceOnUse"><stop stop-color="#5761D7"/><stop offset=".178" stop-color="#5C66D9"/><stop offset=".388" stop-color="#6A73DF"/><stop offset=".613" stop-color="#8289E8"/><stop offset=".849" stop-color="#A3A7F5"/><stop offset="1" stop-color="#BCBEFF"/></linearGradient><linearGradient id="paint65_linear_146_3703" x1="1080.37" y1="165.839" x2="1072.1" y2="165.839" gradientUnits="userSpaceOnUse"><stop stop-color="#5761D7"/><stop offset=".178" stop-color="#5C66D9"/><stop offset=".388" stop-color="#6A73DF"/><stop offset=".613" stop-color="#8289E8"/><stop offset=".849" stop-color="#A3A7F5"/><stop offset="1" stop-color="#BCBEFF"/></linearGradient><linearGradient id="paint66_linear_146_3703" x1="1078.22" y1="167.093" x2="1069.95" y2="167.093" gradientUnits="userSpaceOnUse"><stop stop-color="#5761D7"/><stop offset=".178" stop-color="#5C66D9"/><stop offset=".388" stop-color="#6A73DF"/><stop offset=".613" stop-color="#8289E8"/><stop offset=".849" stop-color="#A3A7F5"/><stop offset="1" stop-color="#BCBEFF"/></linearGradient><linearGradient id="paint67_linear_146_3703" x1="1076.07" y1="168.346" x2="1067.8" y2="168.346" gradientUnits="userSpaceOnUse"><stop stop-color="#5761D7"/><stop offset=".178" stop-color="#5C66D9"/><stop offset=".388" stop-color="#6A73DF"/><stop offset=".613" stop-color="#8289E8"/><stop offset=".849" stop-color="#A3A7F5"/><stop offset="1" stop-color="#BCBEFF"/></linearGradient><linearGradient id="paint68_linear_146_3703" x1="1069.8" y1="172.046" x2="1061.52" y2="172.046" gradientUnits="userSpaceOnUse"><stop stop-color="#5761D7"/><stop offset=".178" stop-color="#5C66D9"/><stop offset=".388" stop-color="#6A73DF"/><stop offset=".613" stop-color="#8289E8"/><stop offset=".849" stop-color="#A3A7F5"/><stop offset="1" stop-color="#BCBEFF"/></linearGradient><linearGradient id="paint69_linear_146_3703" x1="1067.65" y1="173.3" x2="1059.38" y2="173.3" gradientUnits="userSpaceOnUse"><stop stop-color="#5761D7"/><stop offset=".178" stop-color="#5C66D9"/><stop offset=".388" stop-color="#6A73DF"/><stop offset=".613" stop-color="#8289E8"/><stop offset=".849" stop-color="#A3A7F5"/><stop offset="1" stop-color="#BCBEFF"/></linearGradient><linearGradient id="paint70_linear_146_3703" x1="1071.4" y1="193.533" x2="1069.28" y2="193.533" gradientUnits="userSpaceOnUse"><stop stop-color="#C0BFF6"/><stop offset=".294" stop-color="#C5C4F7"/><stop offset=".64" stop-color="#D3D2F9"/><stop offset="1" stop-color="#E9E9FD"/></linearGradient><linearGradient id="paint71_linear_146_3703" x1="1071.66" y1="193.752" x2="1069.91" y2="193.752" gradientUnits="userSpaceOnUse"><stop stop-color="#5761D7"/><stop offset=".178" stop-color="#5C66D9"/><stop offset=".388" stop-color="#6A73DF"/><stop offset=".613" stop-color="#8289E8"/><stop offset=".849" stop-color="#A3A7F5"/><stop offset="1" stop-color="#BCBEFF"/></linearGradient><linearGradient id="paint72_linear_146_3703" x1="1114.71" y1="168.312" x2="1112.59" y2="168.312" gradientUnits="userSpaceOnUse"><stop stop-color="#C0BFF6"/><stop offset=".294" stop-color="#C5C4F7"/><stop offset=".64" stop-color="#D3D2F9"/><stop offset="1" stop-color="#E9E9FD"/></linearGradient><linearGradient id="paint73_linear_146_3703" x1="1114.96" y1="168.531" x2="1113.21" y2="168.531" gradientUnits="userSpaceOnUse"><stop stop-color="#5761D7"/><stop offset=".178" stop-color="#5C66D9"/><stop offset=".388" stop-color="#6A73DF"/><stop offset=".613" stop-color="#8289E8"/><stop offset=".849" stop-color="#A3A7F5"/><stop offset="1" stop-color="#BCBEFF"/></linearGradient><linearGradient id="paint74_linear_146_3703" x1="1071.4" y1="278.946" x2="1069.28" y2="278.946" gradientUnits="userSpaceOnUse"><stop stop-color="#C0BFF6"/><stop offset=".294" stop-color="#C5C4F7"/><stop offset=".64" stop-color="#D3D2F9"/><stop offset="1" stop-color="#E9E9FD"/></linearGradient><linearGradient id="paint75_linear_146_3703" x1="1071.66" y1="279.194" x2="1069.91" y2="279.194" gradientUnits="userSpaceOnUse"><stop stop-color="#5761D7"/><stop offset=".178" stop-color="#5C66D9"/><stop offset=".388" stop-color="#6A73DF"/><stop offset=".613" stop-color="#8289E8"/><stop offset=".849" stop-color="#A3A7F5"/><stop offset="1" stop-color="#BCBEFF"/></linearGradient><linearGradient id="paint76_linear_146_3703" x1="1071.4" y1="279.129" x2="1069.28" y2="279.129" gradientUnits="userSpaceOnUse"><stop stop-color="#C0BFF6"/><stop offset=".294" stop-color="#C5C4F7"/><stop offset=".64" stop-color="#D3D2F9"/><stop offset="1" stop-color="#E9E9FD"/></linearGradient><linearGradient id="paint77_linear_146_3703" x1="1071.66" y1="279.129" x2="1069.91" y2="279.129" gradientUnits="userSpaceOnUse"><stop stop-color="#5761D7"/><stop offset=".178" stop-color="#5C66D9"/><stop offset=".388" stop-color="#6A73DF"/><stop offset=".613" stop-color="#8289E8"/><stop offset=".849" stop-color="#A3A7F5"/><stop offset="1" stop-color="#BCBEFF"/></linearGradient><linearGradient id="paint78_linear_146_3703" x1="1114.71" y1="253.726" x2="1112.59" y2="253.726" gradientUnits="userSpaceOnUse"><stop stop-color="#C0BFF6"/><stop offset=".294" stop-color="#C5C4F7"/><stop offset=".64" stop-color="#D3D2F9"/><stop offset="1" stop-color="#E9E9FD"/></linearGradient><linearGradient id="paint79_linear_146_3703" x1="1114.96" y1="253.973" x2="1113.21" y2="253.973" gradientUnits="userSpaceOnUse"><stop stop-color="#5761D7"/><stop offset=".178" stop-color="#5C66D9"/><stop offset=".388" stop-color="#6A73DF"/><stop offset=".613" stop-color="#8289E8"/><stop offset=".849" stop-color="#A3A7F5"/><stop offset="1" stop-color="#BCBEFF"/></linearGradient><linearGradient id="paint80_linear_146_3703" x1="1114.71" y1="253.909" x2="1112.59" y2="253.909" gradientUnits="userSpaceOnUse"><stop stop-color="#C0BFF6"/><stop offset=".294" stop-color="#C5C4F7"/><stop offset=".64" stop-color="#D3D2F9"/><stop offset="1" stop-color="#E9E9FD"/></linearGradient><linearGradient id="paint81_linear_146_3703" x1="1114.96" y1="253.909" x2="1113.21" y2="253.909" gradientUnits="userSpaceOnUse"><stop stop-color="#5761D7"/><stop offset=".178" stop-color="#5C66D9"/><stop offset=".388" stop-color="#6A73DF"/><stop offset=".613" stop-color="#8289E8"/><stop offset=".849" stop-color="#A3A7F5"/><stop offset="1" stop-color="#BCBEFF"/></linearGradient><linearGradient id="paint82_linear_146_3703" x1="553.609" y1="245.053" x2="553.732" y2="259.852" gradientUnits="userSpaceOnUse"><stop stop-color="#fff"/><stop offset=".231" stop-color="#fff" stop-opacity="0"/></linearGradient><linearGradient id="paint83_linear_146_3703" x1="491.927" y1="238.773" x2="515.042" y2="282.491" gradientUnits="userSpaceOnUse"><stop offset=".12" stop-color="#fff"/><stop offset=".382" stop-color="#fff" stop-opacity="0"/></linearGradient><linearGradient id="paint84_linear_146_3703" x1="829.384" y1="109.403" x2="829.596" y2="135.016" gradientUnits="userSpaceOnUse"><stop stop-color="#fff"/><stop offset=".231" stop-color="#fff" stop-opacity="0"/></linearGradient><linearGradient id="paint85_linear_146_3703" x1="722.626" y1="98.533" x2="762.633" y2="174.198" gradientUnits="userSpaceOnUse"><stop offset=".12" stop-color="#fff"/><stop offset=".382" stop-color="#fff" stop-opacity="0"/></linearGradient><linearGradient id="paint86_linear_146_3703" x1="556.846" y1="65.978" x2="556.968" y2="80.776" gradientUnits="userSpaceOnUse"><stop stop-color="#fff"/><stop offset=".231" stop-color="#fff" stop-opacity="0"/></linearGradient><linearGradient id="paint87_linear_146_3703" x1="495.163" y1="59.697" x2="518.278" y2="103.415" gradientUnits="userSpaceOnUse"><stop offset=".12" stop-color="#fff"/><stop offset=".382" stop-color="#fff" stop-opacity="0"/></linearGradient><clipPath id="clip0_146_3703"><path fill="#fff" transform="matrix(-1 0 0 1 1122.47 93.138)" d="M0 0h175.309v202.809H0z"/></clipPath></defs></svg>