<svg width="215" height="209" fill="none" xmlns="http://www.w3.org/2000/svg"><path d="M2.334 178.72h8.508c3.355 0 5.965.962 7.828 2.887 1.863 1.925 2.794 4.648 2.794 8.168 0 3.531-.936 6.284-2.81 8.26-1.863 1.977-4.467 2.965-7.812 2.965H2.334v-22.28zm4.663 3.844v14.576h3.289c2.09 0 3.68-.623 4.77-1.868 1.102-1.256 1.653-3.083 1.653-5.482 0-2.326-.556-4.112-1.668-5.357-1.111-1.246-2.697-1.869-4.755-1.869H6.997zm17.795-3.844h8.507c3.356 0 5.965.962 7.828 2.887 1.863 1.925 2.795 4.648 2.795 8.168 0 3.531-.937 6.284-2.81 8.26-1.863 1.977-4.468 2.965-7.813 2.965h-8.507v-22.28zm4.662 3.844v14.576h3.29c2.089 0 3.68-.623 4.77-1.868 1.102-1.256 1.652-3.083 1.652-5.482 0-2.326-.555-4.112-1.667-5.357-1.112-1.246-2.697-1.869-4.756-1.869h-3.289zm19.988-1.127c1.935-2.069 4.554-3.103 7.859-3.103 3.304 0 5.918 1.034 7.843 3.103 1.935 2.069 2.903 4.879 2.903 8.431 0 3.541-.968 6.346-2.903 8.415-1.935 2.069-4.55 3.103-7.843 3.103-3.305 0-5.924-1.034-7.86-3.103-1.924-2.069-2.887-4.874-2.887-8.415 0-3.552.963-6.362 2.888-8.431zm12.213 2.857c-1.081-1.38-2.532-2.069-4.354-2.069s-3.279.689-4.37 2.069c-1.08 1.379-1.621 3.237-1.621 5.574 0 2.326.54 4.179 1.621 5.558 1.08 1.369 2.537 2.054 4.37 2.054 1.822 0 3.273-.685 4.354-2.054 1.08-1.379 1.621-3.232 1.621-5.558 0-2.337-.54-4.195-1.621-5.574zm8.885 10.36h4.493c.103.906.582 1.642 1.436 2.208.865.556 1.92.834 3.166.834 1.235 0 2.239-.263 3.01-.788.783-.535 1.174-1.214 1.174-2.038 0-.72-.288-1.302-.865-1.745-.576-.442-1.538-.813-2.887-1.111l-2.903-.633c-4.086-.875-6.13-2.949-6.13-6.223 0-2.038.793-3.685 2.378-4.941 1.596-1.255 3.644-1.883 6.145-1.883 2.574 0 4.627.612 6.161 1.837 1.534 1.215 2.321 2.836 2.362 4.864h-4.37c-.071-.937-.488-1.673-1.25-2.208-.751-.546-1.714-.819-2.887-.819-1.153 0-2.084.253-2.795.757-.7.504-1.05 1.168-1.05 1.992 0 .679.283 1.23.85 1.652.576.422 1.507.782 2.794 1.081l2.702.571c2.234.474 3.86 1.215 4.88 2.223 1.018.999 1.528 2.347 1.528 4.046 0 2.161-.813 3.88-2.44 5.157-1.626 1.266-3.824 1.899-6.593 1.899-2.686 0-4.827-.597-6.423-1.791-1.585-1.204-2.414-2.851-2.486-4.941zm34.601 0h4.493c.103.906.582 1.642 1.436 2.208.865.556 1.92.834 3.166.834 1.235 0 2.238-.263 3.011-.788.782-.535 1.173-1.214 1.173-2.038 0-.72-.288-1.302-.865-1.745-.576-.442-1.539-.813-2.887-1.111l-2.903-.633c-4.086-.875-6.13-2.949-6.13-6.223 0-2.038.793-3.685 2.378-4.941 1.596-1.255 3.644-1.883 6.145-1.883 2.574 0 4.627.612 6.161 1.837 1.534 1.215 2.321 2.836 2.362 4.864h-4.369c-.072-.937-.489-1.673-1.251-2.208-.751-.546-1.714-.819-2.887-.819-1.153 0-2.085.253-2.795.757-.7.504-1.05 1.168-1.05 1.992 0 .679.283 1.23.849 1.652.577.422 1.508.782 2.795 1.081l2.702.571c2.234.474 3.86 1.215 4.879 2.223 1.019.999 1.529 2.347 1.529 4.046 0 2.161-.813 3.88-2.44 5.157-1.626 1.266-3.824 1.899-6.593 1.899-2.686 0-4.827-.597-6.423-1.791-1.585-1.204-2.414-2.851-2.486-4.941zm31.12 6.346h-4.663v-18.436h-6.439v-3.844h17.556v3.844h-6.454V201zm10.306-19.563c1.935-2.069 4.555-3.103 7.859-3.103 3.304 0 5.919 1.034 7.844 3.103 1.935 2.069 2.902 4.879 2.902 8.431 0 3.541-.967 6.346-2.902 8.415-1.936 2.069-4.55 3.103-7.844 3.103-3.304 0-5.924-1.034-7.859-3.103-1.925-2.069-2.887-4.874-2.887-8.415 0-3.552.962-6.362 2.887-8.431zm12.213 2.857c-1.081-1.38-2.532-2.069-4.354-2.069s-3.278.689-4.37 2.069c-1.08 1.379-1.621 3.237-1.621 5.574 0 2.326.541 4.179 1.621 5.558 1.081 1.369 2.538 2.054 4.37 2.054 1.822 0 3.273-.685 4.354-2.054 1.081-1.379 1.621-3.232 1.621-5.558 0-2.337-.54-4.195-1.621-5.574zm14.382-1.93v7.102h4.015c1.173 0 2.084-.314 2.733-.942.659-.628.988-1.497.988-2.609 0-1.081-.34-1.94-1.019-2.579-.679-.648-1.596-.972-2.748-.972h-3.969zm0 10.484V201h-4.663v-22.28h9.126c2.542 0 4.518.633 5.929 1.899 1.42 1.256 2.13 2.99 2.13 5.203 0 1.452-.36 2.749-1.08 3.891-.711 1.132-1.699 1.946-2.965 2.44l4.694 8.847h-5.281l-4.153-8.152h-3.737zM212.666 201h-4.153v-15.039h-.124l-6.053 14.823h-2.933l-6.053-14.823h-.123V201h-4.154v-22.28h5.404l6.331 15.795h.123l6.331-15.795h5.404V201z" fill="#B1BEFF"/><path d="M101.876 193.913H91.732v-3.937h10.144v3.937z" fill="#7A8EF6"/><path fill="#B1BEFF" d="M187.237 92.782v5.947H144.12v-5.947z"/><path fill="#7A8EF6" d="M27.763 59.229v5.947H70.88v-5.947z"/><circle cx="199.875" cy="95.508" r="6.195" transform="rotate(90 199.875 95.508)" fill="#B1BEFF"/><circle r="6.195" transform="matrix(0 1 1 0 15.125 61.955)" fill="#7A8EF6"/><circle cx="199.875" cy="95.507" r="12.864" transform="rotate(90 199.875 95.507)" stroke="#B1BEFF" stroke-width="2.522"/><circle r="12.864" transform="matrix(0 1 1 0 15.125 61.955)" stroke="#7A8EF6" stroke-width="2.522"/><path d="M105.092 165.582c4.708-2.28 22.054-12.093 42.671-36.08-.545 0-1.041.049-1.586.049-3.717 0-7.583-.247-11.547-.693a108.981 108.981 0 01-16.851-3.222 134.558 134.558 0 01-14.125-4.559v44.753c.446.049.992-.05 1.438-.248z" fill="#7A8EF6"/><path d="M171.851 16.248h0v.005c.279 4.364.645 12.847.482 23.304a70.44 70.44 0 00-1.217-1.395c-6.224-7.02-13.341-13.789-21.251-20.157h0l-.004-.003-.003-.002c-.81-.643-1.623-1.287-2.437-1.924.638.02 1.276.03 1.925.03 5.745.05 11.485-.45 17.168-1.347h0l.006-.001.379-.063c.772-.128 1.594-.263 2.415-.436 1.258-.215 2.464.718 2.537 1.989z" fill="#7A8EF6" stroke="url(#paint0_linear_223_5746)" stroke-width="1.487"/><path d="M108.412 2.974c-.694-.595-1.437-1.09-2.131-1.685-.694-.546-1.338-1.24-2.28-1.289-.149 0-.248 0-.397.05v106.654c6.047 2.775 12.143 5.104 18.239 6.938 9.664 2.875 18.882 4.361 27.308 4.361.693 0 1.387 0 2.032-.049 1.982-.05 3.915-.248 5.798-.496 10.705-17.197 14.521-43.563 15.661-65.568-45.149-34.246-62.991-47.876-64.23-48.916zm-21.51 110.568l-1.784-.941h-.1l-1.734-.992-1.04-.594c-.794-.446-1.636-.942-2.479-1.388l-3.42-2.032h-.099l-3.32-2.131c-4.46-2.974-8.772-6.096-12.737-9.268-4.064-3.32-7.93-6.79-11.548-10.309-.842-.793-1.685-1.685-2.676-2.725l-2.528-2.726c-.644-.694-1.238-1.338-1.784-2.032-.247-.298-.495-.545-.743-.843l-1.24-1.387-.049-.05v-.05l-1.19-1.437c-.594-.743-1.189-1.437-1.734-2.18 2.478 18.733 7.484 37.665 17.198 49.857 23.343 29.191 43.514 40.789 48.668 43.366.347.148.694.248 1.09.297v-44.753c-.594-.248-1.189-.446-1.784-.694-5.253-2.23-10.259-4.51-14.967-6.988z" fill="#B1BEFF"/><path d="M98.96 4.684l.008-.005a59.628 59.628 0 003.398-2.613v102.621c-2.418-1.169-4.819-2.377-7.184-3.678l-.006-.003a148.723 148.723 0 01-12.335-7.47 196.778 196.778 0 01-11.518-8.465c-3.692-3.003-7.233-6.102-10.525-9.247h-.001c-3.183-3.037-6.227-6.325-9.382-9.973-6.08-7.11-10.92-14.448-14.435-21.817l-1.228-2.728c-.188-11.246.204-20.426.497-25.02h0v-.009c.054-.937.955-1.654 1.965-1.478 5.755 1.051 11.669 1.703 17.542 1.804 4.981.1 9.909-.252 14.83-1.005l.01-.002c4.07-.653 8.15-1.61 12.087-2.921a64.316 64.316 0 009.435-3.935 51.79 51.79 0 006.843-4.056z" fill="#7A8EF6" stroke="url(#paint1_linear_223_5746)" stroke-width="2.478"/><defs><linearGradient id="paint0_linear_223_5746" x1="158.861" y1="12.389" x2="159.102" y2="41.58" gradientUnits="userSpaceOnUse"><stop stop-color="#fff"/><stop offset=".231" stop-color="#fff" stop-opacity="0"/></linearGradient><linearGradient id="paint1_linear_223_5746" x1="37.19" y1="0" x2="82.785" y2="86.236" gradientUnits="userSpaceOnUse"><stop offset=".12" stop-color="#fff"/><stop offset=".382" stop-color="#fff" stop-opacity="0"/></linearGradient></defs></svg>