<svg width="28" height="28" fill="none" xmlns="http://www.w3.org/2000/svg"><path fill-rule="evenodd" clip-rule="evenodd" d="M26.728 13.947c0-.967-.087-1.897-.248-2.79H13.637v5.275h7.339a6.273 6.273 0 01-2.721 4.116v3.422h4.407c2.578-2.374 4.066-5.87 4.066-10.023z" fill="#4285F4"/><path fill-rule="evenodd" clip-rule="evenodd" d="M13.637 27.273c3.682 0 6.769-1.22 9.025-3.303l-4.407-3.422c-1.221.818-2.783 1.302-4.618 1.302-3.552 0-6.558-2.399-7.63-5.622H1.45v3.533c2.244 4.457 6.855 7.512 12.186 7.512z" fill="#34A853"/><path fill-rule="evenodd" clip-rule="evenodd" d="M6.006 16.228a8.197 8.197 0 01-.427-2.591c0-.899.155-1.773.427-2.591V7.513H1.45A13.631 13.631 0 000 13.637c0 2.2.527 4.283 1.45 6.124l4.556-3.533z" fill="#FBBC05"/><path fill-rule="evenodd" clip-rule="evenodd" d="M13.637 5.424c2.002 0 3.8.688 5.213 2.039l3.911-3.911C20.399 1.352 17.313 0 13.637 0 8.307 0 3.695 3.056 1.45 7.513l4.556 3.533c1.072-3.224 4.078-5.622 7.63-5.622z" fill="#EA4335"/></svg>