<svg width="85" height="66" fill="none" xmlns="http://www.w3.org/2000/svg"><path fill="#B1BEFF" d="M73.854 36.793v2.358h-17.1v-2.358z"/><path fill="#7A8EF6" d="M10.613 23.488v2.358h17.099v-2.358z"/><circle cx="78.866" cy="37.874" r="2.457" transform="rotate(90 78.866 37.874)" fill="#B1BEFF"/><circle r="2.457" transform="matrix(0 1 1 0 5.601 24.569)" fill="#7A8EF6"/><circle cx="78.866" cy="37.874" r="5.101" transform="rotate(90 78.866 37.874)" stroke="#B1BEFF"/><circle r="5.101" transform="matrix(0 1 1 0 5.601 24.569)" stroke="#7A8EF6"/><path d="M41.278 65.663c1.867-.904 8.746-4.795 16.922-14.308-.216 0-.413.02-.629.02-1.474 0-3.007-.098-4.58-.275a43.175 43.175 0 01-6.681-1.278 53.362 53.362 0 01-5.602-1.808v17.747c.177.02.393-.02.57-.098z" fill="#7A8EF6"/><path d="M67.752 6.443v.002c.11 1.731.256 5.095.192 9.242-.16-.188-.322-.373-.483-.553-2.468-2.784-5.29-5.469-8.428-7.994h0l-.001-.001h-.001a170.05 170.05 0 00-.966-.764c.252.008.506.012.763.012 2.278.02 4.554-.178 6.808-.534h.002l.15-.025c.307-.051.633-.105.958-.173a.864.864 0 011.006.788z" fill="#7A8EF6" stroke="url(#paint0_linear_164_3914)" stroke-width=".59"/><path d="M42.595 1.18c-.275-.237-.57-.433-.845-.669-.275-.216-.53-.491-.904-.511-.06 0-.098 0-.157.02v42.294a56.112 56.112 0 007.232 2.752c3.833 1.14 7.488 1.73 10.83 1.73.274 0 .55 0 .805-.02a21.93 21.93 0 002.3-.197c4.245-6.82 5.758-17.275 6.21-26.002C50.162 6.997 43.086 1.592 42.595 1.18zm-8.53 43.846l-.707-.373h-.04l-.687-.393-.413-.236c-.315-.177-.649-.373-.983-.55l-1.356-.806h-.04l-1.316-.845a72.59 72.59 0 01-5.051-3.675 71.184 71.184 0 01-4.58-4.089c-.334-.314-.668-.668-1.06-1.08l-1.003-1.081a13.029 13.029 0 01-.707-.806c-.099-.118-.197-.216-.295-.334l-.492-.55-.02-.02v-.02l-.471-.57c-.236-.295-.472-.57-.688-.865.983 7.43 2.968 14.937 6.82 19.772 9.257 11.576 17.256 16.175 19.3 17.197.137.059.275.098.432.118V48.073c-.236-.099-.471-.177-.707-.276-2.084-.884-4.069-1.788-5.936-2.77z" fill="#B1BEFF"/><path d="M38.847 1.858l.003-.002A23.52 23.52 0 0040.197.82v40.695a60.848 60.848 0 01-2.849-1.459h-.002a58.97 58.97 0 01-4.892-2.963 77.964 77.964 0 01-4.567-3.357 70.104 70.104 0 01-4.174-3.667h0c-1.262-1.204-2.47-2.508-3.72-3.955-2.411-2.819-4.331-5.73-5.725-8.652l-.487-1.082c-.074-4.46.081-8.1.197-9.922h0v-.003c.022-.371.379-.656.78-.586 2.282.417 4.627.675 6.956.715 1.975.04 3.93-.1 5.881-.398h.004a30.475 30.475 0 004.793-1.16c1.279-.42 2.54-.94 3.742-1.56a20.546 20.546 0 002.713-1.608z" fill="#7A8EF6" stroke="url(#paint1_linear_164_3914)" stroke-width=".983"/><defs><linearGradient id="paint0_linear_164_3914" x1="62.601" y1="4.913" x2="62.697" y2="16.489" gradientUnits="userSpaceOnUse"><stop stop-color="#fff"/><stop offset=".231" stop-color="#fff" stop-opacity="0"/></linearGradient><linearGradient id="paint1_linear_164_3914" x1="14.351" y1="0" x2="32.433" y2="34.198" gradientUnits="userSpaceOnUse"><stop offset=".12" stop-color="#fff"/><stop offset=".382" stop-color="#fff" stop-opacity="0"/></linearGradient></defs></svg>