<svg width="96" height="28" fill="none" xmlns="http://www.w3.org/2000/svg"><path fill-rule="evenodd" clip-rule="evenodd" d="M26.728 13.947c0-.967-.087-1.897-.248-2.79H13.637v5.275h7.339a6.273 6.273 0 01-2.721 4.116v3.422h4.407c2.578-2.374 4.066-5.87 4.066-10.023z" fill="#4285F4"/><path fill-rule="evenodd" clip-rule="evenodd" d="M13.637 27.273c3.682 0 6.769-1.22 9.025-3.303l-4.407-3.422c-1.221.818-2.783 1.302-4.618 1.302-3.552 0-6.558-2.399-7.63-5.622H1.45v3.533c2.244 4.457 6.855 7.512 12.186 7.512z" fill="#34A853"/><path fill-rule="evenodd" clip-rule="evenodd" d="M6.006 16.228a8.197 8.197 0 01-.427-2.591c0-.899.155-1.773.427-2.591V7.513H1.45A13.631 13.631 0 000 13.637c0 2.2.527 4.283 1.45 6.124l4.556-3.533z" fill="#FBBC05"/><path fill-rule="evenodd" clip-rule="evenodd" d="M13.637 5.424c2.002 0 3.8.688 5.213 2.039l3.911-3.911C20.399 1.352 17.313 0 13.637 0 8.307 0 3.695 3.056 1.45 7.513l4.556 3.533c1.072-3.224 4.078-5.622 7.63-5.622z" fill="#EA4335"/><path d="M48.484 13.46v4.888c-.181.24-.465.504-.852.79-.381.282-.888.525-1.52.73-.634.205-1.422.308-2.365.308a5.844 5.844 0 01-2.206-.404 4.832 4.832 0 01-1.731-1.205c-.48-.527-.853-1.169-1.117-1.924-.263-.762-.395-1.63-.395-2.602v-.888c0-.966.12-1.828.36-2.584.246-.761.598-1.406 1.055-1.933a4.408 4.408 0 011.652-1.196c.65-.275 1.386-.413 2.206-.413 1.05 0 1.916.176 2.602.528.691.345 1.224.826 1.6 1.441.374.615.612 1.319.711 2.11h-2.162a3.401 3.401 0 00-.413-1.196 2.093 2.093 0 00-.861-.826c-.37-.205-.85-.308-1.442-.308-.51 0-.958.097-1.344.29a2.542 2.542 0 00-.967.853c-.252.375-.443.832-.571 1.371a7.971 7.971 0 00-.194 1.846v.905c0 .703.073 1.327.22 1.872.152.545.37 1.005.65 1.38.288.375.636.66 1.046.852.41.188.873.282 1.389.282.504 0 .917-.041 1.24-.123.322-.088.576-.19.764-.308.193-.123.343-.24.448-.351v-2.54h-2.663V13.46h4.86zm1.828 1.89v-.202c0-.685.1-1.32.3-1.907a4.527 4.527 0 01.86-1.538c.381-.44.844-.78 1.39-1.02.55-.245 1.171-.368 1.863-.368.697 0 1.318.123 1.863.369.55.24 1.017.58 1.397 1.02.381.433.671.945.87 1.537.2.586.3 1.222.3 1.907v.203c0 .685-.1 1.32-.3 1.907a4.561 4.561 0 01-.87 1.538c-.38.434-.843.773-1.388 1.02-.545.24-1.163.36-1.855.36-.697 0-1.321-.12-1.872-.36a4.032 4.032 0 01-1.389-1.02c-.38-.44-.67-.952-.87-1.538a5.89 5.89 0 01-.298-1.907zm2.119-.202v.203c0 .427.044.832.132 1.213.087.38.225.714.413 1.001.187.287.427.513.72.677.293.164.642.246 1.046.246.393 0 .733-.082 1.02-.246.293-.164.533-.39.72-.677.188-.287.326-.62.413-1.002a5.04 5.04 0 00.141-1.212v-.203c0-.421-.047-.82-.14-1.195a3.07 3.07 0 00-.422-1.01 2.017 2.017 0 00-.721-.686c-.287-.17-.63-.255-1.028-.255-.399 0-.745.085-1.038.255a2.04 2.04 0 00-.711.685 3.19 3.19 0 00-.413 1.011 5.226 5.226 0 00-.132 1.195zm8.094.203v-.203c0-.685.1-1.32.3-1.907a4.51 4.51 0 01.86-1.538c.381-.44.844-.78 1.39-1.02.55-.245 1.171-.368 1.862-.368.698 0 1.319.123 1.864.369.55.24 1.016.58 1.397 1.02.381.433.671.945.87 1.537.2.586.3 1.222.3 1.907v.203c0 .685-.1 1.32-.3 1.907a4.561 4.561 0 01-.87 1.538 4.03 4.03 0 01-1.388 1.02c-.545.24-1.163.36-1.855.36-.697 0-1.321-.12-1.872-.36a4.032 4.032 0 01-1.389-1.02c-.38-.44-.67-.952-.87-1.538a5.89 5.89 0 01-.299-1.907zm2.119-.203v.203c0 .427.044.832.131 1.213.088.38.226.714.413 1.001.188.287.428.513.721.677.293.164.642.246 1.046.246.393 0 .733-.082 1.02-.246.293-.164.533-.39.72-.677.188-.287.326-.62.413-1.002a5.04 5.04 0 00.141-1.212v-.203c0-.421-.047-.82-.14-1.195a3.07 3.07 0 00-.422-1.01 2.017 2.017 0 00-.721-.686c-.287-.17-.63-.255-1.028-.255-.399 0-.745.085-1.038.255a2.04 2.04 0 00-.712.685 3.19 3.19 0 00-.413 1.011 5.226 5.226 0 00-.131 1.195zm14.59-4.658h1.924v9.246c0 .856-.181 1.582-.545 2.18a3.502 3.502 0 01-1.52 1.362c-.65.317-1.404.475-2.259.475-.363 0-.768-.053-1.213-.158a4.97 4.97 0 01-1.283-.51 3.182 3.182 0 01-1.028-.905l.993-1.248c.34.404.715.7 1.125.887.41.188.84.282 1.292.282.486 0 .9-.091 1.239-.273.346-.176.612-.436.8-.782.187-.346.281-.768.281-1.266v-7.136l.193-2.154zm-6.46 4.86v-.184c0-.72.087-1.377.263-1.969.176-.597.428-1.11.756-1.538a3.297 3.297 0 011.195-.993c.469-.234 1-.351 1.591-.351.615 0 1.14.11 1.573.333.44.223.806.542 1.099.958.293.41.521.903.685 1.477.17.568.296 1.201.378 1.898v.59a9.56 9.56 0 01-.386 1.863 5.138 5.138 0 01-.721 1.459c-.299.41-.668.726-1.107.949-.434.223-.947.334-1.538.334-.58 0-1.105-.12-1.574-.36a3.58 3.58 0 01-1.195-1.011 4.787 4.787 0 01-.756-1.53 6.733 6.733 0 01-.264-1.924zm2.118-.184v.185c0 .433.04.838.123 1.213.088.375.22.706.395.993.182.28.41.504.686.668.281.158.612.237.993.237.498 0 .905-.106 1.222-.317.322-.21.568-.495.738-.852.176-.363.299-.768.369-1.213v-1.59a3.883 3.883 0 00-.22-.967 2.586 2.586 0 00-.43-.783 1.798 1.798 0 00-.686-.527 2.282 2.282 0 00-.976-.193c-.38 0-.712.082-.993.246-.281.164-.512.39-.694.676a3.349 3.349 0 00-.396 1.002 5.477 5.477 0 00-.131 1.222zM83.623 6.5V20h-2.127V6.5h2.127zm6.513 13.676c-.703 0-1.34-.114-1.907-.343a4.21 4.21 0 01-1.442-.976 4.325 4.325 0 01-.905-1.467 5.14 5.14 0 01-.317-1.82v-.351c0-.744.109-1.418.326-2.022a4.59 4.59 0 01.905-1.547 3.89 3.89 0 011.371-.993 4.264 4.264 0 011.714-.342c.68 0 1.274.114 1.784.342.51.229.932.551 1.266.967.34.41.591.9.755 1.468a6.54 6.54 0 01.255 1.88v.906h-7.347v-1.52h5.256v-.168a2.974 2.974 0 00-.229-1.072 1.822 1.822 0 00-.624-.808c-.281-.206-.656-.308-1.125-.308a1.91 1.91 0 00-.94.228 1.86 1.86 0 00-.677.642 3.376 3.376 0 00-.422 1.02c-.094.392-.14.835-.14 1.327v.351c0 .416.055.803.166 1.16.118.352.288.66.51.923.223.264.492.472.809.624.316.147.677.22 1.08.22.51 0 .965-.102 1.363-.308a3.123 3.123 0 001.037-.87l1.116 1.081a4.354 4.354 0 01-.8.862c-.328.27-.729.489-1.204.659-.468.17-1.013.255-1.634.255z" fill="#fff"/></svg>