<svg width="157" height="47" fill="none" xmlns="http://www.w3.org/2000/svg"><path d="M.163 32.298c0-2.332-.04-4.29-.163-6.038h4.297l.203 3.002h.12c.972-1.585 2.755-3.462 6.08-3.462 2.594 0 4.619 1.503 5.469 3.749h.083c.689-1.124 1.497-1.957 2.429-2.538 1.094-.791 2.354-1.211 3.972-1.211 3.283 0 6.604 2.29 6.604 8.792v11.95h-4.862V35.34c0-3.37-1.134-5.373-3.526-5.373-1.701 0-2.959 1.25-3.485 2.71-.121.494-.243 1.123-.243 1.703v12.164h-4.863v-11.75c0-2.826-1.093-4.828-3.405-4.828-1.86 0-3.116 1.5-3.566 2.915-.201.499-.283 1.084-.283 1.665v11.997H.163V32.298zM48.2 41.67c0 1.831.081 3.62.282 4.873h-4.498l-.323-2.248h-.123C42.32 45.88 40.255 47 37.706 47c-3.973 0-6.201-2.954-6.201-6.038 0-5.125 4.413-7.704 11.712-7.663v-.333c0-1.333-.53-3.54-4.015-3.54-1.946 0-3.971.625-5.308 1.498l-.972-3.331c1.459-.918 4.012-1.793 7.13-1.793 6.325 0 8.15 4.127 8.15 8.539v7.332H48.2zm-4.864-5.037c-3.526-.084-6.888.706-6.888 3.788 0 1.999 1.259 2.917 2.837 2.917 1.982 0 3.444-1.337 3.889-2.794a3.82 3.82 0 00.162-1.123v-2.788zm8.308-4.335c0-2.332-.042-4.29-.159-6.038h4.373l.242 3.044h.124c.85-1.585 2.998-3.504 6.28-3.504 3.446 0 7.01 2.29 7.01 8.708v12.035H64.53v-11.45c0-2.918-1.056-5.127-3.77-5.127-1.983 0-3.364 1.458-3.889 3-.161.457-.202 1.082-.202 1.663v11.914h-5.025V32.298h-.001zM91.12 18.113v22.723c0 2.082.084 4.333.163 5.706H86.83l-.204-3.205h-.082C85.368 45.585 82.976 47 80.1 47c-4.702 0-8.427-4.122-8.427-10.366-.043-6.79 4.09-10.833 8.831-10.833 2.714 0 4.66 1.166 5.551 2.671h.083V18.113h4.982zm-4.981 16.6c0-.414-.04-.914-.124-1.333-.445-1.994-2.023-3.62-4.293-3.62-3.202 0-4.987 2.915-4.987 6.705 0 3.704 1.785 6.413 4.948 6.413 2.022 0 3.807-1.417 4.292-3.625.124-.457.164-.959.164-1.499v-3.04zm8.507 11.829V26.26h5.028v20.282h-5.028zm8.55-13.742c0-2.749-.041-4.71-.16-6.54h4.337l.158 3.87h.165c.973-2.87 3.28-3.87 5.393-3.87.483 0 .767-.083 1.17 0v4.5a6.646 6.646 0 00-1.456-.167c-2.394 0-4.015 1.582-4.459 3.87-.078.46-.161 1.003-.161 1.587v10.493h-4.987V32.8zm13.375 13.742V26.26h5.021v20.282h-5.021z" fill="#fff"/><path d="M152.868 4.81c-2.487-2.915-5.132-1.596-7.232-.523-.884.448-7.265 4.167-7.265 4.167-3.496 1.481-6.218-.136-7.288-1.496a3.287 3.287 0 01-.277-.41l-.247-.443a19.994 19.994 0 00-1.403-2.153 11.992 11.992 0 00-1.006-1.182c-2.391-2.483-6.215-4.22-12.605-1.063-3.025 1.802-12.882 7.59-12.882 7.59-3.702 1.567-6.537-.342-7.455-1.742a1.1 1.1 0 01-.108-.169l-.12-.212-.626-1.05a18.47 18.47 0 00-.905-1.336c-.304-.4-.642-.797-1.009-1.18-2.376-2.467-6.178-4.2-12.512-1.104C76.098 4.75 67.19 9.987 67.19 9.987l-.003.003-6.52 3.828 3.373 4.258c1.419 1.39 4.088 3.67 8.216 1.748 0 0 11.394-6.782 11.439-6.801 9.74-5.495 14.55-.245 16.672 3.254.074.11.135.228.2.335l.006.005c.025.042.043.082.065.122l.242.404c1.033 1.613 2.668 2.655 4.614 2.608 1.073-.023 1.801-.383 2.863-.988l11.023-6.572c.008-.004.013-.008.024-.01 9.862-5.561 14.75.032 16.838 3.531.162.303.348.591.535.86 1.034 1.441 2.46 2.385 4.27 2.34 1.196-.026 2.537-.763 2.735-.899L157 10.174s-1.352-2.096-4.132-5.364z" fill="url(#paint0_linear_84_7562)"/><defs><linearGradient id="paint0_linear_84_7562" x1="68.741" y1="30.739" x2="172.628" y2="-15.942" gradientUnits="userSpaceOnUse"><stop stop-color="#FDB913"/><stop offset=".225" stop-color="#FFCB05"/><stop offset=".393" stop-color="#FAA61A"/><stop offset=".528" stop-color="#FFCB05"/><stop offset=".646" stop-color="#FAA61A"/><stop offset=".668" stop-color="#FCB415"/><stop offset=".698" stop-color="#FFC10E"/><stop offset=".729" stop-color="#FFC907"/><stop offset=".764" stop-color="#FFCB05"/><stop offset=".797" stop-color="#FFCB05"/><stop offset="1" stop-color="#FFCB05"/></linearGradient></defs></svg>