<svg width="64" height="49" fill="none" xmlns="http://www.w3.org/2000/svg"><path fill-rule="evenodd" clip-rule="evenodd" d="M18.079 43.685v5.185h-1.142v-.63c-.362.467-.912.76-1.659.76-1.472 0-2.626-1.138-2.626-2.722 0-1.583 1.154-2.723 2.627-2.723.747 0 1.296.293 1.658.76v-.63h1.142zm-2.658.933c-.989 0-1.594.748-1.594 1.66 0 .91.605 1.66 1.594 1.66.944 0 1.582-.717 1.582-1.66 0-.944-.638-1.66-1.582-1.66zm41.243 1.66c0-.912.605-1.66 1.593-1.66.946 0 1.582.716 1.582 1.66 0 .943-.636 1.66-1.582 1.66-.988 0-1.593-.75-1.593-1.66zm4.253-4.674v7.266h-1.143v-.63c-.363.467-.912.76-1.659.76-1.473 0-2.627-1.138-2.627-2.722 0-1.583 1.154-2.723 2.627-2.723.747 0 1.296.293 1.659.76v-2.711h1.143zm-28.665 2.96c.736 0 1.209.456 1.33 1.258h-2.726c.122-.749.582-1.258 1.396-1.258zm-2.593 1.714c0-1.617 1.077-2.723 2.616-2.723 1.471 0 2.482 1.106 2.493 2.723 0 .151-.011.293-.022.433h-3.9c.165.933.835 1.27 1.57 1.27.528 0 1.089-.196 1.529-.543l.56.836c-.638.531-1.363.726-2.154.726-1.571 0-2.692-1.074-2.692-2.722zm16.403 0c0-.912.605-1.66 1.593-1.66.944 0 1.582.716 1.582 1.66 0 .943-.638 1.66-1.582 1.66-.988 0-1.593-.75-1.593-1.66zm4.252-2.593v5.185h-1.142v-.63c-.364.467-.912.76-1.659.76-1.472 0-2.627-1.138-2.627-2.722 0-1.583 1.155-2.723 2.627-2.723.747 0 1.295.293 1.659.76v-.63h1.142zm-10.7 2.593c0 1.572 1.108 2.722 2.801 2.722.791 0 1.318-.174 1.889-.618l-.548-.911c-.43.304-.88.466-1.375.466-.912-.01-1.582-.661-1.582-1.66 0-.998.67-1.648 1.582-1.66.496 0 .946.164 1.375.468l.548-.912c-.571-.444-1.098-.618-1.889-.618-1.693 0-2.802 1.15-2.802 2.723zm13.336-1.963c.297-.456.726-.76 1.385-.76.231 0 .56.044.813.142l-.352 1.062a1.872 1.872 0 00-.714-.13c-.747 0-1.12.477-1.12 1.335v2.906h-1.144v-5.184h1.132v.629zm-29.224-.217c-.55-.358-1.306-.543-2.141-.543-1.33 0-2.187.63-2.187 1.66 0 .845.637 1.367 1.812 1.53l.54.075c.626.087.921.25.921.543 0 .4-.417.629-1.197.629-.79 0-1.362-.25-1.747-.542l-.538.877c.627.456 1.417.673 2.274.673 1.516 0 2.395-.705 2.395-1.692 0-.911-.691-1.388-1.834-1.55l-.539-.078c-.494-.064-.89-.16-.89-.508 0-.38.374-.607 1-.607.67 0 1.319.249 1.637.444l.494-.911zm13.35.217c.295-.456.724-.76 1.383-.76.231 0 .561.044.814.142l-.352 1.062a1.872 1.872 0 00-.715-.13c-.747 0-1.12.477-1.12 1.335v2.906h-1.142v-5.184h1.132v.629zm-8.361-.63h-1.868v-1.572h-1.154v1.572h-1.065v1.03h1.065v2.366c0 1.203.473 1.919 1.823 1.919.496 0 1.067-.151 1.429-.401l-.33-.966a2.13 2.13 0 01-1.01.293c-.572 0-.758-.347-.758-.868v-2.342h1.868v-1.03zm-17.073 1.93v3.255h-1.155v-2.885c0-.88-.373-1.367-1.153-1.367-.758 0-1.285.478-1.285 1.378v2.874H6.895v-2.885c0-.88-.384-1.367-1.142-1.367-.78 0-1.286.478-1.286 1.378v2.874H3.313v-5.184h1.143v.639c.43-.607.978-.77 1.538-.77.803 0 1.374.348 1.736.923.484-.728 1.175-.934 1.846-.923 1.275.011 2.066.836 2.066 2.06z" fill="#fff"/><path d="M40.653 34.877H23.348V4.174h17.305v30.703z" fill="#FF5F00"/><path d="M24.446 19.526c0-6.228 2.953-11.776 7.553-15.351A19.854 19.854 0 0019.777 0C8.854 0 0 8.742 0 19.526 0 30.31 8.854 39.052 19.777 39.052c4.613 0 8.859-1.56 12.222-4.175-4.6-3.575-7.553-9.123-7.553-15.35z" fill="#EB001B"/><path d="M64 19.526c0 10.784-8.854 19.526-19.777 19.526A19.86 19.86 0 0132 34.877c4.601-3.575 7.555-9.123 7.555-15.35 0-6.23-2.954-11.777-7.555-15.352A19.86 19.86 0 0144.223 0C55.146 0 64 8.742 64 19.526z" fill="#F79E1B"/></svg>