<svg width="1440" height="1583" fill="none" xmlns="http://www.w3.org/2000/svg"><g opacity=".3"><g filter="url(#filter0_d_312_2803)"><path d="M635.059 1356.3l59.763-103.52-31.747-118.48 74.747-129.47 118.483-31.744 82.504-142.901" stroke="url(#paint0_linear_312_2803)" stroke-width="2" shape-rendering="crispEdges"/></g><circle r="6.346" transform="scale(-1 1) rotate(-30 1508.64 1880.657)" fill="#DEE3FC"/><circle r="6.346" transform="scale(-1 1) rotate(-30 1786.274 1806.259)" fill="#DEE3FC"/><g filter="url(#filter1_f_312_2803)"><circle r="6.346" transform="scale(-1 1) rotate(-30 1786.274 1806.259)" fill="#DEE3FC"/></g><g filter="url(#filter2_f_312_2803)"><circle r="6.346" transform="scale(-1 1) rotate(-30 1508.64 1880.657)" fill="#DEE3FC"/></g><g filter="url(#filter3_f_312_2803)"><circle r="6.346" transform="scale(-1 1) rotate(-30 1386.817 2083.949)" fill="#DEE3FC"/></g><g filter="url(#filter4_f_312_2803)"><circle r="6.346" transform="scale(-1 1) rotate(-30 1986.848 1923.17)" fill="#DEE3FC"/></g><circle r="6.346" transform="scale(-1 1) rotate(-30 1986.848 1923.17)" fill="#DEE3FC"/><circle r="6.346" transform="scale(-1 1) rotate(-30 1386.817 2083.949)" fill="#DEE3FC"/><g filter="url(#filter5_d_312_2803)"><path d="M968.713 1481.09l38.357 66.44-20.376 76.04 47.976 83.1 76.04 20.37 52.96 91.72" stroke="url(#paint1_linear_312_2803)" stroke-width="2" shape-rendering="crispEdges"/></g><g filter="url(#filter6_f_312_2803)"><circle cx="1007.44" cy="1548.62" r="4.073" transform="rotate(150 1007.44 1548.62)" fill="#DEE3FC"/></g><circle cx="1007.44" cy="1548.62" r="4.073" transform="rotate(150 1007.44 1548.62)" fill="#DEE3FC"/><g filter="url(#filter7_d_312_2803)"><path d="M513.5 1479.79l123-123h212l123 123h6" stroke="url(#paint2_linear_312_2803)" stroke-width="2" shape-rendering="crispEdges"/></g><circle r="9" transform="matrix(0 -1 -1 0 847 1358.29)" fill="#DEE3FC"/><circle r="9" transform="matrix(0 -1 -1 0 636 1358.29)" fill="#DEE3FC"/><g filter="url(#filter8_f_312_2803)"><circle r="9" transform="matrix(0 -1 -1 0 636 1358.29)" fill="#DEE3FC"/></g><g filter="url(#filter9_f_312_2803)"><circle r="9" transform="matrix(0 -1 -1 0 847 1358.29)" fill="#DEE3FC"/></g><g filter="url(#filter10_f_312_2803)"><circle r="9" transform="matrix(0 -1 -1 0 972 1479.29)" fill="#DEE3FC"/></g><g filter="url(#filter11_f_312_2803)"><circle r="9" transform="matrix(0 -1 -1 0 516 1479.29)" fill="#DEE3FC"/></g><circle r="9" transform="matrix(0 -1 -1 0 516 1479.29)" fill="#DEE3FC"/><circle r="9" transform="matrix(0 -1 -1 0 972 1479.29)" fill="#DEE3FC"/><g filter="url(#filter12_d_312_2803)"><path d="M694.5 1250.79H864l123-123h212l123 123h234" stroke="url(#paint3_linear_312_2803)" stroke-width="2" shape-rendering="crispEdges"/></g><circle r="9" transform="matrix(0 -1 -1 0 1197.5 1129.29)" fill="#DEE3FC"/><circle r="9" transform="matrix(0 -1 -1 0 986.5 1129.29)" fill="#DEE3FC"/><g filter="url(#filter13_f_312_2803)"><circle r="9" transform="matrix(0 -1 -1 0 986.5 1129.29)" fill="#DEE3FC"/></g><g filter="url(#filter14_f_312_2803)"><circle r="9" transform="matrix(0 -1 -1 0 1197.5 1129.29)" fill="#DEE3FC"/></g><g filter="url(#filter15_f_312_2803)"><circle r="9" transform="matrix(0 -1 -1 0 1322.5 1250.29)" fill="#DEE3FC"/></g><g filter="url(#filter16_f_312_2803)"><circle r="9" transform="matrix(0 -1 -1 0 866.5 1250.29)" fill="#DEE3FC"/></g><circle r="9" transform="matrix(0 -1 -1 0 866.5 1250.29)" fill="#DEE3FC"/><circle r="9" transform="matrix(0 -1 -1 0 1322.5 1250.29)" fill="#DEE3FC"/></g><g opacity=".3"><g filter="url(#filter17_d_312_2803)"><path d="M392.122 932.941L288.61 873.178l-118.483 31.747-129.466-74.747L8.914 711.695l-142.902-82.504" stroke="url(#paint4_linear_312_2803)" stroke-width="2" shape-rendering="crispEdges"/></g><circle r="6.346" transform="scale(-1 1) rotate(60 -739.673 378.43)" fill="#DEE3FC"/><circle r="6.346" transform="scale(-1 1) rotate(60 -868.53 304.036)" fill="#DEE3FC"/><g filter="url(#filter18_f_312_2803)"><circle r="6.346" transform="scale(-1 1) rotate(60 -868.53 304.036)" fill="#DEE3FC"/></g><g filter="url(#filter19_f_312_2803)"><circle r="6.346" transform="scale(-1 1) rotate(60 -739.673 378.43)" fill="#DEE3FC"/></g><g filter="url(#filter20_f_312_2803)"><circle r="6.346" transform="scale(-1 1) rotate(60 -620.674 348.61)" fill="#DEE3FC"/></g><g filter="url(#filter21_f_312_2803)"><circle r="6.346" transform="scale(-1 1) rotate(60 -899.15 187.832)" fill="#DEE3FC"/></g><circle r="6.346" transform="scale(-1 1) rotate(60 -899.15 187.832)" fill="#DEE3FC"/><circle r="6.346" transform="scale(-1 1) rotate(60 -620.674 348.61)" fill="#DEE3FC"/><g filter="url(#filter22_d_312_2803)"><path d="M516.916 599.287l66.437-38.358 76.045 20.377 83.095-47.975 20.376-76.046 91.718-52.953" stroke="url(#paint5_linear_312_2803)" stroke-width="2" shape-rendering="crispEdges"/></g><circle cx="741.566" cy="533.082" r="4.073" transform="rotate(60 741.566 533.082)" fill="#DEE3FC"/><circle cx="658.862" cy="580.831" r="4.073" transform="rotate(60 658.862 580.831)" fill="#DEE3FC"/><g filter="url(#filter23_f_312_2803)"><circle cx="658.862" cy="580.831" r="4.073" transform="rotate(60 658.862 580.831)" fill="#DEE3FC"/></g><g filter="url(#filter24_f_312_2803)"><circle cx="741.566" cy="533.082" r="4.073" transform="rotate(60 741.566 533.082)" fill="#DEE3FC"/></g><g filter="url(#filter25_f_312_2803)"><circle cx="763.178" cy="457.368" r="4.073" transform="rotate(60 763.178 457.368)" fill="#DEE3FC"/></g><g filter="url(#filter26_f_312_2803)"><circle cx="584.446" cy="560.559" r="4.073" transform="rotate(60 584.446 560.559)" fill="#DEE3FC"/></g><circle cx="584.446" cy="560.559" r="4.073" transform="rotate(60 584.446 560.559)" fill="#DEE3FC"/><circle cx="763.178" cy="457.368" r="4.073" transform="rotate(60 763.178 457.368)" fill="#DEE3FC"/><g filter="url(#filter27_d_312_2803)"><path d="M515.619 1583v-528.5l-123-123v-212l123-123v-6" stroke="url(#paint6_linear_312_2803)" stroke-width="2" shape-rendering="crispEdges"/></g><circle r="9" transform="matrix(-1 0 0 1 394.119 721)" fill="#DEE3FC"/><circle r="9" transform="matrix(-1 0 0 1 394.119 932)" fill="#DEE3FC"/><g filter="url(#filter28_f_312_2803)"><circle r="9" transform="matrix(-1 0 0 1 394.119 932)" fill="#DEE3FC"/></g><g filter="url(#filter29_f_312_2803)"><circle r="9" transform="matrix(-1 0 0 1 394.119 721)" fill="#DEE3FC"/></g><g filter="url(#filter30_f_312_2803)"><circle r="9" transform="matrix(-1 0 0 1 515.119 596)" fill="#DEE3FC"/></g><g filter="url(#filter31_f_312_2803)"><circle r="9" transform="matrix(-1 0 0 1 515.119 1052)" fill="#DEE3FC"/></g><circle r="9" transform="matrix(-1 0 0 1 515.119 1052)" fill="#DEE3FC"/><circle r="9" transform="matrix(-1 0 0 1 515.119 596)" fill="#DEE3FC"/><g filter="url(#filter32_d_312_2803)"><path d="M286.619 873.5V704l-123-123V369l123-123V12" stroke="url(#paint7_linear_312_2803)" stroke-width="2" shape-rendering="crispEdges"/></g><circle r="9" transform="matrix(-1 0 0 1 165.119 370.5)" fill="#DEE3FC"/><circle r="9" transform="matrix(-1 0 0 1 165.119 581.5)" fill="#DEE3FC"/><g filter="url(#filter33_f_312_2803)"><circle r="9" transform="matrix(-1 0 0 1 165.119 581.5)" fill="#DEE3FC"/></g><g filter="url(#filter34_f_312_2803)"><circle r="9" transform="matrix(-1 0 0 1 165.119 370.5)" fill="#DEE3FC"/></g><g filter="url(#filter35_f_312_2803)"><circle r="9" transform="matrix(-1 0 0 1 286.119 245.5)" fill="#DEE3FC"/></g><g filter="url(#filter36_f_312_2803)"><circle r="9" transform="matrix(-1 0 0 1 286.119 701.5)" fill="#DEE3FC"/></g><circle r="9" transform="matrix(-1 0 0 1 286.119 701.5)" fill="#DEE3FC"/><circle r="9" transform="matrix(-1 0 0 1 286.119 245.5)" fill="#DEE3FC"/></g><defs><filter id="filter0_d_312_2803" x="622.193" y="817.685" width="329.482" height="551.11" filterUnits="userSpaceOnUse" color-interpolation-filters="sRGB"><feFlood flood-opacity="0" result="BackgroundImageFix"/><feColorMatrix in="SourceAlpha" values="0 0 0 0 0 0 0 0 0 0 0 0 0 0 0 0 0 0 127 0" result="hardAlpha"/><feOffset/><feGaussianBlur stdDeviation="6"/><feComposite in2="hardAlpha" operator="out"/><feColorMatrix values="0 0 0 0 0.737255 0 0 0 0 0.745098 0 0 0 0 1 0 0 0 1 0"/><feBlend in2="BackgroundImageFix" result="effect1_dropShadow_312_2803"/><feBlend in="SourceGraphic" in2="effect1_dropShadow_312_2803" result="shape"/></filter><filter id="filter1_f_312_2803" x="639.467" y="1110.79" width="48.695" height="48.695" filterUnits="userSpaceOnUse" color-interpolation-filters="sRGB"><feFlood flood-opacity="0" result="BackgroundImageFix"/><feBlend in="SourceGraphic" in2="BackgroundImageFix" result="shape"/><feGaussianBlur stdDeviation="9" result="effect1_foregroundBlur_312_2803"/></filter><filter id="filter2_f_312_2803" x="713.862" y="981.931" width="48.695" height="48.695" filterUnits="userSpaceOnUse" color-interpolation-filters="sRGB"><feFlood flood-opacity="0" result="BackgroundImageFix"/><feBlend in="SourceGraphic" in2="BackgroundImageFix" result="shape"/><feGaussianBlur stdDeviation="9" result="effect1_foregroundBlur_312_2803"/></filter><filter id="filter3_f_312_2803" x="831.828" y="948.257" width="48.695" height="48.695" filterUnits="userSpaceOnUse" color-interpolation-filters="sRGB"><feFlood flood-opacity="0" result="BackgroundImageFix"/><feBlend in="SourceGraphic" in2="BackgroundImageFix" result="shape"/><feGaussianBlur stdDeviation="9" result="effect1_foregroundBlur_312_2803"/></filter><filter id="filter4_f_312_2803" x="671.05" y="1226.73" width="48.695" height="48.695" filterUnits="userSpaceOnUse" color-interpolation-filters="sRGB"><feFlood flood-opacity="0" result="BackgroundImageFix"/><feBlend in="SourceGraphic" in2="BackgroundImageFix" result="shape"/><feGaussianBlur stdDeviation="9" result="effect1_foregroundBlur_312_2803"/></filter><filter id="filter5_d_312_2803" x="955.847" y="1468.59" width="220.687" height="362.672" filterUnits="userSpaceOnUse" color-interpolation-filters="sRGB"><feFlood flood-opacity="0" result="BackgroundImageFix"/><feColorMatrix in="SourceAlpha" values="0 0 0 0 0 0 0 0 0 0 0 0 0 0 0 0 0 0 127 0" result="hardAlpha"/><feOffset/><feGaussianBlur stdDeviation="6"/><feComposite in2="hardAlpha" operator="out"/><feColorMatrix values="0 0 0 0 0.737255 0 0 0 0 0.745098 0 0 0 0 1 0 0 0 1 0"/><feBlend in2="BackgroundImageFix" result="effect1_dropShadow_312_2803"/><feBlend in="SourceGraphic" in2="effect1_dropShadow_312_2803" result="shape"/></filter><filter id="filter6_f_312_2803" x="985.366" y="1526.54" width="44.148" height="44.148" filterUnits="userSpaceOnUse" color-interpolation-filters="sRGB"><feFlood flood-opacity="0" result="BackgroundImageFix"/><feBlend in="SourceGraphic" in2="BackgroundImageFix" result="shape"/><feGaussianBlur stdDeviation="9" result="effect1_foregroundBlur_312_2803"/></filter><filter id="filter7_d_312_2803" x="500.793" y="1343.79" width="488.707" height="149" filterUnits="userSpaceOnUse" color-interpolation-filters="sRGB"><feFlood flood-opacity="0" result="BackgroundImageFix"/><feColorMatrix in="SourceAlpha" values="0 0 0 0 0 0 0 0 0 0 0 0 0 0 0 0 0 0 127 0" result="hardAlpha"/><feOffset/><feGaussianBlur stdDeviation="6"/><feComposite in2="hardAlpha" operator="out"/><feColorMatrix values="0 0 0 0 0.737255 0 0 0 0 0.745098 0 0 0 0 1 0 0 0 1 0"/><feBlend in2="BackgroundImageFix" result="effect1_dropShadow_312_2803"/><feBlend in="SourceGraphic" in2="effect1_dropShadow_312_2803" result="shape"/></filter><filter id="filter8_f_312_2803" x="609" y="1331.29" width="54" height="54" filterUnits="userSpaceOnUse" color-interpolation-filters="sRGB"><feFlood flood-opacity="0" result="BackgroundImageFix"/><feBlend in="SourceGraphic" in2="BackgroundImageFix" result="shape"/><feGaussianBlur stdDeviation="9" result="effect1_foregroundBlur_312_2803"/></filter><filter id="filter9_f_312_2803" x="820" y="1331.29" width="54" height="54" filterUnits="userSpaceOnUse" color-interpolation-filters="sRGB"><feFlood flood-opacity="0" result="BackgroundImageFix"/><feBlend in="SourceGraphic" in2="BackgroundImageFix" result="shape"/><feGaussianBlur stdDeviation="9" result="effect1_foregroundBlur_312_2803"/></filter><filter id="filter10_f_312_2803" x="945" y="1452.29" width="54" height="54" filterUnits="userSpaceOnUse" color-interpolation-filters="sRGB"><feFlood flood-opacity="0" result="BackgroundImageFix"/><feBlend in="SourceGraphic" in2="BackgroundImageFix" result="shape"/><feGaussianBlur stdDeviation="9" result="effect1_foregroundBlur_312_2803"/></filter><filter id="filter11_f_312_2803" x="489" y="1452.29" width="54" height="54" filterUnits="userSpaceOnUse" color-interpolation-filters="sRGB"><feFlood flood-opacity="0" result="BackgroundImageFix"/><feBlend in="SourceGraphic" in2="BackgroundImageFix" result="shape"/><feGaussianBlur stdDeviation="9" result="effect1_foregroundBlur_312_2803"/></filter><filter id="filter12_d_312_2803" x="682.5" y="1114.79" width="885.5" height="149" filterUnits="userSpaceOnUse" color-interpolation-filters="sRGB"><feFlood flood-opacity="0" result="BackgroundImageFix"/><feColorMatrix in="SourceAlpha" values="0 0 0 0 0 0 0 0 0 0 0 0 0 0 0 0 0 0 127 0" result="hardAlpha"/><feOffset/><feGaussianBlur stdDeviation="6"/><feComposite in2="hardAlpha" operator="out"/><feColorMatrix values="0 0 0 0 0.737255 0 0 0 0 0.745098 0 0 0 0 1 0 0 0 1 0"/><feBlend in2="BackgroundImageFix" result="effect1_dropShadow_312_2803"/><feBlend in="SourceGraphic" in2="effect1_dropShadow_312_2803" result="shape"/></filter><filter id="filter13_f_312_2803" x="959.5" y="1102.29" width="54" height="54" filterUnits="userSpaceOnUse" color-interpolation-filters="sRGB"><feFlood flood-opacity="0" result="BackgroundImageFix"/><feBlend in="SourceGraphic" in2="BackgroundImageFix" result="shape"/><feGaussianBlur stdDeviation="9" result="effect1_foregroundBlur_312_2803"/></filter><filter id="filter14_f_312_2803" x="1170.5" y="1102.29" width="54" height="54" filterUnits="userSpaceOnUse" color-interpolation-filters="sRGB"><feFlood flood-opacity="0" result="BackgroundImageFix"/><feBlend in="SourceGraphic" in2="BackgroundImageFix" result="shape"/><feGaussianBlur stdDeviation="9" result="effect1_foregroundBlur_312_2803"/></filter><filter id="filter15_f_312_2803" x="1295.5" y="1223.29" width="54" height="54" filterUnits="userSpaceOnUse" color-interpolation-filters="sRGB"><feFlood flood-opacity="0" result="BackgroundImageFix"/><feBlend in="SourceGraphic" in2="BackgroundImageFix" result="shape"/><feGaussianBlur stdDeviation="9" result="effect1_foregroundBlur_312_2803"/></filter><filter id="filter16_f_312_2803" x="839.5" y="1223.29" width="54" height="54" filterUnits="userSpaceOnUse" color-interpolation-filters="sRGB"><feFlood flood-opacity="0" result="BackgroundImageFix"/><feBlend in="SourceGraphic" in2="BackgroundImageFix" result="shape"/><feGaussianBlur stdDeviation="9" result="effect1_foregroundBlur_312_2803"/></filter><filter id="filter17_d_312_2803" x="-146.488" y="616.325" width="551.11" height="329.482" filterUnits="userSpaceOnUse" color-interpolation-filters="sRGB"><feFlood flood-opacity="0" result="BackgroundImageFix"/><feColorMatrix in="SourceAlpha" values="0 0 0 0 0 0 0 0 0 0 0 0 0 0 0 0 0 0 127 0" result="hardAlpha"/><feOffset/><feGaussianBlur stdDeviation="6"/><feComposite in2="hardAlpha" operator="out"/><feColorMatrix values="0 0 0 0 0.737255 0 0 0 0 0.745098 0 0 0 0 1 0 0 0 1 0"/><feBlend in2="BackgroundImageFix" result="effect1_dropShadow_312_2803"/><feBlend in="SourceGraphic" in2="effect1_dropShadow_312_2803" result="shape"/></filter><filter id="filter18_f_312_2803" x="146.614" y="879.838" width="48.695" height="48.695" filterUnits="userSpaceOnUse" color-interpolation-filters="sRGB"><feFlood flood-opacity="0" result="BackgroundImageFix"/><feBlend in="SourceGraphic" in2="BackgroundImageFix" result="shape"/><feGaussianBlur stdDeviation="9" result="effect1_foregroundBlur_312_2803"/></filter><filter id="filter19_f_312_2803" x="17.758" y="805.443" width="48.695" height="48.695" filterUnits="userSpaceOnUse" color-interpolation-filters="sRGB"><feFlood flood-opacity="0" result="BackgroundImageFix"/><feBlend in="SourceGraphic" in2="BackgroundImageFix" result="shape"/><feGaussianBlur stdDeviation="9" result="effect1_foregroundBlur_312_2803"/></filter><filter id="filter20_f_312_2803" x="-15.915" y="687.477" width="48.695" height="48.695" filterUnits="userSpaceOnUse" color-interpolation-filters="sRGB"><feFlood flood-opacity="0" result="BackgroundImageFix"/><feBlend in="SourceGraphic" in2="BackgroundImageFix" result="shape"/><feGaussianBlur stdDeviation="9" result="effect1_foregroundBlur_312_2803"/></filter><filter id="filter21_f_312_2803" x="262.559" y="848.254" width="48.695" height="48.695" filterUnits="userSpaceOnUse" color-interpolation-filters="sRGB"><feFlood flood-opacity="0" result="BackgroundImageFix"/><feBlend in="SourceGraphic" in2="BackgroundImageFix" result="shape"/><feGaussianBlur stdDeviation="9" result="effect1_foregroundBlur_312_2803"/></filter><filter id="filter22_d_312_2803" x="504.416" y="391.466" width="362.672" height="220.687" filterUnits="userSpaceOnUse" color-interpolation-filters="sRGB"><feFlood flood-opacity="0" result="BackgroundImageFix"/><feColorMatrix in="SourceAlpha" values="0 0 0 0 0 0 0 0 0 0 0 0 0 0 0 0 0 0 127 0" result="hardAlpha"/><feOffset/><feGaussianBlur stdDeviation="6"/><feComposite in2="hardAlpha" operator="out"/><feColorMatrix values="0 0 0 0 0.737255 0 0 0 0 0.745098 0 0 0 0 1 0 0 0 1 0"/><feBlend in2="BackgroundImageFix" result="effect1_dropShadow_312_2803"/><feBlend in="SourceGraphic" in2="effect1_dropShadow_312_2803" result="shape"/></filter><filter id="filter23_f_312_2803" x="636.788" y="558.757" width="44.148" height="44.148" filterUnits="userSpaceOnUse" color-interpolation-filters="sRGB"><feFlood flood-opacity="0" result="BackgroundImageFix"/><feBlend in="SourceGraphic" in2="BackgroundImageFix" result="shape"/><feGaussianBlur stdDeviation="9" result="effect1_foregroundBlur_312_2803"/></filter><filter id="filter24_f_312_2803" x="719.492" y="511.008" width="44.148" height="44.148" filterUnits="userSpaceOnUse" color-interpolation-filters="sRGB"><feFlood flood-opacity="0" result="BackgroundImageFix"/><feBlend in="SourceGraphic" in2="BackgroundImageFix" result="shape"/><feGaussianBlur stdDeviation="9" result="effect1_foregroundBlur_312_2803"/></filter><filter id="filter25_f_312_2803" x="741.104" y="435.294" width="44.148" height="44.148" filterUnits="userSpaceOnUse" color-interpolation-filters="sRGB"><feFlood flood-opacity="0" result="BackgroundImageFix"/><feBlend in="SourceGraphic" in2="BackgroundImageFix" result="shape"/><feGaussianBlur stdDeviation="9" result="effect1_foregroundBlur_312_2803"/></filter><filter id="filter26_f_312_2803" x="562.372" y="538.485" width="44.148" height="44.148" filterUnits="userSpaceOnUse" color-interpolation-filters="sRGB"><feFlood flood-opacity="0" result="BackgroundImageFix"/><feBlend in="SourceGraphic" in2="BackgroundImageFix" result="shape"/><feGaussianBlur stdDeviation="9" result="effect1_foregroundBlur_312_2803"/></filter><filter id="filter27_d_312_2803" x="379.619" y="578.5" width="149" height="1016.5" filterUnits="userSpaceOnUse" color-interpolation-filters="sRGB"><feFlood flood-opacity="0" result="BackgroundImageFix"/><feColorMatrix in="SourceAlpha" values="0 0 0 0 0 0 0 0 0 0 0 0 0 0 0 0 0 0 127 0" result="hardAlpha"/><feOffset/><feGaussianBlur stdDeviation="6"/><feComposite in2="hardAlpha" operator="out"/><feColorMatrix values="0 0 0 0 0.737255 0 0 0 0 0.745098 0 0 0 0 1 0 0 0 1 0"/><feBlend in2="BackgroundImageFix" result="effect1_dropShadow_312_2803"/><feBlend in="SourceGraphic" in2="effect1_dropShadow_312_2803" result="shape"/></filter><filter id="filter28_f_312_2803" x="367.119" y="905" width="54" height="54" filterUnits="userSpaceOnUse" color-interpolation-filters="sRGB"><feFlood flood-opacity="0" result="BackgroundImageFix"/><feBlend in="SourceGraphic" in2="BackgroundImageFix" result="shape"/><feGaussianBlur stdDeviation="9" result="effect1_foregroundBlur_312_2803"/></filter><filter id="filter29_f_312_2803" x="367.119" y="694" width="54" height="54" filterUnits="userSpaceOnUse" color-interpolation-filters="sRGB"><feFlood flood-opacity="0" result="BackgroundImageFix"/><feBlend in="SourceGraphic" in2="BackgroundImageFix" result="shape"/><feGaussianBlur stdDeviation="9" result="effect1_foregroundBlur_312_2803"/></filter><filter id="filter30_f_312_2803" x="488.119" y="569" width="54" height="54" filterUnits="userSpaceOnUse" color-interpolation-filters="sRGB"><feFlood flood-opacity="0" result="BackgroundImageFix"/><feBlend in="SourceGraphic" in2="BackgroundImageFix" result="shape"/><feGaussianBlur stdDeviation="9" result="effect1_foregroundBlur_312_2803"/></filter><filter id="filter31_f_312_2803" x="488.119" y="1025" width="54" height="54" filterUnits="userSpaceOnUse" color-interpolation-filters="sRGB"><feFlood flood-opacity="0" result="BackgroundImageFix"/><feBlend in="SourceGraphic" in2="BackgroundImageFix" result="shape"/><feGaussianBlur stdDeviation="9" result="effect1_foregroundBlur_312_2803"/></filter><filter id="filter32_d_312_2803" x="150.619" y="0" width="149" height="885.5" filterUnits="userSpaceOnUse" color-interpolation-filters="sRGB"><feFlood flood-opacity="0" result="BackgroundImageFix"/><feColorMatrix in="SourceAlpha" values="0 0 0 0 0 0 0 0 0 0 0 0 0 0 0 0 0 0 127 0" result="hardAlpha"/><feOffset/><feGaussianBlur stdDeviation="6"/><feComposite in2="hardAlpha" operator="out"/><feColorMatrix values="0 0 0 0 0.737255 0 0 0 0 0.745098 0 0 0 0 1 0 0 0 1 0"/><feBlend in2="BackgroundImageFix" result="effect1_dropShadow_312_2803"/><feBlend in="SourceGraphic" in2="effect1_dropShadow_312_2803" result="shape"/></filter><filter id="filter33_f_312_2803" x="138.119" y="554.5" width="54" height="54" filterUnits="userSpaceOnUse" color-interpolation-filters="sRGB"><feFlood flood-opacity="0" result="BackgroundImageFix"/><feBlend in="SourceGraphic" in2="BackgroundImageFix" result="shape"/><feGaussianBlur stdDeviation="9" result="effect1_foregroundBlur_312_2803"/></filter><filter id="filter34_f_312_2803" x="138.119" y="343.5" width="54" height="54" filterUnits="userSpaceOnUse" color-interpolation-filters="sRGB"><feFlood flood-opacity="0" result="BackgroundImageFix"/><feBlend in="SourceGraphic" in2="BackgroundImageFix" result="shape"/><feGaussianBlur stdDeviation="9" result="effect1_foregroundBlur_312_2803"/></filter><filter id="filter35_f_312_2803" x="259.119" y="218.5" width="54" height="54" filterUnits="userSpaceOnUse" color-interpolation-filters="sRGB"><feFlood flood-opacity="0" result="BackgroundImageFix"/><feBlend in="SourceGraphic" in2="BackgroundImageFix" result="shape"/><feGaussianBlur stdDeviation="9" result="effect1_foregroundBlur_312_2803"/></filter><filter id="filter36_f_312_2803" x="259.119" y="674.5" width="54" height="54" filterUnits="userSpaceOnUse" color-interpolation-filters="sRGB"><feFlood flood-opacity="0" result="BackgroundImageFix"/><feBlend in="SourceGraphic" in2="BackgroundImageFix" result="shape"/><feGaussianBlur stdDeviation="9" result="effect1_foregroundBlur_312_2803"/></filter><linearGradient id="paint0_linear_312_2803" x1="901.252" y1="808.501" x2="597.502" y2="1334.61" gradientUnits="userSpaceOnUse"><stop offset=".005" stop-color="#7A8EF6" stop-opacity="0"/><stop offset=".625" stop-color="#7A8EF6"/></linearGradient><linearGradient id="paint1_linear_312_2803" x1="1139.56" y1="1832.68" x2="944.608" y2="1495.01" gradientUnits="userSpaceOnUse"><stop offset=".005" stop-color="#7A8EF6" stop-opacity="0"/><stop offset=".625" stop-color="#7A8EF6"/></linearGradient><linearGradient id="paint2_linear_312_2803" x1="1205.5" y1="1418.29" x2="344" y2="1418.29" gradientUnits="userSpaceOnUse"><stop offset=".005" stop-color="#7A8EF6" stop-opacity="0"/><stop offset=".625" stop-color="#7A8EF6"/></linearGradient><linearGradient id="paint3_linear_312_2803" x1="1556" y1="1189.29" x2="694.5" y2="1189.29" gradientUnits="userSpaceOnUse"><stop offset=".005" stop-color="#7A8EF6" stop-opacity="0"/><stop offset=".625" stop-color="#7A8EF6"/></linearGradient><linearGradient id="paint4_linear_312_2803" x1="-155.672" y1="666.748" x2="370.438" y2="970.498" gradientUnits="userSpaceOnUse"><stop offset=".005" stop-color="#7A8EF6" stop-opacity="0"/><stop offset=".625" stop-color="#7A8EF6"/></linearGradient><linearGradient id="paint5_linear_312_2803" x1="868.505" y1="428.437" x2="530.833" y2="623.392" gradientUnits="userSpaceOnUse"><stop offset=".005" stop-color="#7A8EF6" stop-opacity="0"/><stop offset=".625" stop-color="#7A8EF6"/></linearGradient><linearGradient id="paint6_linear_312_2803" x1="454.119" y1="362.5" x2="454.119" y2="1224" gradientUnits="userSpaceOnUse"><stop offset=".005" stop-color="#7A8EF6" stop-opacity="0"/><stop offset=".625" stop-color="#7A8EF6"/></linearGradient><linearGradient id="paint7_linear_312_2803" x1="225.119" y1="12" x2="225.119" y2="873.5" gradientUnits="userSpaceOnUse"><stop offset=".005" stop-color="#7A8EF6" stop-opacity="0"/><stop offset=".625" stop-color="#7A8EF6"/></linearGradient></defs></svg>