<svg width="1151" height="464" fill="none" xmlns="http://www.w3.org/2000/svg"><g clip-path="url(#clip0_121_5646)" opacity=".44"><g filter="url(#filter0_f_121_5646)"><ellipse rx="211" ry="99.5" transform="matrix(-1 0 0 1 346 323.5)" fill="#7A8EF6"/></g><rect width="156.202" height="728.944" rx="78.101" transform="scale(1 -1) rotate(45 926.26 932.324)" fill="url(#paint0_linear_121_5646)"/><rect width="99.418" height="728.944" rx="49.709" transform="scale(1 -1) rotate(45 668.225 1091.748)" fill="url(#paint1_linear_121_5646)"/><rect width="99.418" height="728.944" rx="49.709" transform="scale(1 -1) rotate(45 913.896 1698.507)" fill="url(#paint2_linear_121_5646)"/><rect width="156.202" height="1003.79" rx="78.101" transform="scale(1 -1) rotate(45 1532.73 913.53)" fill="url(#paint3_linear_121_5646)"/><rect width="136.298" height="1396.28" rx="68.149" transform="scale(1 -1) rotate(45 1369.562 610.215)" fill="url(#paint4_linear_121_5646)"/><rect width="170.432" height="1073.34" rx="78.101" transform="scale(1 -1) rotate(45 1103.656 144.451)" fill="url(#paint5_linear_121_5646)"/></g><defs><linearGradient id="paint0_linear_121_5646" x1="78.101" y1="0" x2="78.101" y2="728.944" gradientUnits="userSpaceOnUse"><stop stop-color="#1B135B" stop-opacity="0"/><stop offset=".334" stop-color="#1A1352"/></linearGradient><linearGradient id="paint1_linear_121_5646" x1="49.709" y1="0" x2="49.709" y2="728.944" gradientUnits="userSpaceOnUse"><stop stop-color="#1B135B" stop-opacity="0"/><stop offset=".334" stop-color="#1A1352"/></linearGradient><linearGradient id="paint2_linear_121_5646" x1="49.709" y1="0" x2="49.709" y2="728.944" gradientUnits="userSpaceOnUse"><stop stop-color="#1B135B" stop-opacity="0"/><stop offset=".334" stop-color="#1A1352"/></linearGradient><linearGradient id="paint3_linear_121_5646" x1="78.101" y1="0" x2="78.101" y2="1003.79" gradientUnits="userSpaceOnUse"><stop stop-color="#150E48"/><stop offset="1" stop-color="#1B135B" stop-opacity="0"/></linearGradient><linearGradient id="paint4_linear_121_5646" x1="68.149" y1="0" x2="68.149" y2="1396.28" gradientUnits="userSpaceOnUse"><stop stop-color="#130D42"/><stop offset="1" stop-color="#1B135B" stop-opacity="0"/></linearGradient><linearGradient id="paint5_linear_121_5646" x1="85.216" y1="0" x2="85.216" y2="1073.34" gradientUnits="userSpaceOnUse"><stop stop-color="#1B135B" stop-opacity="0"/><stop offset=".334" stop-color="#1A1352"/></linearGradient><clipPath id="clip0_121_5646"><rect width="1151" height="464" rx="10" transform="matrix(-1 0 0 1 1151 0)" fill="#fff"/></clipPath><filter id="filter0_f_121_5646" x="-65" y="24" width="822" height="599" filterUnits="userSpaceOnUse" color-interpolation-filters="sRGB"><feFlood flood-opacity="0" result="BackgroundImageFix"/><feBlend in="SourceGraphic" in2="BackgroundImageFix" result="shape"/><feGaussianBlur stdDeviation="100" result="effect1_foregroundBlur_121_5646"/></filter></defs></svg>