<svg width="174" height="47" fill="none" xmlns="http://www.w3.org/2000/svg"><path fill-rule="evenodd" clip-rule="evenodd" d="M20.905 0H7.355c-.927 0-1.716.678-1.86 1.6L.014 36.557a1.133 1.133 0 001.117 1.312H7.6c.928 0 1.716-.677 1.861-1.6l1.478-9.43c.143-.923.933-1.6 1.859-1.6h4.289c8.925 0 14.076-4.346 15.422-12.958.606-3.768.026-6.728-1.728-8.801C28.855 1.204 25.44 0 20.905 0zm1.562 12.768c-.74 4.892-4.455 4.892-8.047 4.892h-2.045l1.434-9.136a1.13 1.13 0 011.116-.959h.937c2.447 0 4.755 0 5.948 1.404.711.837.929 2.08.657 3.8zm39.287-.421h-6.489c-.553 0-1.03.406-1.115.958l-.288 1.826-.453-.662c-1.405-2.051-4.537-2.737-7.663-2.737-7.171 0-13.295 5.465-14.488 13.13-.62 3.823.262 7.479 2.418 10.029 1.977 2.344 4.806 3.32 8.172 3.32 5.778 0 8.98-3.737 8.98-3.737l-.288 1.814a1.134 1.134 0 001.114 1.316h5.844c.93 0 1.714-.678 1.86-1.601l3.507-22.345a1.13 1.13 0 00-1.111-1.311zm-9.045 12.706c-.626 3.73-3.568 6.233-7.32 6.233-1.885 0-3.39-.608-4.357-1.76-.96-1.144-1.323-2.773-1.019-4.587.585-3.697 3.576-6.283 7.272-6.283 1.842 0 3.34.616 4.327 1.778.988 1.174 1.38 2.813 1.097 4.62zm43.103-12.147H89.29c-.622 0-1.206.31-1.559.831L78.74 27.065l-3.812-12.808a1.89 1.89 0 00-1.807-1.351h-6.407c-.78 0-1.32.765-1.072 1.503l7.182 21.206-6.752 9.591c-.531.755.004 1.794.921 1.794h6.513c.618 0 1.196-.303 1.547-.813L96.738 14.69c.52-.753-.013-1.784-.926-1.784zM117.549 0h-13.552c-.925 0-1.713.678-1.858 1.6l-5.48 34.958a1.132 1.132 0 001.113 1.312h6.955a1.32 1.32 0 001.299-1.12l1.555-9.91c.143-.923.934-1.6 1.859-1.6h4.288c8.927 0 14.076-4.346 15.424-12.958.608-3.768.023-6.728-1.73-8.801C125.498 1.204 122.084 0 117.549 0zm1.564 12.768c-.74 4.892-4.455 4.892-8.048 4.892h-2.043l1.437-9.136a1.126 1.126 0 011.113-.959h.937c2.445 0 4.755 0 5.948 1.404.711.837.927 2.08.656 3.8zm39.276-.421h-6.485c-.556 0-1.03.406-1.113.958l-.287 1.826-.456-.662c-1.405-2.051-4.535-2.737-7.662-2.737-7.17 0-13.292 5.465-14.484 13.13-.618 3.823.259 7.479 2.414 10.029 1.982 2.344 4.807 3.32 8.173 3.32 5.777 0 8.981-3.737 8.981-3.737l-.289 1.814a1.134 1.134 0 001.118 1.316h5.842c.925 0 1.714-.678 1.859-1.601l3.508-22.345a1.136 1.136 0 00-1.119-1.311zm-9.045 12.706c-.622 3.73-3.568 6.233-7.321 6.233-1.88 0-3.389-.608-4.357-1.76-.958-1.144-1.319-2.773-1.018-4.587.589-3.697 3.576-6.283 7.272-6.283 1.842 0 3.34.616 4.327 1.778.992 1.174 1.384 2.813 1.097 4.62zM165.498.961l-5.561 35.599a1.132 1.132 0 001.113 1.312h5.591c.93 0 1.718-.678 1.861-1.6l5.484-34.958A1.134 1.134 0 00172.872 0h-6.26a1.135 1.135 0 00-1.114.961z" fill="#3841B2"/></svg>