<svg width="1338" height="450" fill="none" xmlns="http://www.w3.org/2000/svg"><rect x="443.452" y="303.893" width="156.202" height="728.944" rx="78.101" transform="rotate(-135 443.452 303.893)" fill="url(#paint0_linear_114_12358)"/><rect x="406.3" y="74.741" width="99.418" height="728.944" rx="49.709" transform="rotate(-135 406.3 74.74)" fill="url(#paint1_linear_114_12358)"/><rect x="-94.7" y="70.741" width="99.418" height="728.944" rx="49.709" transform="rotate(-135 -94.7 70.74)" fill="url(#paint2_linear_114_12358)"/><rect x="279.107" y="738.237" width="156.202" height="1003.79" rx="78.101" transform="rotate(-135 279.107 738.237)" fill="url(#paint3_linear_114_12358)"/><rect x="541.377" y="711.699" width="136.298" height="1396.28" rx="68.149" transform="rotate(-135 541.377 711.699)" fill="url(#paint4_linear_114_12358)"/><rect x="948.604" y="660.094" width="170.432" height="1073.34" rx="78.101" transform="rotate(-135 948.604 660.094)" fill="url(#paint5_linear_114_12358)"/><defs><linearGradient id="paint0_linear_114_12358" x1="521.553" y1="303.893" x2="521.553" y2="1032.84" gradientUnits="userSpaceOnUse"><stop stop-color="#1B135B" stop-opacity="0"/><stop offset=".334" stop-color="#1A1352"/></linearGradient><linearGradient id="paint1_linear_114_12358" x1="456.009" y1="74.741" x2="456.009" y2="803.685" gradientUnits="userSpaceOnUse"><stop stop-color="#1B135B" stop-opacity="0"/><stop offset=".334" stop-color="#1A1352"/></linearGradient><linearGradient id="paint2_linear_114_12358" x1="-44.991" y1="70.741" x2="-44.991" y2="799.685" gradientUnits="userSpaceOnUse"><stop stop-color="#1B135B" stop-opacity="0"/><stop offset=".334" stop-color="#1A1352"/></linearGradient><linearGradient id="paint3_linear_114_12358" x1="357.208" y1="738.237" x2="357.208" y2="1742.03" gradientUnits="userSpaceOnUse"><stop stop-color="#150E48"/><stop offset="1" stop-color="#1B135B" stop-opacity="0"/></linearGradient><linearGradient id="paint4_linear_114_12358" x1="609.526" y1="711.699" x2="609.526" y2="2107.98" gradientUnits="userSpaceOnUse"><stop stop-color="#130D42"/><stop offset="1" stop-color="#1B135B" stop-opacity="0"/></linearGradient><linearGradient id="paint5_linear_114_12358" x1="1033.82" y1="660.094" x2="1033.82" y2="1733.43" gradientUnits="userSpaceOnUse"><stop stop-color="#1B135B" stop-opacity="0"/><stop offset=".334" stop-color="#1A1352"/></linearGradient></defs></svg>