<svg width="1151" height="186" fill="none" xmlns="http://www.w3.org/2000/svg"><g clip-path="url(#clip0_118_15404)" opacity=".44"><g filter="url(#filter0_f_118_15404)"><ellipse cx="805" cy="243.5" rx="211" ry="99.5" fill="#7A8EF6"/></g><rect x="220.452" y="301.893" width="156.202" height="728.944" rx="78.101" transform="rotate(-135 220.452 301.893)" fill="url(#paint0_linear_118_15404)"/><rect x="183.3" y="72.741" width="99.418" height="728.944" rx="49.709" transform="rotate(-135 183.3 72.74)" fill="url(#paint1_linear_118_15404)"/><rect x="-317.7" y="68.741" width="99.418" height="728.944" rx="49.709" transform="rotate(-135 -317.7 68.74)" fill="url(#paint2_linear_118_15404)"/><rect x="56.107" y="736.237" width="156.202" height="1003.79" rx="78.101" transform="rotate(-135 56.107 736.237)" fill="url(#paint3_linear_118_15404)"/><rect x="318.377" y="709.699" width="136.298" height="1396.28" rx="68.149" transform="rotate(-135 318.377 709.699)" fill="url(#paint4_linear_118_15404)"/><rect x="725.604" y="658.094" width="170.432" height="1073.34" rx="78.101" transform="rotate(-135 725.604 658.094)" fill="url(#paint5_linear_118_15404)"/></g><defs><linearGradient id="paint0_linear_118_15404" x1="298.553" y1="301.893" x2="298.553" y2="1030.84" gradientUnits="userSpaceOnUse"><stop stop-color="#1B135B" stop-opacity="0"/><stop offset=".334" stop-color="#1A1352"/></linearGradient><linearGradient id="paint1_linear_118_15404" x1="233.009" y1="72.741" x2="233.009" y2="801.685" gradientUnits="userSpaceOnUse"><stop stop-color="#1B135B" stop-opacity="0"/><stop offset=".334" stop-color="#1A1352"/></linearGradient><linearGradient id="paint2_linear_118_15404" x1="-267.991" y1="68.741" x2="-267.991" y2="797.685" gradientUnits="userSpaceOnUse"><stop stop-color="#1B135B" stop-opacity="0"/><stop offset=".334" stop-color="#1A1352"/></linearGradient><linearGradient id="paint3_linear_118_15404" x1="134.208" y1="736.237" x2="134.208" y2="1740.03" gradientUnits="userSpaceOnUse"><stop stop-color="#150E48"/><stop offset="1" stop-color="#1B135B" stop-opacity="0"/></linearGradient><linearGradient id="paint4_linear_118_15404" x1="386.526" y1="709.699" x2="386.526" y2="2105.98" gradientUnits="userSpaceOnUse"><stop stop-color="#130D42"/><stop offset="1" stop-color="#1B135B" stop-opacity="0"/></linearGradient><linearGradient id="paint5_linear_118_15404" x1="810.82" y1="658.094" x2="810.82" y2="1731.43" gradientUnits="userSpaceOnUse"><stop stop-color="#1B135B" stop-opacity="0"/><stop offset=".334" stop-color="#1A1352"/></linearGradient><clipPath id="clip0_118_15404"><rect width="1151" height="186" rx="10" fill="#fff"/></clipPath><filter id="filter0_f_118_15404" x="394" y="-56" width="822" height="599" filterUnits="userSpaceOnUse" color-interpolation-filters="sRGB"><feFlood flood-opacity="0" result="BackgroundImageFix"/><feBlend in="SourceGraphic" in2="BackgroundImageFix" result="shape"/><feGaussianBlur stdDeviation="100" result="effect1_foregroundBlur_118_15404"/></filter></defs></svg>