<svg width="131" height="166" fill="none" xmlns="http://www.w3.org/2000/svg"><g clip-path="url(#clip0_229_8681)"><path d="M65.127 144.782L.23 107.736l64.897-36.901 64.897 36.901-64.897 37.046z" fill="#BCBEFF"/><path d="M65.128 134.653l-47.171-26.917L65.128 80.82l47.171 26.916-47.17 26.917z" fill="#453C9E"/><path d="M65.128 82.701l45.56 26.048 1.611-1.013-47.17-26.916-47.172 26.916 1.611 1.013 45.56-26.048z" fill="#fff"/><path d="M130.024 107.737v20.983l-64.897 37.046v-20.983l64.897-37.046z" fill="url(#paint0_linear_229_8681)"/><path d="M.23 107.737v20.983l64.897 37.046v-20.983L.23 107.737z" fill="#24126A"/><path opacity=".51" d="M4.625 117.143v6.656l56.107 31.981v-6.656L4.625 117.143z" fill="#453C9E"/><path d="M65.127 143.624L1.256 107.157l-1.026.579 64.897 37.046 64.897-37.046-1.172-.579-63.725 36.467z" fill="#fff"/><path d="M120.21 122.497v3.762l-45.413 25.904V148.4l45.413-25.903z" fill="#453C9E"/><path opacity=".51" d="M.23 107.737v20.983l64.897 37.046v-20.983L.23 107.737z" fill="#453C9E"/><path d="M46.231 143.625l-11.866-6.657v1.303l11.866 6.801v-1.447zm-13.479-7.67l-3.223-1.737v1.302l3.223 1.882v-1.447zm-14.943-8.393l-6.446-3.763v1.447l6.446 3.618v-1.302zm6.008 3.328l-4.835-2.75v1.447l4.835 2.75v-1.447zm4.394 2.46l-3.223-1.736v1.302l3.223 1.881v-1.447zm36.918-43.268l-2.05-1.158 2.05-1.158 2.051 1.158-2.051 1.157z" fill="#42E8E0"/><path opacity=".1" d="M69.23 92.397l-2.05-1.158 2.05-1.158 2.051 1.158-2.05 1.158z" fill="#42E8E0"/><path opacity=".4" d="M73.332 94.857l-2.05-1.158 2.05-1.302 2.198 1.302-2.198 1.158z" fill="#42E8E0"/><path d="M77.58 97.172l-2.05-1.158 2.05-1.157 2.051 1.157-2.05 1.158z" fill="#42E8E0"/><path opacity=".4" d="M81.684 99.487l-2.051-1.157 2.05-1.158 2.052 1.158-2.051 1.157z" fill="#42E8E0"/><path d="M85.785 101.803l-2.05-1.158 2.05-1.157 2.051 1.157-2.05 1.158zm4.102 2.46l-2.051-1.157 2.05-1.303 2.052 1.303-2.051 1.157zm4.099 2.316l-2.05-1.158 2.05-1.158 2.051 1.158-2.05 1.158z" fill="#42E8E0"/><path opacity=".1" d="M98.088 108.894l-2.05-1.158 2.05-1.157 2.051 1.157-2.051 1.158z" fill="#42E8E0"/><path d="M61.028 92.541l-2.051-1.302 2.05-1.158 2.051 1.158-2.05 1.302zm4.101 2.316l-2.05-1.158 2.05-1.157 2.05 1.157-2.05 1.158zm4.101 2.315l-2.05-1.158 2.05-1.157 2.051 1.157-2.05 1.158zm4.102 2.315l-2.05-1.157 2.05-1.158 2.051 1.158-2.05 1.157zm4.104 2.316l-2.051-1.158 2.05-1.158 2.198 1.158-2.197 1.158zm4.248 2.46l-2.051-1.158 2.05-1.302 2.052 1.302-2.051 1.158zm4.101 2.315l-2.05-1.158 2.05-1.158 2.051 1.158-2.05 1.158zm4.1 2.316l-2.051-1.158 2.05-1.157 2.052 1.157-2.051 1.158zm4.102 2.315l-2.051-1.158 2.05-1.157 2.051 1.157-2.05 1.158zM56.926 94.857L54.875 93.7l2.05-1.157 2.052 1.157-2.051 1.158zm4.102 2.315l-2.051-1.157 2.05-1.158 2.051 1.158-2.05 1.157zm4.101 2.316l-2.05-1.158 2.05-1.158 2.051 1.158-2.051 1.158z" fill="#42E8E0"/><path opacity=".1" d="M69.23 101.948l-2.05-1.302 2.05-1.158 2.051 1.158-2.05 1.302z" fill="#42E8E0"/><path opacity=".4" d="M73.334 104.263l-2.05-1.158 2.05-1.157 2.051 1.157-2.05 1.158zm4.102 2.316l-2.051-1.158 2.05-1.158 2.052 1.158-2.051 1.158z" fill="#42E8E0"/><path d="M81.537 108.894l-2.05-1.158 2.05-1.157 2.198 1.157-2.198 1.158zm4.246 2.46l-2.05-1.302 2.05-1.158 2.051 1.158-2.05 1.302zm4.102 2.315l-2.051-1.157 2.05-1.158 2.052 1.158-2.051 1.157z" fill="#42E8E0"/><path opacity=".4" d="M52.822 97.172l-2.197-1.157 2.197-1.158 2.051 1.158-2.05 1.157zm4.102 2.315l-2.051-1.157 2.051-1.158 2.05 1.158-2.05 1.157z" fill="#42E8E0"/><path opacity=".1" d="M61.026 101.948l-2.051-1.158 2.05-1.303 2.051 1.303-2.05 1.158z" fill="#42E8E0"/><path d="M65.127 104.263l-2.05-1.158 2.05-1.157 2.051 1.157-2.05 1.158zm4.103 2.315l-2.05-1.158 2.05-1.157 2.051 1.157-2.05 1.158zm4.102 2.316l-2.05-1.158 2.05-1.157 2.051 1.157-2.05 1.158z" fill="#42E8E0"/><path opacity=".4" d="M77.434 111.354l-2.051-1.303 2.05-1.157 2.052 1.157-2.051 1.303z" fill="#42E8E0"/><path d="M81.535 113.67l-2.05-1.158 2.05-1.158 2.051 1.158-2.05 1.158zm4.246 2.315l-2.197-1.158 2.197-1.158 2.051 1.158-2.05 1.158zM48.574 99.487l-2.05-1.157 2.05-1.158 2.051 1.158-2.05 1.157zm4.102 2.46l-2.051-1.157 2.05-1.303 2.052 1.303-2.051 1.157zm4.248 2.316l-2.197-1.158 2.197-1.157 2.05 1.157-2.05 1.158zm4.102 2.315l-2.051-1.158 2.05-1.157 2.051 1.157-2.05 1.158zm4.103 2.315l-2.05-1.157 2.05-1.158 2.05 1.158-2.05 1.157zm4.101 2.461l-2.05-1.158 2.05-1.302 2.051 1.302-2.05 1.158zm4.102 2.315l-2.05-1.158 2.05-1.158 2.051 1.158-2.05 1.158zm4.1 2.316l-2.051-1.158 2.05-1.158 2.052 1.158-2.051 1.158zm4.101 2.315l-2.05-1.158 2.05-1.158 2.051 1.158-2.05 1.158zm-37.06-16.352l-2.051-1.158 2.05-1.157 2.052 1.157-2.051 1.158zm4.101 2.315l-2.05-1.157 2.05-1.158 2.051 1.158-2.05 1.157z" fill="#42E8E0"/><path opacity=".4" d="M52.676 106.579l-2.051-1.158 2.05-1.158 2.052 1.158-2.051 1.158z" fill="#42E8E0"/><path d="M56.778 108.895l-2.051-1.158 2.05-1.158 2.051 1.158-2.05 1.158z" fill="#42E8E0"/><path opacity=".1" d="M61.028 111.355l-2.198-1.158 2.198-1.302 2.05 1.302-2.05 1.158z" fill="#42E8E0"/><path d="M65.129 113.67l-2.05-1.158 2.05-1.158 2.051 1.158-2.051 1.158zm4.101 2.315l-2.05-1.157 2.05-1.158 2.051 1.158-2.05 1.157zm4.1 2.315l-2.05-1.157 2.05-1.158 2.051 1.158-2.05 1.157zm4.102 2.46l-2.051-1.157 2.05-1.303 2.052 1.303-2.051 1.157zm-37.061-16.497l-2.05-1.158 2.05-1.157 2.051 1.157-2.05 1.158zm4.102 2.315l-2.051-1.157 2.05-1.158 2.052 1.158-2.051 1.157z" fill="#42E8E0"/><path opacity=".4" d="M48.574 109.038l-2.05-1.302 2.05-1.158 2.051 1.158-2.05 1.302z" fill="#42E8E0"/><path d="M52.676 111.353l-2.051-1.157 2.05-1.158 2.052 1.158-2.051 1.157zm4.104 2.316l-2.052-1.158 2.051-1.157 2.051 1.157-2.05 1.158z" fill="#42E8E0"/><path opacity=".1" d="M60.881 115.985l-2.05-1.158 2.05-1.158 2.05 1.158-2.05 1.158z" fill="#42E8E0"/><path opacity=".4" d="M65.13 118.3l-2.198-1.158 2.197-1.157 2.051 1.157-2.05 1.158z" fill="#42E8E0"/><path d="M69.229 120.76l-2.051-1.158 2.05-1.302 2.052 1.302-2.051 1.158z" fill="#42E8E0"/><path opacity=".1" d="M73.332 123.075l-2.05-1.158 2.05-1.157 2.051 1.157-2.05 1.158z" fill="#42E8E0"/><path d="M36.27 106.579l-2.051-1.158 2.05-1.157 2.052 1.157-2.051 1.158z" fill="#42E8E0"/><path opacity=".4" d="M40.371 109.039l-2.05-1.302 2.05-1.158 2.051 1.158-2.05 1.302z" fill="#42E8E0"/><path d="M44.473 111.354l-2.051-1.157 2.05-1.158 2.052 1.158-2.051 1.157zm4.101 2.316l-2.05-1.158 2.05-1.158 2.051 1.158-2.05 1.158zm4.104 2.315l-2.051-1.158 2.05-1.157 2.052 1.157-2.051 1.158zm4.102 2.46l-2.052-1.302 2.051-1.158 2.051 1.158-2.05 1.302zm4.101 2.316l-2.05-1.158 2.05-1.157 2.05 1.157-2.05 1.158z" fill="#42E8E0"/><path opacity=".4" d="M64.983 123.076l-2.051-1.158 2.05-1.157 2.198 1.157-2.197 1.158z" fill="#42E8E0"/><path d="M69.229 125.391l-2.051-1.157 2.05-1.158 2.052 1.158-2.051 1.157zm-37.207-16.352l-2.051-1.158 2.05-1.302 2.051 1.302-2.05 1.158z" fill="#42E8E0"/><path opacity=".1" d="M36.123 111.354l-2.05-1.157 2.05-1.158 2.198 1.158-2.198 1.157z" fill="#42E8E0"/><path d="M40.371 113.669l-2.05-1.157 2.05-1.158 2.051 1.158-2.05 1.157zm4.102 2.316l-2.051-1.158 2.05-1.158 2.052 1.158-2.051 1.158zm4.103 2.46l-2.05-1.303 2.05-1.157 2.051 1.157-2.05 1.303zm4.102 2.315l-2.051-1.158 2.05-1.157 2.052 1.157-2.051 1.158z" fill="#42E8E0"/><path opacity=".4" d="M56.78 123.075l-2.052-1.158 2.051-1.157 2.051 1.157-2.05 1.158z" fill="#42E8E0"/><path d="M60.879 125.391l-2.05-1.158 2.05-1.157 2.05 1.157-2.05 1.158zm4.101 2.46l-2.05-1.302 2.05-1.158 2.051 1.158-2.05 1.302z" fill="#42E8E0"/><path d="M65.127 109.474L.23 72.428l64.897-37.046 64.897 37.046-64.897 37.046z" fill="#BCBEFF"/><path d="M65.128 99.344L17.957 72.428l47.171-26.916L112.3 72.428 65.13 99.344z" fill="#453C9E"/><path d="M65.128 47.393l45.56 25.903 1.611-.868-47.17-26.916-47.172 26.916 1.611.868 45.56-25.903z" fill="#fff"/><path d="M130.024 72.428V93.41l-64.897 37.046v-20.983l64.897-37.046z" fill="url(#paint1_linear_229_8681)"/><path d="M.23 72.428V93.41l64.897 37.046v-20.983L.23 72.428z" fill="#24126A"/><path opacity=".51" d="M4.625 81.834v6.657l56.107 31.981v-6.657L4.625 81.835z" fill="#453C9E"/><path d="M65.127 108.172L1.256 71.849l-1.026.579 64.897 37.046 64.897-37.046-1.172-.579-63.725 36.323z" fill="#fff"/><path d="M120.21 87.188v3.618l-45.413 25.903v-3.762l45.413-25.759z" fill="#453C9E"/><path opacity=".51" d="M.23 72.428V93.41l64.897 37.046v-20.983L.23 72.428z" fill="#453C9E"/><path d="M46.231 108.316l-11.866-6.657v1.303l11.866 6.656v-1.302zm-13.479-7.67l-3.223-1.881v1.447l3.223 1.881v-1.447zm-14.943-8.537l-6.446-3.618v1.302l6.446 3.763v-1.447zm6.008 3.473l-4.835-2.75v1.447l4.835 2.605v-1.302zm4.394 2.459l-3.223-1.736v1.302l3.223 1.881v-1.447zm36.918-43.268l-2.05-1.158 2.05-1.157 2.051 1.157-2.051 1.158z" fill="#42E8E0"/><path opacity=".1" d="M69.23 57.088l-2.05-1.158 2.05-1.157 2.051 1.157-2.05 1.158z" fill="#42E8E0"/><path opacity=".4" d="M73.332 59.404l-2.05-1.158 2.05-1.158 2.198 1.158-2.198 1.157z" fill="#42E8E0"/><path d="M77.58 61.864l-2.05-1.158 2.05-1.302 2.051 1.302-2.05 1.158z" fill="#42E8E0"/><path opacity=".4" d="M81.684 64.179l-2.051-1.158 2.05-1.157 2.052 1.157-2.051 1.158z" fill="#42E8E0"/><path d="M85.785 66.495l-2.05-1.158 2.05-1.158 2.051 1.158-2.05 1.158zm4.102 2.315l-2.051-1.158 2.05-1.158 2.052 1.158-2.051 1.158zm4.099 2.46l-2.05-1.302 2.05-1.158 2.051 1.157-2.05 1.303z" fill="#42E8E0"/><path opacity=".1" d="M98.088 73.585l-2.05-1.157 2.05-1.158 2.051 1.158-2.051 1.157z" fill="#42E8E0"/><path d="M61.028 57.088l-2.051-1.158 2.05-1.157 2.051 1.157-2.05 1.158zm4.101 2.315l-2.05-1.157 2.05-1.158 2.05 1.158-2.05 1.157zm4.101 2.46l-2.05-1.157 2.05-1.303 2.051 1.303-2.05 1.157zm4.102 2.316l-2.05-1.158 2.05-1.157 2.051 1.157-2.05 1.158zm4.104 2.315l-2.051-1.158 2.05-1.157 2.198 1.157-2.197 1.158zm4.248 2.316l-2.051-1.158 2.05-1.158 2.052 1.158-2.051 1.158zm4.101 2.46l-2.05-1.158 2.05-1.302 2.051 1.302-2.05 1.158zm4.1 2.315l-2.051-1.157 2.05-1.158 2.052 1.158-2.051 1.157zm4.102 2.315l-2.051-1.157 2.05-1.158 2.051 1.158-2.05 1.157zM56.926 59.548l-2.051-1.302 2.05-1.158 2.052 1.158-2.051 1.302zm4.102 2.316l-2.051-1.158 2.05-1.158 2.051 1.158-2.05 1.158zm4.101 2.315l-2.05-1.158 2.05-1.158 2.051 1.158-2.051 1.158z" fill="#42E8E0"/><path opacity=".1" d="M69.23 66.494l-2.05-1.158 2.05-1.157 2.051 1.157-2.05 1.158z" fill="#42E8E0"/><path opacity=".4" d="M73.334 68.81l-2.05-1.158 2.05-1.158 2.051 1.158-2.05 1.157zm4.102 2.46l-2.051-1.158 2.05-1.302 2.052 1.302-2.051 1.158z" fill="#42E8E0"/><path d="M81.537 73.586l-2.05-1.158 2.05-1.158 2.198 1.158-2.198 1.158zm4.246 2.314l-2.05-1.157 2.05-1.158 2.051 1.158-2.05 1.158zm4.102 2.316l-2.051-1.158 2.05-1.157 2.052 1.157-2.051 1.158z" fill="#42E8E0"/><path opacity=".4" d="M52.822 61.864l-2.197-1.158 2.197-1.158 2.051 1.158-2.05 1.157zm4.102 2.315l-2.051-1.158 2.051-1.158 2.05 1.158-2.05 1.158z" fill="#42E8E0"/><path opacity=".1" d="M61.026 66.494l-2.051-1.158 2.05-1.157 2.051 1.157-2.05 1.158z" fill="#42E8E0"/><path d="M65.127 68.954l-2.05-1.302 2.05-1.158 2.051 1.158-2.05 1.302zm4.103 2.316l-2.05-1.158 2.05-1.158 2.051 1.158-2.05 1.157zm4.102 2.315l-2.05-1.157 2.05-1.158 2.051 1.157-2.05 1.158z" fill="#42E8E0"/><path opacity=".4" d="M77.434 75.9l-2.051-1.157 2.05-1.158 2.052 1.158-2.051 1.158z" fill="#42E8E0"/><path d="M81.535 78.216l-2.05-1.158 2.05-1.158 2.051 1.158-2.05 1.158zm4.246 2.46l-2.197-1.158 2.197-1.302 2.051 1.302-2.05 1.158zM48.574 64.179l-2.05-1.158 2.05-1.157 2.051 1.157-2.05 1.158zm4.102 2.315l-2.051-1.158 2.05-1.157 2.052 1.157-2.051 1.158zm4.248 2.46l-2.197-1.302 2.197-1.158 2.05 1.158-2.05 1.302zm4.102 2.316l-2.051-1.158 2.05-1.158 2.051 1.158-2.05 1.158zm4.103 2.315l-2.05-1.158 2.05-1.158 2.05 1.158-2.05 1.158zM69.23 75.9l-2.05-1.157 2.05-1.158 2.051 1.158-2.05 1.158zm4.102 2.46l-2.05-1.302 2.05-1.158 2.051 1.158-2.05 1.302zm4.1 2.316L75.38 79.52l2.05-1.158 2.052 1.157-2.051 1.158zm4.101 2.315l-2.05-1.157 2.05-1.158 2.051 1.157-2.05 1.158zm-37.06-16.496l-2.051-1.158 2.05-1.158 2.052 1.158-2.051 1.158zm4.101 2.46l-2.05-1.158 2.05-1.302 2.051 1.302-2.05 1.158z" fill="#42E8E0"/><path opacity=".4" d="M52.676 71.27l-2.051-1.157 2.05-1.158 2.052 1.157-2.051 1.158z" fill="#42E8E0"/><path d="M56.778 73.585l-2.051-1.157 2.05-1.158 2.051 1.158-2.05 1.157z" fill="#42E8E0"/><path opacity=".1" d="M61.028 75.9l-2.198-1.157 2.198-1.158 2.05 1.158-2.05 1.158z" fill="#42E8E0"/><path d="M65.129 78.361l-2.05-1.302 2.05-1.158 2.051 1.158-2.051 1.302zm4.101 2.315l-2.05-1.158 2.05-1.157 2.051 1.157-2.05 1.158zm4.1 2.316l-2.05-1.158 2.05-1.157 2.051 1.157-2.05 1.158zm4.102 2.315L75.38 84.15l2.05-1.157 2.052 1.157-2.051 1.158zM40.371 68.954l-2.05-1.157 2.05-1.158 2.051 1.158-2.05 1.157zm4.102 2.316l-2.051-1.158 2.05-1.158 2.052 1.158-2.051 1.157z" fill="#42E8E0"/><path opacity=".4" d="M48.574 73.585l-2.05-1.158 2.05-1.158 2.051 1.158-2.05 1.158z" fill="#42E8E0"/><path d="M52.676 75.9l-2.051-1.157 2.05-1.158 2.052 1.158-2.051 1.158zm4.104 2.46l-2.052-1.157 2.051-1.302 2.051 1.302-2.05 1.158z" fill="#42E8E0"/><path opacity=".1" d="M60.881 80.676l-2.05-1.158 2.05-1.157 2.05 1.157-2.05 1.158z" fill="#42E8E0"/><path opacity=".4" d="M65.13 82.991l-2.198-1.157 2.197-1.158 2.051 1.158-2.05 1.157z" fill="#42E8E0"/><path d="M69.229 85.307l-2.051-1.158 2.05-1.158 2.052 1.158-2.051 1.158z" fill="#42E8E0"/><path opacity=".1" d="M73.332 87.766l-2.05-1.157 2.05-1.303 2.051 1.303-2.05 1.157z" fill="#42E8E0"/><path d="M36.27 71.27l-2.051-1.157 2.05-1.158 2.052 1.158-2.051 1.157z" fill="#42E8E0"/><path opacity=".4" d="M40.371 73.586l-2.05-1.158 2.05-1.158 2.051 1.158-2.05 1.158z" fill="#42E8E0"/><path d="M44.473 76.046l-2.051-1.303 2.05-1.157 2.052 1.157-2.051 1.303zm4.101 2.315l-2.05-1.158 2.05-1.157 2.051 1.157-2.05 1.158zm4.104 2.316l-2.051-1.158 2.05-1.158 2.052 1.158-2.051 1.157zm4.102 2.315l-2.052-1.158 2.051-1.157 2.051 1.157-2.05 1.158zm4.101 2.316l-2.05-1.158 2.05-1.158 2.05 1.158-2.05 1.158z" fill="#42E8E0"/><path opacity=".4" d="M64.983 87.767l-2.051-1.157 2.05-1.303 2.198 1.303-2.197 1.157z" fill="#42E8E0"/><path d="M69.229 90.083l-2.051-1.158 2.05-1.157 2.052 1.157-2.051 1.158zM32.022 73.585l-2.051-1.157 2.05-1.158 2.051 1.158-2.05 1.157z" fill="#42E8E0"/><path opacity=".1" d="M36.123 76.045l-2.05-1.302 2.05-1.158 2.198 1.158-2.198 1.302z" fill="#42E8E0"/><path d="M40.371 78.36l-2.05-1.157 2.05-1.158 2.051 1.158-2.05 1.158zm4.102 2.316l-2.051-1.158 2.05-1.157 2.052 1.157-2.051 1.158zm4.103 2.315l-2.05-1.157 2.05-1.158 2.051 1.158-2.05 1.157zm4.102 2.461l-2.051-1.302 2.05-1.158 2.052 1.158-2.051 1.302z" fill="#42E8E0"/><path opacity=".4" d="M56.78 87.766l-2.052-1.157 2.051-1.158 2.051 1.158-2.05 1.157z" fill="#42E8E0"/><path d="M60.879 90.082l-2.05-1.157 2.05-1.158 2.05 1.158-2.05 1.157zm4.101 2.316l-2.05-1.158 2.05-1.157 2.051 1.157-2.05 1.158z" fill="#42E8E0"/><path d="M65.127 74.02L.23 37.117 65.127.072l64.897 37.046-64.897 36.901z" fill="#BCBEFF"/><path d="M65.128 63.89L17.957 37.118l47.171-26.916L112.3 37.118 65.129 63.89z" fill="#453C9E"/><path d="M65.128 11.938l45.56 26.048 1.611-.868-47.17-26.916-47.172 26.916 1.611.868 45.56-26.048z" fill="#fff"/><path d="M130.024 37.118V58.1L65.127 95.002V74.02l64.897-36.901z" fill="url(#paint2_linear_229_8681)"/><path d="M.23 37.118V58.1l64.897 36.901V74.02L.23 37.118z" fill="#24126A"/><path opacity=".51" d="M4.625 46.524v6.512l56.107 31.981v-6.511L4.625 46.523z" fill="#453C9E"/><path d="M65.127 72.861L1.256 36.394l-1.026.724 64.897 36.901 64.897-36.901-1.172-.724-63.725 36.467z" fill="#fff"/><path d="M120.21 51.734v3.762L74.797 81.4v-3.763l45.413-25.903z" fill="#453C9E"/><path opacity=".51" d="M.23 37.118V58.1l64.897 36.901V74.02L.23 37.118z" fill="#453C9E"/><path d="M46.231 73.007l-11.866-6.802v1.447l11.866 6.657v-1.302zm-13.479-7.671l-3.223-1.88v1.446l3.223 1.737v-1.303zm-14.943-8.537l-6.446-3.763v1.447l6.446 3.763v-1.447zm6.008 3.328l-4.835-2.605v1.303l4.835 2.75v-1.448zm4.394 2.605l-3.223-1.881v1.447l3.223 1.736v-1.302zm36.918-43.269l-2.05-1.302 2.05-1.158 2.051 1.158-2.051 1.302z" fill="#42E8E0"/><path opacity=".1" d="M69.23 21.779l-2.05-1.158 2.05-1.157 2.051 1.157-2.05 1.158z" fill="#42E8E0"/><path opacity=".4" d="M73.332 24.094l-2.05-1.158 2.05-1.157 2.198 1.157-2.198 1.158z" fill="#42E8E0"/><path d="M77.58 26.41l-2.05-1.158 2.05-1.158 2.051 1.158-2.05 1.157z" fill="#42E8E0"/><path opacity=".4" d="M81.684 28.87l-2.051-1.303 2.05-1.158 2.052 1.158-2.051 1.302z" fill="#42E8E0"/><path d="M85.785 31.185l-2.05-1.158 2.05-1.158 2.051 1.158-2.05 1.158zm4.102 2.315l-2.051-1.157 2.05-1.158 2.052 1.158-2.051 1.157zm4.099 2.316l-2.05-1.158 2.05-1.157 2.051 1.157-2.05 1.158z" fill="#42E8E0"/><path opacity=".1" d="M98.088 38.131l-2.05-1.157 2.05-1.158 2.051 1.158-2.051 1.157z" fill="#42E8E0"/><path d="M61.028 21.779l-2.051-1.158 2.05-1.157 2.051 1.157-2.05 1.158zm4.101 2.315l-2.05-1.158 2.05-1.157 2.05 1.157-2.05 1.158zm4.101 2.316l-2.05-1.158 2.05-1.158 2.051 1.158-2.05 1.158zm4.102 2.46l-2.05-1.158 2.05-1.302 2.051 1.302-2.05 1.158zm4.104 2.315l-2.051-1.158 2.05-1.157 2.198 1.157-2.197 1.158zm4.248 2.315l-2.051-1.157 2.05-1.158 2.052 1.158-2.051 1.158zm4.101 2.316l-2.05-1.158 2.05-1.157 2.051 1.157-2.05 1.158zm4.1 2.46l-2.051-1.302 2.05-1.158 2.052 1.158-2.051 1.302zm4.102 2.316l-2.051-1.158 2.05-1.158 2.051 1.158-2.05 1.158zM56.926 24.094l-2.051-1.157 2.05-1.158 2.052 1.158-2.051 1.157zm4.102 2.316l-2.051-1.158 2.05-1.158 2.051 1.158-2.05 1.158zm4.101 2.46l-2.05-1.158 2.05-1.302 2.051 1.302-2.051 1.158z" fill="#42E8E0"/><path opacity=".1" d="M69.23 31.185l-2.05-1.158 2.05-1.157 2.051 1.157-2.05 1.158z" fill="#42E8E0"/><path opacity=".4" d="M73.334 33.5l-2.05-1.157 2.05-1.158 2.051 1.158-2.05 1.157zm4.102 2.316l-2.051-1.158 2.05-1.157 2.052 1.157-2.051 1.158z" fill="#42E8E0"/><path d="M81.537 38.276l-2.05-1.158 2.05-1.302 2.198 1.302-2.198 1.158zm4.246 2.316l-2.05-1.158 2.05-1.158 2.051 1.158-2.05 1.158zm4.102 2.315l-2.051-1.158 2.05-1.158 2.052 1.158-2.051 1.158z" fill="#42E8E0"/><path opacity=".4" d="M52.822 26.554l-2.197-1.302 2.197-1.158 2.051 1.158-2.05 1.302zm4.102 2.316l-2.051-1.158 2.051-1.158 2.05 1.158-2.05 1.158z" fill="#42E8E0"/><path opacity=".1" d="M61.026 31.185l-2.051-1.158 2.05-1.158 2.051 1.158-2.05 1.158z" fill="#42E8E0"/><path d="M65.127 33.5l-2.05-1.158 2.05-1.157 2.051 1.157-2.05 1.158zm4.103 2.315l-2.05-1.158 2.05-1.157 2.051 1.157-2.05 1.158zm4.102 2.461l-2.05-1.158 2.05-1.302 2.051 1.302-2.05 1.158z" fill="#42E8E0"/><path opacity=".4" d="M77.434 40.59l-2.051-1.157 2.05-1.158 2.052 1.158-2.051 1.157z" fill="#42E8E0"/><path d="M81.535 42.906l-2.05-1.157 2.05-1.158 2.051 1.158-2.05 1.157zm4.246 2.316l-2.197-1.158 2.197-1.157 2.051 1.157-2.05 1.158zM48.574 28.87l-2.05-1.158 2.05-1.158 2.051 1.158-2.05 1.158zm4.102 2.315l-2.051-1.158 2.05-1.157 2.052 1.157-2.051 1.158zm4.248 2.315l-2.197-1.157 2.197-1.158 2.05 1.158-2.05 1.157zm4.102 2.461l-2.051-1.302 2.05-1.158 2.051 1.158-2.05 1.302zm4.103 2.315l-2.05-1.158 2.05-1.158 2.051 1.158-2.051 1.158zm4.101 2.316l-2.05-1.158 2.05-1.158 2.051 1.158-2.05 1.158zm4.102 2.315l-2.05-1.158 2.05-1.158 2.051 1.158-2.05 1.158zm4.1 2.315l-2.051-1.158 2.05-1.157 2.052 1.157-2.051 1.158zm4.101 2.46l-2.05-1.158 2.05-1.302 2.051 1.302-2.05 1.158zm-37.06-16.496l-2.051-1.158 2.05-1.158 2.052 1.158-2.051 1.158zm4.101 2.314l-2.05-1.157 2.05-1.158 2.051 1.158-2.05 1.158z" fill="#42E8E0"/><path opacity=".4" d="M52.676 35.96l-2.051-1.302 2.05-1.157 2.052 1.157-2.051 1.303z" fill="#42E8E0"/><path d="M56.778 38.276l-2.051-1.158 2.05-1.157 2.051 1.157-2.05 1.158z" fill="#42E8E0"/><path opacity=".1" d="M61.028 40.591l-2.198-1.157 2.198-1.158 2.05 1.158-2.05 1.157z" fill="#42E8E0"/><path d="M65.129 42.907l-2.05-1.157 2.05-1.158 2.051 1.157-2.051 1.158zm4.101 2.46l-2.05-1.302 2.05-1.158 2.051 1.158-2.05 1.302zm4.1 2.316l-2.05-1.158 2.05-1.158 2.051 1.158-2.05 1.158zm4.102 2.315L75.38 48.84l2.05-1.158 2.052 1.158-2.051 1.158zM40.371 33.5l-2.05-1.158 2.05-1.157 2.051 1.157-2.05 1.158zm4.102 2.46l-2.051-1.158 2.05-1.302 2.052 1.302-2.051 1.158z" fill="#42E8E0"/><path opacity=".4" d="M48.574 38.275l-2.05-1.157 2.05-1.158 2.051 1.158-2.05 1.157z" fill="#42E8E0"/><path d="M52.676 40.59l-2.051-1.157 2.05-1.158 2.052 1.158-2.051 1.157zm4.104 2.316l-2.052-1.158 2.051-1.157 2.051 1.157-2.05 1.158z" fill="#42E8E0"/><path opacity=".1" d="M60.881 45.367l-2.05-1.303 2.05-1.157 2.05 1.157-2.05 1.303z" fill="#42E8E0"/><path opacity=".4" d="M65.13 47.682l-2.198-1.158 2.197-1.157 2.051 1.157-2.05 1.158z" fill="#42E8E0"/><path d="M69.229 49.997l-2.051-1.158 2.05-1.157 2.052 1.157-2.051 1.158z" fill="#42E8E0"/><path opacity=".1" d="M73.332 52.312l-2.05-1.157 2.05-1.158 2.051 1.158-2.05 1.157z" fill="#42E8E0"/><path d="M36.27 35.961l-2.051-1.158 2.05-1.302 2.052 1.302-2.051 1.158z" fill="#42E8E0"/><path opacity=".4" d="M40.371 38.277l-2.05-1.158 2.05-1.158 2.051 1.158-2.05 1.158z" fill="#42E8E0"/><path d="M44.473 40.592l-2.051-1.158 2.05-1.158 2.052 1.158-2.051 1.158zm4.101 2.315l-2.05-1.158 2.05-1.157 2.051 1.157-2.05 1.158zm4.104 2.46l-2.051-1.158 2.05-1.302 2.052 1.302-2.051 1.158zm4.102 2.315l-2.052-1.157 2.051-1.158 2.051 1.158-2.05 1.157zm4.101 2.316l-2.05-1.157 2.05-1.158 2.05 1.158-2.05 1.157z" fill="#42E8E0"/><path opacity=".4" d="M64.983 52.313l-2.051-1.157 2.05-1.158 2.198 1.158-2.197 1.157z" fill="#42E8E0"/><path d="M69.229 54.774l-2.051-1.303 2.05-1.157 2.052 1.157-2.051 1.303zM32.022 38.276l-2.051-1.158 2.05-1.157 2.051 1.157-2.05 1.158z" fill="#42E8E0"/><path opacity=".1" d="M36.123 40.591l-2.05-1.157 2.05-1.158 2.198 1.158-2.198 1.157z" fill="#42E8E0"/><path d="M40.371 42.907l-2.05-1.158 2.05-1.158 2.051 1.158-2.05 1.158zm4.102 2.46l-2.051-1.157 2.05-1.303 2.052 1.303-2.051 1.157zm4.103 2.315l-2.05-1.158 2.05-1.157 2.051 1.157-2.05 1.158zm4.102 2.316l-2.051-1.158 2.05-1.157 2.052 1.157-2.051 1.158z" fill="#42E8E0"/><path opacity=".4" d="M56.78 52.313l-2.052-1.157 2.051-1.158 2.051 1.158-2.05 1.157z" fill="#42E8E0"/><path d="M60.879 54.773l-2.05-1.158 2.05-1.302 2.05 1.302-2.05 1.158zm4.101 2.315l-2.05-1.157 2.05-1.158 2.051 1.158-2.05 1.157z" fill="#42E8E0"/></g><defs><linearGradient id="paint0_linear_229_8681" x1="97.528" y1="152.795" x2="97.528" y2="109.008" gradientUnits="userSpaceOnUse"><stop stop-color="#C0BFF6"/><stop offset=".294" stop-color="#C5C4F7"/><stop offset=".64" stop-color="#D3D2F9"/><stop offset="1" stop-color="#E9E9FD"/></linearGradient><linearGradient id="paint1_linear_229_8681" x1="97.528" y1="117.439" x2="97.528" y2="73.652" gradientUnits="userSpaceOnUse"><stop stop-color="#C0BFF6"/><stop offset=".294" stop-color="#C5C4F7"/><stop offset=".64" stop-color="#D3D2F9"/><stop offset="1" stop-color="#E9E9FD"/></linearGradient><linearGradient id="paint2_linear_229_8681" x1="97.528" y1="82.083" x2="97.528" y2="38.296" gradientUnits="userSpaceOnUse"><stop stop-color="#C0BFF6"/><stop offset=".294" stop-color="#C5C4F7"/><stop offset=".64" stop-color="#D3D2F9"/><stop offset="1" stop-color="#E9E9FD"/></linearGradient><clipPath id="clip0_229_8681"><path fill="#fff" transform="translate(.23 .072)" d="M0 0h129.794v165.694H0z"/></clipPath></defs></svg>