<svg width="1420" height="119" fill="none" xmlns="http://www.w3.org/2000/svg"><mask id="a" style="mask-type:alpha" maskUnits="userSpaceOnUse" x="0" y="0" width="1538" height="119"><path fill="#3841B2" d="M.5.5h1537v118H.5z"/><path stroke="url(#paint0_linear_84_7912)" d="M.5.5h1537v118H.5z"/><path stroke="url(#paint1_linear_84_7912)" d="M.5.5h1537v118H.5z"/><path stroke="url(#paint2_linear_84_7912)" d="M.5.5h1537v118H.5z"/></mask><g mask="url(#a)"><rect x="1110.3" y="186.4" width="170.432" height="724.219" rx="78.101" transform="rotate(-135 1110.3 186.4)" fill="url(#paint3_linear_84_7912)"/><rect x="795.617" y="145.717" width="137.131" height="724.219" rx="68.566" transform="rotate(-135 795.617 145.717)" fill="url(#paint4_linear_84_7912)"/><rect x="510.484" y="152.584" width="126.242" height="724.219" rx="63.121" transform="rotate(-135 510.484 152.584)" fill="url(#paint5_linear_84_7912)"/><rect x="262.274" y="149.374" width="141.988" height="724.219" rx="70.994" transform="rotate(-135 262.274 149.374)" fill="url(#paint6_linear_84_7912)"/></g><defs><linearGradient id="paint0_linear_84_7912" x1="769" y1="-55.5" x2="769" y2="137" gradientUnits="userSpaceOnUse"><stop stop-color="#F8FFFF"/><stop offset="1" stop-color="#fff" stop-opacity="0"/></linearGradient><linearGradient id="paint1_linear_84_7912" x1="178.741" y1="0" x2="204.055" y2="184.188" gradientUnits="userSpaceOnUse"><stop stop-color="#949CFF"/><stop offset=".262" stop-color="#fff" stop-opacity="0"/></linearGradient><linearGradient id="paint2_linear_84_7912" x1="1408.94" y1="5.449" x2="1342.87" y2="249.06" gradientUnits="userSpaceOnUse"><stop stop-color="#949CFF"/><stop offset=".262" stop-color="#fff" stop-opacity="0"/></linearGradient><linearGradient id="paint3_linear_84_7912" x1="1195.52" y1="186.4" x2="1195.52" y2="910.619" gradientUnits="userSpaceOnUse"><stop stop-color="#1B135B" stop-opacity="0"/><stop offset=".334" stop-color="#1A1352"/></linearGradient><linearGradient id="paint4_linear_84_7912" x1="864.182" y1="145.717" x2="864.182" y2="869.936" gradientUnits="userSpaceOnUse"><stop stop-color="#1B135B" stop-opacity="0"/><stop offset=".334" stop-color="#1A1352"/></linearGradient><linearGradient id="paint5_linear_84_7912" x1="573.605" y1="152.584" x2="573.605" y2="876.803" gradientUnits="userSpaceOnUse"><stop stop-color="#1B135B" stop-opacity="0"/><stop offset=".334" stop-color="#1A1352"/></linearGradient><linearGradient id="paint6_linear_84_7912" x1="333.268" y1="149.374" x2="333.268" y2="873.593" gradientUnits="userSpaceOnUse"><stop stop-color="#1B135B" stop-opacity="0"/><stop offset=".334" stop-color="#1A1352"/></linearGradient></defs></svg>