<svg width="122" height="39" fill="none" xmlns="http://www.w3.org/2000/svg"><path fill-rule="evenodd" clip-rule="evenodd" d="M30.501 38.696H19.943L12.025 8.441C11.65 7.05 10.852 5.82 9.678 5.24 6.748 3.782 3.521 2.622 0 2.037V.872h17.009a4.435 4.435 0 014.401 3.782l4.108 21.824L36.071.872h10.265L30.501 38.696zm21.704 0h-9.972L50.444.872h9.972l-8.211 37.824zm21.111-27.345c.294-2.037 2.054-3.202 4.108-3.202 3.228-.293 6.744.292 9.678 1.744l1.761-8.143C85.929.585 82.701 0 79.772 0c-9.678 0-16.72 5.24-16.72 12.51 0 5.532 4.988 8.437 8.509 10.186 3.81 1.745 5.276 2.91 4.983 4.655 0 2.617-2.934 3.782-5.863 3.782-3.522 0-7.043-.873-10.265-2.33l-1.76 8.149c3.52 1.452 7.33 2.037 10.85 2.037 10.853.287 17.596-4.947 17.596-12.803 0-9.894-13.786-10.473-13.786-14.835zM122 38.696L114.083.872h-8.505c-1.76 0-3.521 1.165-4.108 2.91L86.809 38.696h10.265l2.049-5.526h12.612l1.174 5.526H122zm-14.955-27.638l2.93 14.256h-8.211l5.281-14.256z" fill="#fff"/></svg>