<svg width="1079" height="216" fill="none" xmlns="http://www.w3.org/2000/svg"><path d="M1076.03 161.269v-17.998c0-.636-3.16-1.152-7.06-1.152h-21.65c-3.9 0-7.06.516-7.06 1.152v17.998c0 .636 3.16 1.152 7.06 1.152h21.65c3.9 0 7.06-.516 7.06-1.152z" fill="#3841B2" stroke="#7A8EF6" stroke-width="2.9"/><path d="M64.068 184.272h80.085c14.742 0 26.694-11.952 26.694-26.694 0-14.744 11.952-26.695 26.695-26.695h80.084" stroke="#7A8EF6" stroke-width="5.9" stroke-linecap="round" stroke-dasharray="0.15 11.8"/><path d="M64.068 105.966h213.558m129.916 0H621.1" stroke="#3841B2" stroke-width="5.9" stroke-linecap="round" stroke-dasharray="0.15 11.8"/><path d="M408.428 130.884h185.084" stroke="#7A8EF6" stroke-width="5.9" stroke-linecap="round" stroke-dasharray="0.15 11.8"/><path d="M407.542 81.052H621.1M64.068 27.661h80.085c14.742 0 26.694 11.952 26.694 26.695s11.952 26.695 26.695 26.695h80.084" stroke="#3841B2" stroke-width="5.9" stroke-linecap="round" stroke-dasharray="0.15 11.8"/><path d="M14.336 35.781l5.735 1.335H31.54l5.734-1.335v-2.78l-5.735 1.334H20.072l-5.735-1.334v2.78zm34.407-15.35h-2.867v-2.78c0-4.519-3.943-8.342-8.602-8.342H27.239V2.357c0-.695-.717-1.39-1.434-1.39-.806 0-1.433.695-1.433 1.39V9.31H14.336c-4.749 0-8.601 3.823-8.601 8.342v2.78H2.778C1.254 20.432 0 21.736 0 23.213v11.123c0 1.565 1.254 2.781 2.867 2.781h2.868c0 4.606 3.852 8.342 8.601 8.342h22.938c4.66 0 8.602-3.736 8.602-8.342h2.867c1.523 0 2.867-1.216 2.867-2.78V23.212c0-1.478-1.344-2.781-2.867-2.781zM5.735 34.336H2.867V23.212h2.868v11.123zm37.273 2.781c-.09 3.128-2.598 5.562-5.734 5.562H14.336c-3.225 0-5.734-2.434-5.734-5.562V17.651c0-3.041 2.509-5.561 5.645-5.561h23.027c3.136 0 5.734 2.52 5.734 5.561v19.465zm5.735-2.78h-2.867V23.212h2.867v11.122zM34.407 17.65c-3.226 0-5.735 2.52-5.735 5.561 0 3.129 2.51 5.562 5.735 5.562 3.136 0 5.734-2.433 5.734-5.562-.09-3.04-2.598-5.474-5.734-5.56zm0 8.342c-1.613 0-2.867-1.216-2.867-2.78 0-1.478 1.254-2.781 2.867-2.781 1.523 0 2.867 1.303 2.867 2.78v.087c0 1.478-1.344 2.694-2.867 2.694zM17.203 17.65c-3.225 0-5.734 2.52-5.734 5.561 0 3.129 2.509 5.562 5.734 5.562 3.136 0 5.735-2.433 5.735-5.562-.09-3.04-2.599-5.474-5.735-5.56zm0 8.342c-1.612 0-2.867-1.216-2.867-2.78 0-1.478 1.255-2.781 2.867-2.781 1.524 0 2.868 1.303 2.868 2.78v.087c0 1.478-1.344 2.694-2.868 2.694z" fill="#3841B2"/><path d="M27.585 82.497c6.149 0 11.29 5.141 11.29 11.29 0 6.249-5.141 11.289-11.29 11.289-6.25 0-11.29-5.04-11.29-11.29 0-6.148 5.04-11.29 11.29-11.29zm12.902 32.257c5.242 0 9.677 4.434 9.677 9.676v3.225H5.005v-3.225c0-5.242 4.335-9.676 9.677-9.676 8.568 0 6.754 1.612 12.903 1.612 6.048 0 4.233-1.612 12.902-1.612zM27.585 79.271c-8.064 0-14.516 6.552-14.516 14.516a14.455 14.455 0 0014.516 14.515c7.963 0 14.515-6.451 14.515-14.515 0-7.964-6.552-14.516-14.515-14.516zm12.902 32.256c-9.374 0-7.157 1.613-12.902 1.613-5.746 0-3.629-1.613-12.903-1.613-7.157 0-12.902 5.847-12.902 12.903v3.225c0 1.815 1.41 3.227 3.225 3.227h45.16c1.713 0 3.225-1.412 3.225-3.227v-3.225c0-7.056-5.847-12.903-12.903-12.903z" fill="#7A8EF6"/><path fill-rule="evenodd" clip-rule="evenodd" d="M884.6 105.967a2.949 2.949 0 01-2.949 2.949h-.071a2.95 2.95 0 110-5.9h.071a2.95 2.95 0 012.949 2.951zm-11.399 0a2.95 2.95 0 01-2.951 2.949h-.141a2.95 2.95 0 110-5.9h.141a2.951 2.951 0 012.951 2.951zm-11.471 0a2.95 2.95 0 01-2.951 2.949h-.141a2.95 2.95 0 110-5.9h.141a2.951 2.951 0 012.951 2.951zm-11.471 0a2.95 2.95 0 01-2.951 2.949h-.141a2.95 2.95 0 110-5.9h.141a2.95 2.95 0 012.951 2.951zm-11.471 0a2.95 2.95 0 01-2.951 2.949h-.141a2.95 2.95 0 110-5.9h.141a2.95 2.95 0 012.951 2.951zm-11.471 0a2.95 2.95 0 01-2.95 2.949h-.142a2.95 2.95 0 110-5.9h.142a2.95 2.95 0 012.95 2.951zm-11.471 0a2.95 2.95 0 01-2.95 2.949h-.138a2.95 2.95 0 110-5.9h.138a2.95 2.95 0 012.95 2.951zm-10.941 0a2.95 2.95 0 01-2.951 2.949h-.134a2.95 2.95 0 110-5.9h.134a2.951 2.951 0 012.951 2.951zm-10.939 0a2.95 2.95 0 01-2.95 2.949h-.136a2.95 2.95 0 01.001-5.9h.135a2.95 2.95 0 012.95 2.951zm-10.938 0a2.95 2.95 0 01-2.95 2.949h-.136a2.95 2.95 0 110-5.9h.136a2.95 2.95 0 012.95 2.951zm-10.938 0a2.95 2.95 0 01-2.951 2.949h-.135a2.95 2.95 0 110-5.9h.135a2.951 2.951 0 012.951 2.951zm-10.939 0a2.95 2.95 0 01-2.95 2.949h-.068a2.95 2.95 0 010-5.9h.068a2.95 2.95 0 012.95 2.951zM884.6 81.051a2.95 2.95 0 01-2.949 2.95h-.071a2.951 2.951 0 010-5.9h.071a2.95 2.95 0 012.949 2.95zm-11.399 0a2.952 2.952 0 01-2.951 2.95h-.141a2.951 2.951 0 010-5.9h.141a2.951 2.951 0 012.951 2.95zm-11.471 0a2.952 2.952 0 01-2.951 2.95h-.141a2.951 2.951 0 110-5.9h.141a2.951 2.951 0 012.951 2.95zm-11.471 0a2.951 2.951 0 01-2.951 2.95h-.141a2.951 2.951 0 110-5.9h.141a2.95 2.95 0 012.951 2.95zm-11.471 0a2.951 2.951 0 01-2.951 2.95h-.141a2.95 2.95 0 010-5.9h.141a2.95 2.95 0 012.951 2.95zm-11.471 0a2.95 2.95 0 01-2.95 2.95h-.142a2.95 2.95 0 010-5.9h.142a2.95 2.95 0 012.95 2.95zm-11.471 0a2.95 2.95 0 01-2.95 2.95h-.138a2.951 2.951 0 010-5.9h.138a2.95 2.95 0 012.95 2.95zm-10.941 0a2.952 2.952 0 01-2.951 2.95h-.134a2.951 2.951 0 010-5.9h.134a2.951 2.951 0 012.951 2.95zm-10.939 0a2.95 2.95 0 01-2.95 2.95h-.136a2.95 2.95 0 11.001-5.9h.135a2.95 2.95 0 012.95 2.95zm-10.938 0a2.95 2.95 0 01-2.95 2.95h-.136a2.95 2.95 0 110-5.9h.136a2.95 2.95 0 012.95 2.95zm-10.938 0a2.95 2.95 0 01-2.951 2.95h-.135a2.95 2.95 0 110-5.9h.135a2.951 2.951 0 012.951 2.95zm-10.939 0a2.95 2.95 0 01-2.95 2.95h-.068a2.95 2.95 0 010-5.9h.068a2.95 2.95 0 012.95 2.95z" fill="#3841B2"/><path d="M1019.49 123.763H904.322a7.375 7.375 0 00-7.375 7.375v24.402a7.375 7.375 0 007.375 7.376h115.168c4.07 0 7.37-3.302 7.37-7.376v-24.402c0-4.073-3.3-7.375-7.37-7.375zm0-37.373H904.322a7.375 7.375 0 00-7.375 7.375v22.623a7.375 7.375 0 007.375 7.375h115.168c4.07 0 7.37-3.302 7.37-7.375V93.765c0-4.073-3.3-7.375-7.37-7.375z" stroke="#3841B2" stroke-width="2.95"/><path d="M1019.49 49.018H904.322a7.375 7.375 0 00-7.375 7.375v22.622a7.375 7.375 0 007.375 7.375h115.168c4.07 0 7.37-3.302 7.37-7.375V56.393c0-4.074-3.3-7.375-7.37-7.375zM1077 158.735V55.892c0-3.637-3.33-6.586-7.44-6.586h-22.82c-4.11 0-7.44 2.949-7.44 6.586v102.843c0 3.638 3.33 6.586 7.44 6.586h22.82c4.11 0 7.44-2.948 7.44-6.586z" stroke="#7A8EF6" stroke-width="2.95"/><path d="M1012.7 67.898c0-2.607-2.11-4.72-4.72-4.72-2.6 0-4.72 2.113-4.72 4.72 0 2.606 2.12 4.72 4.72 4.72 2.61 0 4.72-2.114 4.72-4.72zm-14.161 0a4.72 4.72 0 10-9.44 0 4.72 4.72 0 009.44 0z" fill="#3841B2"/><path d="M998.539 143.417a4.72 4.72 0 10-9.44 0 4.72 4.72 0 009.44 0zm14.161 0c0-2.607-2.11-4.72-4.72-4.72-2.6 0-4.72 2.113-4.72 4.72 0 2.607 2.12 4.72 4.72 4.72 2.61 0 4.72-2.113 4.72-4.72z" fill="#6F7FE4"/><path d="M998.539 105.657a4.72 4.72 0 10-9.44 0 4.72 4.72 0 009.44 0zm14.161 0c0-2.607-2.11-4.72-4.72-4.72-2.6 0-4.72 2.113-4.72 4.72 0 2.607 2.12 4.72 4.72 4.72 2.61 0 4.72-2.113 4.72-4.72z" fill="#3841B2"/><path d="M342.583 154.322c26.706 0 48.356-21.65 48.356-48.356 0-26.706-21.65-48.355-48.356-48.355-26.706 0-48.355 21.65-48.355 48.355 0 26.706 21.649 48.356 48.355 48.356z" stroke="#7A8EF6" stroke-width="2.95"/><path d="M911.285 21h-7.401V5.499h7.208c1.525 0 2.721.344 3.588 1.031.866.688 1.3 1.633 1.3 2.836 0 .86-.29 1.604-.87 2.235-.573.63-1.293 1.006-2.16 1.127v.087c1.06.05 1.948.426 2.664 1.127.724.702 1.085 1.565 1.085 2.59 0 1.36-.49 2.445-1.471 3.254-.974.81-2.288 1.214-3.943 1.214zm-3.459-12.708v3.523h2.031c.716 0 1.274-.157 1.675-.472.409-.322.613-.763.613-1.322 0-.544-.186-.966-.559-1.267-.365-.308-.877-.462-1.536-.462h-2.224zm0 9.915h2.342c.817 0 1.44-.172 1.869-.516.437-.35.656-.852.656-1.503 0-.63-.222-1.118-.666-1.461-.444-.344-1.071-.516-1.88-.516h-2.321v3.996zm16.248-6.478a2.02 2.02 0 00-1.472.591c-.394.387-.616.885-.666 1.493h4.254c-.036-.623-.247-1.124-.634-1.503-.387-.387-.881-.58-1.482-.58zm2.202 5.576h3.437c-.186 1.21-.78 2.177-1.783 2.9-1.002.716-2.266 1.074-3.792 1.074-1.862 0-3.319-.537-4.372-1.611-1.053-1.081-1.579-2.567-1.579-4.458 0-1.89.523-3.395 1.568-4.512 1.053-1.117 2.471-1.676 4.254-1.676 1.762 0 3.162.534 4.2 1.601 1.046 1.067 1.569 2.496 1.569 4.286v1.074h-7.896v.237c0 .702.212 1.27.634 1.708.43.437.988.655 1.676.655.508 0 .949-.115 1.321-.344.373-.229.627-.54.763-.934zm11.231 3.974c-1.955 0-3.467-.587-4.534-1.761-1.067-1.182-1.6-2.897-1.6-5.146 0-1.633.147-3.036.44-4.21.301-1.183.741-2.131 1.322-2.848.587-.716 1.274-1.246 2.062-1.59.795-.343 1.722-.53 2.782-.558l1.612-.043a16.83 16.83 0 001.493-.107c.494-.058.87-.115 1.128-.172.265-.058.422-.1.472-.13v2.858c-.035.029-.157.072-.365.13-.208.05-.541.107-.999.171-.458.057-.949.093-1.472.107l-1.493.043c-1.325.036-2.299.384-2.922 1.042-.623.652-1.024 1.676-1.203 3.073h.086c.745-1.504 2.048-2.256 3.91-2.256 1.583 0 2.851.494 3.803 1.482.953.988 1.429 2.313 1.429 3.975 0 1.833-.534 3.283-1.601 4.35-1.067 1.06-2.517 1.59-4.35 1.59zm-.086-2.9c.673 0 1.196-.25 1.568-.752.38-.508.569-1.228.569-2.16 0-.902-.189-1.607-.569-2.115-.379-.509-.902-.763-1.568-.763s-1.193.254-1.579.763c-.38.508-.57 1.213-.57 2.116 0 .93.186 1.65.559 2.159.379.501.909.752 1.59.752zm23.406-4.877h-3.501c-.122-.487-.348-.87-.677-1.15-.322-.286-.727-.43-1.214-.43-.673 0-1.196.284-1.568.85-.373.558-.559 1.35-.559 2.373 0 1.032.186 1.83.559 2.396.372.566.895.849 1.568.849.501 0 .917-.14 1.246-.42.329-.279.551-.669.666-1.17h3.48c-.121 1.39-.666 2.485-1.632 3.287-.96.795-2.228 1.192-3.803 1.192-1.826 0-3.266-.544-4.318-1.633-1.053-1.095-1.58-2.596-1.58-4.5 0-1.891.527-3.384 1.58-4.48 1.052-1.096 2.485-1.644 4.296-1.644 1.54 0 2.797.409 3.771 1.225.981.816 1.543 1.901 1.686 3.255zm7.375-1.773a2.02 2.02 0 00-1.472.591c-.394.387-.616.885-.666 1.493h4.254c-.036-.623-.247-1.124-.634-1.503-.387-.387-.881-.58-1.482-.58zm2.202 5.576h3.437c-.186 1.21-.78 2.177-1.783 2.9-1.002.716-2.266 1.074-3.792 1.074-1.862 0-3.319-.537-4.372-1.611-1.053-1.081-1.579-2.567-1.579-4.458 0-1.89.523-3.395 1.568-4.512 1.053-1.117 2.471-1.676 4.254-1.676 1.762 0 3.162.534 4.201 1.601 1.045 1.067 1.568 2.496 1.568 4.286v1.074h-7.896v.237c0 .702.212 1.27.634 1.708.43.437.988.655 1.676.655.508 0 .949-.115 1.321-.344.373-.229.627-.54.763-.934zm12.81-8.175c1.475 0 2.621.526 3.437 1.579.824 1.053 1.236 2.535 1.236 4.447 0 1.905-.405 3.384-1.214 4.437-.809 1.052-1.945 1.579-3.405 1.579-.853 0-1.59-.19-2.213-.57a3.39 3.39 0 01-1.365-1.6h-.075v5.78h-3.813V9.301h3.792v2.084h.075c.301-.71.755-1.26 1.364-1.655.616-.4 1.343-.601 2.181-.601zm-3.019 8.25c.394.544.928.816 1.601.816.673 0 1.207-.272 1.6-.816.401-.552.602-1.293.602-2.224 0-.93-.201-1.672-.602-2.223-.393-.552-.927-.828-1.6-.828-.666 0-1.2.28-1.601.838-.394.552-.594 1.29-.601 2.213.007.931.207 1.672.601 2.224zm14.787-5.844h-1.429v2.439h1.343c.501 0 .891-.108 1.171-.323.286-.214.429-.512.429-.891 0-.387-.132-.688-.397-.903-.265-.214-.638-.322-1.117-.322zm.075 4.415h-1.504v2.815h1.547c.58 0 1.024-.122 1.332-.366.315-.25.472-.605.472-1.063 0-.444-.161-.784-.483-1.02-.322-.244-.777-.366-1.364-.366zM989.836 21V9.302h6.295c1.282 0 2.281.261 2.997.784.723.516 1.082 1.232 1.082 2.148 0 .638-.21 1.2-.631 1.687-.422.48-.949.759-1.579.838v.086c.809.1 1.468.404 1.977.913.513.501.763 1.117.763 1.848 0 1.024-.41 1.847-1.214 2.47-.802.616-1.884.924-3.245.924h-6.445zm18.384-9.27c-.58 0-1.07.196-1.47.59-.39.387-.62.885-.67 1.493h4.26c-.04-.623-.25-1.124-.64-1.503-.38-.387-.88-.58-1.48-.58zm2.2 5.575h3.44c-.19 1.21-.78 2.177-1.78 2.9-1 .716-2.27 1.074-3.79 1.074-1.87 0-3.32-.537-4.38-1.611-1.05-1.081-1.58-2.567-1.58-4.458 0-1.89.53-3.395 1.57-4.512 1.06-1.117 2.47-1.676 4.26-1.676 1.76 0 3.16.534 4.2 1.601s1.57 2.496 1.57 4.286v1.074h-7.9v.237c0 .702.21 1.27.63 1.708.43.437.99.655 1.68.655.51 0 .95-.115 1.32-.344.37-.229.63-.54.76-.934zm12.81-8.175c1.48 0 2.62.526 3.44 1.579.82 1.053 1.24 2.535 1.24 4.447 0 1.905-.41 3.384-1.22 4.437-.81 1.052-1.94 1.579-3.4 1.579-.86 0-1.59-.19-2.22-.57a3.413 3.413 0 01-1.36-1.6h-.08v5.78h-3.81V9.301h3.79v2.084h.08c.3-.71.75-1.26 1.36-1.655.62-.4 1.35-.601 2.18-.601zm-3.02 8.25c.4.544.93.816 1.61.816.67 0 1.2-.272 1.6-.816.4-.552.6-1.293.6-2.224 0-.93-.2-1.672-.6-2.223-.4-.552-.93-.828-1.6-.828s-1.2.28-1.61.838c-.39.552-.59 1.29-.6 2.213.01.931.21 1.672.6 2.224zm-58.695 193.111h-3.943V194.99h3.943v15.501zm2.572-15.501h6.714c1.669 0 3.015.502 4.039 1.504 1.031.996 1.547 2.324 1.547 3.986 0 1.647-.537 2.972-1.611 3.974-1.075.996-2.478 1.493-4.211 1.493h-2.536v4.544h-3.942V194.99zm3.942 3.019v4.974h1.708c.845 0 1.501-.215 1.966-.645.466-.43.699-1.046.699-1.848s-.233-1.414-.699-1.837c-.458-.429-1.106-.644-1.944-.644h-1.73zM613.698 5.499h6.294c2.357 0 4.183.662 5.479 1.987 1.303 1.325 1.955 3.216 1.955 5.672 0 2.47-.655 4.397-1.966 5.78-1.303 1.375-3.126 2.062-5.468 2.062h-6.294V5.499zm3.942 3.18v9.141h1.837c1.289 0 2.266-.39 2.932-1.17.674-.781 1.01-1.941 1.01-3.481 0-1.447-.344-2.557-1.031-3.33-.688-.774-1.658-1.16-2.911-1.16h-1.837zm11.918-3.18h6.295c2.356 0 4.182.662 5.479 1.987 1.303 1.325 1.955 3.216 1.955 5.672 0 2.47-.656 4.397-1.966 5.78-1.304 1.375-3.126 2.062-5.468 2.062h-6.295V5.499zm3.943 3.18v9.141h1.836c1.289 0 2.267-.39 2.933-1.17.673-.781 1.01-1.941 1.01-3.481 0-1.447-.344-2.557-1.031-3.33-.688-.774-1.658-1.16-2.912-1.16h-1.836zm13.551-1.29c1.382-1.439 3.247-2.159 5.596-2.159s4.211.72 5.586 2.16c1.375 1.44 2.063 3.394 2.063 5.865 0 2.47-.688 4.426-2.063 5.865-1.375 1.432-3.237 2.149-5.586 2.149-2.356 0-4.221-.717-5.596-2.149-1.375-1.44-2.063-3.394-2.063-5.865 0-2.47.688-4.426 2.063-5.865zm8.239 2.353c-.659-.874-1.54-1.31-2.643-1.31-1.103 0-1.987.436-2.653 1.31-.659.867-.988 2.038-.988 3.513 0 1.468.329 2.639.988 3.513.659.866 1.543 1.3 2.653 1.3 1.103 0 1.984-.434 2.643-1.3.666-.874.999-2.045.999-3.513 0-1.475-.333-2.646-.999-3.513zm6.654 6.768h3.749c.072.523.369.949.892 1.278.53.33 1.164.494 1.901.494.759 0 1.372-.15 1.837-.45.466-.309.699-.7.699-1.172 0-.43-.183-.762-.548-.999-.358-.243-.981-.458-1.869-.644l-2.031-.398c-1.425-.272-2.503-.784-3.233-1.536-.731-.76-1.096-1.73-1.096-2.911 0-1.49.573-2.686 1.719-3.588 1.153-.902 2.635-1.354 4.447-1.354 1.919 0 3.427.434 4.523 1.3 1.103.86 1.665 2.023 1.686 3.491h-3.631a1.66 1.66 0 00-.752-1.32c-.465-.323-1.06-.484-1.783-.484-.687 0-1.242.143-1.665.43-.415.286-.623.665-.623 1.138 0 .415.179.752.537 1.01.365.25.956.458 1.773.623l2.008.376c1.526.294 2.647.798 3.363 1.515.716.716 1.074 1.686 1.074 2.91 0 1.54-.591 2.769-1.773 3.685-1.181.91-2.771 1.365-4.769 1.365-1.984 0-3.549-.42-4.694-1.257-1.139-.838-1.719-2.006-1.741-3.502zm22.339-.183h-7.069v-3.266h7.069v3.266zm2.293.183h3.749c.071.523.369.949.891 1.278.53.33 1.164.494 1.902.494.759 0 1.371-.15 1.837-.45.465-.309.698-.7.698-1.172 0-.43-.183-.762-.548-.999-.358-.243-.981-.458-1.869-.644l-2.03-.398c-1.425-.272-2.503-.784-3.234-1.536-.73-.76-1.095-1.73-1.095-2.911 0-1.49.572-2.686 1.718-3.588 1.153-.902 2.636-1.354 4.448-1.354 1.919 0 3.426.434 4.522 1.3 1.103.86 1.665 2.023 1.687 3.491h-3.631a1.665 1.665 0 00-.752-1.32c-.466-.323-1.06-.484-1.783-.484-.688 0-1.243.143-1.665.43-.416.286-.624.665-.624 1.138 0 .415.18.752.538 1.01.365.25.956.458 1.772.623l2.009.376c1.525.294 2.646.798 3.362 1.515.716.716 1.074 1.686 1.074 2.91 0 1.54-.59 2.769-1.772 3.685-1.182.91-2.772 1.365-4.77 1.365-1.983 0-3.548-.42-4.694-1.257-1.139-.838-1.719-2.006-1.74-3.502zM709.151 21h-3.931V8.679h-4.276v-3.18h12.483v3.18h-4.276V21zm6.977-13.61c1.382-1.44 3.248-2.16 5.597-2.16s4.211.72 5.586 2.16c1.375 1.44 2.062 3.394 2.062 5.865 0 2.47-.687 4.426-2.062 5.865-1.375 1.432-3.237 2.149-5.586 2.149-2.356 0-4.222-.717-5.597-2.149-1.375-1.44-2.062-3.394-2.062-5.865 0-2.47.687-4.426 2.062-5.865zm8.239 2.352c-.658-.874-1.539-1.31-2.642-1.31s-1.987.436-2.654 1.31c-.658.867-.988 2.038-.988 3.513 0 1.468.33 2.639.988 3.513.659.866 1.544 1.3 2.654 1.3 1.103 0 1.984-.434 2.642-1.3.666-.874.999-2.045.999-3.513 0-1.475-.333-2.646-.999-3.513zm11.091-1.267v4.404h2.31c.723 0 1.289-.197 1.697-.59.409-.395.613-.928.613-1.601 0-.667-.212-1.2-.634-1.601-.423-.408-.985-.612-1.687-.612h-2.299zm0 7.1V21h-3.942V5.499h6.639c1.919 0 3.391.448 4.415 1.343s1.536 2.152 1.536 3.77c0 .974-.236 1.859-.709 2.654a4.151 4.151 0 01-1.944 1.73L744.557 21h-4.426l-2.664-5.425h-2.009zM763.318 21h-3.47v-9.679h-.075l-3.835 9.518h-2.256l-3.824-9.518h-.086V21h-3.47V5.499h4.555l3.91 9.958h.086l3.91-9.958h4.555V21z" fill="#fff"/><path d="M610.697 204.046v-2.943h2.03c.688 0 1.239-.165 1.655-.494.422-.33.633-.767.633-1.311 0-.551-.204-.985-.612-1.3-.408-.315-.97-.472-1.686-.472-.717 0-1.297.182-1.741.547-.444.366-.676.853-.698 1.461h-3.588c.036-1.518.605-2.725 1.708-3.62s2.571-1.343 4.405-1.343c1.768 0 3.194.391 4.275 1.171 1.088.774 1.633 1.794 1.633 3.062 0 .881-.272 1.647-.817 2.299-.537.644-1.246 1.049-2.127 1.214v.085c1.053.115 1.891.513 2.514 1.193.63.673.945 1.525.945 2.556 0 1.404-.608 2.55-1.826 3.438-1.21.881-2.775 1.321-4.694 1.321-1.841 0-3.337-.454-4.49-1.364-1.153-.917-1.766-2.134-1.837-3.652h3.759c.029.587.28 1.052.752 1.396.473.344 1.103.516 1.891.516.716 0 1.296-.179 1.74-.537.444-.366.666-.838.666-1.418 0-.566-.218-1.006-.655-1.322-.437-.322-1.038-.483-1.805-.483h-2.03zm15.377 3.996c.595 0 1.103-.165 1.526-.494.429-.329.644-.748.644-1.257v-.806l-2.127.14c-.494.036-.877.165-1.149.387a1.018 1.018 0 00-.408.838c0 .365.136.655.408.87.279.215.648.322 1.106.322zm-1.353 2.621c-1.103 0-2.034-.333-2.793-.999-.759-.666-1.139-1.518-1.139-2.556 0-1.089.405-1.938 1.214-2.546.809-.609 1.977-.96 3.502-1.053l2.739-.161v-.666c0-.459-.15-.813-.451-1.064-.301-.258-.705-.386-1.214-.386-.501 0-.913.118-1.235.354-.315.229-.501.53-.559.902h-3.427c.058-1.21.57-2.173 1.537-2.889.966-.724 2.259-1.085 3.878-1.085 1.561 0 2.818.365 3.77 1.095.953.724 1.429 1.676 1.429 2.858v8.024h-3.706v-1.665h-.075c-.308.573-.781 1.024-1.418 1.354a4.49 4.49 0 01-2.052.483zm27.967 2.825h-3.448v-2.997h-15.007v-11.698h3.803v8.895h2.728v-8.895h3.803v8.895h2.728v-8.895h3.803v8.895h1.59v5.8zm5.204-2.997h-3.717v-11.698h3.717v6.607h.086l4.061-6.607h3.706v11.698h-3.706v-6.735h-.086l-4.061 6.735zm28.58 2.997h-3.449v-2.997h-15.006v-11.698h3.802v8.895h2.729v-8.895h3.803v8.895h2.728v-8.895h3.803v8.895h1.59v5.8zm6.933-12.267c-.58 0-1.07.197-1.471.591-.394.386-.616.884-.666 1.493h4.254c-.036-.623-.247-1.125-.634-1.504-.387-.387-.881-.58-1.483-.58zm2.203 5.575h3.437c-.186 1.21-.78 2.177-1.783 2.9-1.003.717-2.267 1.075-3.792 1.075-1.862 0-3.319-.537-4.372-1.612-1.053-1.081-1.579-2.567-1.579-4.458 0-1.89.523-3.394 1.568-4.511 1.053-1.118 2.471-1.676 4.254-1.676 1.762 0 3.162.533 4.2 1.6 1.046 1.067 1.569 2.496 1.569 4.287v1.074h-7.896v.236c0 .702.211 1.271.634 1.708.43.437.988.655 1.676.655.508 0 .949-.114 1.321-.343.372-.23.627-.541.763-.935zm13.057 3.695v-4.554h-3.857v4.554h-3.803v-11.698h3.803v4.34h3.857v-4.34h3.802v11.698h-3.802zm13.733 0v-4.554h-3.856v4.554h-3.803v-11.698h3.803v4.34h3.856v-4.34h3.803v11.698h-3.803zm17.773 0v-11.698h3.803v11.698h-3.803zm-6.349-5.768h-1.547v2.997h1.547c.48 0 .863-.136 1.15-.408.293-.28.44-.645.44-1.096 0-.444-.147-.802-.44-1.074-.287-.28-.67-.419-1.15-.419zm-5.349 5.768v-11.698h3.802v3.201h2.321c1.403 0 2.521.387 3.351 1.16.831.767 1.246 1.798 1.246 3.094 0 1.296-.415 2.328-1.246 3.094-.83.766-1.948 1.149-3.351 1.149h-6.123zm21.489 0h-3.717v-11.698h3.717v6.607h.086l4.061-6.607h3.706v11.698h-3.706v-6.735h-.086l-4.061 6.735zm-1.837-17.101h2.202c.015.558.18 1.006.495 1.343.322.329.741.494 1.256.494.516 0 .931-.165 1.247-.494.315-.337.479-.785.494-1.343h2.213c0 1.095-.362 1.976-1.085 2.642-.724.666-1.68.999-2.869.999-1.188 0-2.144-.333-2.868-.999-.723-.666-1.085-1.547-1.085-2.642zm20.55 17.101h-3.943V194.99h3.943v15.501zm2.572-15.501h6.714c1.669 0 3.015.502 4.039 1.504 1.031.996 1.547 2.324 1.547 3.986 0 1.647-.537 2.972-1.611 3.974-1.074.996-2.478 1.493-4.211 1.493h-2.535v4.544h-3.943V194.99zm3.943 3.019v4.974h1.708c.845 0 1.5-.215 1.965-.645.466-.43.699-1.046.699-1.848s-.233-1.414-.699-1.837c-.458-.429-1.106-.644-1.944-.644h-1.729z" fill="#7A8EF6"/><path d="M287.924 5.499h6.295c2.356 0 4.183.662 5.479 1.987 1.303 1.325 1.955 3.216 1.955 5.672 0 2.47-.655 4.397-1.966 5.78-1.303 1.375-3.126 2.062-5.468 2.062h-6.295V5.499zm3.943 3.18v9.141h1.837c1.289 0 2.266-.39 2.932-1.17.674-.781 1.01-1.941 1.01-3.481 0-1.447-.344-2.557-1.031-3.33-.688-.774-1.658-1.16-2.911-1.16h-1.837zm21.672 10.989c-1.067 1.074-2.528 1.611-4.383 1.611s-3.316-.537-4.383-1.611c-1.067-1.081-1.6-2.589-1.6-4.522 0-1.898.54-3.391 1.622-4.48 1.081-1.096 2.535-1.644 4.361-1.644 1.841 0 3.298.545 4.372 1.633 1.074 1.089 1.612 2.586 1.612 4.49 0 1.941-.534 3.449-1.601 4.523zm-5.94-2.052c.379.58.898.87 1.557.87.659 0 1.178-.29 1.558-.87.379-.58.569-1.4.569-2.46 0-1.045-.193-1.862-.58-2.449-.38-.594-.895-.892-1.547-.892-.652 0-1.167.298-1.547.892-.379.587-.569 1.404-.569 2.45 0 1.06.186 1.88.559 2.46zM316.831 21V9.302h3.706v2.256h.075c.23-.76.645-1.361 1.247-1.805.601-.451 1.299-.677 2.094-.677.874 0 1.594.219 2.159.655.566.43.931 1.042 1.096 1.837h.075c.23-.752.67-1.353 1.322-1.804.659-.459 1.421-.688 2.288-.688 1.146 0 2.073.369 2.782 1.107.709.73 1.063 1.69 1.063 2.879V21h-3.813v-6.972c0-1.239-.548-1.858-1.644-1.858-.515 0-.923.172-1.224.515-.301.344-.451.803-.451 1.375V21h-3.642v-7.015c0-.587-.14-1.034-.419-1.342-.279-.316-.68-.473-1.203-.473-.516 0-.927.175-1.235.526-.308.351-.462.813-.462 1.386V21h-3.814zm24.766-2.45c.595 0 1.103-.164 1.526-.493.429-.33.644-.749.644-1.257v-.806l-2.127.14c-.494.036-.877.165-1.149.386a1.02 1.02 0 00-.409.838c0 .366.137.656.409.87.279.215.648.323 1.106.323zm-1.353 2.622c-1.103 0-2.034-.333-2.793-1-.759-.665-1.139-1.517-1.139-2.556 0-1.088.405-1.937 1.214-2.546.809-.608 1.976-.96 3.502-1.052l2.739-.162v-.666c0-.458-.15-.812-.451-1.063-.301-.258-.706-.387-1.214-.387-.501 0-.913.118-1.235.355a1.33 1.33 0 00-.559.902h-3.427c.058-1.21.57-2.173 1.536-2.89.967-.723 2.26-1.085 3.878-1.085 1.562 0 2.818.366 3.771 1.096.952.723 1.429 1.676 1.429 2.858V21h-3.706v-1.665h-.076c-.308.573-.78 1.024-1.418 1.354a4.482 4.482 0 01-2.051.483zm9.329-.172V9.302h3.803V21h-3.803zm3.287-13.18c-.372.357-.834.536-1.386.536-.551 0-1.017-.179-1.396-.537a1.772 1.772 0 01-.559-1.332c0-.522.186-.963.559-1.321.379-.358.845-.537 1.396-.537.552 0 1.014.179 1.386.537.373.35.559.791.559 1.321 0 .53-.186.974-.559 1.332zM355.454 21V9.302h3.706v2.202h.075c.301-.788.756-1.39 1.365-1.805.616-.415 1.367-.623 2.255-.623 1.297 0 2.296.387 2.998 1.16.709.774 1.063 1.859 1.063 3.255V21h-3.803v-6.692c0-.674-.161-1.196-.483-1.569-.315-.372-.781-.558-1.397-.558-.601 0-1.081.204-1.439.612-.351.408-.526.938-.526 1.59V21h-3.814zm17.161-.44a1.92 1.92 0 01-1.408.58 1.92 1.92 0 01-1.407-.58 1.95 1.95 0 01-.58-1.418c0-.552.193-1.02.58-1.408a1.9 1.9 0 011.407-.59 1.9 1.9 0 011.408.59c.393.387.59.856.59 1.408 0 .551-.197 1.024-.59 1.418zm2.937.44V9.302h3.706v2.213h.076c.429-1.59 1.346-2.385 2.75-2.385.379 0 .701.05.966.15v3.244a3.242 3.242 0 00-1.213-.214c-.803 0-1.415.218-1.837.655-.423.437-.634 1.063-.634 1.88V21h-3.814zm20.287-11.698V21h-3.696v-2.213h-.075c-.558 1.626-1.693 2.439-3.405 2.439-1.275 0-2.31-.394-3.105-1.182-.787-.788-1.181-1.862-1.181-3.223v-7.52h3.813v6.693c0 .688.169 1.214.505 1.58.337.364.806.547 1.407.547.588 0 1.057-.2 1.408-.601.351-.401.526-.935.526-1.601V9.302h3.803z" fill="#fff"/><path d="M257.818 204.046v-2.943h2.03c.687 0 1.239-.165 1.654-.494a1.58 1.58 0 00.634-1.311c0-.551-.204-.985-.612-1.3-.408-.315-.971-.472-1.687-.472-.716 0-1.296.182-1.74.547-.444.366-.677.853-.698 1.461h-3.588c.036-1.518.605-2.725 1.708-3.62s2.571-1.343 4.404-1.343c1.769 0 3.194.391 4.276 1.171 1.088.774 1.632 1.794 1.632 3.062 0 .881-.272 1.647-.816 2.299-.537.644-1.246 1.049-2.127 1.214v.085c1.053.115 1.891.513 2.514 1.193.63.673.945 1.525.945 2.556 0 1.404-.609 2.55-1.826 3.438-1.21.881-2.775 1.321-4.695 1.321-1.84 0-3.337-.454-4.49-1.364-1.153-.917-1.765-2.134-1.837-3.652h3.76a1.75 1.75 0 00.752 1.396c.473.344 1.103.516 1.891.516.716 0 1.296-.179 1.74-.537.444-.366.666-.838.666-1.418 0-.566-.218-1.006-.655-1.322-.437-.322-1.039-.483-1.805-.483h-2.03zm15.377 3.996c.594 0 1.103-.165 1.525-.494.43-.329.645-.748.645-1.257v-.806l-2.127.14c-.494.036-.877.165-1.15.387a1.018 1.018 0 00-.408.838c0 .365.136.655.408.87.28.215.649.322 1.107.322zm-1.354 2.621c-1.102 0-2.033-.333-2.793-.999-.759-.666-1.138-1.518-1.138-2.556 0-1.089.404-1.938 1.214-2.546.809-.609 1.976-.96 3.502-1.053l2.739-.161v-.666c0-.459-.151-.813-.451-1.064-.301-.258-.706-.386-1.214-.386-.501 0-.913.118-1.236.354-.315.229-.501.53-.558.902h-3.427c.057-1.21.569-2.173 1.536-2.889.967-.724 2.26-1.085 3.878-1.085 1.561 0 2.818.365 3.771 1.095.952.724 1.428 1.676 1.428 2.858v8.024h-3.706v-1.665h-.075c-.308.573-.78 1.024-1.418 1.354a4.485 4.485 0 01-2.052.483zm27.967 2.825h-3.448v-2.997h-15.007v-11.698h3.803v8.895h2.729v-8.895h3.802v8.895h2.729v-8.895h3.803v8.895h1.589v5.8zm5.205-2.997h-3.717v-11.698h3.717v6.607h.086l4.06-6.607h3.706v11.698h-3.706v-6.735h-.086l-4.06 6.735zm28.579 2.997h-3.448v-2.997h-15.007v-11.698h3.803v8.895h2.728v-8.895h3.803v8.895h2.729v-8.895h3.802v8.895h1.59v5.8zm6.934-12.267a2.02 2.02 0 00-1.472.591c-.393.386-.615.884-.666 1.493h4.254c-.036-.623-.247-1.125-.633-1.504-.387-.387-.881-.58-1.483-.58zm2.202 5.575h3.438c-.186 1.21-.781 2.177-1.783 2.9-1.003.717-2.267 1.075-3.792 1.075-1.862 0-3.32-.537-4.373-1.612-1.052-1.081-1.579-2.567-1.579-4.458 0-1.89.523-3.394 1.569-4.511 1.052-1.118 2.47-1.676 4.254-1.676 1.761 0 3.161.533 4.2 1.6 1.045 1.067 1.568 2.496 1.568 4.287v1.074h-7.895v.236c0 .702.211 1.271.633 1.708.43.437.989.655 1.676.655.509 0 .949-.114 1.322-.343.372-.23.626-.541.762-.935zm13.057 3.695v-4.554h-3.856v4.554h-3.803v-11.698h3.803v4.34h3.856v-4.34h3.803v11.698h-3.803zm13.734 0v-4.554h-3.857v4.554h-3.802v-11.698h3.802v4.34h3.857v-4.34h3.803v11.698h-3.803zm17.773 0v-11.698h3.802v11.698h-3.802zm-6.349-5.768h-1.547v2.997h1.547c.48 0 .863-.136 1.149-.408.294-.28.441-.645.441-1.096 0-.444-.147-.802-.441-1.074-.286-.28-.669-.419-1.149-.419zm-5.35 5.768v-11.698h3.803v3.201h2.32c1.404 0 2.521.387 3.352 1.16.831.767 1.246 1.798 1.246 3.094 0 1.296-.415 2.328-1.246 3.094s-1.948 1.149-3.352 1.149h-6.123zm21.49 0h-3.717v-11.698h3.717v6.607h.086l4.06-6.607h3.706v11.698h-3.706v-6.735h-.086l-4.06 6.735zm-1.837-17.101h2.202c.014.558.179 1.006.494 1.343.322.329.741.494 1.257.494.516 0 .931-.165 1.246-.494.315-.337.48-.785.494-1.343h2.213c0 1.095-.361 1.976-1.085 2.642-.723.666-1.679.999-2.868.999-1.189 0-2.145-.333-2.868-.999-.723-.666-1.085-1.547-1.085-2.642zm20.549 17.101h-3.942V194.99h3.942v15.501zm2.573-15.501h6.714c1.668 0 3.015.502 4.039 1.504 1.031.996 1.547 2.324 1.547 3.986 0 1.647-.537 2.972-1.612 3.974-1.074.996-2.478 1.493-4.211 1.493h-2.535v4.544h-3.942V194.99zm3.942 3.019v4.974h1.708c.845 0 1.501-.215 1.966-.645.466-.43.698-1.046.698-1.848s-.232-1.414-.698-1.837c-.458-.429-1.106-.644-1.944-.644h-1.73z" fill="#7A8EF6"/><mask id="a" style="mask-type:alpha" maskUnits="userSpaceOnUse" x="292" y="56" width="101" height="100"><path d="M342.583 154.322c26.706 0 48.356-21.65 48.356-48.356 0-26.706-21.65-48.355-48.356-48.355-26.706 0-48.355 21.65-48.355 48.355 0 26.706 21.649 48.356 48.355 48.356z" fill="#7A8EF6" stroke="#7A8EF6" stroke-width="2.95"/></mask><g mask="url(#a)"><path d="M298.092 175.679c38.501 0 69.712-31.211 69.712-69.712 0-38.5-31.211-69.71-69.712-69.71-38.5 0-69.711 31.21-69.711 69.71 0 38.501 31.211 69.712 69.711 69.712z" stroke="#7A8EF6" stroke-width="2.95"/><path d="M387.075 175.679c38.5 0 69.711-31.211 69.711-69.712 0-38.5-31.211-69.71-69.711-69.71s-69.711 31.21-69.711 69.71c0 38.501 31.211 69.712 69.711 69.712z" stroke="#7A8EF6" stroke-width="2.95"/><path d="M410.516 89.646H279.992v32.643h130.524V89.646z" stroke="#7A8EF6" stroke-width="2.95"/><path d="M363.988 86.39H321.18a8.85 8.85 0 00-8.85 8.85v21.452a8.85 8.85 0 008.85 8.85h42.808a8.85 8.85 0 008.85-8.85V95.24a8.85 8.85 0 00-8.85-8.85z" fill="#7A8EF6"/><path d="M334.076 106.37c0 2.6-.741 4.592-2.225 5.974-1.477 1.383-3.612 2.074-6.406 2.074h-4.474V98.624h4.959c2.578 0 4.581.68 6.008 2.041 1.426 1.362 2.138 3.263 2.138 5.705zm-3.478.087c0-3.393-1.499-5.089-4.495-5.089h-1.783v10.285h1.438c3.226 0 4.84-1.732 4.84-5.196zm20.763 7.961h-4.255l-6.871-11.949h-.098c.137 2.111.205 3.616.205 4.516v7.433h-2.992V98.624h4.224l6.86 11.829h.075c-.108-2.052-.161-3.503-.161-4.353v-7.476h3.013v15.794zm13.31-4.385c0 1.426-.514 2.549-1.545 3.37-1.022.821-2.449 1.232-4.278 1.232-1.685 0-3.176-.317-4.472-.951v-3.112c1.066.476 1.966.81 2.701 1.006.742.194 1.418.291 2.03.291.735 0 1.297-.141 1.686-.422.396-.28.594-.698.594-1.253a1.36 1.36 0 00-.259-.821c-.173-.244-.428-.478-.767-.702-.331-.223-1.012-.58-2.042-1.07-.965-.453-1.689-.889-2.171-1.307a4.908 4.908 0 01-1.156-1.458c-.288-.555-.433-1.203-.433-1.945 0-1.397.472-2.495 1.416-3.295.95-.8 2.261-1.199 3.932-1.199.822 0 1.603.097 2.344.291.75.196 1.531.47 2.345.822l-1.08 2.604c-.843-.346-1.542-.587-2.096-.724a6.606 6.606 0 00-1.62-.205c-.635 0-1.121.147-1.459.442-.339.295-.508.681-.508 1.157 0 .295.069.554.205.777.137.217.353.428.649.637.302.202 1.011.57 2.128 1.102 1.476.706 2.488 1.416 3.035 2.129.548.706.821 1.573.821 2.604z" fill="#130F36"/></g><path fill="#B1BEFF" d="M755.624 110.898v4.801h-34.81v-4.801z"/><path fill="#7A8EF6" d="M626.873 83.809v4.8h34.81v-4.8z"/><circle cx="765.827" cy="113.099" r="5.002" transform="rotate(90 765.827 113.099)" fill="#B1BEFF"/><circle r="5.002" transform="matrix(0 1 1 0 616.67 86.01)" fill="#7A8EF6"/><circle cx="765.827" cy="113.098" r="10.386" transform="rotate(90 765.827 113.098)" stroke="#B1BEFF" stroke-width="2.036"/><circle r="10.386" transform="matrix(0 1 1 0 616.67 86.01)" stroke="#7A8EF6" stroke-width="2.036"/><path d="M689.303 169.672c3.801-1.841 17.805-9.763 34.45-29.129-.44 0-.84.04-1.28.04-3.001 0-6.122-.2-9.323-.56a88.083 88.083 0 01-13.604-2.601 108.617 108.617 0 01-11.403-3.681v36.131c.36.04.8-.04 1.16-.2z" fill="#7A8EF6"/><path d="M743.2 49.108v.004c.225 3.524.521 10.373.389 18.815-.324-.382-.654-.76-.983-1.127-5.024-5.668-10.77-11.132-17.156-16.273h0l-.004-.002-.002-.002c-.654-.519-1.31-1.04-1.967-1.553.515.016 1.03.024 1.554.024 4.638.04 9.272-.363 13.86-1.088h.005l.306-.051a45.274 45.274 0 001.949-.352c1.016-.174 1.99.58 2.049 1.605z" fill="#7A8EF6" stroke="url(#paint0_linear_164_4321)" stroke-width="1.2"/><path d="M691.983 38.391c-.56-.48-1.16-.88-1.72-1.36-.56-.44-1.081-1-1.841-1.04-.12 0-.2 0-.32.04v86.106c4.882 2.24 9.803 4.121 14.725 5.601 7.802 2.321 15.244 3.521 22.046 3.521.56 0 1.121 0 1.641-.04 1.6-.04 3.161-.2 4.681-.4 8.643-13.884 11.724-35.17 12.644-52.936-36.451-27.648-50.855-38.651-51.856-39.492zm-17.365 89.267l-1.44-.76h-.08l-1.401-.801-.84-.48c-.64-.36-1.32-.76-2.001-1.12l-2.76-1.641h-.08l-2.681-1.72c-3.601-2.401-7.082-4.922-10.283-7.482a145.035 145.035 0 01-9.323-8.323c-.68-.64-1.361-1.36-2.161-2.201l-2.04-2.2c-.521-.56-1.001-1.08-1.441-1.64-.2-.24-.4-.44-.6-.681l-1-1.12-.04-.04v-.04l-.961-1.16c-.48-.6-.96-1.161-1.4-1.761 2.001 15.124 6.042 30.409 13.884 40.252 18.846 23.567 35.131 32.93 39.292 35.011.28.12.56.2.88.24V133.86c-.48-.2-.96-.36-1.44-.56-4.241-1.801-8.283-3.642-12.084-5.642z" fill="#B1BEFF"/><path d="M684.353 39.772l.006-.004a47.851 47.851 0 002.743-2.11v82.85a122.786 122.786 0 01-5.8-2.969l-.004-.002a120.192 120.192 0 01-9.959-6.03 159.313 159.313 0 01-9.299-6.835 142.839 142.839 0 01-8.498-7.466h0c-2.57-2.452-5.028-5.106-7.575-8.051-4.908-5.74-8.816-11.665-11.654-17.614l-.535-1.19-.456-1.013c-.151-9.079.165-16.49.402-20.2h0v-.006c.043-.756.771-1.336 1.586-1.193 4.646.848 9.42 1.375 14.162 1.456 4.022.08 8-.204 11.973-.812h0l.008-.001c3.287-.528 6.58-1.3 9.758-2.359a51.93 51.93 0 007.618-3.177 41.819 41.819 0 005.524-3.274z" fill="#7A8EF6" stroke="url(#paint1_linear_164_4321)" stroke-width="2.001"/><defs><linearGradient id="paint0_linear_164_4321" x1="732.713" y1="45.993" x2="732.907" y2="69.56" gradientUnits="userSpaceOnUse"><stop stop-color="#fff"/><stop offset=".231" stop-color="#fff" stop-opacity="0"/></linearGradient><linearGradient id="paint1_linear_164_4321" x1="634.483" y1="35.991" x2="671.294" y2="105.612" gradientUnits="userSpaceOnUse"><stop offset=".12" stop-color="#fff"/><stop offset=".382" stop-color="#fff" stop-opacity="0"/></linearGradient></defs></svg>