<svg width="55" height="55" fill="none" xmlns="http://www.w3.org/2000/svg"><path fill-rule="evenodd" clip-rule="evenodd" d="M19.433 38.958c0-.658.534-1.191 1.192-1.191h13.75c.658 0 1.192.533 1.192 1.191v2.292a8.067 8.067 0 01-16.134 0v-2.292zm2.384 1.192v1.1a5.683 5.683 0 1011.366 0v-1.1H21.817z" fill="#7A8EF6"/><path fill-rule="evenodd" clip-rule="evenodd" d="M27.5 8.067c-8.201 0-14.85 6.648-14.85 14.85v8.53c0 .723-.287 1.417-.799 1.929l-.842-.843.842.843-1.17 1.17a1.1 1.1 0 00-.323.778v1.343a1.1 1.1 0 001.1 1.1h32.084a1.1 1.1 0 001.1-1.1v-1.343a1.1 1.1 0 00-.322-.778l-1.171-1.17a2.727 2.727 0 01-.799-1.929v-8.53c0-8.202-6.648-14.85-14.85-14.85zm-17.233 14.85c0-9.518 7.715-17.234 17.233-17.234S44.733 13.4 44.733 22.917v8.53c0 .091.037.179.101.243l1.17 1.171a3.484 3.484 0 011.021 2.463v1.343a3.483 3.483 0 01-3.483 3.483H11.458a3.483 3.483 0 01-3.483-3.483v-1.343c0-.924.367-1.81 1.02-2.463l1.171-1.17a.344.344 0 00.1-.244v-8.53z" fill="#7A8EF6"/></svg>