<svg width="29" height="29" fill="none" xmlns="http://www.w3.org/2000/svg"><path d="M10.875 25.375h7.25" stroke="#fff" stroke-width="2.023" stroke-linecap="round" stroke-linejoin="round"/><path d="M20.215 15.336l.797.623-.797-.623zm-11.43 0l-.797.623.797-.623zm2.09 4.607h1.012-1.012zm-2.613-9.068A6.238 6.238 0 0114.5 4.637V2.613a8.262 8.262 0 00-8.262 8.262h2.024zM14.5 4.637a6.238 6.238 0 016.238 6.238h2.024A8.262 8.262 0 0014.5 2.613v2.024zm6.238 6.238c0 1.449-.492 2.78-1.32 3.838l1.594 1.246a8.23 8.23 0 001.75-5.084h-2.024zM9.582 14.713a6.207 6.207 0 01-1.32-3.838H6.238a8.23 8.23 0 001.75 5.084l1.594-1.246zm7.335 6.026h-4.834v2.023h4.834v-2.023zm-4.834 0a.197.197 0 01-.196-.197H9.863a2.22 2.22 0 002.22 2.22v-2.023zm5.03-.197a.197.197 0 01-.196.197v2.023a2.22 2.22 0 002.22-2.22h-2.024zm-5.226 0v-.6H9.863v.6h2.024zm5.226-.6v.6h2.024v-.6h-2.024zM7.988 15.96c1.07 1.369 1.875 2.642 1.875 3.984h2.024c0-2.109-1.25-3.88-2.305-5.23L7.988 15.96zm11.43-1.246c-1.055 1.35-2.305 3.121-2.305 5.23h2.024c0-1.342.806-2.615 1.875-3.984l-1.594-1.246z" fill="#fff"/></svg>