<svg width="29" height="29" fill="none" xmlns="http://www.w3.org/2000/svg"><path fill-rule="evenodd" clip-rule="evenodd" d="M9.863 25.375c0-.559.453-1.012 1.012-1.012h7.25a1.012 1.012 0 110 2.024h-7.25a1.012 1.012 0 01-1.012-1.012zM14.5 4.637a6.238 6.238 0 00-4.918 10.076c1.055 1.35 2.305 3.121 2.305 5.23v.599c0 .108.088.197.196.197h4.834a.197.197 0 00.196-.197v-.6c0-2.108 1.25-3.879 2.305-5.229A6.238 6.238 0 0014.5 4.637zm-8.262 6.238a8.262 8.262 0 1114.774 5.084c-1.07 1.369-1.875 2.642-1.875 3.984v.599a2.22 2.22 0 01-2.22 2.22h-4.834a2.22 2.22 0 01-2.22-2.22v-.6c0-1.341-.806-2.614-1.875-3.983a8.23 8.23 0 01-1.75-5.084z" fill="#fff"/></svg>