<svg width="24" height="24" fill="none" xmlns="http://www.w3.org/2000/svg"><path fill-rule="evenodd" clip-rule="evenodd" d="M3 5a2 2 0 012-2h14a2 2 0 012 2v14a2 2 0 01-2 2H5a2 2 0 01-2-2V5zm16 0H5v14h14V5z" fill="#3E4982"/><path fill-rule="evenodd" clip-rule="evenodd" d="M15 16a1 1 0 011-1h.002a1 1 0 011 1v.002a1 1 0 01-1 1H16a1 1 0 01-1-1V16zm-4 0a1 1 0 011-1h.002a1 1 0 011 1v.002a1 1 0 01-1 1H12a1 1 0 01-1-1V16zm-4 0a1 1 0 011-1h.002a1 1 0 011 1v.002a1 1 0 01-1 1H8a1 1 0 01-1-1V16zm8-4a1 1 0 011-1h.002a1 1 0 011 1v.002a1 1 0 01-1 1H16a1 1 0 01-1-1V12zm-4 0a1 1 0 011-1h.002a1 1 0 011 1v.002a1 1 0 01-1 1H12a1 1 0 01-1-1V12zm-4 0a1 1 0 011-1h.002a1 1 0 011 1v.002a1 1 0 01-1 1H8a1 1 0 01-1-1V12zM3 8a1 1 0 011-1h16a1 1 0 110 2H4a1 1 0 01-1-1zm13-7a1 1 0 011 1v2a1 1 0 11-2 0V2a1 1 0 011-1zM8 1a1 1 0 011 1v2a1 1 0 01-2 0V2a1 1 0 011-1z" fill="#3E4982"/></svg>