<svg width="24" height="25" fill="none" xmlns="http://www.w3.org/2000/svg"><path fill-rule="evenodd" clip-rule="evenodd" d="M3 8.008a1 1 0 011-1h16a1 1 0 110 2H4a1 1 0 01-1-1z" fill="#7A8EF6"/><path fill-rule="evenodd" clip-rule="evenodd" d="M3 5.008a2 2 0 012-2h14a2 2 0 012 2v14a2 2 0 01-2 2H5a2 2 0 01-2-2v-14zm16 0H5v14h14v-14z" fill="#7A8EF6"/><path fill-rule="evenodd" clip-rule="evenodd" d="M16 1.008a1 1 0 011 1v2a1 1 0 11-2 0v-2a1 1 0 011-1zm-8 0a1 1 0 011 1v2a1 1 0 11-2 0v-2a1 1 0 011-1z" fill="#7A8EF6"/></svg>