<svg width="21" height="21" fill="none" xmlns="http://www.w3.org/2000/svg"><path d="M14.805 2.755h3.374a.844.844 0 01.844.844v13.497a.844.844 0 01-.844.844H2.995a.844.844 0 01-.844-.844V3.599a.844.844 0 01.844-.844h3.374V1.068h1.687v1.687h5.062V1.068h1.687v1.687zm2.53 6.749H3.838v6.748h13.497V9.504zm-4.218-5.062H8.056V6.13H6.369V4.442h-2.53v3.375h13.496V4.442h-2.53V6.13h-1.688V4.442zm-7.592 6.749h1.687v1.687H5.525v-1.687zm4.218 0h1.687v1.687H9.743v-1.687zm4.218 0h1.687v1.687h-1.687v-1.687z" fill="#7A8EF6"/></svg>