<svg width="108" height="108" fill="none" xmlns="http://www.w3.org/2000/svg"><path d="M30.566 69.793l22.296-7.119c1.78-.628 2.722-2.512 2.199-4.187l-6.072-19.156a3.493 3.493 0 00-4.291-2.198L22.4 44.25c-1.78.523-2.722 2.407-2.198 4.187l6.176 19.156c.523 1.78 2.407 2.722 4.187 2.199zm5.653-26.38l1.989 6.386-3.14.942-2.094-6.386 3.245-.941zm-6.386 1.99l3.036 9.63 9.526-3.14-3.036-9.526 6.386-2.094L51.92 59.43l-22.4 7.223-6.072-19.156 6.385-2.094zM63.645 29.7h23.447v-3.35H63.645a6.679 6.679 0 00-6.7 6.7v32.24L20.622 76.7c-.42.105-.628.628-.524 1.047l.419 1.57c.105.524.628.733 1.047.628l36.951-11.724h5.13c0 6.49 5.233 11.724 11.723 11.724 6.386 0 11.725-5.234 11.725-11.724 0-6.385-5.34-11.724-11.725-11.724-5.338 0-9.735 3.56-11.2 8.375h-3.873V33.05c0-1.78 1.465-3.35 3.35-3.35zm11.723 30.147c4.606 0 8.375 3.769 8.375 8.374 0 4.71-3.769 8.375-8.374 8.375-4.711 0-8.375-3.664-8.375-8.375 0-4.605 3.664-8.374 8.374-8.374z" fill="#fff"/></svg>