<svg width="24" height="24" fill="none" xmlns="http://www.w3.org/2000/svg"><path fill-rule="evenodd" clip-rule="evenodd" d="M12 4a8 8 0 100 16 8 8 0 000-16zM2 12C2 6.477 6.477 2 12 2s10 4.477 10 10-4.477 10-10 10S2 17.523 2 12z" fill="#fff"/><path fill-rule="evenodd" clip-rule="evenodd" d="M12 2a1 1 0 011 1v8.609l5.735 6.213a1 1 0 01-1.47 1.356l-6-6.5A1 1 0 0111 12V3a1 1 0 011-1z" fill="#fff"/><path fill-rule="evenodd" clip-rule="evenodd" d="M11 12a1 1 0 011-1h9a1 1 0 110 2h-9a1 1 0 01-1-1z" fill="#fff"/></svg>