<svg width="20" height="20" fill="none" xmlns="http://www.w3.org/2000/svg"><path fill-rule="evenodd" clip-rule="evenodd" d="M10 19.31A9.31 9.31 0 10.69 10 9.31 9.31 0 0010 19.31zm0 .69c5.523 0 10-4.477 10-10S15.523 0 10 0 0 4.477 0 10s4.477 10 10 10z" fill="#fff"/><path fill-rule="evenodd" clip-rule="evenodd" d="M10 3.448c-.572 0-1.035.463-1.035 1.035v4.482H4.482a1.034 1.034 0 000 2.07h4.483v4.482a1.035 1.035 0 002.07 0v-4.483h4.482a1.034 1.034 0 000-2.069h-4.483V4.483c0-.572-.463-1.035-1.034-1.035z" fill="#fff"/></svg>