<svg width="20" height="20" fill="none" xmlns="http://www.w3.org/2000/svg"><path d="M5.518 6.017a.731.731 0 011.034 0l7.931 7.931a.731.731 0 11-1.034 1.035L5.518 7.052a.731.731 0 010-1.035z" fill="#fff"/><path d="M5.517 14.983a.732.732 0 010-1.035l7.931-7.93a.731.731 0 111.035 1.034l-7.931 7.93a.732.732 0 01-1.035 0z" fill="#fff"/><path fill-rule="evenodd" clip-rule="evenodd" d="M10 19.31A9.31 9.31 0 10.69 10 9.31 9.31 0 0010 19.31zm0 .69c5.523 0 10-4.477 10-10S15.523 0 10 0 0 4.477 0 10s4.477 10 10 10z" fill="#fff"/></svg>