<svg width="32" height="32" fill="none" xmlns="http://www.w3.org/2000/svg"><path fill-rule="evenodd" clip-rule="evenodd" d="M14.998 11.014a1.328 1.328 0 011.879 0l3.984 3.984a1.328 1.328 0 010 1.879l-3.984 3.984a1.328 1.328 0 11-1.879-1.878l1.717-1.717H5.313a1.328 1.328 0 110-2.657h11.402l-1.717-1.717a1.328 1.328 0 010-1.878z" fill="#fff"/><path fill-rule="evenodd" clip-rule="evenodd" d="M3.984 6.64a2.656 2.656 0 012.657-2.656h18.593a2.656 2.656 0 012.657 2.657v18.593a2.656 2.656 0 01-2.657 2.657H6.641a2.656 2.656 0 01-2.657-2.657v-2.656a1.328 1.328 0 012.657 0v2.656h18.593V6.641H6.641v2.656a1.328 1.328 0 11-2.657 0V6.64z" fill="#fff"/></svg>