<svg width="24" height="24" fill="none" xmlns="http://www.w3.org/2000/svg"><path fill-rule="evenodd" clip-rule="evenodd" d="M13 18a1 1 0 011-1h7a1 1 0 110 2h-7a1 1 0 01-1-1zM2 18a1 1 0 011-1h2a1 1 0 110 2H3a1 1 0 01-1-1z" fill="#fff"/><path fill-rule="evenodd" clip-rule="evenodd" d="M7.5 16.5a1.5 1.5 0 100 3 1.5 1.5 0 000-3zM4 18a3.5 3.5 0 117 0 3.5 3.5 0 01-7 0zm15-6a1 1 0 011-1h1a1 1 0 110 2h-1a1 1 0 01-1-1zM2 12a1 1 0 011-1h7a1 1 0 110 2H3a1 1 0 01-1-1z" fill="#fff"/><path fill-rule="evenodd" clip-rule="evenodd" d="M16.5 10.5a1.5 1.5 0 100 3 1.5 1.5 0 000-3zM13 12a3.5 3.5 0 117 0 3.5 3.5 0 01-7 0zm-1-6a1 1 0 011-1h8a1 1 0 110 2h-8a1 1 0 01-1-1zM2 6a1 1 0 011-1h1a1 1 0 010 2H3a1 1 0 01-1-1z" fill="#fff"/><path fill-rule="evenodd" clip-rule="evenodd" d="M10.5 4.5a1.5 1.5 0 100 3 1.5 1.5 0 000-3zM7 6a3.5 3.5 0 117 0 3.5 3.5 0 01-7 0z" fill="#fff"/></svg>