<svg width="73" height="73" fill="none" xmlns="http://www.w3.org/2000/svg"><path fill-rule="evenodd" clip-rule="evenodd" d="M12.167 12.167a3.042 3.042 0 013.041 3.041v48.667a3.042 3.042 0 11-6.083 0V15.208a3.042 3.042 0 013.042-3.041z" fill="#7A8EF6"/><path fill-rule="evenodd" clip-rule="evenodd" d="M48.578 13.987c3.227.348 6.585-.295 10.382-3.264a3.042 3.042 0 014.915 2.397v34.594c0 .936-.43 1.82-1.168 2.396-5.052 3.95-9.99 5.037-14.781 4.52-4.49-.485-8.734-2.382-12.462-4.048l-.205-.091c-3.965-1.772-7.39-3.273-10.837-3.645-3.227-.348-6.585.295-10.382 3.264a3.042 3.042 0 01-4.915-2.396V13.12c0-.936.43-1.82 1.168-2.397 5.052-3.95 9.99-5.036 14.781-4.52 4.49.485 8.734 2.382 12.462 4.048l.205.091c3.965 1.772 7.39 3.274 10.837 3.645zm-33.37.678v27.653c3.349-1.49 6.64-1.868 9.866-1.52 4.49.484 8.734 2.381 12.462 4.047l.205.092c3.965 1.772 7.39 3.273 10.837 3.644 2.892.312 5.89-.172 9.214-2.413V18.515c-3.349 1.49-6.64 1.868-9.866 1.52-4.49-.484-8.734-2.38-12.462-4.047l-.205-.091c-3.965-1.772-7.39-3.273-10.837-3.645-2.892-.312-5.89.172-9.214 2.413z" fill="#7A8EF6"/></svg>