<svg width="21" height="21" fill="none" xmlns="http://www.w3.org/2000/svg"><path fill-rule="evenodd" clip-rule="evenodd" d="M6.888 0h7.666a6.39 6.39 0 016.389 6.388v7.667a6.39 6.39 0 01-6.389 6.388H6.888A6.39 6.39 0 01.5 14.055V6.388A6.39 6.39 0 016.888 0zm7.666 18.527a4.477 4.477 0 004.472-4.472V6.388a4.477 4.477 0 00-4.472-4.471H6.888a4.477 4.477 0 00-4.472 4.471v7.667a4.477 4.477 0 004.472 4.472h7.666z" fill="#3841B2"/><path fill-rule="evenodd" clip-rule="evenodd" d="M5.611 10.222a5.111 5.111 0 1110.222 0 5.111 5.111 0 01-10.222 0zm1.917 0a3.199 3.199 0 003.194 3.194 3.199 3.199 0 003.194-3.194 3.198 3.198 0 00-3.194-3.195 3.198 3.198 0 00-3.194 3.195z" fill="#3841B2"/><circle cx="16.216" cy="4.727" r=".681" fill="#3841B2"/></svg>