<svg width="108" height="108" fill="none" xmlns="http://www.w3.org/2000/svg"><path d="M54.042 26.798c-11.096 0-20.098 9.107-20.098 20.098 0 8.06 2.617 10.468 18.005 32.555.523.628 1.256.942 2.093.942a2.58 2.58 0 001.99-.942C71.418 57.364 74.14 54.956 74.14 46.896c0-10.991-9.108-20.098-20.099-20.098zm0 49.617c-2.093-2.93-3.978-5.443-5.548-7.746-10.154-14.445-11.2-16.12-11.2-21.773 0-9.212 7.432-16.749 16.748-16.749 9.212 0 16.749 7.537 16.749 16.749 0 5.653-1.152 7.328-11.305 21.773-1.675 2.303-3.455 4.92-5.444 7.746z" fill="#fff"/><path d="M46.896 55.829v-16.58h2.71v16.58h-2.71zm18.076-11.567c0 1.731-.567 3.058-1.7 3.98-1.135.922-2.749 1.384-4.843 1.384h-1.724v6.203h-2.71v-16.58h4.774c2.072 0 3.621.424 4.65 1.27 1.035.847 1.553 2.095 1.553 3.743zm-8.267 3.084h1.44c1.391 0 2.412-.242 3.062-.726.65-.483.975-1.24.975-2.267 0-.953-.29-1.664-.873-2.133-.582-.468-1.489-.703-2.721-.703h-1.883v5.83z" fill="#fff"/></svg>