<svg width="79" height="79" fill="none" xmlns="http://www.w3.org/2000/svg"><path fill-rule="evenodd" clip-rule="evenodd" d="M62.542 32.917H16.458v32.916h46.084V32.917zm-46.084-6.584h46.084a6.583 6.583 0 016.583 6.584v32.916a6.583 6.583 0 01-6.583 6.584H16.458a6.583 6.583 0 01-6.583-6.584V32.917a6.583 6.583 0 016.583-6.584z" fill="#7A8EF6"/><path fill-rule="evenodd" clip-rule="evenodd" d="M39.5 13.167a6.583 6.583 0 00-6.584 6.583v6.583h13.167V19.75a6.583 6.583 0 00-6.583-6.583zM26.333 19.75c0-7.272 5.895-13.167 13.167-13.167 7.271 0 13.166 5.895 13.166 13.167v9.115a4.051 4.051 0 01-4.05 4.052H30.383a4.051 4.051 0 01-4.051-4.052V19.75z" fill="#7A8EF6"/></svg>