<svg width="31" height="31" fill="none" xmlns="http://www.w3.org/2000/svg"><path fill-rule="evenodd" clip-rule="evenodd" d="M3.413 7.62c0-1.197.97-2.167 2.166-2.167h20.318c1.197 0 2.166.97 2.166 2.166v15.239c0 1.196-.97 2.166-2.166 2.166H5.58a2.166 2.166 0 01-2.166-2.166V7.619zm2.166-.374a.373.373 0 00-.373.373v15.239c0 .206.167.373.373.373h20.318a.373.373 0 00.374-.373V7.619a.373.373 0 00-.374-.373H5.58z" fill="#fff"/><path fill-rule="evenodd" clip-rule="evenodd" d="M3.594 7.079a.896.896 0 011.256-.175l11.199 8.468L26.607 6.92a.896.896 0 011.12 1.4l-11.102 8.889a.896.896 0 01-1.101.015L3.769 8.334a.896.896 0 01-.175-1.255z" fill="#fff"/></svg>