<svg width="31" height="31" fill="none" xmlns="http://www.w3.org/2000/svg"><path fill-rule="evenodd" clip-rule="evenodd" d="M15.738 9.785a1.643 1.643 0 100 3.287 1.643 1.643 0 000-3.287zm-3.436 1.644a3.436 3.436 0 116.872 0 3.436 3.436 0 01-6.872 0z" fill="#fff"/><path fill-rule="evenodd" clip-rule="evenodd" d="M15.738 4.706a8.043 8.043 0 00-5.655 2.316A7.846 7.846 0 007.745 12.6c0 3.63 2.05 6.939 4.222 9.408a27.866 27.866 0 003.771 3.542 27.856 27.856 0 003.771-3.542c2.172-2.47 4.222-5.778 4.222-9.408a7.85 7.85 0 00-2.338-5.58 8.043 8.043 0 00-5.655-2.315zm0 21.961l-.51.737-.003-.002-.007-.005-.023-.016a16.973 16.973 0 01-.38-.279 29.667 29.667 0 01-4.195-3.91c-2.273-2.585-4.667-6.309-4.667-10.591a9.639 9.639 0 012.87-6.854 9.836 9.836 0 016.915-2.834 9.836 9.836 0 016.916 2.834 9.639 9.639 0 012.87 6.854c0 4.282-2.395 8.006-4.668 10.592a29.667 29.667 0 01-4.196 3.91 16.973 16.973 0 01-.38.278l-.022.016-.006.005-.002.001s-.002.001-.512-.736zm0 0l.51.737a.897.897 0 01-1.02 0l.51-.737z" fill="#fff"/></svg>