<svg width="31" height="30" fill="none" xmlns="http://www.w3.org/2000/svg"><path d="M12.567 5.247l-.829.342.83-.342zm1.339 3.249l.829-.342-.83.342zm-.407 2.493l.68.584-.68-.584zm-.72.84l.68.583-.68-.584zm.155 3.32l-.625.644.625-.644zm2.434 2.363l.624-.643-.624.643zm3.422.15l-.564-.696.564.697zm.864-.698l.564.697-.564-.698zm2.57-.395l-.325.835.324-.835zm3.346 1.299l.325-.836-.325.836zM6.715 4.594h3.494V2.8H6.715v1.793zm5.023.995l1.34 3.248 1.657-.683-1.34-3.248-1.657.683zm1.08 4.816l-.72.84 1.36 1.167.721-.839-1.36-1.168zm-.509 5.388l2.435 2.362 1.248-1.286-2.434-2.363-1.249 1.287zm7.044 2.567l.865-.7-1.127-1.393-.865.699 1.127 1.394zm2.546-.956l3.347 1.3.649-1.672-3.347-1.3-.649 1.672zm4.371 2.753v3.39h1.793v-3.39H26.27zm-1.51 4.83c-10.825 0-19.554-8.511-19.554-18.954H3.413c0 11.483 9.583 20.746 21.348 20.746v-1.793zm1.51-1.44c0 .77-.65 1.44-1.51 1.44v1.792c1.8 0 3.303-1.422 3.303-3.232H26.27zm-1.024-4.844c.631.246 1.024.828 1.024 1.454h1.793c0-1.39-.871-2.621-2.168-3.125l-.65 1.671zm-5.028-1.043a1.704 1.704 0 011.681-.256l.649-1.671a3.497 3.497 0 00-3.457.534l1.127 1.393zm-5.474.495a3.493 3.493 0 004.61.205l-1.128-1.394a1.7 1.7 0 01-2.234-.097l-1.248 1.286zm-2.646-6.91a3.308 3.308 0 00.211 4.548l1.249-1.287a1.516 1.516 0 01-.1-2.094l-1.36-1.168zm.98-2.408a1.512 1.512 0 01-.26 1.568l1.361 1.168a3.304 3.304 0 00.556-3.419l-1.658.683zm-2.869-4.243c.688 0 1.287.406 1.53.995l1.657-.683C12.867 3.623 11.598 2.8 10.209 2.8v1.793zM6.715 2.8c-1.798 0-3.302 1.422-3.302 3.232h1.793c0-.77.65-1.44 1.51-1.44v-1.79z" fill="#fff"/></svg>