<svg width="108" height="108" fill="none" xmlns="http://www.w3.org/2000/svg"><path d="M35.549 47.985c0 3.098-1.06 5.485-3.182 7.16-2.108 1.66-5.13 2.49-9.066 2.49h-3.6v12.039h-3.56V39.066h7.935c7.648 0 11.473 2.973 11.473 8.919zM19.7 54.579h3.204c3.154 0 5.436-.51 6.846-1.528 1.41-1.019 2.114-2.652 2.114-4.899 0-2.024-.663-3.531-1.989-4.522-1.326-.991-3.391-1.487-6.197-1.487H19.7V54.58zm45.515 15.095h-3.56V55.27h-16.12v14.404h-3.559V39.066h3.56v13.022h16.12V39.066h3.559v30.608zm27.823-21.69c0 3.1-1.06 5.486-3.182 7.16-2.107 1.662-5.13 2.492-9.065 2.492H77.19v12.038h-3.56V39.066h7.936c7.648 0 11.472 2.973 11.472 8.919zM77.19 54.58h3.203c3.154 0 5.436-.51 6.846-1.528 1.41-1.019 2.115-2.652 2.115-4.899 0-2.024-.663-3.531-1.99-4.522-1.325-.991-3.39-1.487-6.196-1.487H77.19V54.58z" fill="#fff"/></svg>