<svg width="21" height="22" fill="none" xmlns="http://www.w3.org/2000/svg"><path d="M7 7.423c.05-.977.388-1.778 1.013-2.405.625-.627 1.467-.94 2.525-.94 1.008 0 1.835.3 2.482.904.654.604.98 1.36.98 2.272 0 .639-.15 1.204-.447 1.695-.293.485-.738.929-1.335 1.33-.551.374-.926.717-1.123 1.03-.197.308-.295.71-.295 1.207v.666H9.677v-.835c-.006-.58.12-1.076.38-1.49.259-.414.686-.826 1.283-1.234.535-.372.912-.733 1.132-1.082.225-.35.337-.76.337-1.234 0-.633-.216-1.153-.65-1.562-.433-.408-.988-.612-1.663-.612-.676 0-1.23.207-1.664.621-.433.414-.678.97-.734 1.669H7zm3.25 9.654a.74.74 0 01-.556-.24.818.818 0 01-.228-.585.83.83 0 01.228-.595.74.74 0 01.557-.24.75.75 0 01.566.24.83.83 0 01.228.595.82.82 0 01-.228.586.75.75 0 01-.566.24z" fill="#7A8EF6"/><path fill-rule="evenodd" clip-rule="evenodd" d="M10.5 20.077a9.5 9.5 0 100-19 9.5 9.5 0 000 19zm0 1c5.799 0 10.5-4.7 10.5-10.5 0-5.799-4.701-10.5-10.5-10.5S0 4.778 0 10.577c0 5.8 4.701 10.5 10.5 10.5z" fill="#7A8EF6"/></svg>