<svg width="24" height="24" fill="none" xmlns="http://www.w3.org/2000/svg"><path fill-rule="evenodd" clip-rule="evenodd" d="M2 15C2 9.477 6.477 5 12 5s10 4.477 10 10v2a1 1 0 11-2 0v-2a8 8 0 10-16 0v2a1 1 0 11-2 0v-2z" fill="#3E4982"/><path fill-rule="evenodd" clip-rule="evenodd" d="M5 15a7 7 0 1114 0v2a1 1 0 11-2 0v-2a5 5 0 00-10 0v2a1 1 0 11-2 0v-2z" fill="#3E4982"/><path fill-rule="evenodd" clip-rule="evenodd" d="M8 15a4 4 0 018 0v2a1 1 0 11-2 0v-2a2 2 0 10-4 0v2a1 1 0 11-2 0v-2z" fill="#3E4982"/></svg>