<svg width="24" height="24" fill="none" xmlns="http://www.w3.org/2000/svg"><path d="M1 14.36c.118-.256.318-.409.57-.523.394-.185.781-.392 1.169-.588.554-.284 1.125-.31 1.696-.055.107.05.167.011.242-.054.56-.474 1.066-1.013 1.68-1.422 1.54-1.03 3.736-.953 5.157.234.539.453 1.083.676 1.788.627.829-.055 1.658-.017 2.492-.011.916 0 1.572.408 1.928 1.274.005.022.021.038.032.055.005.005.01.005.032.016.587-.637 1.174-1.28 1.766-1.917a2.44 2.44 0 01.593-.49c.764-.436 1.712-.273 2.368.42.55.571.652 1.573.216 2.276-.383.61-.846 1.165-1.27 1.748a425.93 425.93 0 01-1.864 2.522c-.958 1.285-2.234 1.922-3.822 1.922-2.417 0-4.84 0-7.257-.005-.173 0-.216.038-.232.218-.06.746-.436 1.285-1.093 1.623-.436.228-.877.452-1.319.67-.414.206-.753.092-.963-.327-1.293-2.614-2.58-5.229-3.871-7.848-.006-.011-.022-.017-.033-.028C1 14.594 1 14.474 1 14.36zm11.042 4.738H15.8c1.136 0 2.051-.452 2.735-1.372.549-.736 1.093-1.471 1.636-2.206.463-.627.932-1.247 1.39-1.88.3-.419.113-.952-.367-1.056-.285-.06-.49.076-.678.278-.888.975-1.782 1.939-2.676 2.908-.328.36-.716.637-1.211.67-1.351.087-2.703.027-4.06.033-.285 0-.51-.229-.57-.501-.092-.43.21-.79.673-.795 1.05-.006 2.105-.006 3.155 0 .22 0 .414-.05.56-.218a.613.613 0 00.113-.686c-.119-.273-.34-.398-.636-.398-1.066 0-2.132-.005-3.198.005a2.117 2.117 0 01-1.442-.512c-.135-.109-.27-.212-.404-.32-1.222-.992-2.875-.992-4.092.01-.393.327-.759.68-1.152 1.008-.124.103-.129.185-.06.32a952.45 952.45 0 012.24 4.532c.07.142.151.175.291.175 1.33.005 2.66.005 3.995.005zm-8.399-4.771a.781.781 0 00-.339.098c-.215.109-.43.229-.651.327-.124.054-.13.109-.07.229.29.577.576 1.16.861 1.742.754 1.53 1.513 3.056 2.267 4.592.07.141.124.18.264.092.183-.109.382-.196.57-.294.463-.24.57-.56.34-1.035L5.85 17.987c-.528-1.073-1.06-2.14-1.588-3.213-.13-.267-.318-.43-.62-.447zM13.334 1c.282.074.576.133.841.26 1.54.735 1.983 2.67.887 3.947-.106.117-.095.16.038.245 1.274.793 1.883 1.936 1.9 3.383v.468c-.006.442-.271.697-.731.697H9.734c-.46 0-.726-.255-.731-.697-.012-.633.005-1.255.238-1.862A3.908 3.908 0 0110.88 5.48c.061-.038.122-.08.194-.123-.116-.143-.238-.282-.338-.43-.953-1.447-.133-3.394 1.612-3.84.094-.027.205-.012.282-.086h.704zm-.35 7.729h2.3c.414 0 .414 0 .353-.405-.199-1.292-1.373-2.234-2.741-2.18-1.313.047-2.481 1.143-2.564 2.399-.011.143.016.191.177.191.825-.01 1.65-.005 2.476-.005zm1.363-5.144c0-.697-.61-1.303-1.318-1.308-.72-.006-1.374.617-1.374 1.313-.005.687.637 1.277 1.38 1.277.714-.01 1.312-.59 1.312-1.282z" fill="#3E4982"/></svg>