<svg width="24" height="24" fill="none" xmlns="http://www.w3.org/2000/svg"><path d="M12 16a4 4 0 100-8 4 4 0 000 8z" stroke="#fff" stroke-width="2" stroke-linecap="round" stroke-linejoin="round"/><path d="M19.101 7.826l.866-.5-.866.5zm.066.114l-.866.5.866-.5zm.76.747l.486-.873-.486.873zm1.55.863l-.485.874.486-.874zm.515.872l-1 .002 1-.002zm.007 3.152l-1 .002 1-.002zm-.515.877l-.485-.875.485.875zm-1.555.861l.484.875-.484-.875zm-.763.75l-.866-.5.866.5zm-.065.112l.866.5-.866-.5zm-.268 1.034l-1 .017 1-.017zm.03 1.78l-1 .017 1-.016zm-.497.882l-.503-.865.503.865zm-2.729 1.584l.503.864-.503-.864zm-1.016-.008l.515-.857-.515.857zm-1.526-.916l-.515.857.515-.857zm-2.189-.001l.514.858-.514-.858zm-1.519.91l-.514-.859.514.858zm-1.013.008l.5-.867-.5.867zM5.637 19.87l.5-.867-.5.867zm-.5-.884l1 .017-1-.017zm.03-1.773l-1-.017 1 .017zm-.264-1.027l.868-.497-.868.497zm-.07-.121l-.868.496.868-.496zm-.763-.755l-.486.874.486-.874zm-1.548-.86l-.486.873.486-.873zm-.513-.872l-1 .002 1-.002zM2 10.426l1-.002-1 .002zm.516-.877l.484.875-.484-.875zm1.555-.862l-.485-.874.485.874zm.762-.748l-.866-.5.866.5zm.065-.113l.866.5-.866-.5zm.268-1.034l1-.017-1 .017zm-.03-1.78l-1 .016 1-.017zm.498-.882l.502.864-.502-.864zm2.728-1.584l.502.865-.502-.865zm1.016.008l-.514.857.514-.857zm1.527.916l-.515.857.514-.857zm2.188.001l-.514-.858.514.858zm1.52-.91l-.515-.857.514.858zm1.012-.008l.5-.866-.5.866zm2.737 1.577l.5-.866-.5.866zm.5.883l-1-.016 1 .016zm-.03 1.78l-1-.018 1 .017zm-.598 1.533l.066.114 1.732-1-.066-.114-1.732 1zm1.206 1.235l1.55.863.973-1.748-1.551-.862-.973 1.747zm1.55.863l.01 3.152 2-.005-.007-3.151-2 .004zm.01 3.152l-1.555.862.97 1.749 1.554-.862-.97-1.749zm-2.7 1.985l-.065.113 1.732 1 .065-.113-1.732-1zm-.466 1.663l.03 1.781 2-.033-.03-1.781-2 .034zm.03 1.781l-2.728 1.584 1.004 1.73 2.727-1.584-1.004-1.73zm-2.728 1.584l-1.526-.916-1.03 1.714 1.526.916 1.03-1.714zm-3.07-1.344h-.132v2h.131v-2zm-1.674.426l-1.519.91 1.028 1.715 1.519-.91-1.027-1.715zm-1.519.91l-2.736-1.578-.999 1.733 2.737 1.577.998-1.733zm-2.736-1.578l.03-1.773-2-.034-.03 1.774 2 .033zM5.77 15.69l-.07-.121-1.736.993.07.122 1.736-.994zm-1.215-1.252l-1.547-.861-.973 1.747 1.548.861.972-1.748zm-1.547-.861L3 10.424l-2 .004.008 3.152 2-.004zM3 10.424l1.555-.862-.97-1.75-1.554.862.97 1.75zm2.7-1.985l.065-.113-1.732-1-.065.112 1.732 1zm.467-1.664l-.03-1.78-2 .033.03 1.781 2-.034zm-.03-1.78L8.865 3.41 7.86 1.681 5.133 3.265l1.004 1.73zM8.865 3.41l1.526.916 1.03-1.714-1.527-.917-1.03 1.715zm3.07 1.344h.132v-2h-.132v2zm1.673-.426l1.519-.91-1.028-1.715-1.519.91 1.028 1.715zm1.519-.91l2.736 1.578 1-1.733-2.738-1.577-.998 1.733zm2.736 1.578l-.03 1.778 2 .034.03-1.779-2-.033zm0 0l2 .033a2 2 0 00-1-1.766l-1 1.733zM15.127 3.42l.998-1.733a2 2 0 00-2.026.017l1.028 1.716zm-3.06 1.335a3 3 0 001.54-.426L12.58 2.613a1 1 0 01-.513.142v2zm-1.676-.428a3 3 0 001.544.428v-2a1 1 0 01-.515-.142l-1.03 1.714zm-1.526-.916l1.03-1.715a2 2 0 00-2.034-.015l1.004 1.73zM6.137 4.994l-1.004-1.73a2 2 0 00-.996 1.764l2-.034zm-.372 3.332a3 3 0 00.402-1.55l-2 .033a1 1 0 01-.134.517l1.732 1zM4.556 9.562A3 3 0 005.7 8.44l-1.732-1a1 1 0 01-.381.374l.97 1.75zm-1.555.862l-.969-1.75a2 2 0 00-1.03 1.754l2-.004zm.008 3.152l-2 .004a2 2 0 001.027 1.743l.973-1.747zM5.7 15.568a3 3 0 00-1.145-1.131l-.972 1.747a1 1 0 01.381.377l1.736-.993zm.466 1.662a3 3 0 00-.396-1.54l-1.736.993a1 1 0 01.132.514l2 .033zm-.03 1.773l-2-.033a2 2 0 001.001 1.766l.999-1.733zm2.736 1.577l-.998 1.733a2 2 0 002.026-.017L8.873 20.58zm3.06-1.335a3 3 0 00-1.54.426l1.027 1.716a1 1 0 01.514-.142v-2zm1.677.427a3 3 0 00-1.545-.427v2a1 1 0 01.515.142l1.03-1.715zm1.526.917l-1.03 1.714a2 2 0 002.034.015l-1.004-1.73zm2.727-1.584l1.005 1.73a2 2 0 00.995-1.763l-2 .033zm.372-3.331a3 3 0 00-.401 1.55l2-.033a1 1 0 01.133-.517l-1.732-1zm1.209-1.236A3 3 0 0018.3 15.56l1.732 1a1 1 0 01.381-.374l-.97-1.75zm1.555-.862l.97 1.75a2 2 0 001.03-1.755l-2 .005zm-.007-3.152l2-.004a2 2 0 00-1.028-1.744l-.972 1.748zm-2.69-1.984a3 3 0 001.139 1.121l.972-1.747a1 1 0 01-.38-.374l-1.732 1zm1.665-1.114a1 1 0 01-.134-.517l-2-.034a3 3 0 00.402 1.551l1.732-1z" fill="#fff"/></svg>