<svg width="24" height="24" fill="none" xmlns="http://www.w3.org/2000/svg"><path fill-rule="evenodd" clip-rule="evenodd" d="M12 9a3 3 0 100 6 3 3 0 000-6zm-5 3a5 5 0 1110 0 5 5 0 01-10 0z" fill="#fff"/><path fill-rule="evenodd" clip-rule="evenodd" d="M7.86 1.681a2 2 0 012.034.015l1.526.917a1 1 0 00.515.142h.132a1 1 0 00.513-.142l.514.858-.514-.858 1.52-.91a2 2 0 012.025-.016l-.499.866.5-.866 2.736 1.577a2 2 0 011.001 1.766l-.03 1.779a1 1 0 00.134.517l-.866.5.866-.5.066.114a1 1 0 00.38.374l-.486.873.486-.873 1.55.862a2 2 0 011.029 1.744l.007 3.152a2 2 0 01-1.03 1.753l-1.556.862a1 1 0 00-.38.374l-.066.113-.866-.5.866.5a1 1 0 00-.134.517l.03 1.78a2 2 0 01-.995 1.764L16.14 22.32a2 2 0 01-2.034-.016l-1.526-.916a1 1 0 00-.515-.142h-.131a1 1 0 00-.514.142l-1.52.91a2 2 0 01-2.025.016l-2.737-1.577a2 2 0 01-1-1.766l.029-1.773a1 1 0 00-.132-.514l-.07-.122.868-.496-.868.496a1 1 0 00-.381-.377l-1.548-.86.486-.873-.486.872A2 2 0 011.01 13.58L1 10.428a2 2 0 011.031-1.754l1.555-.861.485.874-.485-.874a1 1 0 00.381-.375l.866.5-.866-.5.065-.112a1 1 0 00.134-.517l-.03-1.78a2 2 0 01.996-1.764L7.86 1.68zm1.005 1.73L6.137 4.994l.03 1.781a3 3 0 01-.402 1.551l-.866-.5.866.5-.065.113a3 3 0 01-1.144 1.123l-1.555.862.008 3.152 1.547.86a3 3 0 011.145 1.132l.07.121a3 3 0 01.396 1.541l-.03 1.773 2.736 1.577 1.52-.91a3 3 0 011.54-.425h.132a3 3 0 011.545.427l1.526.917 2.727-1.584-.03-1.78a3 3 0 01.402-1.552l.065-.112.866.5-.866-.5a3 3 0 011.144-1.123l1.555-.862-.007-3.152-1.552-.863a3 3 0 01-1.139-1.12l.866-.501-.866.5-.066-.114a3 3 0 01-.401-1.55l.03-1.78-2.737-1.576-1.52.91a3 3 0 01-1.54.425h-.132a3 3 0 01-1.544-.428l-1.526-.916z" fill="#fff"/></svg>