<svg width="108" height="108" fill="none" xmlns="http://www.w3.org/2000/svg"><path d="M76.148 35.41l-20.25-8.438c-.527-.211-1.37-.317-1.898-.317-.633 0-1.477.106-2.004.317l-20.25 8.438c-1.898.843-3.058 2.636-3.058 4.64 0 20.988 12.023 35.438 23.308 40.184a5.01 5.01 0 003.902 0c9.07-3.797 23.414-16.77 23.414-40.184 0-2.004-1.265-3.797-3.163-4.64zM54.633 77.07c-.422.21-.95.21-1.371 0-10.23-4.114-21.2-18.457-21.2-37.02 0-.633.317-1.265.95-1.476l20.25-8.438a1.562 1.562 0 011.37 0l20.25 8.438c.634.21.95.843.95 1.476.106 18.563-10.863 32.906-21.2 37.02z" fill="#fff"/></svg>