<svg width="24" height="25" fill="none" xmlns="http://www.w3.org/2000/svg"><path fill-rule="evenodd" clip-rule="evenodd" d="M3.292 12.008a19.64 19.64 0 002.275 2.23c1.745 1.447 4.02 2.77 6.433 2.77 2.413 0 4.688-1.323 6.433-2.77a19.645 19.645 0 002.275-2.23 19.655 19.655 0 00-2.275-2.23c-1.745-1.447-4.02-2.77-6.433-2.77-2.413 0-4.688 1.323-6.433 2.77a19.65 19.65 0 00-2.275 2.23zm18.708 0c.802-.598.801-.598.801-.599l-.002-.002-.004-.005-.012-.017a11.606 11.606 0 00-.21-.265 21.652 21.652 0 00-2.864-2.882c-1.874-1.553-4.6-3.23-7.709-3.23-3.11 0-5.835 1.677-7.71 3.23a21.647 21.647 0 00-2.863 2.882 12.152 12.152 0 00-.21.265l-.012.017-.004.005-.002.002.801.599-.801-.598a1 1 0 000 1.196L2 12.008l-.801.598.002.003.004.005.012.017a6.888 6.888 0 00.21.265 21.64 21.64 0 002.864 2.882c1.874 1.553 4.6 3.23 7.709 3.23 3.11 0 5.835-1.677 7.71-3.23a21.645 21.645 0 002.863-2.882 12.753 12.753 0 00.21-.265l.012-.017.004-.005.002-.002-.801-.6zm0 0l.802.598a1.001 1.001 0 000-1.197l-.802.599z" fill="#7A8EF6"/><path fill-rule="evenodd" clip-rule="evenodd" d="M12 11.008a1 1 0 100 2 1 1 0 000-2zm-3 1a3 3 0 116 0 3 3 0 01-6 0z" fill="#7A8EF6"/></svg>