<svg width="105" height="106" fill="none" xmlns="http://www.w3.org/2000/svg"><path d="M62.344 62.406h-.513c-1.23 0-2.46.308-3.691.718-1.538.513-4.102 1.025-5.742 1.025-1.539 0-4.102-.512-5.64-1.025a11.612 11.612 0 00-3.692-.615h-.41c-7.28 0-13.125 5.844-13.125 13.022 0 1.846 1.436 3.281 3.282 3.281h39.374c1.744 0 3.282-1.435 3.282-3.28 0-7.179-5.947-13.126-13.125-13.126zM32.812 75.531c0-5.332 4.41-9.741 9.844-9.844h.41c.718 0 1.538.206 2.564.616 1.846.615 4.922 1.025 6.767 1.025 1.949 0 5.025-.41 6.87-1.025 1.026-.41 1.846-.615 2.564-.615h.513c5.332.102 9.741 4.511 9.843 9.843H32.813zm1.641-26.25c.82 0 1.64-.718 1.64-1.64V46c0-9.023 7.281-16.406 16.407-16.406 9.023 0 16.406 7.383 16.406 16.406v1.64c-.102 4.615-3.691 8.204-8.203 8.204h-3.281c0-1.743-1.538-3.282-3.281-3.282h-3.282c-1.845 0-3.28 1.539-3.28 3.282 0 1.846 1.435 3.281 3.28 3.281h9.844c6.255 0 11.382-5.127 11.484-11.484V46c0-10.767-8.92-19.688-19.687-19.688-10.87 0-19.688 8.921-19.688 19.688v1.64a1.62 1.62 0 001.641 1.641zM52.5 36.156c5.435 0 9.741 4.41 9.741 9.844 0 2.05-1.128 5.024-2.46 6.563h.922c1.436 0 3.281-1.026 4.102-2.256.512-1.333.82-2.769.82-4.307 0-7.178-5.947-13.125-13.125-13.125-7.28 0-13.125 5.947-13.125 13.125 0 4.204 1.948 7.793 4.922 10.254v-.41c0-.923.41-2.359.82-3.282-1.333-1.538-2.563-4.409-2.563-6.562 0-5.435 4.409-9.844 9.843-9.844h.103z" fill="#fff"/></svg>