<svg width="106" height="107" fill="none" xmlns="http://www.w3.org/2000/svg"><path d="M26.5 39.808c0 .725.518 1.242 1.242 1.242h10.041l8.8 9.627 2.276-2.484-9.316-10.04c-.207-.208-.518-.415-.932-.415H27.742c-.724 0-1.242.621-1.242 1.242v.828zM78.465 68.69c1.346-1.242 1.346-3.416 0-4.658l-6.625-6.625c-2.07-2.07-5.59-.621-5.59 2.277v5.383h-1.76l-8.902-9.523-2.277 2.484 9.316 10.041c.207.207.621.31.932.31h2.691v4.555c0 3.002 3.52 4.451 5.59 2.381l6.625-6.625zm-2.07-2.588a.294.294 0 010 .518l-6.625 6.625c-.207.31-.622.103-.622-.31v-13.25c0-.311.415-.518.622-.208l6.625 6.625zm2.07-23.912c1.346-1.242 1.346-3.416 0-4.658l-6.625-6.625c-2.07-2.07-5.59-.621-5.59 2.277v4.555h-2.691c-.414 0-.725.207-.932.414L37.783 65.066h-10.04c-.725 0-1.243.621-1.243 1.242v.829c0 .724.518 1.242 1.242 1.242h10.87c.413 0 .724-.104.93-.31L64.49 41.05h1.76v5.383c0 3.002 3.52 4.452 5.59 2.381l6.625-6.625zm-2.07-2.588a.294.294 0 010 .518l-6.625 6.625c-.207.31-.622.103-.622-.31v-13.25c0-.311.415-.518.622-.208l6.625 6.625z" fill="#fff"/></svg>