<svg width="26" height="20" fill="none" xmlns="http://www.w3.org/2000/svg"><path d="M25.5 2.368c-.93.401-1.92.667-2.953.797A5.033 5.033 0 0024.8.375a10.34 10.34 0 01-3.25 1.222A5.173 5.173 0 0017.808 0c-2.838 0-5.122 2.268-5.122 5.048 0 .4.034.784.118 1.15A14.583 14.583 0 012.24.92a5.021 5.021 0 00-.701 2.55c0 1.748.914 3.298 2.276 4.195A5.122 5.122 0 011.5 7.043v.055c0 2.453 1.776 4.49 4.106 4.959a5.191 5.191 0 01-1.344.166 4.6 4.6 0 01-.97-.086 5.164 5.164 0 004.789 3.515 10.4 10.4 0 01-6.355 2.153c-.42 0-.823-.019-1.226-.07A14.593 14.593 0 008.362 20c9.432 0 14.588-7.692 14.588-14.36 0-.223-.008-.438-.019-.652a10.14 10.14 0 002.569-2.62z" fill="#3841B2"/></svg>