<svg width="23" height="23" fill="none" xmlns="http://www.w3.org/2000/svg"><path fill-rule="evenodd" clip-rule="evenodd" d="M6.587 17.55c-1.226.766-1.795 1.701-1.795 2.575a.958.958 0 11-1.917 0c0-1.773 1.147-3.233 2.696-4.2 1.562-.977 3.661-1.55 5.929-1.55 2.268 0 4.367.573 5.93 1.55 1.548.967 2.695 2.427 2.695 4.2a.958.958 0 01-1.917 0c0-.873-.569-1.81-1.795-2.576-1.212-.757-2.947-1.257-4.913-1.257-1.966 0-3.7.5-4.913 1.257zM11.5 3.833a3.833 3.833 0 100 7.667 3.833 3.833 0 000-7.667zM5.75 7.667a5.75 5.75 0 1111.5 0 5.75 5.75 0 01-11.5 0z" fill="#fff"/></svg>