<?xml version="1.0" encoding="utf-8"?><svg viewBox="0 0 108 108" xmlns="http://www.w3.org/2000/svg" xmlns:xlink="http://www.w3.org/1999/xlink"><style>:root>svg{display:none}:root>svg:target{display:block}</style><svg viewBox="0 0 17 10" id="arrow-top" xmlns="http://www.w3.org/2000/svg"><path fill-rule="evenodd" clip-rule="evenodd" d="M16.692 9.056a.824.824 0 01-1.166 0l-6.629-6.63-6.63 6.63A.824.824 0 111.103 7.89L8.314.678a.824.824 0 011.166 0l7.212 7.212a.824.824 0 010 1.166z"/></svg><svg viewBox="0 0 55 55" id="bell" xmlns="http://www.w3.org/2000/svg"><path fill-rule="evenodd" clip-rule="evenodd" d="M19.433 38.958c0-.658.534-1.191 1.192-1.191h13.75c.658 0 1.192.533 1.192 1.191v2.292a8.067 8.067 0 01-16.134 0v-2.292zm2.384 1.192v1.1a5.683 5.683 0 1011.366 0v-1.1H21.817z"/><path fill-rule="evenodd" clip-rule="evenodd" d="M27.5 8.067c-8.201 0-14.85 6.648-14.85 14.85v8.53c0 .723-.287 1.417-.799 1.929l-.842-.843.842.843-1.17 1.17a1.1 1.1 0 00-.323.778v1.343a1.1 1.1 0 001.1 1.1h32.084a1.1 1.1 0 001.1-1.1v-1.343a1.1 1.1 0 00-.322-.778l-1.171-1.17a2.727 2.727 0 01-.799-1.929v-8.53c0-8.202-6.648-14.85-14.85-14.85zm-17.233 14.85c0-9.518 7.715-17.234 17.233-17.234S44.733 13.4 44.733 22.917v8.53c0 .091.037.179.101.243l1.17 1.171a3.484 3.484 0 011.021 2.463v1.343a3.483 3.483 0 01-3.483 3.483H11.458a3.483 3.483 0 01-3.483-3.483v-1.343c0-.924.367-1.81 1.02-2.463l1.171-1.17a.344.344 0 00.1-.244v-8.53z"/></svg><svg viewBox="0 0 29 29" id="bulb" xmlns="http://www.w3.org/2000/svg"><path fill-rule="evenodd" clip-rule="evenodd" d="M9.863 25.375c0-.559.453-1.012 1.012-1.012h7.25a1.012 1.012 0 110 2.024h-7.25a1.012 1.012 0 01-1.012-1.012zM14.5 4.637a6.238 6.238 0 00-4.918 10.076c1.055 1.35 2.305 3.121 2.305 5.23v.599c0 .108.088.197.196.197h4.834a.197.197 0 00.196-.197v-.6c0-2.108 1.25-3.879 2.305-5.229A6.238 6.238 0 0014.5 4.637zm-8.262 6.238a8.262 8.262 0 1114.774 5.084c-1.07 1.369-1.875 2.642-1.875 3.984v.599a2.22 2.22 0 01-2.22 2.22h-4.834a2.22 2.22 0 01-2.22-2.22v-.6c0-1.341-.806-2.614-1.875-3.983a8.23 8.23 0 01-1.75-5.084z"/></svg><svg viewBox="0 0 26 18" id="burger" xmlns="http://www.w3.org/2000/svg"><path d="M0 16.252c0-.823.667-1.49 1.49-1.49h22.856a1.49 1.49 0 110 2.98H1.491A1.49 1.49 0 010 16.252zM0 9.296c0-.823.667-1.49 1.49-1.49h22.856a1.49 1.49 0 110 2.98H1.491A1.49 1.49 0 010 9.297zM0 2.34C0 1.517.667.85 1.49.85h22.856a1.49 1.49 0 110 2.98H1.491A1.49 1.49 0 010 2.34z"/></svg><svg viewBox="0 0 24 25" id="calendar" xmlns="http://www.w3.org/2000/svg"><path fill-rule="evenodd" clip-rule="evenodd" d="M3 8.008a1 1 0 011-1h16a1 1 0 110 2H4a1 1 0 01-1-1z"/><path fill-rule="evenodd" clip-rule="evenodd" d="M3 5.008a2 2 0 012-2h14a2 2 0 012 2v14a2 2 0 01-2 2H5a2 2 0 01-2-2v-14zm16 0H5v14h14v-14z"/><path fill-rule="evenodd" clip-rule="evenodd" d="M16 1.008a1 1 0 011 1v2a1 1 0 11-2 0v-2a1 1 0 011-1zM8 1.008a1 1 0 011 1v2a1 1 0 11-2 0v-2a1 1 0 011-1z"/></svg><svg viewBox="0 0 21 21" id="calendar2" xmlns="http://www.w3.org/2000/svg"><path d="M14.805 2.755h3.374a.844.844 0 01.844.844v13.497a.844.844 0 01-.844.844H2.995a.844.844 0 01-.844-.844V3.599a.844.844 0 01.844-.844h3.374V1.068h1.687v1.687h5.062V1.068h1.687v1.687zm2.53 6.749H3.838v6.748h13.497V9.504zm-4.218-5.062H8.056V6.13H6.369V4.442h-2.53v3.375h13.496V4.442h-2.53V6.13h-1.688V4.442zm-7.592 6.749h1.687v1.687H5.525v-1.687zm4.218 0h1.687v1.687H9.743v-1.687zm4.218 0h1.687v1.687h-1.687v-1.687z"/></svg><svg viewBox="0 0 108 108" id="cdn" xmlns="http://www.w3.org/2000/svg"><path d="M30.566 69.793l22.296-7.119c1.78-.628 2.722-2.512 2.199-4.187l-6.072-19.156a3.493 3.493 0 00-4.291-2.198L22.4 44.25c-1.78.523-2.722 2.407-2.198 4.187l6.176 19.156c.523 1.78 2.407 2.722 4.187 2.199zm5.653-26.38l1.989 6.386-3.14.942-2.094-6.386 3.245-.941zm-6.386 1.99l3.036 9.63 9.526-3.14-3.036-9.526 6.386-2.094L51.92 59.43l-22.4 7.223-6.072-19.156 6.385-2.094zM63.645 29.7h23.447v-3.35H63.645a6.679 6.679 0 00-6.7 6.7v32.24l-36.323 11.41c-.42.105-.628.628-.524 1.047l.419 1.57c.105.524.628.733 1.047.628l36.951-11.724h5.13c0 6.49 5.233 11.724 11.723 11.724 6.386 0 11.725-5.234 11.725-11.724 0-6.385-5.34-11.724-11.725-11.724-5.338 0-9.735 3.56-11.2 8.375h-3.873V33.05c0-1.78 1.465-3.35 3.35-3.35zm11.723 30.147c4.606 0 8.375 3.769 8.375 8.374 0 4.71-3.769 8.375-8.374 8.375-4.711 0-8.375-3.664-8.375-8.375 0-4.605 3.664-8.374 8.374-8.374z"/></svg><svg viewBox="0 0 24 24" id="chart_pie" xmlns="http://www.w3.org/2000/svg"><path fill-rule="evenodd" clip-rule="evenodd" d="M12 4a8 8 0 100 16 8 8 0 000-16zM2 12C2 6.477 6.477 2 12 2s10 4.477 10 10-4.477 10-10 10S2 17.523 2 12z"/><path fill-rule="evenodd" clip-rule="evenodd" d="M12 2a1 1 0 011 1v8.609l5.735 6.213a1 1 0 01-1.47 1.356l-6-6.5A1 1 0 0111 12V3a1 1 0 011-1z"/><path fill-rule="evenodd" clip-rule="evenodd" d="M11 12a1 1 0 011-1h9a1 1 0 110 2h-9a1 1 0 01-1-1z"/></svg><svg viewBox="0 0 16 17" id="check" xmlns="http://www.w3.org/2000/svg"><path fill-rule="evenodd" clip-rule="evenodd" d="M13.481 4.447a.615.615 0 01-.017.87l-7.071 6.8a.616.616 0 01-.853 0l-3.3-3.173a.615.615 0 11.853-.888l2.873 2.763 6.645-6.389a.615.615 0 01.87.017z"/></svg><svg viewBox="0 0 22 22" id="check_circle" xmlns="http://www.w3.org/2000/svg"><path fill-rule="evenodd" clip-rule="evenodd" d="M16.481 7.447a.615.615 0 01-.017.87l-7.071 6.8a.616.616 0 01-.853 0l-3.3-3.173a.615.615 0 11.853-.888l2.873 2.763 6.645-6.389a.615.615 0 01.87.017z"/><path fill-rule="evenodd" clip-rule="evenodd" d="M11 20.2a9.2 9.2 0 100-18.4 9.2 9.2 0 000 18.4zm0 1.8c6.075 0 11-4.925 11-11S17.075 0 11 0 0 4.925 0 11s4.925 11 11 11z"/></svg><svg viewBox="0 0 40 40" id="chevron_left" xmlns="http://www.w3.org/2000/svg"><path d="M24.057 32.61a1.333 1.333 0 101.886-1.886l-1.886 1.885zM13.333 20l-.943-.943c-.52.52-.52 1.365 0 1.886l.943-.943zm12.61-10.724a1.333 1.333 0 00-1.886-1.885l1.886 1.885zm0 21.448L14.276 19.057l-1.886 1.886 11.667 11.666 1.886-1.885zm-11.667-9.781L25.943 9.276l-1.886-1.885-11.666 11.666 1.885 1.886z"/></svg><svg viewBox="0 0 40 40" id="chevron_right" xmlns="http://www.w3.org/2000/svg"><path d="M15.943 7.39a1.333 1.333 0 00-1.886 1.886l1.886-1.885zM26.667 20l.942.943c.521-.52.521-1.365 0-1.886l-.942.943zm-12.61 10.724a1.333 1.333 0 101.886 1.885l-1.886-1.885zm0-21.448l11.667 11.667 1.886-1.886L15.943 7.391l-1.886 1.885zm11.667 9.781L14.057 30.724l1.886 1.885L27.61 20.943l-1.886-1.886z"/></svg><svg viewBox="0 0 24 24" id="clock" xmlns="http://www.w3.org/2000/svg"><path fill-rule="evenodd" clip-rule="evenodd" d="M12 4a8 8 0 100 16 8 8 0 000-16zM2 12C2 6.477 6.477 2 12 2s10 4.477 10 10-4.477 10-10 10S2 17.523 2 12z"/><path fill-rule="evenodd" clip-rule="evenodd" d="M12 6a1 1 0 011 1v4h4a1 1 0 110 2h-5a1 1 0 01-1-1V7a1 1 0 011-1z"/></svg><svg viewBox="0 0 24 24" id="close" xmlns="http://www.w3.org/2000/svg"><path d="M1.242 1.241a1.756 1.756 0 012.482 0L22.76 20.276a1.756 1.756 0 01-2.483 2.482L1.242 3.724a1.756 1.756 0 010-2.483z"/><path d="M1.241 22.759a1.756 1.756 0 010-2.483L20.276 1.242a1.756 1.756 0 012.482 2.482L3.724 22.76a1.756 1.756 0 01-2.483 0z"/></svg><svg viewBox="0 0 11 21" id="facebook" xmlns="http://www.w3.org/2000/svg"><path d="M8.791 3.368h1.852V.143C10.323.099 9.225 0 7.945 0c-2.67 0-4.499 1.68-4.499 4.766v2.84H.5v3.606h2.946v9.073h3.612v-9.072h2.828l.448-3.605H7.058V5.124c0-1.043.281-1.756 1.733-1.756z"/></svg><svg viewBox="0 0 24 24" id="file_blank" xmlns="http://www.w3.org/2000/svg"><path fill-rule="evenodd" clip-rule="evenodd" d="M6 2h7.563a2 2 0 011.468.641l4.437 4.792A2 2 0 0120 8.792V20a2 2 0 01-2 2H6a2 2 0 01-2-2V4a2 2 0 012-2zm7.563 2H6v16h12V8.792L13.563 4z"/><path fill-rule="evenodd" clip-rule="evenodd" d="M13 2a1 1 0 011 1v5h5a1 1 0 110 2h-5a2 2 0 01-2-2V3a1 1 0 011-1z"/></svg><svg viewBox="0 0 21 21" id="instagram" xmlns="http://www.w3.org/2000/svg"><path fill-rule="evenodd" clip-rule="evenodd" d="M6.888 0h7.666a6.39 6.39 0 016.389 6.388v7.667a6.39 6.39 0 01-6.389 6.388H6.888A6.39 6.39 0 01.5 14.055V6.388A6.39 6.39 0 016.888 0zm7.666 18.527a4.477 4.477 0 004.472-4.472V6.388a4.477 4.477 0 00-4.472-4.471H6.888a4.477 4.477 0 00-4.472 4.471v7.667a4.477 4.477 0 004.472 4.472h7.666z"/><path fill-rule="evenodd" clip-rule="evenodd" d="M5.611 10.222a5.111 5.111 0 1110.222 0 5.111 5.111 0 01-10.222 0zm1.917 0a3.199 3.199 0 003.194 3.194 3.199 3.199 0 003.194-3.194 3.198 3.198 0 00-3.194-3.195 3.198 3.198 0 00-3.194 3.195z"/><circle cx="16.216" cy="4.727" r=".681"/></svg><svg viewBox="0 0 108 108" id="ip" xmlns="http://www.w3.org/2000/svg"><path d="M54.042 26.798c-11.096 0-20.098 9.107-20.098 20.098 0 8.06 2.617 10.468 18.005 32.555.523.628 1.256.942 2.093.942.733 0 1.466-.314 1.99-.942C71.418 57.364 74.14 54.956 74.14 46.896c0-10.991-9.108-20.098-20.099-20.098zm0 49.617c-2.093-2.93-3.978-5.443-5.548-7.746-10.154-14.445-11.2-16.12-11.2-21.773 0-9.212 7.432-16.749 16.748-16.749 9.212 0 16.749 7.537 16.749 16.749 0 5.653-1.152 7.328-11.305 21.773-1.675 2.303-3.455 4.92-5.444 7.746z"/><path d="M46.896 55.829v-16.58h2.71v16.58h-2.71zM64.972 44.262c0 1.731-.567 3.058-1.7 3.98-1.135.922-2.749 1.384-4.843 1.384h-1.724v6.203h-2.71v-16.58h4.774c2.072 0 3.621.424 4.65 1.27 1.035.847 1.553 2.095 1.553 3.743zm-8.267 3.084h1.44c1.391 0 2.412-.242 3.062-.726.65-.483.975-1.24.975-2.267 0-.953-.29-1.664-.873-2.133-.582-.468-1.489-.703-2.721-.703h-1.883v5.83z"/></svg><svg viewBox="0 0 31 31" id="mail" xmlns="http://www.w3.org/2000/svg"><path fill-rule="evenodd" clip-rule="evenodd" d="M3.413 7.62c0-1.197.97-2.167 2.166-2.167h20.318c1.197 0 2.166.97 2.166 2.166v15.239c0 1.196-.97 2.166-2.166 2.166H5.58a2.166 2.166 0 01-2.166-2.166V7.619zm2.166-.374a.373.373 0 00-.373.373v15.239c0 .206.167.373.373.373h20.318a.373.373 0 00.374-.373V7.619a.373.373 0 00-.374-.373H5.58z"/><path fill-rule="evenodd" clip-rule="evenodd" d="M3.594 7.079a.896.896 0 011.256-.175l11.199 8.468L26.607 6.92a.896.896 0 011.12 1.4l-11.102 8.889a.896.896 0 01-1.101.015L3.769 8.334a.896.896 0 01-.175-1.255z"/></svg><svg viewBox="0 0 31 31" id="map_pin" xmlns="http://www.w3.org/2000/svg"><path fill-rule="evenodd" clip-rule="evenodd" d="M15.738 9.785a1.643 1.643 0 100 3.287 1.643 1.643 0 000-3.287zm-3.436 1.644a3.436 3.436 0 116.872 0 3.436 3.436 0 01-6.872 0z"/><path fill-rule="evenodd" clip-rule="evenodd" d="M15.738 4.706a8.043 8.043 0 00-5.655 2.316A7.846 7.846 0 007.745 12.6c0 3.63 2.05 6.939 4.222 9.408a27.866 27.866 0 003.771 3.542 27.856 27.856 0 003.771-3.542c2.172-2.47 4.222-5.778 4.222-9.408 0-2.09-.84-4.098-2.338-5.58a8.043 8.043 0 00-5.655-2.315zm0 21.961l-.51.737-.003-.002-.007-.005-.023-.016a16.973 16.973 0 01-.38-.279 29.667 29.667 0 01-4.195-3.91c-2.273-2.585-4.667-6.309-4.667-10.591a9.639 9.639 0 012.87-6.854 9.836 9.836 0 016.915-2.834 9.836 9.836 0 016.916 2.834 9.639 9.639 0 012.87 6.854c0 4.282-2.395 8.006-4.668 10.592a29.667 29.667 0 01-4.196 3.91 16.973 16.973 0 01-.38.278l-.022.016-.006.005-.002.001s-.002.001-.512-.736zm0 0l.51.737a.897.897 0 01-1.02 0l.51-.737z"/></svg><svg viewBox="0 0 31 30" id="phone" xmlns="http://www.w3.org/2000/svg"><path d="M12.567 5.247l-.829.342.83-.342zm1.339 3.249l.829-.342-.83.342zm-.407 2.493l.68.584-.68-.584zm-.72.84l.68.583-.68-.584zm.155 3.32l-.625.644.625-.644zm2.434 2.363l.624-.643-.624.643zm3.422.15l-.564-.696.564.697zm.864-.698l.564.697-.564-.698zm2.57-.395l-.325.835.324-.835zm3.346 1.299l.325-.836-.325.836zM6.715 4.594h3.494V2.8H6.715v1.793zm5.023.995l1.34 3.248 1.657-.683-1.34-3.248-1.657.683zm1.08 4.816l-.72.84 1.36 1.167.721-.839-1.36-1.168zm-.509 5.388l2.435 2.362 1.248-1.286-2.434-2.363-1.249 1.287zm7.044 2.567l.865-.7-1.127-1.393-.865.699 1.127 1.394zm2.546-.956l3.347 1.3.649-1.672-3.347-1.3-.649 1.672zm4.371 2.753v3.39h1.793v-3.39H26.27zm-1.51 4.83c-10.825 0-19.554-8.511-19.554-18.954H3.413c0 11.483 9.583 20.746 21.348 20.746v-1.793zm1.51-1.44c0 .77-.65 1.44-1.51 1.44v1.792c1.8 0 3.303-1.422 3.303-3.232H26.27zm-1.024-4.844c.631.246 1.024.828 1.024 1.454h1.793c0-1.39-.871-2.621-2.168-3.125l-.65 1.671zm-5.028-1.043a1.704 1.704 0 011.681-.256l.649-1.671a3.497 3.497 0 00-3.457.534l1.127 1.393zm-5.474.495a3.493 3.493 0 004.61.205l-1.128-1.394a1.7 1.7 0 01-2.234-.097l-1.248 1.286zm-2.646-6.91a3.308 3.308 0 00.211 4.548l1.249-1.287a1.516 1.516 0 01-.1-2.094l-1.36-1.168zm.98-2.408a1.512 1.512 0 01-.26 1.568l1.361 1.168a3.304 3.304 0 00.556-3.419l-1.658.683zm-2.869-4.243c.688 0 1.287.406 1.53.995l1.657-.683C12.867 3.623 11.598 2.8 10.209 2.8v1.793zM6.715 2.8c-1.798 0-3.302 1.422-3.302 3.232h1.793c0-.77.65-1.44 1.51-1.44V2.802z"/></svg><svg viewBox="0 0 108 108" id="php" xmlns="http://www.w3.org/2000/svg"><path d="M35.549 47.985c0 3.098-1.06 5.485-3.182 7.16-2.108 1.66-5.13 2.49-9.066 2.49h-3.6v12.039h-3.56V39.066h7.935c7.648 0 11.473 2.973 11.473 8.919zM19.7 54.579h3.204c3.154 0 5.436-.51 6.846-1.528 1.41-1.019 2.114-2.652 2.114-4.899 0-2.024-.663-3.531-1.989-4.522-1.326-.991-3.391-1.487-6.197-1.487H19.7V54.58zm45.515 15.095h-3.56V55.27h-16.12v14.404h-3.559V39.066h3.56v13.022h16.12V39.066h3.559v30.608zm27.823-21.69c0 3.1-1.06 5.486-3.182 7.16-2.107 1.662-5.13 2.492-9.065 2.492H77.19v12.038h-3.56V39.066h7.936c7.648 0 11.472 2.973 11.472 8.919zM77.19 54.58h3.203c3.154 0 5.436-.51 6.846-1.528 1.41-1.019 2.115-2.652 2.115-4.899 0-2.024-.663-3.531-1.99-4.522-1.325-.991-3.39-1.487-6.196-1.487H77.19V54.58z"/></svg><svg viewBox="0 0 21 22" id="q" xmlns="http://www.w3.org/2000/svg"><path d="M7 7.423c.05-.977.388-1.778 1.013-2.405.625-.627 1.467-.94 2.525-.94 1.008 0 1.835.3 2.482.904.654.604.98 1.36.98 2.272 0 .639-.15 1.204-.447 1.695-.293.485-.738.929-1.335 1.33-.551.374-.926.717-1.123 1.03-.197.308-.295.71-.295 1.207v.666H9.677v-.835c-.006-.58.12-1.076.38-1.49.259-.414.686-.826 1.283-1.234.535-.372.912-.733 1.132-1.082.225-.35.337-.76.337-1.234 0-.633-.216-1.153-.65-1.562-.433-.408-.988-.612-1.663-.612-.676 0-1.23.207-1.664.621-.433.414-.678.97-.734 1.669H7zm3.25 9.654a.74.74 0 01-.556-.24.818.818 0 01-.228-.585c0-.237.076-.435.228-.595a.74.74 0 01.557-.24c.225 0 .414.08.566.24.152.16.228.358.228.595 0 .23-.076.426-.228.586a.75.75 0 01-.566.24z"/><path fill-rule="evenodd" clip-rule="evenodd" d="M10.5 20.077a9.5 9.5 0 100-19 9.5 9.5 0 000 19zm0 1c5.799 0 10.5-4.7 10.5-10.5 0-5.799-4.701-10.5-10.5-10.5S0 4.778 0 10.577c0 5.8 4.701 10.5 10.5 10.5z"/></svg><svg viewBox="0 0 24 24" id="settings" xmlns="http://www.w3.org/2000/svg"><path fill-rule="evenodd" clip-rule="evenodd" d="M12 9a3 3 0 100 6 3 3 0 000-6zm-5 3a5 5 0 1110 0 5 5 0 01-10 0z"/><path fill-rule="evenodd" clip-rule="evenodd" d="M7.86 1.681a2 2 0 012.034.015l1.526.917a1 1 0 00.515.142h.132a1 1 0 00.513-.142l.514.858-.514-.858 1.52-.91a2 2 0 012.025-.016l-.499.866.5-.866 2.736 1.577a2 2 0 011.001 1.766l-.03 1.779a1 1 0 00.134.517l-.866.5.866-.5.066.114a1 1 0 00.38.374l-.486.873.486-.873 1.55.862a2 2 0 011.029 1.744l.007 3.152a2 2 0 01-1.03 1.753l-1.556.862a1 1 0 00-.38.374l-.066.113-.866-.5.866.5a1 1 0 00-.134.517l.03 1.78a2 2 0 01-.995 1.764L16.14 22.32a2 2 0 01-2.034-.016l-1.526-.916a1 1 0 00-.515-.142h-.131a1 1 0 00-.514.142l-1.52.91a2 2 0 01-2.025.016l-2.737-1.577a2 2 0 01-1-1.766l.029-1.773a1 1 0 00-.132-.514l-.07-.122.868-.496-.868.496a1 1 0 00-.381-.377l-1.548-.86.486-.873-.486.872A2 2 0 011.01 13.58L1 10.428a2 2 0 011.031-1.754l1.555-.861.485.874-.485-.874a1 1 0 00.381-.375l.866.5-.866-.5.065-.112a1 1 0 00.134-.517l-.03-1.78a2 2 0 01.996-1.764L7.86 1.68zm1.005 1.73L6.137 4.994l.03 1.781a3 3 0 01-.402 1.551l-.866-.5.866.5-.065.113a3 3 0 01-1.144 1.123l-1.555.862.008 3.152 1.547.86a3 3 0 011.145 1.132l.07.121a3 3 0 01.396 1.541l-.03 1.773 2.736 1.577 1.52-.91a3 3 0 011.54-.425h.132a3 3 0 011.545.427l1.526.917 2.727-1.584-.03-1.78a3 3 0 01.402-1.552l.065-.112.866.5-.866-.5a3 3 0 011.144-1.123l1.555-.862-.007-3.152-1.552-.863a3 3 0 01-1.139-1.12l.866-.501-.866.5-.066-.114a3 3 0 01-.401-1.55l.03-1.78-2.737-1.576-1.52.91a3 3 0 01-1.54.425h-.132a3 3 0 01-1.544-.428l-1.526-.916z"/></svg><svg viewBox="0 0 108 108" id="shield" xmlns="http://www.w3.org/2000/svg"><path d="M76.148 35.41l-20.25-8.438c-.527-.211-1.37-.317-1.898-.317-.633 0-1.477.106-2.004.317l-20.25 8.438c-1.898.843-3.058 2.636-3.058 4.64 0 20.988 12.023 35.438 23.308 40.184a5.01 5.01 0 003.902 0c9.07-3.797 23.414-16.77 23.414-40.184 0-2.004-1.265-3.797-3.163-4.64zM54.633 77.07c-.422.21-.95.21-1.371 0-10.23-4.114-21.2-18.457-21.2-37.02 0-.633.317-1.265.95-1.476l20.25-8.438c.422-.211.949-.211 1.37 0l20.25 8.438c.634.21.95.843.95 1.476.106 18.563-10.863 32.906-21.2 37.02z"/></svg><svg viewBox="0 0 24 25" id="show" xmlns="http://www.w3.org/2000/svg"><path fill-rule="evenodd" clip-rule="evenodd" d="M3.292 12.008a19.64 19.64 0 002.275 2.23c1.745 1.447 4.02 2.77 6.433 2.77 2.413 0 4.688-1.323 6.433-2.77a19.645 19.645 0 002.275-2.23 19.655 19.655 0 00-2.275-2.23c-1.745-1.447-4.02-2.77-6.433-2.77-2.413 0-4.688 1.323-6.433 2.77a19.65 19.65 0 00-2.275 2.23zm18.708 0c.802-.598.801-.598.801-.599l-.002-.002-.004-.005-.012-.017a11.606 11.606 0 00-.21-.265 21.652 21.652 0 00-2.864-2.882c-1.874-1.553-4.6-3.23-7.709-3.23-3.11 0-5.835 1.677-7.71 3.23a21.647 21.647 0 00-2.863 2.882 12.152 12.152 0 00-.21.265l-.012.017-.004.005-.002.002.801.599-.801-.598a1 1 0 000 1.196L2 12.008l-.801.598.002.003.004.005.012.017a6.888 6.888 0 00.21.265 21.64 21.64 0 002.864 2.882c1.874 1.553 4.6 3.23 7.709 3.23 3.11 0 5.835-1.677 7.71-3.23a21.645 21.645 0 002.863-2.882 12.753 12.753 0 00.21-.265l.012-.017.004-.005.002-.002-.801-.6zm0 0l.802.598a1.001 1.001 0 000-1.197l-.802.599z"/><path fill-rule="evenodd" clip-rule="evenodd" d="M12 11.008a1 1 0 100 2 1 1 0 000-2zm-3 1a3 3 0 116 0 3 3 0 01-6 0z"/></svg><svg viewBox="0 0 105 106" id="support" xmlns="http://www.w3.org/2000/svg"><path d="M62.344 62.406h-.513c-1.23 0-2.46.308-3.691.718-1.538.513-4.102 1.025-5.742 1.025-1.539 0-4.102-.512-5.64-1.025a11.612 11.612 0 00-3.692-.615h-.41c-7.28 0-13.125 5.844-13.125 13.022 0 1.846 1.436 3.281 3.282 3.281h39.374c1.744 0 3.282-1.435 3.282-3.28 0-7.179-5.947-13.126-13.125-13.126zM32.812 75.531c0-5.332 4.41-9.741 9.844-9.844h.41c.718 0 1.538.206 2.564.616 1.846.615 4.922 1.025 6.767 1.025 1.949 0 5.025-.41 6.87-1.025 1.026-.41 1.846-.615 2.564-.615h.513c5.332.102 9.741 4.511 9.843 9.843H32.813zm1.641-26.25c.82 0 1.64-.718 1.64-1.64V46c0-9.023 7.281-16.406 16.407-16.406 9.023 0 16.406 7.383 16.406 16.406v1.64c-.102 4.615-3.691 8.204-8.203 8.204h-3.281c0-1.743-1.538-3.282-3.281-3.282h-3.282c-1.845 0-3.28 1.539-3.28 3.282 0 1.846 1.435 3.281 3.28 3.281h9.844c6.255 0 11.382-5.127 11.484-11.484V46c0-10.767-8.92-19.688-19.687-19.688-10.87 0-19.688 8.921-19.688 19.688v1.64c0 .923.718 1.641 1.641 1.641zM52.5 36.156c5.435 0 9.741 4.41 9.741 9.844 0 2.05-1.128 5.024-2.46 6.563h.922c1.436 0 3.281-1.026 4.102-2.256.512-1.333.82-2.769.82-4.307 0-7.178-5.947-13.125-13.125-13.125-7.28 0-13.125 5.947-13.125 13.125 0 4.204 1.948 7.793 4.922 10.254v-.41c0-.923.41-2.359.82-3.282-1.333-1.538-2.563-4.409-2.563-6.562 0-5.435 4.409-9.844 9.843-9.844h.103z"/></svg><svg viewBox="0 0 106 107" id="traffic" xmlns="http://www.w3.org/2000/svg"><path d="M26.5 39.808c0 .725.518 1.242 1.242 1.242h10.041l8.8 9.627 2.276-2.484-9.316-10.04c-.207-.208-.518-.415-.932-.415H27.742c-.724 0-1.242.621-1.242 1.242v.828zM78.465 68.69c1.346-1.242 1.346-3.416 0-4.658l-6.625-6.625c-2.07-2.07-5.59-.621-5.59 2.277v5.383h-1.76l-8.902-9.523-2.277 2.484 9.316 10.041c.207.207.621.31.932.31h2.691v4.555c0 3.002 3.52 4.451 5.59 2.381l6.625-6.625zm-2.07-2.588c.207.104.207.414 0 .518l-6.625 6.625c-.207.31-.622.103-.622-.31v-13.25c0-.311.415-.518.622-.208l6.625 6.625zm2.07-23.912c1.346-1.242 1.346-3.416 0-4.658l-6.625-6.625c-2.07-2.07-5.59-.621-5.59 2.277v4.555h-2.691c-.414 0-.725.207-.932.414L37.783 65.066h-10.04c-.725 0-1.243.621-1.243 1.242v.829c0 .724.518 1.242 1.242 1.242h10.87c.413 0 .724-.104.93-.31L64.49 41.05h1.76v5.383c0 3.002 3.52 4.452 5.59 2.381l6.625-6.625zm-2.07-2.588c.207.104.207.414 0 .518l-6.625 6.625c-.207.31-.622.103-.622-.31v-13.25c0-.311.415-.518.622-.208l6.625 6.625z"/></svg><svg viewBox="0 0 26 20" id="twitter" xmlns="http://www.w3.org/2000/svg"><path d="M25.5 2.368c-.93.401-1.92.667-2.953.797A5.033 5.033 0 0024.8.375a10.34 10.34 0 01-3.25 1.222A5.173 5.173 0 0017.808 0c-2.838 0-5.122 2.268-5.122 5.048 0 .4.034.784.118 1.15A14.583 14.583 0 012.24.92a5.021 5.021 0 00-.701 2.55c0 1.748.914 3.298 2.276 4.195A5.122 5.122 0 011.5 7.043v.055c0 2.453 1.776 4.49 4.106 4.959a5.191 5.191 0 01-1.344.166 4.6 4.6 0 01-.97-.086 5.164 5.164 0 004.789 3.515 10.4 10.4 0 01-6.355 2.153c-.42 0-.823-.019-1.226-.07A14.593 14.593 0 008.362 20c9.432 0 14.588-7.692 14.588-14.36 0-.223-.008-.438-.019-.652a10.14 10.14 0 002.569-2.62z"/></svg><svg viewBox="0 0 24 24" id="сhart_pie" xmlns="http://www.w3.org/2000/svg"><path d="M12 21a9 9 0 100-18 9 9 0 000 18z"/><path d="M18 18.5L12 12V3M12 12h9"/></svg><svg viewBox="0 0 24 24" id="сlock" xmlns="http://www.w3.org/2000/svg"><path d="M12 21a9 9 0 100-18 9 9 0 000 18z"/><path d="M12 7v5h5"/></svg></svg>